<svg xmlns="http://www.w3.org/2000/svg" xmlns:xlink="http://www.w3.org/1999/xlink" xmlns:lucid="lucid" width="1622" height="1079.6"><g transform="translate(1421.00000003638 660)" lucid:page-tab-id="0_0"><path d="M-1500-1500h7500v3000h-7500z" fill="#fff"/><path d="M-860-615.4a6 6 0 0 1 6-6h568a6 6 0 0 1 6 6v1028a6 6 0 0 1-6 6h-568a6 6 0 0 1-6-6z" stroke="#000" stroke-width="2" fill="#fff"/><path d="M-290-611.4h-15v20h15z" stroke="#000" fill="#fff"/><path d="M-300-608.07h-10v3.34h10zm0 10h-10v3.34h10z" stroke="#000" fill="#fff"/><path d="M-820 4.6a6 6 0 0 1 6-6h468a6 6 0 0 1 6 6v108a6 6 0 0 1-6 6h-468a6 6 0 0 1-6-6z" stroke="#000" stroke-width="2" fill="#fff"/><path d="M-350 8.6h-15v20h15z" stroke="#000" fill="#fff"/><path d="M-360 11.94h-10v3.33h10zm0 10h-10v3.33h10z" stroke="#000" fill="#fff"/><path d="M-800 24.6a6 6 0 0 1 6-6h388a6 6 0 0 1 6 6v68a6 6 0 0 1-6 6h-388a6 6 0 0 1-6-6z" stroke="#000" stroke-width="2" fill="#fff"/><path d="M-410 28.6h-15v20h15z" stroke="#000" fill="#fff"/><path d="M-420 31.93h-10v3.34h10zm0 10h-10v3.34h10z" stroke="#000" fill="#fff"/><use xlink:href="#a" transform="matrix(1,0,0,1,-800,18.602098050889253) translate(46.83865017361114 49.24305555555555)"/><use xlink:href="#b" transform="matrix(1,0,0,1,-800,18.602098050889253) translate(244.48784722222223 49.24305555555555)"/><path d="M-720-35.4a6 6 0 0 1 6-6h268a6 6 0 0 1 6 6v26.6a6 6 0 0 1-6 6h-268a6 6 0 0 1-6-6z" fill="none"/><use xlink:href="#c" transform="matrix(1,0,0,1,-720,-41.39790194911075) translate(4.982638888888943 27.66460503472222)"/><use xlink:href="#d" transform="matrix(1,0,0,1,-720,-41.39790194911075) translate(196.28645833333331 27.66460503472222)"/><path d="M-819.25-375.4a6 6 0 0 1 6-6h468a6 6 0 0 1 6 6v308a6 6 0 0 1-6 6h-468a6 6 0 0 1-6-6z" stroke="#000" stroke-width="2" fill="#fff"/><path d="M-349.25-371.4h-15v20h15z" stroke="#000" fill="#fff"/><path d="M-359.25-368.06h-10v3.33h10zm0 10h-10v3.33h10z" stroke="#000" fill="#fff"/><path d="M-700-415.4a6 6 0 0 1 6-6h228a6 6 0 0 1 6 6v28a6 6 0 0 1-6 6h-228a6 6 0 0 1-6-6z" fill="none"/><use xlink:href="#e" transform="matrix(1,0,0,1,-700,-421.39790194911075) translate(52.436523437500014 28.16460503472222)"/><use xlink:href="#f" transform="matrix(1,0,0,1,-700,-421.39790194911075) translate(108.83257378472223 28.16460503472222)"/><path d="M-800-355.4a6 6 0 0 1 6-6h388a6 6 0 0 1 6 6v68a6 6 0 0 1-6 6h-388a6 6 0 0 1-6-6z" stroke="#000" stroke-width="2" fill="#fff"/><path d="M-410-351.4h-15v20h15z" stroke="#000" fill="#fff"/><path d="M-420-348.06h-10v3.33h10zm0 10h-10v3.33h10z" stroke="#000" fill="#fff"/><use xlink:href="#g" transform="matrix(1,0,0,1,-800,-361.39790194911075) translate(117.25151909722224 49.24305555555555)"/><use xlink:href="#b" transform="matrix(1,0,0,1,-800,-361.39790194911075) translate(174.07497829861111 49.24305555555555)"/><path d="M-800-255.4a6 6 0 0 1 6-6h388a6 6 0 0 1 6 6v68a6 6 0 0 1-6 6h-388a6 6 0 0 1-6-6z" stroke="#000" stroke-width="2" fill="#fff"/><path d="M-410-251.4h-15v20h15z" stroke="#000" fill="#fff"/><path d="M-420-248.06h-10v3.33h10zm0 10h-10v3.33h10z" stroke="#000" fill="#fff"/><use xlink:href="#h" transform="matrix(1,0,0,1,-800,-261.39790194911075) translate(102.91140407986113 49.24305555555555)"/><use xlink:href="#b" transform="matrix(1,0,0,1,-800,-261.39790194911075) translate(188.41509331597223 49.24305555555555)"/><path d="M-800-155.4a6 6 0 0 1 6-6h388a6 6 0 0 1 6 6v68a6 6 0 0 1-6 6h-388a6 6 0 0 1-6-6z" stroke="#000" stroke-width="2" fill="#fff"/><path d="M-410-151.4h-15v20h15z" stroke="#000" fill="#fff"/><path d="M-420-148.06h-10v3.33h10zm0 10h-10v3.33h10z" stroke="#000" fill="#fff"/><use xlink:href="#i" transform="matrix(1,0,0,1,-800,-161.39790194911075) translate(85.22325303819446 49.24305555555555)"/><use xlink:href="#b" transform="matrix(1,0,0,1,-800,-161.39790194911075) translate(206.10324435763889 49.24305555555555)"/><path d="M-820-555.4a6 6 0 0 1 6-6h468a6 6 0 0 1 6 6v106.6a6 6 0 0 1-6 6h-468a6 6 0 0 1-6-6z" stroke="#000" stroke-width="2" fill="#fff"/><path d="M-350-551.4h-15v20h15z" stroke="#000" fill="#fff"/><path d="M-360-548.07h-10v3.34h10zm0 10h-10v3.34h10z" stroke="#000" fill="#fff"/><path d="M-800-536.8a6 6 0 0 1 6-6h388a6 6 0 0 1 6 6v69.4a6 6 0 0 1-6 6h-388a6 6 0 0 1-6-6z" stroke="#000" stroke-width="2" fill="#fff"/><path d="M-410-532.8h-15v20h15z" stroke="#000" fill="#fff"/><path d="M-420-529.46h-10v3.33h10zm0 10h-10v3.33h10z" stroke="#000" fill="#fff"/><use xlink:href="#j" transform="matrix(1,0,0,1,-800,-542.7958038982215) translate(113.3500434027778 49.93055555555555)"/><use xlink:href="#b" transform="matrix(1,0,0,1,-800,-542.7958038982215) translate(177.97645399305554 49.93055555555555)"/><path d="M-720-595.4a6 6 0 0 1 6-6h268a6 6 0 0 1 6 6v26.6a6 6 0 0 1-6 6h-268a6 6 0 0 1-6-6z" fill="none"/><use xlink:href="#k" transform="matrix(1,0,0,1,-720,-601.3979019491107) translate(69.16520182291669 27.66460503472222)"/><use xlink:href="#d" transform="matrix(1,0,0,1,-720,-601.3979019491107) translate(132.10389539930554 27.66460503472222)"/><path d="M-820 184.6a6 6 0 0 1 6-6h468a6 6 0 0 1 6 6v208a6 6 0 0 1-6 6h-468a6 6 0 0 1-6-6z" stroke="#000" stroke-width="2" fill="#fff"/><path d="M-350 188.6h-15v20h15z" stroke="#000" fill="#fff"/><path d="M-360 191.94h-10v3.33h10zm0 10h-10v3.33h10z" stroke="#000" fill="#fff"/><path d="M-800 204.6a6 6 0 0 1 6-6h388a6 6 0 0 1 6 6v68a6 6 0 0 1-6 6h-388a6 6 0 0 1-6-6z" stroke="#000" stroke-width="2" fill="#fff"/><path d="M-410 208.6h-15v20h15z" stroke="#000" fill="#fff"/><path d="M-420 211.94h-10v3.33h10zm0 10h-10v3.33h10z" stroke="#000" fill="#fff"/><use xlink:href="#l" transform="matrix(1,0,0,1,-800,198.60209805088925) translate(121.0434027777778 49.24305555555555)"/><use xlink:href="#b" transform="matrix(1,0,0,1,-800,198.60209805088925) translate(170.28309461805557 49.24305555555555)"/><path d="M-720 144.6a6 6 0 0 1 6-6h268a6 6 0 0 1 6 6v26.6a6 6 0 0 1-6 6h-268a6 6 0 0 1-6-6z" fill="none"/><use xlink:href="#m" transform="matrix(1,0,0,1,-720,138.60209805088937) translate(42.928873697916686 27.66460503472222)"/><use xlink:href="#f" transform="matrix(1,0,0,1,-720,138.60209805088937) translate(158.34022352430554 27.66460503472222)"/><path d="M-800 306a6 6 0 0 1 6-6h388a6 6 0 0 1 6 6v68a6 6 0 0 1-6 6h-388a6 6 0 0 1-6-6z" stroke="#000" stroke-width="2" fill="#fff"/><path d="M-410 310h-15v20h15z" stroke="#000" fill="#fff"/><path d="M-420 313.33h-10v3.34h10zm0 10h-10v3.34h10z" stroke="#000" fill="#fff"/><use xlink:href="#n" transform="matrix(1,0,0,1,-800,300) translate(129.53130425347223 49.24305555555555)"/><use xlink:href="#o" transform="matrix(1,0,0,1,-800,300) translate(181.13818359375 49.24305555555555)"/><path d="M-1420 4.6a6 6 0 0 1 6-6h408a6 6 0 0 1 6 6v108a6 6 0 0 1-6 6h-408a6 6 0 0 1-6-6z" stroke="#000" stroke-width="2" fill="#fff"/><path d="M-1010 8.6h-15v20h15z" stroke="#000" fill="#fff"/><path d="M-1020 11.94h-10v3.33h10zm0 10h-10v3.33h10z" stroke="#000" fill="#fff"/><path d="M-1400 24.6a6 6 0 0 1 6-6h328a6 6 0 0 1 6 6v68a6 6 0 0 1-6 6h-328a6 6 0 0 1-6-6z" stroke="#000" stroke-width="2" fill="#fff"/><path d="M-1070 28.6h-15v20h15z" stroke="#000" fill="#fff"/><path d="M-1080 31.93h-10v3.34h10zm0 10h-10v3.34h10z" stroke="#000" fill="#fff"/><use xlink:href="#p" transform="matrix(1,0,0,1,-1400,18.602098050889253) translate(146.13530815972223 49.24305555555555)"/><path d="M-1350-34a6 6 0 0 1 6-6h268a6 6 0 0 1 6 6v26.6a6 6 0 0 1-6 6h-268a6 6 0 0 1-6-6z" fill="none"/><use xlink:href="#q" transform="matrix(1,0,0,1,-1350,-40) translate(0.9386935763889142 27.66460503472222)"/><use xlink:href="#r" transform="matrix(1,0,0,1,-1350,-40) translate(70.5844184027778 27.66460503472222)"/><use xlink:href="#s" transform="matrix(1,0,0,1,-1350,-40) translate(199.22352430555557 27.66460503472222)"/><path d="M-160 304.6a6 6 0 0 1 6-6h348a6 6 0 0 1 6 6v68a6 6 0 0 1-6 6h-348a6 6 0 0 1-6-6z" stroke="#000" stroke-width="2" fill="#fff"/><path d="M190 308.6h-15v20h15z" stroke="#000" fill="#fff"/><path d="M180 311.94h-10v3.33h10zm0 10h-10v3.33h10z" stroke="#000" fill="#fff"/><use xlink:href="#n" transform="matrix(1,0,0,1,-160,298.60209805088925) translate(87.36480902777781 49.24305555555555)"/><use xlink:href="#b" transform="matrix(1,0,0,1,-160,298.60209805088925) translate(138.97168836805557 49.24305555555555)"/><path d="M-160-555.9a6 6 0 0 1 6-6h348a6 6 0 0 1 6 6v68a6 6 0 0 1-6 6h-348a6 6 0 0 1-6-6z" stroke="#000" stroke-width="2" fill="#fff"/><path d="M190-551.9h-15v20h15z" stroke="#000" fill="#fff"/><path d="M180-548.57h-10v3.34h10zm0 10h-10v3.34h10z" stroke="#000" fill="#fff"/><use xlink:href="#j" transform="matrix(1,0,0,1,-160,-561.8979024180808) translate(81.37560546875002 49.24305555555555)"/><use xlink:href="#t" transform="matrix(1,0,0,1,-160,-561.8979024180808) translate(146.00201605902777 49.24305555555555)"/><path d="M-160-115.4a6 6 0 0 1 6-6h348a6 6 0 0 1 6 6v68a6 6 0 0 1-6 6h-348a6 6 0 0 1-6-6z" stroke="#000" stroke-width="2" fill="#fff"/><path d="M190-111.4h-15v20h15z" stroke="#000" fill="#fff"/><path d="M180-108.06h-10v3.33h10zm0 10h-10v3.33h10z" stroke="#000" fill="#fff"/><use xlink:href="#u" transform="matrix(1,0,0,1,-160,-121.39790194911075) translate(59.06267144097223 49.24305555555555)"/><use xlink:href="#t" transform="matrix(1,0,0,1,-160,-121.39790194911075) translate(168.31495008680554 49.24305555555555)"/><path d="M-194.5-521.67h16.4a.1.1 0 0 0 .1-.12.1.1 0 0 1 .1-.1h.52" stroke="#3a414a" fill="none"/><path d="M-194.5-521.2h-.5v-.95h.5z" stroke="#3a414a" stroke-width=".05" fill="#3a414a"/><path d="M-162.62-521.9l-14.26 4.64v-9.27z" stroke="#3a414a" fill="#3a414a"/><path d="M-338.5-521.9h46.4a.1.1 0 0 1 .1.12.1.1 0 0 0 .1.1h46.4" stroke="#3a414a" fill="none"/><path d="M-338.5-521.42h-.5v-.95h.5zM-245-521.2h-.5v-.95h.5z" stroke="#3a414a" stroke-width=".05" fill="#3a414a"/><path d="M-338.5 338.83h93" stroke="#3a414a" fill="none"/><path d="M-338.5 339.3h-.5v-.95h.5zM-245 339.3h-.5v-.95h.5z" stroke="#3a414a" stroke-width=".05" fill="#3a414a"/><path d="M-194.5 338.83h16.4a.1.1 0 0 0 .1-.12.1.1 0 0 1 .1-.1h.52" stroke="#3a414a" fill="none"/><path d="M-194.5 339.3h-.5v-.95h.5z" stroke="#3a414a" stroke-width=".05" fill="#3a414a"/><path d="M-162.62 338.6l-14.26 4.64v-9.27z" stroke="#3a414a" fill="#3a414a"/><path d="M-194.5-81.17h16.4a.1.1 0 0 0 .1-.1v-.02a.1.1 0 0 1 .1-.1h.52" stroke="#3a414a" fill="none"/><path d="M-194.5-80.7h-.5v-.95h.5z" stroke="#3a414a" stroke-width=".05" fill="#3a414a"/><path d="M-162.62-81.4l-14.26 4.64v-9.27z" stroke="#3a414a" fill="#3a414a"/><path d="M-338.5-502.1h20.5a6 6 0 0 1 6 6v408.93a6 6 0 0 0 6 6h60.5" stroke="#3a414a" fill="none"/><path d="M-338.5-501.62h-.5v-.95h.5zM-245-80.7h-.5v-.95h.5z" stroke="#3a414a" stroke-width=".05" fill="#3a414a"/><path d="M-337.75-221.4H-318a6 6 0 0 1 6 6v128a6 6 0 0 0 6 6h144.5" stroke="#3a414a" fill="none"/><path d="M-337.74-220.92h-.5v-.95h.5zM-161-80.92h-.5v-.95h.5z" stroke="#3a414a" stroke-width=".05" fill="#3a414a"/><path d="M-338.5 58.6h20.5a6 6 0 0 0 6-6v-128a6 6 0 0 1 6-6h144.5" stroke="#3a414a" fill="none"/><path d="M-338.5 59.08h-.5v-.95h.5zM-161-80.92h-.5v-.95h.5z" stroke="#3a414a" stroke-width=".05" fill="#3a414a"/><path d="M-338.5 288.6h20.5a6 6 0 0 0 6-6v-358a6 6 0 0 1 6-6h144.5" stroke="#3a414a" fill="none"/><path d="M-338.5 289.08h-.5v-.95h.5zM-161-80.92h-.5v-.95h.5z" stroke="#3a414a" stroke-width=".05" fill="#3a414a"/><path d="M-195-521.67h-11M-240-521.67h-5" stroke="#000" fill="none"/><path d="M-220-507.67c-7.73 0-14-6.27-14-14s6.27-14 14-14 14 6.27 14 14-6.27 14-14 14z" stroke="#000" fill="#fff"/><path d="M-220-541.67c-11.05 0-20 8.95-20 20 0 11.04 8.95 20 20 20" stroke="#000" fill="none"/><path d="M-195-521.67a.8.8 0 0 1-.8.8h-9.4a.8.8 0 0 1-.8-.8.8.8 0 0 1 .8-.8h9.4a.8.8 0 0 1 .8.8zM-760-654a6 6 0 0 1 6-6h388a6 6 0 0 1 6 6v26.6a6 6 0 0 1-6 6h-388a6 6 0 0 1-6-6z" fill="none"/><use xlink:href="#v" transform="matrix(1,0,0,1,-759.9999999999999,-660) translate(15.293619791666686 27.66460503472222)"/><use xlink:href="#r" transform="matrix(1,0,0,1,-759.9999999999999,-660) translate(93.72862413194444 27.66460503472222)"/><use xlink:href="#w" transform="matrix(1,0,0,1,-759.9999999999999,-660) translate(222.36773003472223 27.66460503472222)"/><path d="M-195-81.17h-11M-240-81.17h-5" stroke="#000" fill="none"/><path d="M-220-67.17c-7.73 0-14-6.27-14-14s6.27-14 14-14 14 6.27 14 14-6.27 14-14 14z" stroke="#000" fill="#fff"/><path d="M-220-101.17c-11.05 0-20 8.95-20 20 0 11.04 8.95 20 20 20" stroke="#000" fill="none"/><path d="M-195-81.17a.8.8 0 0 1-.8.8h-9.4a.8.8 0 0 1-.8-.8.8.8 0 0 1 .8-.8h9.4a.8.8 0 0 1 .8.8z" fill="none"/><path d="M-195 338.83h-11M-240 338.83h-5" stroke="#000" fill="none"/><path d="M-220 352.83c-7.73 0-14-6.27-14-14s6.27-14 14-14 14 6.27 14 14-6.27 14-14 14z" stroke="#000" fill="#fff"/><path d="M-220 318.83c-11.05 0-20 8.95-20 20 0 11.04 8.95 20 20 20" stroke="#000" fill="none"/><path d="M-195 338.83a.8.8 0 0 1-.8.8h-9.4a.8.8 0 0 1-.8-.8.8.8 0 0 1 .8-.8h9.4a.8.8 0 0 1 .8.8z" fill="none"/><path d="M-760.4-382.9v-1.82m0-3.65v-3.65m0-3.65v-3.65m0-3.65v-3.65m0-3.65v-3.49m0-3.33v-3.32m0-3.33v-1.66" stroke="#3a414a" fill="none"/><path d="M-759.92-382.4h-.95v-.5h.95z" stroke="#3a414a" stroke-width=".05" fill="#3a414a"/><path d="M-760.4-440.18l4.64 14.27h-9.27z" stroke="#3a414a" fill="#3a414a"/><path d="M-754.2-59.9v1.78m0 3.57V-51m0 3.57v3.56m0 3.57v3.56m0 3.56V-29.82m0 3.15v3.16m0 3.14v1.58" stroke="#3a414a" fill="none"/><path d="M-753.73-59.88h-.95v-.52h.95z" stroke="#3a414a" stroke-width=".05" fill="#3a414a"/><path d="M-754.2-4.02l-4.64-14.26h9.27z" stroke="#3a414a" fill="#3a414a"/><path d="M-889.5-221.4h52.87" stroke="#3a414a" fill="none"/><path d="M-889.5-220.92h-.5v-.95h.5z" stroke="#3a414a" stroke-width=".05" fill="#3a414a"/><path d="M-821.87-221.4l-14.26 4.64v-9.27z" stroke="#3a414a" fill="#3a414a"/><path d="M-998.5 58.6h23a6 6 0 0 0 6-6v-268a6 6 0 0 1 6-6h23" stroke="#3a414a" fill="none"/><path d="M-998.5 59.08h-.5v-.95h.5zM-940-220.92h-.5v-.95h.5z" stroke="#3a414a" stroke-width=".05" fill="#3a414a"/><path d="M-998.5 58.6h58" stroke="#3a414a" fill="none"/><path d="M-998.5 59.08h-.5v-.95h.5zM-940 59.08h-.5v-.95h.5z" stroke="#3a414a" stroke-width=".05" fill="#3a414a"/><path d="M-889.5 58.6H-837.38" stroke="#3a414a" fill="none"/><path d="M-889.5 59.08h-.5v-.95h.5z" stroke="#3a414a" stroke-width=".05" fill="#3a414a"/><path d="M-822.62 58.6l-14.26 4.64v-9.27z" stroke="#3a414a" fill="#3a414a"/><path d="M-998.5 58.6h23a6 6 0 0 1 6 6v218a6 6 0 0 0 6 6h23" stroke="#3a414a" fill="none"/><path d="M-998.5 59.08h-.5v-.95h.5zM-940 289.08h-.5v-.95h.5z" stroke="#3a414a" stroke-width=".05" fill="#3a414a"/><path d="M-889.5 288.6h52.12" stroke="#3a414a" fill="none"/><path d="M-889.5 289.08h-.5v-.95h.5z" stroke="#3a414a" stroke-width=".05" fill="#3a414a"/><path d="M-822.62 288.6l-14.26 4.64v-9.27z" stroke="#3a414a" fill="#3a414a"/><g><path d="M-890-221.4h-11M-935-221.4h-5" stroke="#000" fill="none"/><path d="M-915-207.4c-7.73 0-14-6.27-14-14s6.27-14 14-14 14 6.27 14 14-6.27 14-14 14z" stroke="#000" fill="#fff"/><path d="M-915-241.4c-11.05 0-20 8.96-20 20 0 11.05 8.95 20 20 20" stroke="#000" fill="none"/><path d="M-890-221.4a.8.8 0 0 1-.8.8h-9.4a.8.8 0 0 1-.8-.8.8.8 0 0 1 .8-.8h9.4a.8.8 0 0 1 .8.8z" fill="none"/></g><g><path d="M-890 58.6h-11M-935 58.6h-5" stroke="#000" fill="none"/><path d="M-915 72.6c-7.73 0-14-6.27-14-14s6.27-14 14-14 14 6.27 14 14-6.27 14-14 14z" stroke="#000" fill="#fff"/><path d="M-915 38.6c-11.05 0-20 8.96-20 20 0 11.05 8.95 20 20 20" stroke="#000" fill="none"/><path d="M-890 58.6a.8.8 0 0 1-.8.8h-9.4a.8.8 0 0 1-.8-.8.8.8 0 0 1 .8-.8h9.4a.8.8 0 0 1 .8.8z" fill="none"/></g><g><path d="M-890 288.6h-11M-935 288.6h-5" stroke="#000" fill="none"/><path d="M-915 302.6c-7.73 0-14-6.27-14-14s6.27-14 14-14 14 6.27 14 14-6.27 14-14 14z" stroke="#000" fill="#fff"/><path d="M-915 268.6c-11.05 0-20 8.96-20 20 0 11.05 8.95 20 20 20" stroke="#000" fill="none"/><path d="M-890 288.6a.8.8 0 0 1-.8.8h-9.4a.8.8 0 0 1-.8-.8.8.8 0 0 1 .8-.8h9.4a.8.8 0 0 1 .8.8z" fill="none"/></g><path d="M-340-515.4a6 6 0 0 1 6-6h228a6 6 0 0 1 6 6v48a6 6 0 0 1-6 6h-228a6 6 0 0 1-6-6z" fill="none"/><g><use xlink:href="#x" transform="matrix(1,0,0,1,-340,-521.3979019491107) translate(94.85243055555556 36.467013888888886)"/></g><path d="M-340-75.4a6 6 0 0 1 6-6h228a6 6 0 0 1 6 6v48a6 6 0 0 1-6 6h-228a6 6 0 0 1-6-6z" fill="none"/><g><use xlink:href="#y" transform="matrix(1,0,0,1,-340,-81.39790194911075) translate(70.16927083333333 36.467013888888886)"/></g><path d="M-341.56 364.83a6 6 0 0 1 6-6h228a6 6 0 0 1 6 6v27.77a6 6 0 0 1-6 6h-228a6 6 0 0 1-6-6z" fill="none"/><g><use xlink:href="#z" transform="matrix(1,0,0,1,-341.560281034285,358.8277571473732) translate(111.48003472222223 17.22222222222222)"/><use xlink:href="#A" transform="matrix(1,0,0,1,-341.560281034285,358.8277571473732) translate(105.80295138888889 36.58159722222222)"/></g><path d="M-1035-195.4a6 6 0 0 1 6-6h228a6 6 0 0 1 6 6v27.78a6 6 0 0 1-6 6h-228a6 6 0 0 1-6-6z" fill="none"/><g><use xlink:href="#B" transform="matrix(1,0,0,1,-1035,-201.39790194911075) translate(100.16493055555556 17.22222222222222)"/><use xlink:href="#A" transform="matrix(1,0,0,1,-1035,-201.39790194911075) translate(105.80295138888889 36.58159722222222)"/></g><path d="M-1035 84.83a6 6 0 0 1 6-6h228a6 6 0 0 1 6 6v27.77a6 6 0 0 1-6 6h-228a6 6 0 0 1-6-6z" fill="none"/><g><use xlink:href="#C" transform="matrix(1,0,0,1,-1035,78.82775714737318) translate(101.58854166666666 17.22222222222222)"/><use xlink:href="#A" transform="matrix(1,0,0,1,-1035,78.82775714737318) translate(105.80295138888889 36.58159722222222)"/></g><path d="M-1037.7 314.6a6 6 0 0 1 6-6h228a6 6 0 0 1 6 6v27.78a6 6 0 0 1-6 6h-228a6 6 0 0 1-6-6z" fill="none"/><g><use xlink:href="#D" transform="matrix(1,0,0,1,-1037.6938341238379,308.60209805088925) translate(76.79253472222221 17.22222222222222)"/><use xlink:href="#A" transform="matrix(1,0,0,1,-1037.6938341238379,308.60209805088925) translate(105.80295138888889 36.58159722222222)"/></g><defs><path d="M135 0v-1490h581c339 0 533 192 533 485 0 204-94 351-264 424L1302 0H964L680-532H440V0H135zm305-779h220c186 0 274-77 274-226 0-150-88-233-275-233H440v459" id="E"/><path d="M633 22C291 22 81-200 81-553c0-345 210-579 537-579 292 0 525 185 525 567v84H378c7 183 109 277 260 277 105 0 184-46 216-132l272 51C1071-99 893 22 633 22zM380-669h474c-15-146-94-237-233-237-143 0-229 99-241 237" id="F"/><path d="M628 22C291 22 81-210 81-554c0-346 210-578 547-578 265 0 455 142 497 372l-279 52c-25-116-99-188-215-188-160 0-244 139-244 341 0 200 84 341 244 341 116 0 193-74 217-195l279 51C1085-123 896 22 628 22" id="G"/><path d="M628 22C291 22 81-210 81-554c0-346 210-578 547-578 336 0 547 232 547 578 0 344-211 576-547 576zm0-236c160 0 242-146 242-341 0-197-82-341-242-341S387-753 387-555c0 195 81 341 241 341" id="H"/><path d="M128 0v-1118h278l12 217c60-163 185-234 319-234 143 0 236 81 288 251 63-172 205-251 359-251 205 0 357 138 357 381V0h-301v-697c0-126-76-187-177-187-114 0-184 79-184 196V0H789v-705c0-109-72-179-174-179-106 0-187 74-187 208V0H128" id="I"/><path d="M428-647V0H128v-1118h283l4 231c63-156 176-245 348-245 232 0 384 159 384 421V0H847v-659c0-139-76-222-202-222-128 0-217 86-217 234" id="J"/><path d="M537 19C279 19 81-185 81-557c0-382 206-575 454-575 190 0 278 113 318 202h10v-560h300V0H868v-179h-15C812-89 719 19 537 19zm92-241c153 0 240-134 240-336 0-203-86-334-240-334-158 0-240 138-240 334 0 197 84 336 240 336" id="K"/><path d="M440 22C227 22 68-92 68-313c0-250 202-322 422-343 195-21 271-24 271-105 0-95-63-149-175-149-116 0-187 57-211 129l-275-46c57-194 237-305 487-305 240 0 474 108 474 379V0H777v-155h-10C713-51 605 22 440 22zm85-211c140 0 238-93 238-211v-121c-37 26-156 42-222 51-111 16-185 59-185 149 0 87 70 132 169 132" id="L"/><path d="M683-1118v229H474v562c0 71 29 104 102 104 23 0 73-7 95-13l43 225C647 9 580 16 520 16 296 16 174-96 174-301v-588H20v-229h154v-266h300v266h209" id="M"/><path d="M128 0v-1118h300V0H128zm150-1264c-91 0-165-68-165-154 0-85 74-154 165-154 90 0 165 69 165 154 0 86-75 154-165 154" id="N"/><g id="a"><use transform="matrix(0.010959201388888886,0,0,0.010959201388888886,0,0)" xlink:href="#E"/><use transform="matrix(0.010959201388888886,0,0,0.010959201388888886,14.46614583333333,0)" xlink:href="#F"/><use transform="matrix(0.010959201388888886,0,0,0.010959201388888886,27.83637152777777,0)" xlink:href="#G"/><use transform="matrix(0.010959201388888886,0,0,0.010959201388888886,41.04220920138888,0)" xlink:href="#H"/><use transform="matrix(0.010959201388888886,0,0,0.010959201388888886,54.80696614583332,0)" xlink:href="#I"/><use transform="matrix(0.010959201388888886,0,0,0.010959201388888886,75.28971354166666,0)" xlink:href="#I"/><use transform="matrix(0.010959201388888886,0,0,0.010959201388888886,95.77246093749997,0)" xlink:href="#F"/><use transform="matrix(0.010959201388888886,0,0,0.010959201388888886,109.14268663194441,0)" xlink:href="#J"/><use transform="matrix(0.010959201388888886,0,0,0.010959201388888886,123.11566840277774,0)" xlink:href="#K"/><use transform="matrix(0.010959201388888886,0,0,0.010959201388888886,137.26399739583331,0)" xlink:href="#L"/><use transform="matrix(0.010959201388888886,0,0,0.010959201388888886,150.2944878472222,0)" xlink:href="#M"/><use transform="matrix(0.010959201388888886,0,0,0.010959201388888886,158.51388888888886,0)" xlink:href="#N"/><use transform="matrix(0.010959201388888886,0,0,0.010959201388888886,164.5962456597222,0)" xlink:href="#H"/><use transform="matrix(0.010959201388888886,0,0,0.010959201388888886,178.36100260416663,0)" xlink:href="#J"/></g><path d="M681 22C323 22 94-145 85-462h297c10 151 131 226 296 226 163 0 271-77 271-190 0-102-95-149-257-189l-164-41c-252-61-403-188-403-405 0-269 236-449 560-449 330 0 546 183 551 445H941c-11-119-106-188-259-188-156 0-244 72-244 172-3 156 226 185 373 221 250 61 445 186 445 436 0 271-213 446-575 446" id="O"/><path d="M128 0v-1118h290v195h12c54-169 184-238 367-200v268c-27-8-86-15-130-15-138 0-239 95-239 234V0H128" id="P"/><path d="M443 0L31-1118h319c90 293 199 572 268 885 66-313 175-593 264-885h315L784 0H443" id="Q"/><g id="b"><use transform="matrix(0.010959201388888886,0,0,0.010959201388888886,0,0)" xlink:href="#O"/><use transform="matrix(0.010959201388888886,0,0,0.010959201388888886,14.696289062499996,0)" xlink:href="#F"/><use transform="matrix(0.010959201388888886,0,0,0.010959201388888886,28.06651475694444,0)" xlink:href="#P"/><use transform="matrix(0.010959201388888886,0,0,0.010959201388888886,37.55718315972221,0)" xlink:href="#Q"/><use transform="matrix(0.010959201388888886,0,0,0.010959201388888886,51.01508246527776,0)" xlink:href="#N"/><use transform="matrix(0.010959201388888886,0,0,0.010959201388888886,57.097439236111086,0)" xlink:href="#G"/><use transform="matrix(0.010959201388888886,0,0,0.010959201388888886,70.3032769097222,0)" xlink:href="#F"/></g><path d="M180 0v-1490h510c348 0 508 194 508 460 0 198-88 351-276 417L1256 0h-220L726-579c-117 2-238 0-356 1V0H180zm190-747h312c235 0 327-108 327-283 0-177-92-293-329-293H370v576" id="R"/><path d="M628 24c-324 0-524-230-524-574 0-343 198-582 503-582 237 0 487 146 487 559v75H286c9 234 145 362 343 362 132 0 231-58 273-172l174 48C1024-91 857 24 628 24zM287-650h624c-17-190-120-322-304-322-192 0-309 151-320 322" id="S"/><path d="M613 24c-304 0-509-231-509-576 0-350 205-580 509-580 216 0 392 114 453 309l-173 49c-33-115-133-197-280-197-223 0-326 196-326 419 0 220 103 415 326 415 150 0 252-85 285-206l172 49C1010-95 832 24 613 24" id="T"/><path d="M613 24c-304 0-509-231-509-576 0-350 205-580 509-580 305 0 511 230 511 580 0 345-206 576-511 576zm0-161c226 0 329-195 329-415 0-222-103-419-329-419-223 0-326 196-326 419 0 220 103 415 326 415" id="U"/><path d="M158 0v-1118h175l1 205c55-151 181-225 313-225 147 0 245 90 285 228 53-141 190-228 352-228 194 0 352 125 352 384V0h-181v-749c0-161-105-225-225-225-151 0-243 103-243 244V0H807v-767c0-124-93-207-219-207-131 0-250 92-250 270V0H158" id="V"/><path d="M338-670V0H158v-1118h173l1 207c72-158 192-221 342-221 226 0 378 139 378 422V0H872v-695c0-172-96-275-252-275-161 0-282 109-282 300" id="W"/><path d="M577 24c-279 0-473-224-473-580 0-354 195-576 474-576 218 0 287 134 324 193h14v-551h180V0H922v-173h-20C865-111 790 24 577 24zm27-161c203 0 314-172 314-421 0-247-108-413-314-413-212 0-317 181-317 413 0 235 108 421 317 421" id="X"/><path d="M471 26C259 26 90-98 90-318c0-256 228-303 435-329 202-27 287-16 287-108 0-139-79-219-234-219-161 0-248 86-283 164l-173-57c86-203 278-265 451-265 150 0 419 46 419 395V0H815v-152h-12C765-73 660 26 471 26zm31-159c199 0 310-134 310-271v-155c-30 35-226 55-295 64-131 17-246 59-246 186 0 116 97 176 231 176" id="Y"/><path d="M598-1118v154H368v674c0 100 37 144 132 144 23 0 62-6 92-12L629-6c-37 13-88 20-134 20-193 0-307-107-307-290v-688H20v-154h168v-266h180v266h230" id="Z"/><path d="M158 0v-1118h180V0H158zm91-1301c-68 0-125-53-125-119s57-119 125-119c69 0 126 53 126 119s-57 119-126 119" id="aa"/><g id="c"><use transform="matrix(0.010959201388888886,0,0,0.010959201388888886,0,0)" xlink:href="#R"/><use transform="matrix(0.010959201388888886,0,0,0.010959201388888886,14.115451388888886,0)" xlink:href="#S"/><use transform="matrix(0.010959201388888886,0,0,0.010959201388888886,27.200737847222214,0)" xlink:href="#T"/><use transform="matrix(0.010959201388888886,0,0,0.010959201388888886,40.023003472222214,0)" xlink:href="#U"/><use transform="matrix(0.010959201388888886,0,0,0.010959201388888886,53.480902777777764,0)" xlink:href="#V"/><use transform="matrix(0.010959201388888886,0,0,0.010959201388888886,73.14171006944443,0)" xlink:href="#V"/><use transform="matrix(0.010959201388888886,0,0,0.010959201388888886,92.80251736111109,0)" xlink:href="#S"/><use transform="matrix(0.010959201388888886,0,0,0.010959201388888886,105.88780381944441,0)" xlink:href="#W"/><use transform="matrix(0.010959201388888886,0,0,0.010959201388888886,119.14843749999997,0)" xlink:href="#X"/><use transform="matrix(0.010959201388888886,0,0,0.010959201388888886,132.89127604166663,0)" xlink:href="#Y"/><use transform="matrix(0.010959201388888886,0,0,0.010959201388888886,145.49435763888886,0)" xlink:href="#Z"/><use transform="matrix(0.010959201388888886,0,0,0.010959201388888886,152.8370225694444,0)" xlink:href="#aa"/><use transform="matrix(0.010959201388888886,0,0,0.010959201388888886,158.2727864583333,0)" xlink:href="#U"/><use transform="matrix(0.010959201388888886,0,0,0.010959201388888886,171.73068576388883,0)" xlink:href="#W"/></g><path d="M657 26c-323 0-524-166-541-416h195c15 169 171 246 346 246 202 0 356-106 356-265 5-203-294-238-475-293-239-73-380-191-380-389 0-252 224-419 512-419 294 0 499 171 508 396H992c-17-145-151-228-328-228-193 0-321 102-321 242 0 156 175 211 284 241l149 41c160 44 422 134 422 412 0 244-197 432-541 432" id="ab"/><path d="M140 405l46-156c120 36 205 19 263-150l32-93L54-1118h197c107 313 237 620 324 950 87-331 219-637 326-950h196L606 167c-68 178-176 259-334 259-64 0-113-12-132-21" id="ac"/><path d="M538 24C308 24 148-78 108-271l171-41c32 123 123 178 257 178 156 0 256-77 256-169 0-77-54-128-164-154l-186-44c-203-48-300-148-300-305 0-192 176-326 414-326 230 0 351 112 402 269l-163 42c-31-80-94-158-238-158-133 0-233 69-233 162 0 83 57 129 188 160l169 40c203 48 298 149 298 302 0 196-179 339-441 339" id="ad"/><g id="d"><use transform="matrix(0.010959201388888886,0,0,0.010959201388888886,0,0)" xlink:href="#ab"/><use transform="matrix(0.010959201388888886,0,0,0.010959201388888886,14.400390624999996,0)" xlink:href="#ac"/><use transform="matrix(0.010959201388888886,0,0,0.010959201388888886,27.014431423611104,0)" xlink:href="#ad"/><use transform="matrix(0.010959201388888886,0,0,0.010959201388888886,38.86132812499999,0)" xlink:href="#Z"/><use transform="matrix(0.010959201388888886,0,0,0.010959201388888886,45.984809027777764,0)" xlink:href="#S"/><use transform="matrix(0.010959201388888886,0,0,0.010959201388888886,59.0700954861111,0)" xlink:href="#V"/></g><path d="M763 24c-353 0-583-224-583-531v-983h190v968c0 214 149 370 393 370 243 0 391-156 391-370v-968h190v983c0 307-230 531-581 531" id="ae"/><path d="M158 0v-1118h174v172h12c41-113 157-188 290-188 26 0 70 2 91 3v181c-11-2-60-10-108-10-161 0-279 109-279 260V0H158" id="af"/><g id="e"><use transform="matrix(0.010959201388888886,0,0,0.010959201388888886,0,0)" xlink:href="#ae"/><use transform="matrix(0.010959201388888886,0,0,0.010959201388888886,16.701822916666664,0)" xlink:href="#ad"/><use transform="matrix(0.010959201388888886,0,0,0.010959201388888886,28.54871961805555,0)" xlink:href="#S"/><use transform="matrix(0.010959201388888886,0,0,0.010959201388888886,41.63400607638888,0)" xlink:href="#af"/></g><g id="f"><use transform="matrix(0.010959201388888886,0,0,0.010959201388888886,0,0)" xlink:href="#ab"/><use transform="matrix(0.010959201388888886,0,0,0.010959201388888886,14.400390624999996,0)" xlink:href="#ac"/><use transform="matrix(0.010959201388888886,0,0,0.010959201388888886,27.014431423611104,0)" xlink:href="#ad"/><use transform="matrix(0.010959201388888886,0,0,0.010959201388888886,38.86132812499999,0)" xlink:href="#Z"/><use transform="matrix(0.010959201388888886,0,0,0.010959201388888886,45.984809027777764,0)" xlink:href="#S"/><use transform="matrix(0.010959201388888886,0,0,0.010959201388888886,59.0700954861111,0)" xlink:href="#V"/></g><path d="M750 21c-371 0-615-218-615-544v-967h305v942c0 174 123 299 310 299s309-125 309-299v-942h306v967c0 326-247 544-615 544" id="ag"/><path d="M572 22C302 22 117-98 78-306l279-48c29 105 101 156 224 156 114 0 185-48 185-115 0-118-228-130-337-155-215-49-322-150-322-317 0-215 187-347 470-347 265 0 424 116 466 298l-266 47c-24-76-87-130-196-130-98 0-174 46-174 113 0 56 38 95 144 117l201 40c216 44 320 143 320 302 0 220-207 367-500 367" id="ah"/><g id="g"><use transform="matrix(0.010959201388888886,0,0,0.010959201388888886,0,0)" xlink:href="#ag"/><use transform="matrix(0.010959201388888886,0,0,0.010959201388888886,16.42784288194444,0)" xlink:href="#ah"/><use transform="matrix(0.010959201388888886,0,0,0.010959201388888886,28.998046874999993,0)" xlink:href="#F"/><use transform="matrix(0.010959201388888886,0,0,0.010959201388888886,42.368272569444436,0)" xlink:href="#P"/></g><path d="M135 0v-1490h305v602h649v-602h306V0h-306v-635H440V0H135" id="ai"/><path d="M120 396l69-226c123 42 245 23 254-107l8-60L31-1118h319c87 288 199 559 259 872 72-308 185-583 277-872h315L726 132c-68 181-186 294-410 294-79 0-153-13-196-30" id="aj"/><g id="h"><use transform="matrix(0.010959201388888886,0,0,0.010959201388888886,0,0)" xlink:href="#ai"/><use transform="matrix(0.010959201388888886,0,0,0.010959201388888886,16.767578124999996,0)" xlink:href="#N"/><use transform="matrix(0.010959201388888886,0,0,0.010959201388888886,22.84993489583333,0)" xlink:href="#ah"/><use transform="matrix(0.010959201388888886,0,0,0.010959201388888886,35.42013888888888,0)" xlink:href="#M"/><use transform="matrix(0.010959201388888886,0,0,0.010959201388888886,43.420355902777764,0)" xlink:href="#H"/><use transform="matrix(0.010959201388888886,0,0,0.010959201388888886,57.18511284722221,0)" xlink:href="#P"/><use transform="matrix(0.010959201388888886,0,0,0.010959201388888886,66.67578124999999,0)" xlink:href="#aj"/></g><path d="M135 0v-1490h980v253H440v416h609v249H440V0H135" id="ak"/><path d="M513 14c-232 0-385-159-385-421v-711h300v659c0 139 76 222 202 222 127 0 217-86 217-234v-647h301V0H864l-4-232C797-74 683 14 513 14" id="al"/><g id="i"><use transform="matrix(0.010959201388888886,0,0,0.010959201388888886,0,0)" xlink:href="#ak"/><use transform="matrix(0.010959201388888886,0,0,0.010959201388888886,12.80034722222222,0)" xlink:href="#L"/><use transform="matrix(0.010959201388888886,0,0,0.010959201388888886,25.447265624999993,0)" xlink:href="#Q"/><use transform="matrix(0.010959201388888886,0,0,0.010959201388888886,38.49967447916666,0)" xlink:href="#H"/><use transform="matrix(0.010959201388888886,0,0,0.010959201388888886,52.2644314236111,0)" xlink:href="#al"/><use transform="matrix(0.010959201388888886,0,0,0.010959201388888886,66.23741319444443,0)" xlink:href="#P"/><use transform="matrix(0.010959201388888886,0,0,0.010959201388888886,75.54177517361109,0)" xlink:href="#N"/><use transform="matrix(0.010959201388888886,0,0,0.010959201388888886,81.62413194444441,0)" xlink:href="#M"/><use transform="matrix(0.010959201388888886,0,0,0.010959201388888886,89.62434895833331,0)" xlink:href="#F"/><use transform="matrix(0.010959201388888886,0,0,0.010959201388888886,102.99457465277776,0)" xlink:href="#ah"/></g><path d="M135 0v-1490h997v253H440v360h640v249H440v375h694V0H135" id="am"/><path d="M428-1490V0H128v-1490h300" id="an"/><g id="j"><use transform="matrix(0.010959201388888886,0,0,0.010959201388888886,0,0)" xlink:href="#am"/><use transform="matrix(0.010959201388888886,0,0,0.010959201388888886,13.633246527777775,0)" xlink:href="#I"/><use transform="matrix(0.010959201388888886,0,0,0.010959201388888886,34.1159939236111,0)" xlink:href="#L"/><use transform="matrix(0.010959201388888886,0,0,0.010959201388888886,47.146484374999986,0)" xlink:href="#N"/><use transform="matrix(0.010959201388888886,0,0,0.010959201388888886,53.228841145833314,0)" xlink:href="#an"/></g><path d="M180 0v-1490h908v168H370v486h669v168H370v500h727V0H180" id="ao"/><path d="M338-1490V0H158v-1490h180" id="ap"/><g id="k"><use transform="matrix(0.010959201388888886,0,0,0.010959201388888886,0,0)" xlink:href="#ao"/><use transform="matrix(0.010959201388888886,0,0,0.010959201388888886,13.49077690972222,0)" xlink:href="#V"/><use transform="matrix(0.010959201388888886,0,0,0.010959201388888886,33.15158420138888,0)" xlink:href="#Y"/><use transform="matrix(0.010959201388888886,0,0,0.010959201388888886,45.7546657986111,0)" xlink:href="#aa"/><use transform="matrix(0.010959201388888886,0,0,0.010959201388888886,51.190429687499986,0)" xlink:href="#ap"/></g><path d="M135 0v-1490h581c339 0 533 210 533 503 0 295-197 500-540 500H440V0H135zm305-733h220c186 0 274-104 274-254s-88-251-275-251H440v505" id="aq"/><path d="M659 0H135v-1490h529c448 0 721 280 721 744 0 466-273 746-726 746zM440-263h204c287 0 437-148 437-483 0-333-150-481-435-481H440v964" id="ar"/><g id="l"><use transform="matrix(0.010959201388888886,0,0,0.010959201388888886,0,0)" xlink:href="#aq"/><use transform="matrix(0.010959201388888886,0,0,0.010959201388888886,14.542860243055552,0)" xlink:href="#ar"/><use transform="matrix(0.010959201388888886,0,0,0.010959201388888886,30.751519097222214,0)" xlink:href="#ak"/></g><path d="M645 0H180v-1490h484c435 0 692 280 692 742 0 466-257 748-711 748zM370-168h263c363 0 539-218 539-580 0-358-176-574-521-574H370v1154" id="as"/><path d="M537 14c-226 0-379-139-379-422v-710h180v695c0 172 97 275 253 275 160 0 281-109 281-300v-670h181V0H879v-209C806-46 684 14 537 14" id="at"/><g id="m"><use transform="matrix(0.010959201388888886,0,0,0.010959201388888886,0,0)" xlink:href="#as"/><use transform="matrix(0.010959201388888886,0,0,0.010959201388888886,16.197699652777775,0)" xlink:href="#U"/><use transform="matrix(0.010959201388888886,0,0,0.010959201388888886,29.655598958333325,0)" xlink:href="#T"/><use transform="matrix(0.010959201388888886,0,0,0.010959201388888886,42.47786458333333,0)" xlink:href="#at"/><use transform="matrix(0.010959201388888886,0,0,0.010959201388888886,55.74945746527777,0)" xlink:href="#V"/><use transform="matrix(0.010959201388888886,0,0,0.010959201388888886,75.41026475694443,0)" xlink:href="#S"/><use transform="matrix(0.010959201388888886,0,0,0.010959201388888886,88.49555121527776,0)" xlink:href="#W"/><use transform="matrix(0.010959201388888886,0,0,0.010959201388888886,101.75618489583331,0)" xlink:href="#Z"/></g><path d="M135 0v-1490h305v1237h643V0H135" id="au"/><path d="M135 0v-1490h468l242 684c30 94 76 293 111 455 34-161 80-360 110-455l238-684h470V0h-307c0-447-3-765 11-1227-122 503-246 788-395 1227H826C676-435 552-717 427-1215c15 453 11 775 11 1215H135" id="av"/><g id="n"><use transform="matrix(0.010959201388888886,0,0,0.010959201388888886,0,0)" xlink:href="#au"/><use transform="matrix(0.010959201388888886,0,0,0.010959201388888886,12.69075520833333,0)" xlink:href="#au"/><use transform="matrix(0.010959201388888886,0,0,0.010959201388888886,25.38151041666666,0)" xlink:href="#av"/></g><path d="M786 20C389 20 94-260 94-744c0-487 299-766 692-766 339 0 597 194 641 529h-309c-28-162-156-258-326-258-233 0-388 179-388 495 0 323 157 493 387 493 170 0 298-97 328-259h309c-34 277-266 530-642 530" id="aw"/><g id="o"><use transform="matrix(0.010959201388888886,0,0,0.010959201388888886,0,0)" xlink:href="#aw"/><use transform="matrix(0.010959201388888886,0,0,0.010959201388888886,16.603190104166664,0)" xlink:href="#an"/><use transform="matrix(0.010959201388888886,0,0,0.010959201388888886,22.685546874999996,0)" xlink:href="#N"/><use transform="matrix(0.010959201388888886,0,0,0.010959201388888886,28.767903645833325,0)" xlink:href="#F"/><use transform="matrix(0.010959201388888886,0,0,0.010959201388888886,42.13812934027777,0)" xlink:href="#J"/><use transform="matrix(0.010959201388888886,0,0,0.010959201388888886,56.1111111111111,0)" xlink:href="#M"/></g><path d="M440-1490V0H135v-1490h305" id="ax"/><g id="p"><use transform="matrix(0.010959201388888886,0,0,0.010959201388888886,0,0)" xlink:href="#ag"/><use transform="matrix(0.010959201388888886,0,0,0.010959201388888886,16.42784288194444,0)" xlink:href="#ax"/></g><g id="q"><use transform="matrix(0.010959201388888886,0,0,0.010959201388888886,0,0)" xlink:href="#aw"/><use transform="matrix(0.010959201388888886,0,0,0.010959201388888886,16.603190104166664,0)" xlink:href="#an"/><use transform="matrix(0.010959201388888886,0,0,0.010959201388888886,22.685546874999996,0)" xlink:href="#N"/><use transform="matrix(0.010959201388888886,0,0,0.010959201388888886,28.767903645833325,0)" xlink:href="#F"/><use transform="matrix(0.010959201388888886,0,0,0.010959201388888886,42.13812934027777,0)" xlink:href="#J"/><use transform="matrix(0.010959201388888886,0,0,0.010959201388888886,56.1111111111111,0)" xlink:href="#M"/></g><path d="M754 19C571 19 479-89 437-179h-14V0H128v-1490h300v560h9c41-89 129-202 319-202 248 0 453 193 453 575 0 372-197 576-455 576zm-92-241c156 0 240-139 240-336 0-196-83-334-240-334-154 0-241 131-241 334 0 202 88 336 241 336" id="ay"/><g id="r"><use transform="matrix(0.010959201388888886,0,0,0.010959201388888886,0,0)" xlink:href="#O"/><use transform="matrix(0.010959201388888886,0,0,0.010959201388888886,14.696289062499996,0)" xlink:href="#al"/><use transform="matrix(0.010959201388888886,0,0,0.010959201388888886,28.669270833333325,0)" xlink:href="#ay"/><use transform="matrix(0.010959201388888886,0,0,0.010959201388888886,42.81759982638888,0)" xlink:href="#ah"/><use transform="matrix(0.010959201388888886,0,0,0.010959201388888886,55.38780381944443,0)" xlink:href="#aj"/><use transform="matrix(0.010959201388888886,0,0,0.010959201388888886,68.90049913194443,0)" xlink:href="#ah"/><use transform="matrix(0.010959201388888886,0,0,0.010959201388888886,81.47070312499999,0)" xlink:href="#M"/><use transform="matrix(0.010959201388888886,0,0,0.010959201388888886,89.47092013888889,0)" xlink:href="#F"/><use transform="matrix(0.010959201388888886,0,0,0.010959201388888886,102.84114583333333,0)" xlink:href="#I"/></g><path d="M169-607c0-330 107-732 258-974h279c-145 311-231 674-231 974 0 262 67 512 231 886H427C258-1 169-307 169-607" id="az"/><path d="M67 279c166-379 230-627 230-886 0-300-86-663-230-974h278c151 241 258 644 258 974 0 302-90 608-258 886H67" id="aA"/><g id="s"><use transform="matrix(0.010959201388888886,0,0,0.010959201388888886,0,0)" xlink:href="#az"/><use transform="matrix(0.010959201388888886,0,0,0.010959201388888886,8.865993923611109,0)" xlink:href="#E"/><use transform="matrix(0.010959201388888886,0,0,0.010959201388888886,23.33213975694444,0)" xlink:href="#F"/><use transform="matrix(0.010959201388888886,0,0,0.010959201388888886,36.92154947916666,0)" xlink:href="#L"/><use transform="matrix(0.010959201388888886,0,0,0.010959201388888886,49.95203993055554,0)" xlink:href="#G"/><use transform="matrix(0.010959201388888886,0,0,0.010959201388888886,63.15787760416665,0)" xlink:href="#M"/><use transform="matrix(0.010959201388888886,0,0,0.010959201388888886,71.37727864583331,0)" xlink:href="#aA"/></g><g id="t"><use transform="matrix(0.010959201388888886,0,0,0.010959201388888886,0,0)" xlink:href="#O"/><use transform="matrix(0.010959201388888886,0,0,0.010959201388888886,14.696289062499996,0)" xlink:href="#aj"/><use transform="matrix(0.010959201388888886,0,0,0.010959201388888886,28.208984374999993,0)" xlink:href="#ah"/><use transform="matrix(0.010959201388888886,0,0,0.010959201388888886,40.77918836805554,0)" xlink:href="#M"/><use transform="matrix(0.010959201388888886,0,0,0.010959201388888886,48.779405381944436,0)" xlink:href="#F"/><use transform="matrix(0.010959201388888886,0,0,0.010959201388888886,62.14963107638887,0)" xlink:href="#I"/></g><g id="u"><use transform="matrix(0.010959201388888886,0,0,0.010959201388888886,0,0)" xlink:href="#ar"/><use transform="matrix(0.010959201388888886,0,0,0.010959201388888886,16.208658854166664,0)" xlink:href="#L"/><use transform="matrix(0.010959201388888886,0,0,0.010959201388888886,29.23914930555555,0)" xlink:href="#M"/><use transform="matrix(0.010959201388888886,0,0,0.010959201388888886,37.5681423611111,0)" xlink:href="#L"/><use transform="matrix(0.010959201388888886,0,0,0.010959201388888886,50.598632812499986,0)" xlink:href="#ay"/><use transform="matrix(0.010959201388888886,0,0,0.010959201388888886,64.96614583333331,0)" xlink:href="#L"/><use transform="matrix(0.010959201388888886,0,0,0.010959201388888886,77.9966362847222,0)" xlink:href="#ah"/><use transform="matrix(0.010959201388888886,0,0,0.010959201388888886,90.56684027777776,0)" xlink:href="#F"/></g><g id="v"><use transform="matrix(0.010959201388888886,0,0,0.010959201388888886,0,0)" xlink:href="#O"/><use transform="matrix(0.010959201388888886,0,0,0.010959201388888886,14.696289062499996,0)" xlink:href="#F"/><use transform="matrix(0.010959201388888886,0,0,0.010959201388888886,28.06651475694444,0)" xlink:href="#P"/><use transform="matrix(0.010959201388888886,0,0,0.010959201388888886,37.55718315972221,0)" xlink:href="#Q"/><use transform="matrix(0.010959201388888886,0,0,0.010959201388888886,50.609592013888864,0)" xlink:href="#F"/><use transform="matrix(0.010959201388888886,0,0,0.010959201388888886,63.97981770833332,0)" xlink:href="#P"/></g><path d="M428-647V0H128v-1490h294v586c65-146 175-228 341-228 232 0 385 159 385 421V0H847v-659c0-139-76-222-202-222-128 0-217 86-217 234" id="aB"/><path d="M768-1560L288 224H28l480-1784h260" id="aC"/><path d="M128 0v-1490h300v802h17l366-430h347L740-633 1179 0H826L514-456l-86 97V0H128" id="aD"/><g id="w"><use transform="matrix(0.010959201388888886,0,0,0.010959201388888886,0,0)" xlink:href="#az"/><use transform="matrix(0.010959201388888886,0,0,0.010959201388888886,8.865993923611109,0)" xlink:href="#aq"/><use transform="matrix(0.010959201388888886,0,0,0.010959201388888886,23.40885416666666,0)" xlink:href="#aj"/><use transform="matrix(0.010959201388888886,0,0,0.010959201388888886,37.30512152777777,0)" xlink:href="#M"/><use transform="matrix(0.010959201388888886,0,0,0.010959201388888886,45.57931857638888,0)" xlink:href="#aB"/><use transform="matrix(0.010959201388888886,0,0,0.010959201388888886,59.55230034722221,0)" xlink:href="#H"/><use transform="matrix(0.010959201388888886,0,0,0.010959201388888886,73.31705729166664,0)" xlink:href="#J"/><use transform="matrix(0.010959201388888886,0,0,0.010959201388888886,87.29003906249997,0)" xlink:href="#aC"/><use transform="matrix(0.010959201388888886,0,0,0.010959201388888886,96.00260416666663,0)" xlink:href="#ak"/><use transform="matrix(0.010959201388888886,0,0,0.010959201388888886,109.17556423611107,0)" xlink:href="#an"/><use transform="matrix(0.010959201388888886,0,0,0.010959201388888886,115.2579210069444,0)" xlink:href="#L"/><use transform="matrix(0.010959201388888886,0,0,0.010959201388888886,128.2884114583333,0)" xlink:href="#ah"/><use transform="matrix(0.010959201388888886,0,0,0.010959201388888886,140.85861545138883,0)" xlink:href="#aD"/><use transform="matrix(0.010959201388888886,0,0,0.010959201388888886,153.87814670138883,0)" xlink:href="#aA"/></g><path d="M180 0v-1490h270l367 940c28 72 75 218 110 339 35-117 81-264 110-339l362-940h271V0h-187c2-448-5-837 7-1287-157 497-311 829-483 1287H842C666-458 514-784 354-1284c12 438 5 843 7 1284H180" id="aE"/><path d="M98-1322v-168h1126v168H757V0H567v-1322H98" id="aF"/><path d="M180 0v-1490h510c348 0 508 209 508 474 0 266-160 477-507 477H370V0H180zm190-706h312c236 0 327-133 327-310 0-176-91-307-329-307H370v617" id="aG"/><g id="x"><use transform="matrix(0.008680555555555556,0,0,0.008680555555555556,0,0)" xlink:href="#ab"/><use transform="matrix(0.008680555555555556,0,0,0.008680555555555556,11.40625,0)" xlink:href="#aE"/><use transform="matrix(0.008680555555555556,0,0,0.008680555555555556,27.46527777777778,0)" xlink:href="#aF"/><use transform="matrix(0.008680555555555556,0,0,0.008680555555555556,38.94097222222222,0)" xlink:href="#aG"/></g><path d="M611 442c-248 0-391-105-460-228l146-94c47 65 117 165 314 165 178 0 307-82 307-266v-224h-17C863-141 792-18 576-18c-268 0-472-195-472-546 0-346 197-568 476-568 216 0 288 133 326 193h17v-179h175V29c0 289-215 413-487 413zm-5-620c203 0 314-146 314-390 0-237-108-403-314-403-213 0-319 180-319 403 0 230 109 390 319 390" id="aH"/><path d="M784 20c-382 0-662-292-662-764 0-473 280-766 662-766s660 293 660 766c0 282-99 499-260 629l192 255h-198L1049-33C969 2 880 20 784 20zm-62-486h198l156 205c112-98 183-261 183-483 0-383-209-590-475-590-268 0-477 208-477 590 0 380 209 588 477 588 54 0 106-9 154-25" id="aI"/><path d="M180 0v-1490h190v1322h690V0H180" id="aJ"/><g id="y"><use transform="matrix(0.008680555555555556,0,0,0.008680555555555556,0,0)" xlink:href="#aG"/><use transform="matrix(0.008680555555555556,0,0,0.008680555555555556,11.258680555555559,0)" xlink:href="#U"/><use transform="matrix(0.008680555555555556,0,0,0.008680555555555556,21.91840277777778,0)" xlink:href="#ad"/><use transform="matrix(0.008680555555555556,0,0,0.008680555555555556,31.302083333333336,0)" xlink:href="#Z"/><use transform="matrix(0.008680555555555556,0,0,0.008680555555555556,36.94444444444444,0)" xlink:href="#aH"/><use transform="matrix(0.008680555555555556,0,0,0.008680555555555556,47.847222222222236,0)" xlink:href="#af"/><use transform="matrix(0.008680555555555556,0,0,0.008680555555555556,54.24479166666668,0)" xlink:href="#S"/><use transform="matrix(0.008680555555555556,0,0,0.008680555555555556,64.60937500000001,0)" xlink:href="#ab"/><use transform="matrix(0.008680555555555556,0,0,0.008680555555555556,76.01562500000001,0)" xlink:href="#aI"/><use transform="matrix(0.008680555555555556,0,0,0.008680555555555556,89.60937500000001,0)" xlink:href="#aJ"/></g><path d="M52 0l541-1490h220L1361 0h-200l-149-416H398L254 0H52zm404-582h497c-103-290-145-390-251-756-108 377-145 460-246 756" id="aK"/><path d="M370-1490V0H180v-1490h190" id="aL"/><g id="z"><use transform="matrix(0.008680555555555556,0,0,0.008680555555555556,0,0)" xlink:href="#aK"/><use transform="matrix(0.008680555555555556,0,0,0.008680555555555556,12.265625,0)" xlink:href="#aL"/></g><g id="A"><use transform="matrix(0.008680555555555556,0,0,0.008680555555555556,0,0)" xlink:href="#aK"/><use transform="matrix(0.008680555555555556,0,0,0.008680555555555556,12.265625,0)" xlink:href="#aG"/><use transform="matrix(0.008680555555555556,0,0,0.008680555555555556,23.619791666666668,0)" xlink:href="#aL"/></g><g id="B"><use transform="matrix(0.008680555555555556,0,0,0.008680555555555556,0,0)" xlink:href="#ae"/><use transform="matrix(0.008680555555555556,0,0,0.008680555555555556,13.229166666666668,0)" xlink:href="#ad"/><use transform="matrix(0.008680555555555556,0,0,0.008680555555555556,22.612847222222225,0)" xlink:href="#S"/><use transform="matrix(0.008680555555555556,0,0,0.008680555555555556,32.97743055555556,0)" xlink:href="#af"/></g><path d="M295 13c-75 0-135-60-135-135s60-135 135-135 135 60 135 135S370 13 295 13" id="aM"/><g id="C"><use transform="matrix(0.008680555555555556,0,0,0.008680555555555556,0,0)" xlink:href="#R"/><use transform="matrix(0.008680555555555556,0,0,0.008680555555555556,11.180555555555559,0)" xlink:href="#S"/><use transform="matrix(0.008680555555555556,0,0,0.008680555555555556,21.545138888888893,0)" xlink:href="#T"/><use transform="matrix(0.008680555555555556,0,0,0.008680555555555556,31.701388888888893,0)" xlink:href="#aM"/></g><g id="D"><use transform="matrix(0.008680555555555556,0,0,0.008680555555555556,0,0)" xlink:href="#as"/><use transform="matrix(0.008680555555555556,0,0,0.008680555555555556,12.829861111111112,0)" xlink:href="#U"/><use transform="matrix(0.008680555555555556,0,0,0.008680555555555556,23.489583333333336,0)" xlink:href="#T"/><use transform="matrix(0.008680555555555556,0,0,0.008680555555555556,33.645833333333336,0)" xlink:href="#at"/><use transform="matrix(0.008680555555555556,0,0,0.008680555555555556,44.157986111111114,0)" xlink:href="#V"/><use transform="matrix(0.008680555555555556,0,0,0.008680555555555556,59.730902777777786,0)" xlink:href="#S"/><use transform="matrix(0.008680555555555556,0,0,0.008680555555555556,70.09548611111111,0)" xlink:href="#W"/><use transform="matrix(0.008680555555555556,0,0,0.008680555555555556,80.59895833333334,0)" xlink:href="#Z"/></g></defs></g></svg>