<svg xmlns="http://www.w3.org/2000/svg" xmlns:xlink="http://www.w3.org/1999/xlink" xmlns:lucid="lucid" width="1093.97" height="799.61"><g transform="translate(-2170.660051479476 -568.195194189565)" lucid:page-tab-id="0_0"><path d="M500 0h4500v1500H500z" fill="#fff"/><path d="M2618.28 898.3a6 6 0 0 1 6-6h185.13a6 6 0 0 1 6 6v213a6 6 0 0 1-6 6H2624.3a6 6 0 0 1-6-6z" stroke="#000" stroke-width="2" fill="#fff"/><path d="M2618.28 935.2h197.13m-197.12 75.14h197.13" stroke="#000" stroke-width="2" fill="none"/><use xlink:href="#a" transform="matrix(1,0,0,1,2626.284748514502,900.3007767538536) translate(48.666015625 21.58376736111111)"/><use xlink:href="#b" transform="matrix(1,0,0,1,2630.284748514502,943.188797587187) translate(0 21.95095486111111)"/><use xlink:href="#c" transform="matrix(1,0,0,1,2630.284748514502,943.188797587187) translate(0 54.21657986111111)"/><use xlink:href="#d" transform="matrix(1,0,0,1,2630.284748514502,1018.3424434205203) translate(0 21.818142361111114)"/><use xlink:href="#e" transform="matrix(1,0,0,1,2630.284748514502,1018.3424434205203) translate(0 54.083767361111114)"/><use xlink:href="#f" transform="matrix(1,0,0,1,2630.284748514502,1018.3424434205203) translate(0 86.34939236111111)"/><path d="M2171.66 914.3a6 6 0 0 1 6-6h185.12a6 6 0 0 1 6 6v181a6 6 0 0 1-6 6h-185.12a6 6 0 0 1-6-6z" stroke="#000" stroke-width="2" fill="#fff"/><path d="M2171.66 951.2h197.12m-197.12 107.4h197.12" stroke="#000" stroke-width="2" fill="none"/><use xlink:href="#g" transform="matrix(1,0,0,1,2179.660051479476,916.3007767538536) translate(46.539279513888886 21.58376736111111)"/><use xlink:href="#b" transform="matrix(1,0,0,1,2183.660051479476,959.188797587187) translate(0 21.818142361111114)"/><use xlink:href="#h" transform="matrix(1,0,0,1,2183.660051479476,959.188797587187) translate(0 54.083767361111114)"/><use xlink:href="#i" transform="matrix(1,0,0,1,2183.660051479476,959.188797587187) translate(0 86.34939236111111)"/><use xlink:href="#j" transform="matrix(1,0,0,1,2183.660051479476,1066.6080684205203) translate(0 21.58376736111111)"/><path d="M3066.5 946.3a6 6 0 0 1 6-6h185.13a6 6 0 0 1 6 6v117a6 6 0 0 1-6 6H3072.5a6 6 0 0 1-6-6z" stroke="#000" stroke-width="2" fill="#fff"/><path d="M3066.5 983.2h197.13m-197.12 42.88h197.13" stroke="#000" stroke-width="2" fill="none"/><use xlink:href="#k" transform="matrix(1,0,0,1,3074.509445549528,948.3007767538536) translate(34.96158854166667 21.58376736111111)"/><use xlink:href="#l" transform="matrix(1,0,0,1,3078.509445549528,991.188797587187) translate(0 21.58376736111111)"/><use xlink:href="#j" transform="matrix(1,0,0,1,3078.509445549528,1034.0768184205203) translate(0 21.58376736111111)"/><path d="M2618.28 1243.8a6 6 0 0 1 6-6h185.13a6 6 0 0 1 6 6v117a6 6 0 0 1-6 6H2624.3a6 6 0 0 1-6-6z" stroke="#000" stroke-width="2" fill="#fff"/><path d="M2618.28 1280.7h197.13m-197.12 42.88h197.13" stroke="#000" stroke-width="2" fill="none"/><use xlink:href="#m" transform="matrix(1,0,0,1,2626.284748514502,1245.804805810435) translate(57.650390625 21.58376736111111)"/><use xlink:href="#n" transform="matrix(1,0,0,1,2630.284748514502,1288.6928266437683) translate(0 21.58376736111111)"/><path d="M2370.28 1004.8h216.63" stroke="#3a414a" fill="none"/><path d="M2370.3 1005.28h-.52v-.95h.5z" stroke="#3a414a" stroke-width=".05" fill="#3a414a"/><path d="M2616.58 1004.8l-14.85-14.85-14.85 14.85 14.85 14.85z" stroke="#3a414a" fill="#fff"/><use xlink:href="#o" transform="matrix(1,0,0,1,2369.697213620101,1008.8007767538536) translate(0.005000000000000782 16.216875)"/><use xlink:href="#p" transform="matrix(1,0,0,1,2601.05779050669,965.0460306601036) translate(0.005000000000000782 16.216875)"/><path d="M2516.55 1018.4a6 6 0 0 1 6-6h65.14a6 6 0 0 1 6 6v19.53a6 6 0 0 1-6 6h-65.15a6 6 0 0 1-6-6z" fill="none"/><use xlink:href="#q" transform="matrix(1,0,0,1,2521.554325909708,1017.4150572693736) translate(0 17.46701388888889)"/><path d="M3065 1004.8H2846.8" stroke="#3a414a" fill="none"/><path d="M3065.5 1005.28h-.5v-.95h.5z" stroke="#3a414a" stroke-width=".05" fill="#3a414a"/><path d="M2817.1 1004.8l14.86 14.85 14.85-14.85-14.84-14.85z" stroke="#3a414a" fill="#3a414a"/><use xlink:href="#r" transform="matrix(1,0,0,1,3049.282487541716,980.5460306601036) translate(0.005000000000000782 16.216875)"/><use xlink:href="#s" transform="matrix(1,0,0,1,2815.8243960066898,1024.3007767538538) translate(0.005000000000000782 16.216875)"/><use xlink:href="#t" transform="matrix(1,0,0,1,2815.8243960066898,1024.3007767538538) translate(4.713125000000002 16.216875)"/><path d="M2815.4 967.03a6 6 0 0 1 6-6h55.5a6 6 0 0 1 6 6v19.52a6 6 0 0 1-6 6h-55.5a6 6 0 0 1-6-6z" fill="none"/><use xlink:href="#u" transform="matrix(1,0,0,1,2820.405416492947,966.0285275228986) translate(0 17.46701388888889)"/><path d="M2716.84 1236.3v-87.62" stroke="#3a414a" fill="none"/><path d="M2717.32 1236.8h-.95v-.5h.95z" stroke="#3a414a" stroke-width=".05" fill="#3a414a"/><path d="M2716.84 1119l-14.84 14.86 14.84 14.85 14.85-14.84z" stroke="#3a414a" fill="#fff"/><use xlink:href="#v" transform="matrix(1,0,0,1,2724.845082503725,1216.67743276356) translate(0.004999999999999893 16.216875)"/><use xlink:href="#v" transform="matrix(1,0,0,1,2686.5362836756,1118.1734037069787) translate(0.004999999999999893 16.216875)"/><path d="M2732.34 1123.3a6 6 0 0 1 6-6h80.4a6 6 0 0 1 6 6v19.52a6 6 0 0 1-6 6h-80.4a6 6 0 0 1-6-6z" fill="none"/><use xlink:href="#w" transform="matrix(1,0,0,1,2737.3420996752,1122.3007767538536) translate(0 17.46701388888889)"/><path d="M2332.74 575.2a6 6 0 0 1 6-6h185.12a6 6 0 0 1 6 6v149a6 6 0 0 1-6 6h-185.12a6 6 0 0 1-6-6z" stroke="#000" stroke-width="2" fill="#fff"/><path d="M2332.74 612.08h197.12m-197.12 75.16h197.12" stroke="#000" stroke-width="2" fill="none"/><use xlink:href="#x" transform="matrix(1,0,0,1,2340.740975755423,577.195194189565) translate(65.50086805555556 21.58376736111111)"/><use xlink:href="#y" transform="matrix(1,0,0,1,2344.740975755423,620.0832150228983) translate(0 21.95095486111111)"/><use xlink:href="#z" transform="matrix(1,0,0,1,2344.740975755423,620.0832150228983) translate(0 54.21657986111111)"/><path d="M2897.26 634.2a6 6 0 0 1 6-6h141.6a6 6 0 0 1 6 6v31a6 6 0 0 1-6 6h-141.6a6 6 0 0 1-6-6z" stroke="#000" stroke-width="2" fill="#fff"/><use xlink:href="#A" transform="matrix(1,0,0,1,2905.257864409614,636.195194189565) translate(33.88715277777778 21.58376736111111)"/><path d="M2895.76 649.7H2554" stroke="#3a414a" fill="none"/><path d="M2896.26 650.17h-.52v-.95h.52z" stroke="#3a414a" stroke-width=".05" fill="#3a414a"/><path d="M2531.86 649.7l21.65-12.5v25z" stroke="#3a414a" fill="#fff"/><path d="M2974.06 672.7v103.05a6 6 0 0 1-6 6h-245.22a6 6 0 0 0-6 6v87.17" stroke="#3a414a" fill="none"/><path d="M2974.53 672.7h-.95v-.5h.95z" stroke="#3a414a" stroke-width=".05" fill="#3a414a"/><path d="M2716.84 889.68l-4.63-14.26h9.28z" stroke="#3a414a" fill="#3a414a"/><use xlink:href="#o" transform="matrix(1,0,0,1,2937.890852690864,672.0678211426899) translate(0.005000000000000782 16.216875)"/><use xlink:href="#o" transform="matrix(1,0,0,1,2729.4803374193493,871.1734037069783) translate(0.005000000000000782 16.216875)"/><path d="M2431.3 731.7v73.55a6 6 0 0 0 6 6h273.54a6 6 0 0 1 6 6v57.67" stroke="#3a414a" fill="none"/><path d="M2431.78 731.7h-.95v-.5h.95z" stroke="#3a414a" stroke-width=".05" fill="#3a414a"/><path d="M2716.84 889.68l-4.63-14.26h9.28z" stroke="#3a414a" fill="#3a414a"/><g><use xlink:href="#o" transform="matrix(1,0,0,1,2395.134298025896,731.0678211426899) translate(0.005000000000000782 16.216875)"/></g><path d="M2430.72 736.2a6 6 0 0 1 6-6h69.32a6 6 0 0 1 6 6v19.52a6 6 0 0 1-6 6h-69.32a6 6 0 0 1-6-6z" fill="none"/><g><use xlink:href="#B" transform="matrix(1,0,0,1,2435.724039567201,735.195194189565) translate(0 17.46701388888889)"/></g><path d="M2974.64 677.2a6 6 0 0 1 6-6h64.8a6 6 0 0 1 6 6v19.52a6 6 0 0 1-6 6h-64.8a6 6 0 0 1-6-6z" fill="none"/><g><use xlink:href="#C" transform="matrix(1,0,0,1,2979.6452680779785,676.195194189565) translate(0 17.46701388888889)"/></g><defs><path d="M49 0l509-1490h400L1480 0h-339l-115-346H497L386 0H49zm524-585h374c-75-213-124-402-192-666-66 268-110 453-182 666" id="D"/><path d="M628 22C291 22 81-210 81-554c0-346 210-578 547-578 265 0 455 142 497 372l-279 52c-25-116-99-188-215-188-160 0-244 139-244 341 0 200 84 341 244 341 116 0 193-74 217-195l279 51C1085-123 896 22 628 22" id="E"/><path d="M683-1118v229H474v562c0 71 29 104 102 104 23 0 73-7 95-13l43 225C647 9 580 16 520 16 296 16 174-96 174-301v-588H20v-229h154v-266h300v266h209" id="F"/><path d="M128 0v-1118h300V0H128zm150-1264c-91 0-165-68-165-154 0-85 74-154 165-154 90 0 165 69 165 154 0 86-75 154-165 154" id="G"/><path d="M443 0L31-1118h319c90 293 199 572 268 885 66-313 175-593 264-885h315L784 0H443" id="H"/><path d="M120 396l69-226c123 42 245 23 254-107l8-60L31-1118h319c87 288 199 559 259 872 72-308 185-583 277-872h315L726 132c-68 181-186 294-410 294-79 0-153-13-196-30" id="I"/><g id="a"><use transform="matrix(0.010850694444444444,0,0,0.010850694444444444,0,0)" xlink:href="#D"/><use transform="matrix(0.010850694444444444,0,0,0.010850694444444444,16.080729166666664,0)" xlink:href="#E"/><use transform="matrix(0.010850694444444444,0,0,0.010850694444444444,29.15581597222222,0)" xlink:href="#F"/><use transform="matrix(0.010850694444444444,0,0,0.010850694444444444,37.29383680555556,0)" xlink:href="#G"/><use transform="matrix(0.010850694444444444,0,0,0.010850694444444444,43.31597222222222,0)" xlink:href="#H"/><use transform="matrix(0.010850694444444444,0,0,0.010850694444444444,56.640625,0)" xlink:href="#G"/><use transform="matrix(0.010850694444444444,0,0,0.010850694444444444,62.662760416666664,0)" xlink:href="#F"/><use transform="matrix(0.010850694444444444,0,0,0.010850694444444444,71.2890625,0)" xlink:href="#I"/></g><path d="M598-1118v154H368v674c0 100 37 144 132 144 23 0 62-6 92-12L629-6c-37 13-88 20-134 20-193 0-307-107-307-290v-688H20v-154h168v-266h180v266h230" id="J"/><path d="M158 0v-1118h180V0H158zm91-1301c-68 0-125-53-125-119s57-119 125-119c69 0 126 53 126 119s-57 119-126 119" id="K"/><path d="M338-1490V0H158v-1490h180" id="L"/><path d="M628 24c-324 0-524-230-524-574 0-343 198-582 503-582 237 0 487 146 487 559v75H286c9 234 145 362 343 362 132 0 231-58 273-172l174 48C1024-91 857 24 628 24zM287-650h624c-17-190-120-322-304-322-192 0-309 151-320 322" id="M"/><g id="b"><use transform="matrix(0.010850694444444444,0,0,0.010850694444444444,0,0)" xlink:href="#J"/><use transform="matrix(0.010850694444444444,0,0,0.010850694444444444,7.269965277777778,0)" xlink:href="#K"/><use transform="matrix(0.010850694444444444,0,0,0.010850694444444444,12.651909722222221,0)" xlink:href="#J"/><use transform="matrix(0.010850694444444444,0,0,0.010850694444444444,19.921875,0)" xlink:href="#L"/><use transform="matrix(0.010850694444444444,0,0,0.010850694444444444,25.303819444444443,0)" xlink:href="#M"/></g><path d="M158 0v-1118h175l1 205c55-151 181-225 313-225 147 0 245 90 285 228 53-141 190-228 352-228 194 0 352 125 352 384V0h-181v-749c0-161-105-225-225-225-151 0-243 103-243 244V0H807v-767c0-124-93-207-219-207-131 0-250 92-250 270V0H158" id="N"/><path d="M471 26C259 26 90-98 90-318c0-256 228-303 435-329 202-27 287-16 287-108 0-139-79-219-234-219-161 0-248 86-283 164l-173-57c86-203 278-265 451-265 150 0 419 46 419 395V0H815v-152h-12C765-73 660 26 471 26zm31-159c199 0 310-134 310-271v-155c-30 35-226 55-295 64-131 17-246 59-246 186 0 116 97 176 231 176" id="O"/><path d="M645 0H180v-1490h484c435 0 692 280 692 742 0 466-257 748-711 748zM370-168h263c363 0 539-218 539-580 0-358-176-574-521-574H370v1154" id="P"/><g id="c"><use transform="matrix(0.010850694444444444,0,0,0.010850694444444444,0,0)" xlink:href="#N"/><use transform="matrix(0.010850694444444444,0,0,0.010850694444444444,19.466145833333332,0)" xlink:href="#M"/><use transform="matrix(0.010850694444444444,0,0,0.010850694444444444,32.421875,0)" xlink:href="#J"/><use transform="matrix(0.010850694444444444,0,0,0.010850694444444444,39.80034722222222,0)" xlink:href="#O"/><use transform="matrix(0.010850694444444444,0,0,0.010850694444444444,52.27864583333333,0)" xlink:href="#P"/><use transform="matrix(0.010850694444444444,0,0,0.010850694444444444,68.31597222222221,0)" xlink:href="#O"/><use transform="matrix(0.010850694444444444,0,0,0.010850694444444444,80.79427083333333,0)" xlink:href="#J"/><use transform="matrix(0.010850694444444444,0,0,0.010850694444444444,88.17274305555554,0)" xlink:href="#O"/></g><path d="M577 24c-279 0-473-224-473-580 0-354 195-576 474-576 218 0 287 134 324 193h14v-551h180V0H922v-173h-20C865-111 790 24 577 24zm27-161c203 0 314-172 314-421 0-247-108-413-314-413-212 0-317 181-317 413 0 235 108 421 317 421" id="Q"/><path d="M613 24c-304 0-509-231-509-576 0-350 205-580 509-580 305 0 511 230 511 580 0 345-206 576-511 576zm0-161c226 0 329-195 329-415 0-222-103-419-329-419-223 0-326 196-326 419 0 220 103 415 326 415" id="R"/><path d="M409 0L70-1118h191c89 329 165 560 243 925 75-353 154-601 240-925h192c85 325 161 564 235 922 77-354 157-598 244-922h191L1267 0h-179c-86-307-176-590-250-913C763-588 675-308 588 0H409" id="S"/><path d="M338-670V0H158v-1118h173l1 207c72-158 192-221 342-221 226 0 378 139 378 422V0H872v-695c0-172-96-275-252-275-161 0-282 109-282 300" id="T"/><path d="M218-607c0-325 108-727 258-974h175c-155 315-250 682-250 974 0 265 78 531 250 886H476C306-10 218-315 218-607" id="U"/><path d="M96 279C273-86 346-350 346-607c0-292-95-659-250-974h175c150 246 258 650 258 974 0 297-91 602-258 886H96" id="V"/><g id="d"><use transform="matrix(0.010850694444444444,0,0,0.010850694444444444,0,0)" xlink:href="#Q"/><use transform="matrix(0.010850694444444444,0,0,0.010850694444444444,13.606770833333332,0)" xlink:href="#R"/><use transform="matrix(0.010850694444444444,0,0,0.010850694444444444,26.529947916666664,0)" xlink:href="#S"/><use transform="matrix(0.010850694444444444,0,0,0.010850694444444444,44.71571180555556,0)" xlink:href="#T"/><use transform="matrix(0.010850694444444444,0,0,0.010850694444444444,57.84505208333333,0)" xlink:href="#L"/><use transform="matrix(0.010850694444444444,0,0,0.010850694444444444,63.22699652777778,0)" xlink:href="#R"/><use transform="matrix(0.010850694444444444,0,0,0.010850694444444444,76.76866319444444,0)" xlink:href="#O"/><use transform="matrix(0.010850694444444444,0,0,0.010850694444444444,89.24696180555556,0)" xlink:href="#Q"/><use transform="matrix(0.010850694444444444,0,0,0.010850694444444444,102.85373263888889,0)" xlink:href="#U"/><use transform="matrix(0.010850694444444444,0,0,0.010850694444444444,110.95920138888889,0)" xlink:href="#V"/></g><path d="M677 24c-213 0-288-135-325-197h-20V0H158v-1490h180v551h14c37-59 106-193 324-193 279 0 474 222 474 576 0 356-194 580-473 580zm-27-161c209 0 317-186 317-421 0-232-105-413-317-413-206 0-314 166-314 413 0 249 111 421 314 421" id="W"/><path d="M158 0v-1118h174v172h12c41-113 157-188 290-188 26 0 70 2 91 3v181c-11-2-60-10-108-10-161 0-279 109-279 260V0H158" id="X"/><path d="M538 24C308 24 148-78 108-271l171-41c32 123 123 178 257 178 156 0 256-77 256-169 0-77-54-128-164-154l-186-44c-203-48-300-148-300-305 0-192 176-326 414-326 230 0 351 112 402 269l-163 42c-31-80-94-158-238-158-133 0-233 69-233 162 0 83 57 129 188 160l169 40c203 48 298 149 298 302 0 196-179 339-441 339" id="Y"/><g id="e"><use transform="matrix(0.010850694444444444,0,0,0.010850694444444444,0,0)" xlink:href="#W"/><use transform="matrix(0.010850694444444444,0,0,0.010850694444444444,13.606770833333332,0)" xlink:href="#X"/><use transform="matrix(0.010850694444444444,0,0,0.010850694444444444,21.603732638888886,0)" xlink:href="#R"/><use transform="matrix(0.010850694444444444,0,0,0.010850694444444444,34.52690972222222,0)" xlink:href="#S"/><use transform="matrix(0.010850694444444444,0,0,0.010850694444444444,52.71267361111112,0)" xlink:href="#Y"/><use transform="matrix(0.010850694444444444,0,0,0.010850694444444444,64.44227430555556,0)" xlink:href="#M"/><use transform="matrix(0.010850694444444444,0,0,0.010850694444444444,77.39800347222223,0)" xlink:href="#U"/><use transform="matrix(0.010850694444444444,0,0,0.010850694444444444,85.50347222222223,0)" xlink:href="#V"/></g><path d="M537 14c-226 0-379-139-379-422v-710h180v695c0 172 97 275 253 275 160 0 281-109 281-300v-670h181V0H879v-209C806-46 684 14 537 14" id="Z"/><path d="M158 418v-1536h174v179h20c37-59 106-193 324-193 279 0 474 222 474 576 0 356-194 580-473 580-213 0-288-135-325-197h-14v591H158zm492-555c209 0 317-186 317-421 0-232-105-413-317-413-206 0-314 166-314 413 0 249 111 421 314 421" id="aa"/><g id="f"><use transform="matrix(0.010850694444444444,0,0,0.010850694444444444,0,0)" xlink:href="#Z"/><use transform="matrix(0.010850694444444444,0,0,0.010850694444444444,13.140190972222221,0)" xlink:href="#aa"/><use transform="matrix(0.010850694444444444,0,0,0.010850694444444444,26.746961805555554,0)" xlink:href="#L"/><use transform="matrix(0.010850694444444444,0,0,0.010850694444444444,32.12890625,0)" xlink:href="#R"/><use transform="matrix(0.010850694444444444,0,0,0.010850694444444444,45.670572916666664,0)" xlink:href="#O"/><use transform="matrix(0.010850694444444444,0,0,0.010850694444444444,58.14887152777778,0)" xlink:href="#Q"/><use transform="matrix(0.010850694444444444,0,0,0.010850694444444444,71.7556423611111,0)" xlink:href="#U"/><use transform="matrix(0.010850694444444444,0,0,0.010850694444444444,79.8611111111111,0)" xlink:href="#V"/></g><path d="M135 0v-1490h468l242 684c30 94 76 293 111 455 34-161 80-360 110-455l238-684h470V0h-307c0-447-3-765 11-1227-122 503-246 788-395 1227H826C676-435 552-717 427-1215c15 453 11 775 11 1215H135" id="ab"/><path d="M440 22C227 22 68-92 68-313c0-250 202-322 422-343 195-21 271-24 271-105 0-95-63-149-175-149-116 0-187 57-211 129l-275-46c57-194 237-305 487-305 240 0 474 108 474 379V0H777v-155h-10C713-51 605 22 440 22zm85-211c140 0 238-93 238-211v-121c-37 26-156 42-222 51-111 16-185 59-185 149 0 87 70 132 169 132" id="ac"/><path d="M633 22C291 22 81-200 81-553c0-345 210-579 537-579 292 0 525 185 525 567v84H378c7 183 109 277 260 277 105 0 184-46 216-132l272 51C1071-99 893 22 633 22zM380-669h474c-15-146-94-237-233-237-143 0-229 99-241 237" id="ad"/><path d="M128 0v-1118h290v195h12c54-169 184-238 367-200v268c-27-8-86-15-130-15-138 0-239 95-239 234V0H128" id="ae"/><path d="M428-1490V0H128v-1490h300" id="af"/><g id="g"><use transform="matrix(0.010850694444444444,0,0,0.010850694444444444,0,0)" xlink:href="#ab"/><use transform="matrix(0.010850694444444444,0,0,0.010850694444444444,20.703125,0)" xlink:href="#ac"/><use transform="matrix(0.010850694444444444,0,0,0.010850694444444444,33.60460069444444,0)" xlink:href="#F"/><use transform="matrix(0.010850694444444444,0,0,0.010850694444444444,41.52560763888889,0)" xlink:href="#ad"/><use transform="matrix(0.010850694444444444,0,0,0.010850694444444444,54.76345486111112,0)" xlink:href="#ae"/><use transform="matrix(0.010850694444444444,0,0,0.010850694444444444,63.97569444444444,0)" xlink:href="#G"/><use transform="matrix(0.010850694444444444,0,0,0.010850694444444444,69.99782986111111,0)" xlink:href="#ac"/><use transform="matrix(0.010850694444444444,0,0,0.010850694444444444,82.89930555555556,0)" xlink:href="#af"/></g><path d="M140 405l46-156c120 36 205 19 263-150l32-93L54-1118h197c107 313 237 620 324 950 87-331 219-637 326-950h196L606 167c-68 178-176 259-334 259-64 0-113-12-132-21" id="ag"/><g id="h"><use transform="matrix(0.010850694444444444,0,0,0.010850694444444444,0,0)" xlink:href="#J"/><use transform="matrix(0.010850694444444444,0,0,0.010850694444444444,7.703993055555555,0)" xlink:href="#ag"/><use transform="matrix(0.010850694444444444,0,0,0.010850694444444444,20.19314236111111,0)" xlink:href="#aa"/><use transform="matrix(0.010850694444444444,0,0,0.010850694444444444,33.79991319444444,0)" xlink:href="#M"/></g><path d="M613 24c-304 0-509-231-509-576 0-350 205-580 509-580 216 0 392 114 453 309l-173 49c-33-115-133-197-280-197-223 0-326 196-326 419 0 220 103 415 326 415 150 0 252-85 285-206l172 49C1010-95 832 24 613 24" id="ah"/><g id="i"><use transform="matrix(0.010850694444444444,0,0,0.010850694444444444,0,0)" xlink:href="#ah"/><use transform="matrix(0.010850694444444444,0,0,0.010850694444444444,12.6953125,0)" xlink:href="#R"/><use transform="matrix(0.010850694444444444,0,0,0.010850694444444444,26.01996527777778,0)" xlink:href="#T"/><use transform="matrix(0.010850694444444444,0,0,0.010850694444444444,39.14930555555556,0)" xlink:href="#J"/><use transform="matrix(0.010850694444444444,0,0,0.010850694444444444,46.20225694444445,0)" xlink:href="#M"/><use transform="matrix(0.010850694444444444,0,0,0.010850694444444444,59.15798611111112,0)" xlink:href="#T"/><use transform="matrix(0.010850694444444444,0,0,0.010850694444444444,72.28732638888889,0)" xlink:href="#J"/></g><g id="j"><use transform="matrix(0.010850694444444444,0,0,0.010850694444444444,0,0)" xlink:href="#Q"/><use transform="matrix(0.010850694444444444,0,0,0.010850694444444444,13.606770833333332,0)" xlink:href="#R"/><use transform="matrix(0.010850694444444444,0,0,0.010850694444444444,26.529947916666664,0)" xlink:href="#S"/><use transform="matrix(0.010850694444444444,0,0,0.010850694444444444,44.71571180555556,0)" xlink:href="#T"/><use transform="matrix(0.010850694444444444,0,0,0.010850694444444444,57.84505208333333,0)" xlink:href="#L"/><use transform="matrix(0.010850694444444444,0,0,0.010850694444444444,63.22699652777778,0)" xlink:href="#R"/><use transform="matrix(0.010850694444444444,0,0,0.010850694444444444,76.76866319444444,0)" xlink:href="#O"/><use transform="matrix(0.010850694444444444,0,0,0.010850694444444444,89.24696180555556,0)" xlink:href="#Q"/><use transform="matrix(0.010850694444444444,0,0,0.010850694444444444,102.85373263888889,0)" xlink:href="#U"/><use transform="matrix(0.010850694444444444,0,0,0.010850694444444444,110.95920138888889,0)" xlink:href="#V"/></g><path d="M659 0H135v-1490h529c448 0 721 280 721 744 0 466-273 746-726 746zM440-263h204c287 0 437-148 437-483 0-333-150-481-435-481H440v964" id="ai"/><path d="M628 22C291 22 81-210 81-554c0-346 210-578 547-578 336 0 547 232 547 578 0 344-211 576-547 576zm0-236c160 0 242-146 242-341 0-197-82-341-242-341S387-753 387-555c0 195 81 341 241 341" id="aj"/><path d="M513 14c-232 0-385-159-385-421v-711h300v659c0 139 76 222 202 222 127 0 217-86 217-234v-647h301V0H864l-4-232C797-74 683 14 513 14" id="ak"/><path d="M128 0v-1118h278l12 217c60-163 185-234 319-234 143 0 236 81 288 251 63-172 205-251 359-251 205 0 357 138 357 381V0h-301v-697c0-126-76-187-177-187-114 0-184 79-184 196V0H789v-705c0-109-72-179-174-179-106 0-187 74-187 208V0H128" id="al"/><path d="M428-647V0H128v-1118h283l4 231c63-156 176-245 348-245 232 0 384 159 384 421V0H847v-659c0-139-76-222-202-222-128 0-217 86-217 234" id="am"/><g id="k"><use transform="matrix(0.010850694444444444,0,0,0.010850694444444444,0,0)" xlink:href="#ai"/><use transform="matrix(0.010850694444444444,0,0,0.010850694444444444,16.048177083333332,0)" xlink:href="#aj"/><use transform="matrix(0.010850694444444444,0,0,0.010850694444444444,29.676649305555554,0)" xlink:href="#E"/><use transform="matrix(0.010850694444444444,0,0,0.010850694444444444,42.75173611111111,0)" xlink:href="#ak"/><use transform="matrix(0.010850694444444444,0,0,0.010850694444444444,56.58637152777778,0)" xlink:href="#al"/><use transform="matrix(0.010850694444444444,0,0,0.010850694444444444,76.86631944444443,0)" xlink:href="#ad"/><use transform="matrix(0.010850694444444444,0,0,0.010850694444444444,90.10416666666666,0)" xlink:href="#am"/><use transform="matrix(0.010850694444444444,0,0,0.010850694444444444,103.93880208333333,0)" xlink:href="#F"/></g><path d="M338-670V0H158v-1490h180v566c73-149 190-208 336-208 226 0 379 139 379 422V0H872v-695c0-172-96-275-252-275-161 0-282 109-282 300" id="an"/><g id="l"><use transform="matrix(0.010850694444444444,0,0,0.010850694444444444,0,0)" xlink:href="#aa"/><use transform="matrix(0.010850694444444444,0,0,0.010850694444444444,13.823784722222221,0)" xlink:href="#O"/><use transform="matrix(0.010850694444444444,0,0,0.010850694444444444,26.302083333333332,0)" xlink:href="#J"/><use transform="matrix(0.010850694444444444,0,0,0.010850694444444444,33.57204861111111,0)" xlink:href="#an"/></g><path d="M440-1490V0H135v-1490h305" id="ao"/><path d="M625 442c-280 0-454-114-503-274l258-72c28 63 97 128 243 128 153 0 246-69 246-216v-206h-23C805-108 717-16 536-16 284-16 81-191 81-561c0-378 208-571 456-571 188 0 280 113 321 202h13v-188h295V-9c0 303-226 451-541 451zm5-686c153 0 240-119 240-319 0-198-86-329-240-329-158 0-241 137-241 329 0 195 85 319 241 319" id="ap"/><g id="m"><use transform="matrix(0.010850694444444444,0,0,0.010850694444444444,0,0)" xlink:href="#ao"/><use transform="matrix(0.010850694444444444,0,0,0.010850694444444444,6.239149305555555,0)" xlink:href="#al"/><use transform="matrix(0.010850694444444444,0,0,0.010850694444444444,26.51909722222222,0)" xlink:href="#ac"/><use transform="matrix(0.010850694444444444,0,0,0.010850694444444444,39.420572916666664,0)" xlink:href="#ap"/><use transform="matrix(0.010850694444444444,0,0,0.010850694444444444,53.46137152777778,0)" xlink:href="#ad"/></g><g id="n"><use transform="matrix(0.010850694444444444,0,0,0.010850694444444444,0,0)" xlink:href="#Y"/><use transform="matrix(0.010850694444444444,0,0,0.010850694444444444,11.729600694444445,0)" xlink:href="#R"/><use transform="matrix(0.010850694444444444,0,0,0.010850694444444444,25.05425347222222,0)" xlink:href="#Z"/><use transform="matrix(0.010850694444444444,0,0,0.010850694444444444,38.19444444444444,0)" xlink:href="#X"/><use transform="matrix(0.010850694444444444,0,0,0.010850694444444444,46.191406249999986,0)" xlink:href="#ah"/><use transform="matrix(0.010850694444444444,0,0,0.010850694444444444,58.886718749999986,0)" xlink:href="#M"/></g><path d="M646 20c-332 0-524-278-524-764 0-483 194-766 524-766s524 283 524 766c0 485-191 764-524 764zm0-166c218 0 341-220 341-598 0-380-123-601-341-601s-341 222-341 601c0 378 123 598 341 598" id="aq"/><path d="M295 13c-75 0-135-60-135-135s60-135 135-135 135 60 135 135S370 13 295 13" id="ar"/><path d="M441-652l13-317-268 171-72-126 282-146-282-146 72-128 268 171-13-317h144l-12 317 267-171 72 128-282 146 282 146-72 126-267-171 12 317H441" id="as"/><g id="o"><use transform="matrix(0.008173828125000001,0,0,0.008173828125000001,0,0)" xlink:href="#aq"/><use transform="matrix(0.008173828125000001,0,0,0.008173828125000001,10.135546875000001,0)" xlink:href="#ar"/><use transform="matrix(0.008173828125000001,0,0,0.008173828125000001,14.958105468750002,0)" xlink:href="#ar"/><use transform="matrix(0.008173828125000001,0,0,0.008173828125000001,19.7806640625,0)" xlink:href="#as"/></g><path d="M653-1490V0H466v-1314h-10L96-1047v-204l324-239h233" id="at"/><path fill="#fff" d="M295 13c-75 0-135-60-135-135s60-135 135-135 135 60 135 135S370 13 295 13" id="au"/><g id="p"><use transform="matrix(0.008173828125000001,0,0,0.008173828125000001,0,0)" xlink:href="#at"/><use transform="matrix(0.008173828125000001,0,0,0.008173828125000001,6.808798828125001,0)" xlink:href="#au"/><use transform="matrix(0.008173828125000001,0,0,0.008173828125000001,11.631357421875002,0)" xlink:href="#au"/></g><g id="q"><use transform="matrix(0.008680555555555556,0,0,0.008680555555555556,0,0)" xlink:href="#N"/><use transform="matrix(0.008680555555555556,0,0,0.008680555555555556,15.572916666666668,0)" xlink:href="#O"/><use transform="matrix(0.008680555555555556,0,0,0.008680555555555556,25.555555555555557,0)" xlink:href="#J"/><use transform="matrix(0.008680555555555556,0,0,0.008680555555555556,31.197916666666668,0)" xlink:href="#M"/><use transform="matrix(0.008680555555555556,0,0,0.008680555555555556,41.5625,0)" xlink:href="#X"/><use transform="matrix(0.008680555555555556,0,0,0.008680555555555556,48.532986111111114,0)" xlink:href="#K"/><use transform="matrix(0.008680555555555556,0,0,0.008680555555555556,52.83854166666667,0)" xlink:href="#O"/><use transform="matrix(0.008680555555555556,0,0,0.008680555555555556,62.82118055555556,0)" xlink:href="#L"/></g><g id="r"><use transform="matrix(0.008173828125000001,0,0,0.008173828125000001,0,0)" xlink:href="#at"/><use transform="matrix(0.008173828125000001,0,0,0.008173828125000001,6.808798828125001,0)" xlink:href="#au"/><use transform="matrix(0.008173828125000001,0,0,0.008173828125000001,11.631357421875002,0)" xlink:href="#au"/></g><g id="t"><use transform="matrix(0.008173828125000001,0,0,0.008173828125000001,0,0)" xlink:href="#at"/><use transform="matrix(0.008173828125000001,0,0,0.008173828125000001,6.808798828125001,0)" xlink:href="#au"/><use transform="matrix(0.008173828125000001,0,0,0.008173828125000001,11.631357421875002,0)" xlink:href="#au"/></g><g id="u"><use transform="matrix(0.008680555555555556,0,0,0.008680555555555556,0,0)" xlink:href="#Y"/><use transform="matrix(0.008680555555555556,0,0,0.008680555555555556,9.383680555555555,0)" xlink:href="#R"/><use transform="matrix(0.008680555555555556,0,0,0.008680555555555556,20.04340277777778,0)" xlink:href="#Z"/><use transform="matrix(0.008680555555555556,0,0,0.008680555555555556,30.555555555555557,0)" xlink:href="#X"/><use transform="matrix(0.008680555555555556,0,0,0.008680555555555556,36.953125,0)" xlink:href="#ah"/><use transform="matrix(0.008680555555555556,0,0,0.008680555555555556,47.109375,0)" xlink:href="#M"/></g><use transform="matrix(0.008173828125000001,0,0,0.008173828125000001,0,0)" xlink:href="#at" id="v"/><g id="w"><use transform="matrix(0.008680555555555556,0,0,0.008680555555555556,0,0)" xlink:href="#J"/><use transform="matrix(0.008680555555555556,0,0,0.008680555555555556,5.815972222222222,0)" xlink:href="#an"/><use transform="matrix(0.008680555555555556,0,0,0.008680555555555556,16.328125,0)" xlink:href="#Z"/><use transform="matrix(0.008680555555555556,0,0,0.008680555555555556,26.84027777777778,0)" xlink:href="#N"/><use transform="matrix(0.008680555555555556,0,0,0.008680555555555556,42.41319444444444,0)" xlink:href="#W"/><use transform="matrix(0.008680555555555556,0,0,0.008680555555555556,53.298611111111114,0)" xlink:href="#T"/><use transform="matrix(0.008680555555555556,0,0,0.008680555555555556,63.802083333333336,0)" xlink:href="#O"/><use transform="matrix(0.008680555555555556,0,0,0.008680555555555556,73.78472222222223,0)" xlink:href="#K"/><use transform="matrix(0.008680555555555556,0,0,0.008680555555555556,78.09027777777779,0)" xlink:href="#L"/></g><path d="M750 21c-371 0-615-218-615-544v-967h305v942c0 174 123 299 310 299s309-125 309-299v-942h306v967c0 326-247 544-615 544" id="av"/><path d="M572 22C302 22 117-98 78-306l279-48c29 105 101 156 224 156 114 0 185-48 185-115 0-118-228-130-337-155-215-49-322-150-322-317 0-215 187-347 470-347 265 0 424 116 466 298l-266 47c-24-76-87-130-196-130-98 0-174 46-174 113 0 56 38 95 144 117l201 40c216 44 320 143 320 302 0 220-207 367-500 367" id="aw"/><g id="x"><use transform="matrix(0.010850694444444444,0,0,0.010850694444444444,0,0)" xlink:href="#av"/><use transform="matrix(0.010850694444444444,0,0,0.010850694444444444,16.26519097222222,0)" xlink:href="#aw"/><use transform="matrix(0.010850694444444444,0,0,0.010850694444444444,28.7109375,0)" xlink:href="#ad"/><use transform="matrix(0.010850694444444444,0,0,0.010850694444444444,41.94878472222222,0)" xlink:href="#ae"/></g><g id="y"><use transform="matrix(0.010850694444444444,0,0,0.010850694444444444,0,0)" xlink:href="#M"/><use transform="matrix(0.010850694444444444,0,0,0.010850694444444444,12.955729166666666,0)" xlink:href="#N"/><use transform="matrix(0.010850694444444444,0,0,0.010850694444444444,32.421875,0)" xlink:href="#O"/><use transform="matrix(0.010850694444444444,0,0,0.010850694444444444,44.90017361111111,0)" xlink:href="#K"/><use transform="matrix(0.010850694444444444,0,0,0.010850694444444444,50.28211805555556,0)" xlink:href="#L"/></g><g id="z"><use transform="matrix(0.010850694444444444,0,0,0.010850694444444444,0,0)" xlink:href="#X"/><use transform="matrix(0.010850694444444444,0,0,0.010850694444444444,7.996961805555555,0)" xlink:href="#R"/><use transform="matrix(0.010850694444444444,0,0,0.010850694444444444,21.321614583333332,0)" xlink:href="#L"/><use transform="matrix(0.010850694444444444,0,0,0.010850694444444444,26.70355902777778,0)" xlink:href="#M"/></g><path d="M537 19C279 19 81-185 81-557c0-382 206-575 454-575 190 0 278 113 318 202h10v-560h300V0H868v-179h-15C812-89 719 19 537 19zm92-241c153 0 240-134 240-336 0-203-86-334-240-334-158 0-240 138-240 334 0 197 84 336 240 336" id="ax"/><g id="A"><use transform="matrix(0.010850694444444444,0,0,0.010850694444444444,0,0)" xlink:href="#D"/><use transform="matrix(0.010850694444444444,0,0,0.010850694444444444,16.080729166666664,0)" xlink:href="#ax"/><use transform="matrix(0.010850694444444444,0,0,0.010850694444444444,30.088975694444443,0)" xlink:href="#al"/><use transform="matrix(0.010850694444444444,0,0,0.010850694444444444,50.36892361111111,0)" xlink:href="#G"/><use transform="matrix(0.010850694444444444,0,0,0.010850694444444444,56.39105902777778,0)" xlink:href="#am"/></g><g id="B"><use transform="matrix(0.008680555555555556,0,0,0.008680555555555556,0,0)" xlink:href="#W"/><use transform="matrix(0.008680555555555556,0,0,0.008680555555555556,10.885416666666668,0)" xlink:href="#X"/><use transform="matrix(0.008680555555555556,0,0,0.008680555555555556,17.282986111111114,0)" xlink:href="#R"/><use transform="matrix(0.008680555555555556,0,0,0.008680555555555556,27.62152777777778,0)" xlink:href="#S"/><use transform="matrix(0.008680555555555556,0,0,0.008680555555555556,42.17013888888889,0)" xlink:href="#Y"/><use transform="matrix(0.008680555555555556,0,0,0.008680555555555556,51.55381944444445,0)" xlink:href="#M"/><use transform="matrix(0.008680555555555556,0,0,0.008680555555555556,61.918402777777786,0)" xlink:href="#Y"/></g><g id="C"><use transform="matrix(0.008680555555555556,0,0,0.008680555555555556,0,0)" xlink:href="#Z"/><use transform="matrix(0.008680555555555556,0,0,0.008680555555555556,10.512152777777779,0)" xlink:href="#aa"/><use transform="matrix(0.008680555555555556,0,0,0.008680555555555556,21.397569444444446,0)" xlink:href="#L"/><use transform="matrix(0.008680555555555556,0,0,0.008680555555555556,25.703125,0)" xlink:href="#R"/><use transform="matrix(0.008680555555555556,0,0,0.008680555555555556,36.536458333333336,0)" xlink:href="#O"/><use transform="matrix(0.008680555555555556,0,0,0.008680555555555556,46.519097222222236,0)" xlink:href="#Q"/><use transform="matrix(0.008680555555555556,0,0,0.008680555555555556,57.4045138888889,0)" xlink:href="#Y"/></g></defs></g></svg>