<svg xmlns="http://www.w3.org/2000/svg" xmlns:xlink="http://www.w3.org/1999/xlink" xmlns:lucid="lucid" width="1218.84" height="564.04"><g transform="translate(1192.8605679609018 -105.27239619320653)" lucid:page-tab-id="0_0"><path d="M-1500 0h4500v1500h-4500z" fill="#fff"/><path d="M-665.28 525.3a6 6 0 0 1 6-6h211.55a6 6 0 0 1 6 6v137a6 6 0 0 1-6 6h-211.55a6 6 0 0 1-6-6z" stroke="#3a414a" stroke-width="2" fill="#fff"/><path d="M-665.28 562.2h223.55" stroke="#3a414a" stroke-width="2" fill="none"/><use xlink:href="#a" transform="matrix(1,0,0,1,-657.2827884950675,527.3082023064802) translate(61.666015625 21.52777777777778)"/><use xlink:href="#b" transform="matrix(1,0,0,1,-653.2827884950675,570.1962231398136) translate(0 37.450954861111114)"/><use xlink:href="#c" transform="matrix(1,0,0,1,-653.2827884950675,570.1962231398136) translate(70.6814236111111 37.450954861111114)"/><use xlink:href="#d" transform="matrix(1,0,0,1,-653.2827884950675,570.1962231398136) translate(0 69.71657986111111)"/><use xlink:href="#e" transform="matrix(1,0,0,1,-653.2827884950675,570.1962231398136) translate(113.30295138888889 69.71657986111111)"/><path d="M-687.74 150.97a6 6 0 0 1 6-6h256.46a6 6 0 0 1 6 6v209a6 6 0 0 1-6 6h-256.46a6 6 0 0 1-6-6z" stroke="#3a414a" stroke-width="2" fill="#fff"/><path d="M-687.74 220.13h268.46" stroke="#3a414a" stroke-width="2" fill="none"/><use xlink:href="#f" transform="matrix(1,0,0,1,-679.7381309029882,152.97304041345913) translate(27.35720486111113 21.95095486111111)"/><use xlink:href="#g" transform="matrix(1,0,0,1,-679.7381309029882,152.97304041345913) translate(49.107421875000014 54.21657986111111)"/><use xlink:href="#h" transform="matrix(1,0,0,1,-675.7381309029882,228.12668624679247) translate(0 40.818142361111114)"/><use xlink:href="#i" transform="matrix(1,0,0,1,-675.7381309029882,228.12668624679247) translate(0 73.08376736111111)"/><use xlink:href="#j" transform="matrix(1,0,0,1,-675.7381309029882,228.12668624679247) translate(0 105.34939236111111)"/><path d="M-243.5 183.47a6 6 0 0 1 6-6H19a6 6 0 0 1 6 6v144a6 6 0 0 1-6 6H-237.5a6 6 0 0 1-6-6z" stroke="#3a414a" stroke-width="2" fill="#fff"/><path d="M-243.5 252.63H25" stroke="#3a414a" stroke-width="2" fill="none"/><use xlink:href="#f" transform="matrix(1,0,0,1,-235.48599980816317,185.47304041345913) translate(27.35720486111113 21.95095486111111)"/><use xlink:href="#k" transform="matrix(1,0,0,1,-235.48599980816317,185.47304041345913) translate(43.80143229166667 54.21657986111111)"/><use xlink:href="#l" transform="matrix(1,0,0,1,-231.48599980816317,260.6266862467925) translate(0 41.083767361111114)"/><path d="M-221.03 525.3a6 6 0 0 1 6-6H-3.48a6 6 0 0 1 6 6v137a6 6 0 0 1-6 6h-211.55a6 6 0 0 1-6-6z" stroke="#3a414a" stroke-width="2" fill="#fff"/><path d="M-221.03 562.2H2.52" stroke="#3a414a" stroke-width="2" fill="none"/><use xlink:href="#m" transform="matrix(1,0,0,1,-213.03065740024238,527.3082023064802) translate(47.96158854166667 21.52777777777778)"/><use xlink:href="#n" transform="matrix(1,0,0,1,-209.03065740024238,570.1962231398136) translate(0 37.450954861111114)"/><use xlink:href="#c" transform="matrix(1,0,0,1,-209.03065740024238,570.1962231398136) translate(59.36414930555555 37.450954861111114)"/><use xlink:href="#b" transform="matrix(1,0,0,1,-209.03065740024238,570.1962231398136) translate(0 69.71657986111111)"/><use xlink:href="#o" transform="matrix(1,0,0,1,-209.03065740024238,570.1962231398136) translate(70.6814236111111 69.71657986111111)"/><path d="M-1149.23 525.3a6 6 0 0 1 6-6h247.55a6 6 0 0 1 6 6v137a6 6 0 0 1-6 6h-247.55a6 6 0 0 1-6-6z" stroke="#3a414a" stroke-width="2" fill="#fff"/><path d="M-1149.23 562.2h259.55" stroke="#3a414a" stroke-width="2" fill="none"/><use xlink:href="#p" transform="matrix(1,0,0,1,-1141.2311434595156,527.3082023064802) translate(64.27430555555557 21.52777777777778)"/><use xlink:href="#q" transform="matrix(1,0,0,1,-1137.2311434595156,570.1962231398136) translate(0 37.450954861111114)"/><use xlink:href="#c" transform="matrix(1,0,0,1,-1137.2311434595156,570.1962231398136) translate(92.20920138888889 37.450954861111114)"/><use xlink:href="#r" transform="matrix(1,0,0,1,-1137.2311434595156,570.1962231398136) translate(0 69.71657986111111)"/><use xlink:href="#s" transform="matrix(1,0,0,1,-1137.2311434595156,570.1962231398136) translate(145.22569444444446 69.71657986111111)"/><path d="M-1191.86 112.27a6 6 0 0 1 6-6h332.8a6 6 0 0 1 6 6v305a6 6 0 0 1-6 6h-332.8a6 6 0 0 1-6-6z" stroke="#3a414a" stroke-width="2" fill="#fff"/><path d="M-1191.86 181.43h344.8" stroke="#3a414a" stroke-width="2" fill="none"/><use xlink:href="#f" transform="matrix(1,0,0,1,-1183.8605679609018,114.27239619320653) translate(65.35720486111113 21.95095486111111)"/><use xlink:href="#t" transform="matrix(1,0,0,1,-1183.8605679609018,114.27239619320653) translate(80.52647569444446 54.21657986111111)"/><use xlink:href="#u" transform="matrix(1,0,0,1,-1179.8605679609018,189.42604202653987) translate(0 40.91970486111112)"/><use xlink:href="#v" transform="matrix(1,0,0,1,-1179.8605679609018,189.42604202653987) translate(0 73.18532986111111)"/><use xlink:href="#w" transform="matrix(1,0,0,1,-1179.8605679609018,189.42604202653987) translate(0 105.45095486111111)"/><use xlink:href="#x" transform="matrix(1,0,0,1,-1179.8605679609018,189.42604202653987) translate(0 137.71657986111111)"/><use xlink:href="#y" transform="matrix(1,0,0,1,-1179.8605679609018,189.42604202653987) translate(0 169.98220486111111)"/><use xlink:href="#z" transform="matrix(1,0,0,1,-1179.8605679609018,189.42604202653987) translate(0 202.24782986111111)"/><path d="M-1019.46 517.3v-92.03" stroke="#3a414a" stroke-width="2" fill="none"/><path d="M-1018.48 518.3h-1.95v-1.02h1.95zM-1018.48 425.3h-1.95v-1.03h1.95z" stroke="#3a414a" stroke-width=".05" fill="#3a414a"/><use xlink:href="#A" transform="matrix(1,0,0,1,-1011.4556724704947,498.1808292596052) translate(0.004999999999999893 16.216875)"/><use xlink:href="#A" transform="matrix(1,0,0,1,-1034.2644712986198,424.14502314633154) translate(0.004999999999999893 16.216875)"/><path d="M-553.5 517.3V367.98" stroke="#3a414a" stroke-width="2" fill="none"/><path d="M-552.53 518.3h-1.95v-1.02h1.95zM-552.53 368h-1.95v-1.03h1.95z" stroke="#3a414a" stroke-width=".05" fill="#3a414a"/><use xlink:href="#A" transform="matrix(1,0,0,1,-545.5073175060467,498.1808292596052) translate(0.004999999999999893 16.216875)"/><use xlink:href="#A" transform="matrix(1,0,0,1,-568.3161163341716,366.84566736658417) translate(0.004999999999999893 16.216875)"/><path d="M-109.25 517.3V335.48" stroke="#3a414a" stroke-width="2" fill="none"/><path d="M-108.28 518.3h-1.95v-1.02h1.95zM-108.28 335.5h-1.95v-1.03h1.95z" stroke="#3a414a" stroke-width=".05" fill="#3a414a"/><use xlink:href="#A" transform="matrix(1,0,0,1,-101.25518641122154,498.1808292596052) translate(0.004999999999999893 16.216875)"/><use xlink:href="#A" transform="matrix(1,0,0,1,-124.06398523934655,334.3456673665842) translate(0.004999999999999893 16.216875)"/><path d="M-409.98 593.8h186.95" stroke="#3a414a" stroke-width="2" fill="none"/><path d="M-439.32 593.8l14.85 14.86 14.85-14.85-14.85-14.84z" stroke="#3a414a" stroke-width="2" fill="#3a414a"/><path d="M-222.03 594.78h-1.03v-1.95h1.03z" stroke="#3a414a" stroke-width=".05" fill="#3a414a"/><g><use xlink:href="#B" transform="matrix(1,0,0,1,-441.49030840913,613.8082023064801) translate(0.004999999999999893 16.216875)"/><use xlink:href="#C" transform="matrix(1,0,0,1,-441.49030840913,613.8082023064801) translate(4.713125000000001 16.216875)"/></g><g><use xlink:href="#D" transform="matrix(1,0,0,1,-246.4507892361799,569.5534562127301) translate(0.005000000000000782 16.216875)"/></g><path d="M-887.68 593.8h190.65" stroke="#3a414a" stroke-width="2" fill="none"/><path d="M-887.65 594.78h-1.03v-1.95h1.02z" stroke="#3a414a" stroke-width=".05" fill="#3a414a"/><path d="M-667.7 593.8l-14.85-14.84-14.85 14.85 14.85 14.86z" stroke="#3a414a" stroke-width="2" fill="#fff"/><g><use xlink:href="#E" transform="matrix(1,0,0,1,-888.7637073188906,597.8082023064802) translate(0.005000000000000782 16.216875)"/></g><g><use xlink:href="#F" transform="matrix(1,0,0,1,-677.098467206005,553.5534562127301) translate(0.004999999999999893 16.216875)"/></g><path d="M-772.84 617.3a6 6 0 0 1 6-6h95.56a6 6 0 0 1 6 6v19.52a6 6 0 0 1-6 6h-95.56a6 6 0 0 1-6-6z" fill="none"/><g><use xlink:href="#G" transform="matrix(1,0,0,1,-767.8361912728453,616.2996484590365) translate(0 17.46701388888889)"/></g><path d="M-615.06 493.8a6 6 0 0 1 6-6h49a6 6 0 0 1 6 6v19.5a6 6 0 0 1-6 6h-49a6 6 0 0 1-6-6z" fill="none"/><g><use xlink:href="#H" transform="matrix(1,0,0,1,-610.0644904199709,492.78778563981353) translate(0 17.46701388888889)"/></g><path d="M-441.73 547.76a6 6 0 0 1 6-6h91.7a6 6 0 0 1 6 6v19.52a6 6 0 0 1-6 6h-91.7a6 6 0 0 1-6-6z" fill="none"/><g><use xlink:href="#I" transform="matrix(1,0,0,1,-436.7318465170259,546.763544714401) translate(0 17.46701388888889)"/></g><path d="M-158.74 493.8a6 6 0 0 1 6-6h35.4a6 6 0 0 1 6 6v19.5a6 6 0 0 1-6 6h-35.4a6 6 0 0 1-6-6z" fill="none"/><g><use xlink:href="#J" transform="matrix(1,0,0,1,-153.7426878157338,492.78778563981353) translate(0 17.46701388888889)"/></g><path d="M-1066.95 493.8a6 6 0 0 1 6-6h35.4a6 6 0 0 1 6 6v19.5a6 6 0 0 1-6 6h-35.4a6 6 0 0 1-6-6z" fill="none"/><g><use xlink:href="#J" transform="matrix(1,0,0,1,-1061.952269507396,492.78778563981353) translate(0 17.46701388888889)"/></g><defs><path d="M49 0l509-1490h400L1480 0h-339l-115-346H497L386 0H49zm524-585h374c-75-213-124-402-192-666-66 268-110 453-182 666" id="K"/><path d="M628 22C291 22 81-210 81-554c0-346 210-578 547-578 265 0 455 142 497 372l-279 52c-25-116-99-188-215-188-160 0-244 139-244 341 0 200 84 341 244 341 116 0 193-74 217-195l279 51C1085-123 896 22 628 22" id="L"/><path d="M683-1118v229H474v562c0 71 29 104 102 104 23 0 73-7 95-13l43 225C647 9 580 16 520 16 296 16 174-96 174-301v-588H20v-229h154v-266h300v266h209" id="M"/><path d="M128 0v-1118h300V0H128zm150-1264c-91 0-165-68-165-154 0-85 74-154 165-154 90 0 165 69 165 154 0 86-75 154-165 154" id="N"/><path d="M443 0L31-1118h319c90 293 199 572 268 885 66-313 175-593 264-885h315L784 0H443" id="O"/><path d="M120 396l69-226c123 42 245 23 254-107l8-60L31-1118h319c87 288 199 559 259 872 72-308 185-583 277-872h315L726 132c-68 181-186 294-410 294-79 0-153-13-196-30" id="P"/><g id="a"><use transform="matrix(0.010850694444444444,0,0,0.010850694444444444,0,0)" xlink:href="#K"/><use transform="matrix(0.010850694444444444,0,0,0.010850694444444444,16.080729166666664,0)" xlink:href="#L"/><use transform="matrix(0.010850694444444444,0,0,0.010850694444444444,29.15581597222222,0)" xlink:href="#M"/><use transform="matrix(0.010850694444444444,0,0,0.010850694444444444,37.29383680555556,0)" xlink:href="#N"/><use transform="matrix(0.010850694444444444,0,0,0.010850694444444444,43.31597222222222,0)" xlink:href="#O"/><use transform="matrix(0.010850694444444444,0,0,0.010850694444444444,56.640625,0)" xlink:href="#N"/><use transform="matrix(0.010850694444444444,0,0,0.010850694444444444,62.662760416666664,0)" xlink:href="#M"/><use transform="matrix(0.010850694444444444,0,0,0.010850694444444444,71.2890625,0)" xlink:href="#P"/></g><path d="M338-670V0H158v-1118h173l1 207c72-158 192-221 342-221 226 0 378 139 378 422V0H872v-695c0-172-96-275-252-275-161 0-282 109-282 300" id="Q"/><path d="M471 26C259 26 90-98 90-318c0-256 228-303 435-329 202-27 287-16 287-108 0-139-79-219-234-219-161 0-248 86-283 164l-173-57c86-203 278-265 451-265 150 0 419 46 419 395V0H815v-152h-12C765-73 660 26 471 26zm31-159c199 0 310-134 310-271v-155c-30 35-226 55-295 64-131 17-246 59-246 186 0 116 97 176 231 176" id="R"/><path d="M158 0v-1118h175l1 205c55-151 181-225 313-225 147 0 245 90 285 228 53-141 190-228 352-228 194 0 352 125 352 384V0h-181v-749c0-161-105-225-225-225-151 0-243 103-243 244V0H807v-767c0-124-93-207-219-207-131 0-250 92-250 270V0H158" id="S"/><path d="M628 24c-324 0-524-230-524-574 0-343 198-582 503-582 237 0 487 146 487 559v75H286c9 234 145 362 343 362 132 0 231-58 273-172l174 48C1024-91 857 24 628 24zM287-650h624c-17-190-120-322-304-322-192 0-309 151-320 322" id="T"/><path d="M295 13c-75 0-135-60-135-135s60-135 135-135 135 60 135 135S370 13 295 13zm0-809c-75 0-135-60-135-135s60-135 135-135 135 60 135 135-60 135-135 135" id="U"/><g id="b"><use transform="matrix(0.010850694444444444,0,0,0.010850694444444444,0,0)" xlink:href="#Q"/><use transform="matrix(0.010850694444444444,0,0,0.010850694444444444,13.129340277777777,0)" xlink:href="#R"/><use transform="matrix(0.010850694444444444,0,0,0.010850694444444444,25.60763888888889,0)" xlink:href="#S"/><use transform="matrix(0.010850694444444444,0,0,0.010850694444444444,45.07378472222221,0)" xlink:href="#T"/><use transform="matrix(0.010850694444444444,0,0,0.010850694444444444,58.02951388888888,0)" xlink:href="#U"/></g><path d="M538 24C308 24 148-78 108-271l171-41c32 123 123 178 257 178 156 0 256-77 256-169 0-77-54-128-164-154l-186-44c-203-48-300-148-300-305 0-192 176-326 414-326 230 0 351 112 402 269l-163 42c-31-80-94-158-238-158-133 0-233 69-233 162 0 83 57 129 188 160l169 40c203 48 298 149 298 302 0 196-179 339-441 339" id="V"/><path d="M598-1118v154H368v674c0 100 37 144 132 144 23 0 62-6 92-12L629-6c-37 13-88 20-134 20-193 0-307-107-307-290v-688H20v-154h168v-266h180v266h230" id="W"/><path d="M158 0v-1118h174v172h12c41-113 157-188 290-188 26 0 70 2 91 3v181c-11-2-60-10-108-10-161 0-279 109-279 260V0H158" id="X"/><path d="M158 0v-1118h180V0H158zm91-1301c-68 0-125-53-125-119s57-119 125-119c69 0 126 53 126 119s-57 119-126 119" id="Y"/><path d="M611 442c-248 0-391-105-460-228l146-94c47 65 117 165 314 165 178 0 307-82 307-266v-224h-17C863-141 792-18 576-18c-268 0-472-195-472-546 0-346 197-568 476-568 216 0 288 133 326 193h17v-179h175V29c0 289-215 413-487 413zm-5-620c203 0 314-146 314-390 0-237-108-403-314-403-213 0-319 180-319 403 0 230 109 390 319 390" id="Z"/><g id="c"><use transform="matrix(0.010850694444444444,0,0,0.010850694444444444,0,0)" xlink:href="#V"/><use transform="matrix(0.010850694444444444,0,0,0.010850694444444444,11.729600694444445,0)" xlink:href="#W"/><use transform="matrix(0.010850694444444444,0,0,0.010850694444444444,18.99956597222222,0)" xlink:href="#X"/><use transform="matrix(0.010850694444444444,0,0,0.010850694444444444,27.712673611111104,0)" xlink:href="#Y"/><use transform="matrix(0.010850694444444444,0,0,0.010850694444444444,33.09461805555555,0)" xlink:href="#Q"/><use transform="matrix(0.010850694444444444,0,0,0.010850694444444444,46.22395833333333,0)" xlink:href="#Z"/></g><path d="M645 0H180v-1490h484c435 0 692 280 692 742 0 466-257 748-711 748zM370-168h263c363 0 539-218 539-580 0-358-176-574-521-574H370v1154" id="aa"/><g id="d"><use transform="matrix(0.010850694444444444,0,0,0.010850694444444444,0,0)" xlink:href="#S"/><use transform="matrix(0.010850694444444444,0,0,0.010850694444444444,19.466145833333332,0)" xlink:href="#T"/><use transform="matrix(0.010850694444444444,0,0,0.010850694444444444,32.421875,0)" xlink:href="#W"/><use transform="matrix(0.010850694444444444,0,0,0.010850694444444444,39.80034722222222,0)" xlink:href="#R"/><use transform="matrix(0.010850694444444444,0,0,0.010850694444444444,52.27864583333333,0)" xlink:href="#aa"/><use transform="matrix(0.010850694444444444,0,0,0.010850694444444444,68.31597222222221,0)" xlink:href="#R"/><use transform="matrix(0.010850694444444444,0,0,0.010850694444444444,80.79427083333333,0)" xlink:href="#W"/><use transform="matrix(0.010850694444444444,0,0,0.010850694444444444,88.17274305555554,0)" xlink:href="#R"/><use transform="matrix(0.010850694444444444,0,0,0.010850694444444444,100.65104166666666,0)" xlink:href="#U"/></g><path d="M157-1118h181V80c1 225-123 350-364 338V252c126 9 184-48 183-172v-1198zm91-183c-68 0-125-53-125-119s57-119 125-119c69 0 126 53 126 119s-57 119-126 119" id="ab"/><path d="M613 24c-304 0-509-231-509-576 0-350 205-580 509-580 305 0 511 230 511 580 0 345-206 576-511 576zm0-161c226 0 329-195 329-415 0-222-103-419-329-419-223 0-326 196-326 419 0 220 103 415 326 415" id="ac"/><g id="e"><use transform="matrix(0.010850694444444444,0,0,0.010850694444444444,0,0)" xlink:href="#ab"/><use transform="matrix(0.010850694444444444,0,0,0.010850694444444444,5.381944444444445,0)" xlink:href="#V"/><use transform="matrix(0.010850694444444444,0,0,0.010850694444444444,17.11154513888889,0)" xlink:href="#ac"/><use transform="matrix(0.010850694444444444,0,0,0.010850694444444444,30.436197916666664,0)" xlink:href="#Q"/></g><path d="M166-471v-247l1019-454v289L492-601v13l693 282v287" id="ad"/><path d="M135 0v-1490h997v253H440v360h640v249H440v375h694V0H135" id="ae"/><path d="M428-647V0H128v-1118h283l4 231c63-156 176-245 348-245 232 0 384 159 384 421V0H847v-659c0-139-76-222-202-222-128 0-217 86-217 234" id="af"/><path d="M513 14c-232 0-385-159-385-421v-711h300v659c0 139 76 222 202 222 127 0 217-86 217-234v-647h301V0H864l-4-232C797-74 683 14 513 14" id="ag"/><path d="M128 0v-1118h278l12 217c60-163 185-234 319-234 143 0 236 81 288 251 63-172 205-251 359-251 205 0 357 138 357 381V0h-301v-697c0-126-76-187-177-187-114 0-184 79-184 196V0H789v-705c0-109-72-179-174-179-106 0-187 74-187 208V0H128" id="ah"/><path d="M633 22C291 22 81-200 81-553c0-345 210-579 537-579 292 0 525 185 525 567v84H378c7 183 109 277 260 277 105 0 184-46 216-132l272 51C1071-99 893 22 633 22zM380-669h474c-15-146-94-237-233-237-143 0-229 99-241 237" id="ai"/><path d="M128 0v-1118h290v195h12c54-169 184-238 367-200v268c-27-8-86-15-130-15-138 0-239 95-239 234V0H128" id="aj"/><path d="M440 22C227 22 68-92 68-313c0-250 202-322 422-343 195-21 271-24 271-105 0-95-63-149-175-149-116 0-187 57-211 129l-275-46c57-194 237-305 487-305 240 0 474 108 474 379V0H777v-155h-10C713-51 605 22 440 22zm85-211c140 0 238-93 238-211v-121c-37 26-156 42-222 51-111 16-185 59-185 149 0 87 70 132 169 132" id="ak"/><path d="M628 22C291 22 81-210 81-554c0-346 210-578 547-578 336 0 547 232 547 578 0 344-211 576-547 576zm0-236c160 0 242-146 242-341 0-197-82-341-242-341S387-753 387-555c0 195 81 341 241 341" id="al"/><path d="M1224-471L205-19v-287l694-281v-14L205-883v-289l1019 454v247" id="am"/><g id="f"><use transform="matrix(0.010850694444444444,0,0,0.010850694444444444,0,0)" xlink:href="#ad"/><use transform="matrix(0.010850694444444444,0,0,0.010850694444444444,15.082465277777777,0)" xlink:href="#ad"/><use transform="matrix(0.010850694444444444,0,0,0.010850694444444444,30.164930555555554,0)" xlink:href="#ae"/><use transform="matrix(0.010850694444444444,0,0,0.010850694444444444,43.66319444444444,0)" xlink:href="#af"/><use transform="matrix(0.010850694444444444,0,0,0.010850694444444444,57.49782986111111,0)" xlink:href="#ag"/><use transform="matrix(0.010850694444444444,0,0,0.010850694444444444,71.33246527777777,0)" xlink:href="#ah"/><use transform="matrix(0.010850694444444444,0,0,0.010850694444444444,91.61241319444441,0)" xlink:href="#ai"/><use transform="matrix(0.010850694444444444,0,0,0.010850694444444444,104.85026041666666,0)" xlink:href="#aj"/><use transform="matrix(0.010850694444444444,0,0,0.010850694444444444,113.59592013888889,0)" xlink:href="#ak"/><use transform="matrix(0.010850694444444444,0,0,0.010850694444444444,126.49739583333333,0)" xlink:href="#M"/><use transform="matrix(0.010850694444444444,0,0,0.010850694444444444,134.63541666666666,0)" xlink:href="#N"/><use transform="matrix(0.010850694444444444,0,0,0.010850694444444444,140.65755208333331,0)" xlink:href="#al"/><use transform="matrix(0.010850694444444444,0,0,0.010850694444444444,154.28602430555554,0)" xlink:href="#af"/><use transform="matrix(0.010850694444444444,0,0,0.010850694444444444,168.1206597222222,0)" xlink:href="#am"/><use transform="matrix(0.010850694444444444,0,0,0.010850694444444444,183.20312499999994,0)" xlink:href="#am"/></g><path d="M681 22C323 22 94-145 85-462h297c10 151 131 226 296 226 163 0 271-77 271-190 0-102-95-149-257-189l-164-41c-252-61-403-188-403-405 0-269 236-449 560-449 330 0 546 183 551 445H941c-11-119-106-188-259-188-156 0-244 72-244 172-3 156 226 185 373 221 250 61 445 186 445 436 0 271-213 446-575 446" id="an"/><path d="M572 22C302 22 117-98 78-306l279-48c29 105 101 156 224 156 114 0 185-48 185-115 0-118-228-130-337-155-215-49-322-150-322-317 0-215 187-347 470-347 265 0 424 116 466 298l-266 47c-24-76-87-130-196-130-98 0-174 46-174 113 0 56 38 95 144 117l201 40c216 44 320 143 320 302 0 220-207 367-500 367" id="ao"/><g id="g"><use transform="matrix(0.010850694444444444,0,0,0.010850694444444444,0,0)" xlink:href="#K"/><use transform="matrix(0.010850694444444444,0,0,0.010850694444444444,16.080729166666664,0)" xlink:href="#L"/><use transform="matrix(0.010850694444444444,0,0,0.010850694444444444,29.15581597222222,0)" xlink:href="#M"/><use transform="matrix(0.010850694444444444,0,0,0.010850694444444444,37.29383680555556,0)" xlink:href="#N"/><use transform="matrix(0.010850694444444444,0,0,0.010850694444444444,43.31597222222222,0)" xlink:href="#O"/><use transform="matrix(0.010850694444444444,0,0,0.010850694444444444,56.640625,0)" xlink:href="#N"/><use transform="matrix(0.010850694444444444,0,0,0.010850694444444444,62.662760416666664,0)" xlink:href="#M"/><use transform="matrix(0.010850694444444444,0,0,0.010850694444444444,71.2890625,0)" xlink:href="#P"/><use transform="matrix(0.010850694444444444,0,0,0.010850694444444444,84.66796875,0)" xlink:href="#an"/><use transform="matrix(0.010850694444444444,0,0,0.010850694444444444,99.21875,0)" xlink:href="#M"/><use transform="matrix(0.010850694444444444,0,0,0.010850694444444444,107.46527777777777,0)" xlink:href="#ak"/><use transform="matrix(0.010850694444444444,0,0,0.010850694444444444,120.36675347222221,0)" xlink:href="#M"/><use transform="matrix(0.010850694444444444,0,0,0.010850694444444444,128.50477430555554,0)" xlink:href="#ag"/><use transform="matrix(0.010850694444444444,0,0,0.010850694444444444,142.3394097222222,0)" xlink:href="#ao"/></g><path d="M180 0v-1490h510c348 0 508 209 508 474 0 266-160 477-507 477H370V0H180zm190-706h312c236 0 327-133 327-310 0-176-91-307-329-307H370v617" id="ap"/><path d="M180 0v-1490h908v168H370v486h669v168H370v500h727V0H180" id="aq"/><path d="M180 0v-1490h224l606 953c40 63 108 177 176 312-27-437-7-821-13-1265h190V0h-226C860-448 622-778 356-1262c27 476 11 792 15 1262H180" id="ar"/><path d="M370-1490V0H180v-1490h190" id="as"/><path d="M789 20c-398 0-667-293-667-764 0-473 273-766 655-766 315 0 558 198 612 487h-196c-61-191-204-311-415-311-262 0-471 207-471 590 0 380 208 588 482 588 249 0 420-165 425-427H828v-166h572v163c0 370-256 606-611 606" id="at"/><g id="h"><use transform="matrix(0.010850694444444444,0,0,0.010850694444444444,0,0)" xlink:href="#ap"/><use transform="matrix(0.010850694444444444,0,0,0.010850694444444444,14.192708333333332,0)" xlink:href="#aq"/><use transform="matrix(0.010850694444444444,0,0,0.010850694444444444,27.549913194444443,0)" xlink:href="#ar"/><use transform="matrix(0.010850694444444444,0,0,0.010850694444444444,44.29253472222222,0)" xlink:href="#aa"/><use transform="matrix(0.010850694444444444,0,0,0.010850694444444444,60.32986111111112,0)" xlink:href="#as"/><use transform="matrix(0.010850694444444444,0,0,0.010850694444444444,66.29774305555556,0)" xlink:href="#ar"/><use transform="matrix(0.010850694444444444,0,0,0.010850694444444444,83.04036458333334,0)" xlink:href="#at"/></g><path d="M180 0v-1490h510c348 0 508 194 508 460 0 198-88 351-276 417L1256 0h-220L726-579c-117 2-238 0-356 1V0H180zm190-747h312c235 0 327-108 327-283 0-177-92-293-329-293H370v576" id="au"/><path d="M52 0l541-1490h220L1361 0h-200l-149-416H398L254 0H52zm404-582h497c-103-290-145-390-251-756-108 377-145 460-246 756" id="av"/><path d="M180 0v-1490h901v168H370v510h643v168H370V0H180" id="aw"/><path d="M98-1322v-168h1126v168H757V0H567v-1322H98" id="ax"/><g id="i"><use transform="matrix(0.010850694444444444,0,0,0.010850694444444444,0,0)" xlink:href="#aa"/><use transform="matrix(0.010850694444444444,0,0,0.010850694444444444,16.03732638888889,0)" xlink:href="#au"/><use transform="matrix(0.010850694444444444,0,0,0.010850694444444444,30.338541666666664,0)" xlink:href="#av"/><use transform="matrix(0.010850694444444444,0,0,0.010850694444444444,45.670572916666664,0)" xlink:href="#aw"/><use transform="matrix(0.010850694444444444,0,0,0.010850694444444444,58.7890625,0)" xlink:href="#ax"/></g><path d="M763 24c-353 0-583-224-583-531v-983h190v968c0 214 149 370 393 370 243 0 391-156 391-370v-968h190v983c0 307-230 531-581 531" id="ay"/><path d="M180 0v-1490h528c311 0 458 177 458 395 0 191-114 278-244 313v14c139 9 302 137 302 371 0 225-148 397-499 397H180zm190-168h350c232 0 321-102 321-231 0-149-120-277-311-277H370v508zm0-668h328c160 0 286-101 286-255 0-129-87-231-280-231H370v486" id="az"/><path d="M180 0v-1490h190v1322h690V0H180" id="aA"/><path d="M657 26c-323 0-524-166-541-416h195c15 169 171 246 346 246 202 0 356-106 356-265 5-203-294-238-475-293-239-73-380-191-380-389 0-252 224-419 512-419 294 0 499 171 508 396H992c-17-145-151-228-328-228-193 0-321 102-321 242 0 156 175 211 284 241l149 41c160 44 422 134 422 412 0 244-197 432-541 432" id="aB"/><path d="M180 0v-1490h190v644h782v-644h190V0h-190v-678H370V0H180" id="aC"/><g id="j"><use transform="matrix(0.010850694444444444,0,0,0.010850694444444444,0,0)" xlink:href="#ap"/><use transform="matrix(0.010850694444444444,0,0,0.010850694444444444,14.192708333333332,0)" xlink:href="#ay"/><use transform="matrix(0.010850694444444444,0,0,0.010850694444444444,30.729166666666664,0)" xlink:href="#az"/><use transform="matrix(0.010850694444444444,0,0,0.010850694444444444,45.26909722222222,0)" xlink:href="#aA"/><use transform="matrix(0.010850694444444444,0,0,0.010850694444444444,57.834201388888886,0)" xlink:href="#as"/><use transform="matrix(0.010850694444444444,0,0,0.010850694444444444,63.80208333333333,0)" xlink:href="#aB"/><use transform="matrix(0.010850694444444444,0,0,0.010850694444444444,78.05989583333333,0)" xlink:href="#aC"/><use transform="matrix(0.010850694444444444,0,0,0.010850694444444444,94.57465277777777,0)" xlink:href="#aq"/><use transform="matrix(0.010850694444444444,0,0,0.010850694444444444,107.93185763888889,0)" xlink:href="#aa"/></g><path d="M659 0H135v-1490h529c448 0 721 280 721 744 0 466-273 746-726 746zM440-263h204c287 0 437-148 437-483 0-333-150-481-435-481H440v964" id="aD"/><path d="M75-1237v-253h1217v253H837V0H531v-1237H75" id="aE"/><path d="M128 418v-1536h295v188h14c41-89 129-202 319-202 248 0 453 193 453 575 0 372-197 576-455 576-183 0-275-108-317-198h-9v597H128zm534-640c156 0 240-139 240-336 0-196-83-334-240-334-154 0-241 131-241 334 0 202 88 336 241 336" id="aF"/><g id="k"><use transform="matrix(0.010850694444444444,0,0,0.010850694444444444,0,0)" xlink:href="#aD"/><use transform="matrix(0.010850694444444444,0,0,0.010850694444444444,16.048177083333332,0)" xlink:href="#al"/><use transform="matrix(0.010850694444444444,0,0,0.010850694444444444,29.676649305555554,0)" xlink:href="#L"/><use transform="matrix(0.010850694444444444,0,0,0.010850694444444444,42.75173611111111,0)" xlink:href="#ag"/><use transform="matrix(0.010850694444444444,0,0,0.010850694444444444,56.58637152777778,0)" xlink:href="#ah"/><use transform="matrix(0.010850694444444444,0,0,0.010850694444444444,76.86631944444443,0)" xlink:href="#ai"/><use transform="matrix(0.010850694444444444,0,0,0.010850694444444444,90.10416666666666,0)" xlink:href="#af"/><use transform="matrix(0.010850694444444444,0,0,0.010850694444444444,103.93880208333333,0)" xlink:href="#M"/><use transform="matrix(0.010850694444444444,0,0,0.010850694444444444,111.32812499999997,0)" xlink:href="#aE"/><use transform="matrix(0.010850694444444444,0,0,0.010850694444444444,124.77213541666666,0)" xlink:href="#P"/><use transform="matrix(0.010850694444444444,0,0,0.010850694444444444,138.15104166666666,0)" xlink:href="#aF"/><use transform="matrix(0.010850694444444444,0,0,0.010850694444444444,152.15928819444443,0)" xlink:href="#ai"/></g><path d="M784 20c-382 0-662-292-662-764 0-473 280-766 662-766s660 293 660 766c0 472-278 764-660 764zm0-176c266 0 475-207 475-588 0-383-209-590-475-590-268 0-477 208-477 590 0 380 209 588 477 588" id="aG"/><path d="M783 20c-382 0-661-292-661-764 0-473 279-766 661-766 302 0 548 182 601 489h-190c-42-204-217-313-411-313-268 0-476 208-476 590 0 381 209 588 476 588 195 0 369-110 411-313h190c-52 303-296 489-601 489" id="aH"/><path d="M934 0v166H0V0h934" id="aI"/><g id="l"><use transform="matrix(0.010850694444444444,0,0,0.010850694444444444,0,0)" xlink:href="#aB"/><use transform="matrix(0.010850694444444444,0,0,0.010850694444444444,14.2578125,0)" xlink:href="#aG"/><use transform="matrix(0.010850694444444444,0,0,0.010850694444444444,31.25,0)" xlink:href="#ay"/><use transform="matrix(0.010850694444444444,0,0,0.010850694444444444,47.78645833333333,0)" xlink:href="#au"/><use transform="matrix(0.010850694444444444,0,0,0.010850694444444444,62.08767361111111,0)" xlink:href="#aH"/><use transform="matrix(0.010850694444444444,0,0,0.010850694444444444,78.3203125,0)" xlink:href="#aq"/><use transform="matrix(0.010850694444444444,0,0,0.010850694444444444,91.67751736111111,0)" xlink:href="#aI"/><use transform="matrix(0.010850694444444444,0,0,0.010850694444444444,102.5607638888889,0)" xlink:href="#ap"/><use transform="matrix(0.010850694444444444,0,0,0.010850694444444444,116.75347222222224,0)" xlink:href="#aa"/><use transform="matrix(0.010850694444444444,0,0,0.010850694444444444,132.79079861111111,0)" xlink:href="#aw"/></g><g id="m"><use transform="matrix(0.010850694444444444,0,0,0.010850694444444444,0,0)" xlink:href="#aD"/><use transform="matrix(0.010850694444444444,0,0,0.010850694444444444,16.048177083333332,0)" xlink:href="#al"/><use transform="matrix(0.010850694444444444,0,0,0.010850694444444444,29.676649305555554,0)" xlink:href="#L"/><use transform="matrix(0.010850694444444444,0,0,0.010850694444444444,42.75173611111111,0)" xlink:href="#ag"/><use transform="matrix(0.010850694444444444,0,0,0.010850694444444444,56.58637152777778,0)" xlink:href="#ah"/><use transform="matrix(0.010850694444444444,0,0,0.010850694444444444,76.86631944444443,0)" xlink:href="#ai"/><use transform="matrix(0.010850694444444444,0,0,0.010850694444444444,90.10416666666666,0)" xlink:href="#af"/><use transform="matrix(0.010850694444444444,0,0,0.010850694444444444,103.93880208333333,0)" xlink:href="#M"/></g><path d="M158 418v-1536h174v179h20c37-59 106-193 324-193 279 0 474 222 474 576 0 356-194 580-473 580-213 0-288-135-325-197h-14v591H158zm492-555c209 0 317-186 317-421 0-232-105-413-317-413-206 0-314 166-314 413 0 249 111 421 314 421" id="aJ"/><path d="M338-670V0H158v-1490h180v566c73-149 190-208 336-208 226 0 379 139 379 422V0H872v-695c0-172-96-275-252-275-161 0-282 109-282 300" id="aK"/><g id="n"><use transform="matrix(0.010850694444444444,0,0,0.010850694444444444,0,0)" xlink:href="#aJ"/><use transform="matrix(0.010850694444444444,0,0,0.010850694444444444,13.823784722222221,0)" xlink:href="#R"/><use transform="matrix(0.010850694444444444,0,0,0.010850694444444444,26.302083333333332,0)" xlink:href="#W"/><use transform="matrix(0.010850694444444444,0,0,0.010850694444444444,33.57204861111111,0)" xlink:href="#aK"/><use transform="matrix(0.010850694444444444,0,0,0.010850694444444444,46.71223958333333,0)" xlink:href="#U"/></g><g id="o"><use transform="matrix(0.010850694444444444,0,0,0.010850694444444444,0,0)" xlink:href="#V"/><use transform="matrix(0.010850694444444444,0,0,0.010850694444444444,11.729600694444445,0)" xlink:href="#W"/><use transform="matrix(0.010850694444444444,0,0,0.010850694444444444,18.99956597222222,0)" xlink:href="#X"/><use transform="matrix(0.010850694444444444,0,0,0.010850694444444444,27.712673611111104,0)" xlink:href="#Y"/><use transform="matrix(0.010850694444444444,0,0,0.010850694444444444,33.09461805555555,0)" xlink:href="#Q"/><use transform="matrix(0.010850694444444444,0,0,0.010850694444444444,46.22395833333333,0)" xlink:href="#Z"/></g><path d="M135 0v-1490h468l242 684c30 94 76 293 111 455 34-161 80-360 110-455l238-684h470V0h-307c0-447-3-765 11-1227-122 503-246 788-395 1227H826C676-435 552-717 427-1215c15 453 11 775 11 1215H135" id="aL"/><path d="M128 0v-1490h300v802h17l366-430h347L740-633 1179 0H826L514-456l-86 97V0H128" id="aM"/><path d="M537 19C279 19 81-185 81-557c0-382 206-575 454-575 190 0 278 113 318 202h10v-560h300V0H868v-179h-15C812-89 719 19 537 19zm92-241c153 0 240-134 240-336 0-203-86-334-240-334-158 0-240 138-240 334 0 197 84 336 240 336" id="aN"/><path d="M361 0L31-1118h315c68 295 127 523 188 845 63-317 128-551 199-845h276c71 296 131 525 196 846 57-321 119-552 186-846h319L1378 0h-305c-73-261-148-486-204-771C813-484 740-261 666 0H361" id="aO"/><g id="p"><use transform="matrix(0.010850694444444444,0,0,0.010850694444444444,0,0)" xlink:href="#aL"/><use transform="matrix(0.010850694444444444,0,0,0.010850694444444444,20.703125,0)" xlink:href="#ak"/><use transform="matrix(0.010850694444444444,0,0,0.010850694444444444,33.60460069444444,0)" xlink:href="#aj"/><use transform="matrix(0.010850694444444444,0,0,0.010850694444444444,43.00130208333333,0)" xlink:href="#aM"/><use transform="matrix(0.010850694444444444,0,0,0.010850694444444444,55.392795138888886,0)" xlink:href="#aN"/><use transform="matrix(0.010850694444444444,0,0,0.010850694444444444,69.40104166666666,0)" xlink:href="#al"/><use transform="matrix(0.010850694444444444,0,0,0.010850694444444444,82.72569444444443,0)" xlink:href="#aO"/><use transform="matrix(0.010850694444444444,0,0,0.010850694444444444,101.6167534722222,0)" xlink:href="#af"/></g><path d="M613 24c-304 0-509-231-509-576 0-350 205-580 509-580 216 0 392 114 453 309l-173 49c-33-115-133-197-280-197-223 0-326 196-326 419 0 220 103 415 326 415 150 0 252-85 285-206l172 49C1010-95 832 24 613 24" id="aP"/><g id="q"><use transform="matrix(0.010850694444444444,0,0,0.010850694444444444,0,0)" xlink:href="#aP"/><use transform="matrix(0.010850694444444444,0,0,0.010850694444444444,12.6953125,0)" xlink:href="#ac"/><use transform="matrix(0.010850694444444444,0,0,0.010850694444444444,26.01996527777778,0)" xlink:href="#Q"/><use transform="matrix(0.010850694444444444,0,0,0.010850694444444444,39.14930555555556,0)" xlink:href="#W"/><use transform="matrix(0.010850694444444444,0,0,0.010850694444444444,46.20225694444445,0)" xlink:href="#T"/><use transform="matrix(0.010850694444444444,0,0,0.010850694444444444,59.15798611111112,0)" xlink:href="#Q"/><use transform="matrix(0.010850694444444444,0,0,0.010850694444444444,72.28732638888889,0)" xlink:href="#W"/><use transform="matrix(0.010850694444444444,0,0,0.010850694444444444,79.55729166666666,0)" xlink:href="#U"/></g><path d="M577 24c-279 0-473-224-473-580 0-354 195-576 474-576 218 0 287 134 324 193h14v-551h180V0H922v-173h-20C865-111 790 24 577 24zm27-161c203 0 314-172 314-421 0-247-108-413-314-413-212 0-317 181-317 413 0 235 108 421 317 421" id="aQ"/><g id="r"><use transform="matrix(0.010850694444444444,0,0,0.010850694444444444,0,0)" xlink:href="#Y"/><use transform="matrix(0.010850694444444444,0,0,0.010850694444444444,5.381944444444445,0)" xlink:href="#V"/><use transform="matrix(0.010850694444444444,0,0,0.010850694444444444,17.11154513888889,0)" xlink:href="#aA"/><use transform="matrix(0.010850694444444444,0,0,0.010850694444444444,29.67664930555556,0)" xlink:href="#R"/><use transform="matrix(0.010850694444444444,0,0,0.010850694444444444,42.15494791666667,0)" xlink:href="#Q"/><use transform="matrix(0.010850694444444444,0,0,0.010850694444444444,55.28428819444445,0)" xlink:href="#aQ"/><use transform="matrix(0.010850694444444444,0,0,0.010850694444444444,68.89105902777779,0)" xlink:href="#V"/><use transform="matrix(0.010850694444444444,0,0,0.010850694444444444,80.62065972222223,0)" xlink:href="#aP"/><use transform="matrix(0.010850694444444444,0,0,0.010850694444444444,93.53298611111111,0)" xlink:href="#R"/><use transform="matrix(0.010850694444444444,0,0,0.010850694444444444,106.01128472222224,0)" xlink:href="#aJ"/><use transform="matrix(0.010850694444444444,0,0,0.010850694444444444,119.61805555555556,0)" xlink:href="#T"/><use transform="matrix(0.010850694444444444,0,0,0.010850694444444444,132.57378472222223,0)" xlink:href="#U"/></g><path d="M677 24c-213 0-288-135-325-197h-20V0H158v-1490h180v551h14c37-59 106-193 324-193 279 0 474 222 474 576 0 356-194 580-473 580zm-27-161c209 0 317-186 317-421 0-232-105-413-317-413-206 0-314 166-314 413 0 249 111 421 314 421" id="aR"/><path d="M338-1490V0H158v-1490h180" id="aS"/><g id="s"><use transform="matrix(0.010850694444444444,0,0,0.010850694444444444,0,0)" xlink:href="#aR"/><use transform="matrix(0.010850694444444444,0,0,0.010850694444444444,13.606770833333332,0)" xlink:href="#ac"/><use transform="matrix(0.010850694444444444,0,0,0.010850694444444444,26.931423611111104,0)" xlink:href="#ac"/><use transform="matrix(0.010850694444444444,0,0,0.010850694444444444,40.256076388888886,0)" xlink:href="#aS"/><use transform="matrix(0.010850694444444444,0,0,0.010850694444444444,45.63802083333333,0)" xlink:href="#T"/><use transform="matrix(0.010850694444444444,0,0,0.010850694444444444,58.81076388888888,0)" xlink:href="#R"/><use transform="matrix(0.010850694444444444,0,0,0.010850694444444444,71.28906249999999,0)" xlink:href="#Q"/></g><g id="t"><use transform="matrix(0.010850694444444444,0,0,0.010850694444444444,0,0)" xlink:href="#aL"/><use transform="matrix(0.010850694444444444,0,0,0.010850694444444444,20.703125,0)" xlink:href="#ak"/><use transform="matrix(0.010850694444444444,0,0,0.010850694444444444,33.60460069444444,0)" xlink:href="#aj"/><use transform="matrix(0.010850694444444444,0,0,0.010850694444444444,43.00130208333333,0)" xlink:href="#aM"/><use transform="matrix(0.010850694444444444,0,0,0.010850694444444444,55.392795138888886,0)" xlink:href="#aN"/><use transform="matrix(0.010850694444444444,0,0,0.010850694444444444,69.40104166666666,0)" xlink:href="#al"/><use transform="matrix(0.010850694444444444,0,0,0.010850694444444444,82.72569444444443,0)" xlink:href="#aO"/><use transform="matrix(0.010850694444444444,0,0,0.010850694444444444,101.6167534722222,0)" xlink:href="#af"/><use transform="matrix(0.010850694444444444,0,0,0.010850694444444444,113.87803819444441,0)" xlink:href="#aE"/><use transform="matrix(0.010850694444444444,0,0,0.010850694444444444,127.3220486111111,0)" xlink:href="#P"/><use transform="matrix(0.010850694444444444,0,0,0.010850694444444444,140.7009548611111,0)" xlink:href="#aF"/><use transform="matrix(0.010850694444444444,0,0,0.010850694444444444,154.70920138888886,0)" xlink:href="#ai"/></g><path d="M600 0L52-1490h200c166 485 304 806 458 1336 156-533 285-846 449-1336h202L819 0H600" id="aT"/><g id="u"><use transform="matrix(0.010850694444444444,0,0,0.010850694444444444,0,0)" xlink:href="#aH"/><use transform="matrix(0.010850694444444444,0,0,0.010850694444444444,16.23263888888889,0)" xlink:href="#aG"/><use transform="matrix(0.010850694444444444,0,0,0.010850694444444444,32.47612847222222,0)" xlink:href="#aT"/><use transform="matrix(0.010850694444444444,0,0,0.010850694444444444,47.80815972222222,0)" xlink:href="#aq"/><use transform="matrix(0.010850694444444444,0,0,0.010850694444444444,61.16536458333333,0)" xlink:href="#au"/><use transform="matrix(0.010850694444444444,0,0,0.010850694444444444,75.4665798611111,0)" xlink:href="#aI"/><use transform="matrix(0.010850694444444444,0,0,0.010850694444444444,85.60112847222221,0)" xlink:href="#aB"/><use transform="matrix(0.010850694444444444,0,0,0.010850694444444444,99.85894097222221,0)" xlink:href="#aC"/><use transform="matrix(0.010850694444444444,0,0,0.010850694444444444,116.37369791666666,0)" xlink:href="#aq"/><use transform="matrix(0.010850694444444444,0,0,0.010850694444444444,129.73090277777777,0)" xlink:href="#aq"/><use transform="matrix(0.010850694444444444,0,0,0.010850694444444444,143.08810763888889,0)" xlink:href="#ax"/></g><g id="v"><use transform="matrix(0.010850694444444444,0,0,0.010850694444444444,0,0)" xlink:href="#aA"/><use transform="matrix(0.010850694444444444,0,0,0.010850694444444444,12.565104166666666,0)" xlink:href="#aq"/><use transform="matrix(0.010850694444444444,0,0,0.010850694444444444,25.92230902777778,0)" xlink:href="#aB"/><use transform="matrix(0.010850694444444444,0,0,0.010850694444444444,40.18012152777778,0)" xlink:href="#aB"/><use transform="matrix(0.010850694444444444,0,0,0.010850694444444444,54.43793402777778,0)" xlink:href="#aG"/><use transform="matrix(0.010850694444444444,0,0,0.010850694444444444,71.43012152777777,0)" xlink:href="#ar"/><use transform="matrix(0.010850694444444444,0,0,0.010850694444444444,88.17274305555554,0)" xlink:href="#aI"/><use transform="matrix(0.010850694444444444,0,0,0.010850694444444444,99.05598958333333,0)" xlink:href="#ap"/><use transform="matrix(0.010850694444444444,0,0,0.010850694444444444,113.24869791666666,0)" xlink:href="#aA"/><use transform="matrix(0.010850694444444444,0,0,0.010850694444444444,125.81380208333333,0)" xlink:href="#av"/><use transform="matrix(0.010850694444444444,0,0,0.010850694444444444,141.14583333333331,0)" xlink:href="#ar"/></g><path d="M180 0v-1490h190c0 262 1 526-3 784 217-279 467-523 702-784h249L716-845 1319 0h-225L585-716 370-489V0H180" id="aU"/><path d="M458 0L52-1490h194c108 439 233 855 324 1313 92-459 221-873 331-1313h216c110 438 234 854 330 1307 92-455 216-869 323-1307h196L1558 0h-221l-256-944c-26-95-50-200-73-331-22 122-44 223-73 331L680 0H458" id="aV"/><g id="w"><use transform="matrix(0.010850694444444444,0,0,0.010850694444444444,0,0)" xlink:href="#az"/><use transform="matrix(0.010850694444444444,0,0,0.010850694444444444,14.539930555555555,0)" xlink:href="#av"/><use transform="matrix(0.010850694444444444,0,0,0.010850694444444444,29.112413194444443,0)" xlink:href="#aH"/><use transform="matrix(0.010850694444444444,0,0,0.010850694444444444,45.34505208333333,0)" xlink:href="#aU"/><use transform="matrix(0.010850694444444444,0,0,0.010850694444444444,59.52690972222222,0)" xlink:href="#at"/><use transform="matrix(0.010850694444444444,0,0,0.010850694444444444,76.10677083333333,0)" xlink:href="#au"/><use transform="matrix(0.010850694444444444,0,0,0.010850694444444444,90.40798611111111,0)" xlink:href="#aG"/><use transform="matrix(0.010850694444444444,0,0,0.010850694444444444,107.40017361111111,0)" xlink:href="#ay"/><use transform="matrix(0.010850694444444444,0,0,0.010850694444444444,123.93663194444441,0)" xlink:href="#ar"/><use transform="matrix(0.010850694444444444,0,0,0.010850694444444444,140.6792534722222,0)" xlink:href="#aa"/><use transform="matrix(0.010850694444444444,0,0,0.010850694444444444,155.8376736111111,0)" xlink:href="#aI"/><use transform="matrix(0.010850694444444444,0,0,0.010850694444444444,166.72092013888886,0)" xlink:href="#aU"/><use transform="matrix(0.010850694444444444,0,0,0.010850694444444444,181.6514756944444,0)" xlink:href="#ar"/><use transform="matrix(0.010850694444444444,0,0,0.010850694444444444,198.39409722222217,0)" xlink:href="#aG"/><use transform="matrix(0.010850694444444444,0,0,0.010850694444444444,215.38628472222217,0)" xlink:href="#aV"/><use transform="matrix(0.010850694444444444,0,0,0.010850694444444444,237.28298611111106,0)" xlink:href="#aA"/><use transform="matrix(0.010850694444444444,0,0,0.010850694444444444,249.84809027777774,0)" xlink:href="#aq"/><use transform="matrix(0.010850694444444444,0,0,0.010850694444444444,263.2052951388888,0)" xlink:href="#aa"/><use transform="matrix(0.010850694444444444,0,0,0.010850694444444444,279.2426215277777,0)" xlink:href="#at"/><use transform="matrix(0.010850694444444444,0,0,0.010850694444444444,295.8224826388888,0)" xlink:href="#aq"/></g><path d="M180 0v-1490h270l367 940c28 72 75 218 110 339 35-117 81-264 110-339l362-940h271V0h-187c2-448-5-837 7-1287-157 497-311 829-483 1287H842C666-458 514-784 354-1284c12 438 5 843 7 1284H180" id="aW"/><g id="x"><use transform="matrix(0.010850694444444444,0,0,0.010850694444444444,0,0)" xlink:href="#az"/><use transform="matrix(0.010850694444444444,0,0,0.010850694444444444,14.539930555555555,0)" xlink:href="#aG"/><use transform="matrix(0.010850694444444444,0,0,0.010850694444444444,30.772569444444443,0)" xlink:href="#av"/><use transform="matrix(0.010850694444444444,0,0,0.010850694444444444,46.10460069444444,0)" xlink:href="#au"/><use transform="matrix(0.010850694444444444,0,0,0.010850694444444444,60.40581597222222,0)" xlink:href="#aa"/><use transform="matrix(0.010850694444444444,0,0,0.010850694444444444,75.56423611111111,0)" xlink:href="#aI"/><use transform="matrix(0.010850694444444444,0,0,0.010850694444444444,86.4474826388889,0)" xlink:href="#as"/><use transform="matrix(0.010850694444444444,0,0,0.010850694444444444,92.41536458333334,0)" xlink:href="#aW"/><use transform="matrix(0.010850694444444444,0,0,0.010850694444444444,112.48914930555557,0)" xlink:href="#av"/><use transform="matrix(0.010850694444444444,0,0,0.010850694444444444,127.06163194444446,0)" xlink:href="#at"/><use transform="matrix(0.010850694444444444,0,0,0.010850694444444444,143.64149305555557,0)" xlink:href="#aq"/></g><path d="M57 0l534-763-501-727h220c122 187 296 416 391 605 94-191 272-419 396-605h215L811-770 1340 0h-219C986-204 811-426 699-640 588-430 407-202 273 0H57" id="aX"/><g id="y"><use transform="matrix(0.010850694444444444,0,0,0.010850694444444444,0,0)" xlink:href="#aq"/><use transform="matrix(0.010850694444444444,0,0,0.010850694444444444,13.35720486111111,0)" xlink:href="#aX"/><use transform="matrix(0.010850694444444444,0,0,0.010850694444444444,28.515625,0)" xlink:href="#aq"/><use transform="matrix(0.010850694444444444,0,0,0.010850694444444444,41.872829861111114,0)" xlink:href="#au"/><use transform="matrix(0.010850694444444444,0,0,0.010850694444444444,56.1740451388889,0)" xlink:href="#aH"/><use transform="matrix(0.010850694444444444,0,0,0.010850694444444444,72.40668402777779,0)" xlink:href="#as"/><use transform="matrix(0.010850694444444444,0,0,0.010850694444444444,78.37456597222223,0)" xlink:href="#aB"/><use transform="matrix(0.010850694444444444,0,0,0.010850694444444444,92.63237847222221,0)" xlink:href="#aq"/></g><g id="z"><use transform="matrix(0.010850694444444444,0,0,0.010850694444444444,0,0)" xlink:href="#aq"/><use transform="matrix(0.010850694444444444,0,0,0.010850694444444444,13.35720486111111,0)" xlink:href="#aX"/><use transform="matrix(0.010850694444444444,0,0,0.010850694444444444,28.515625,0)" xlink:href="#aq"/><use transform="matrix(0.010850694444444444,0,0,0.010850694444444444,41.872829861111114,0)" xlink:href="#au"/><use transform="matrix(0.010850694444444444,0,0,0.010850694444444444,56.1740451388889,0)" xlink:href="#aH"/><use transform="matrix(0.010850694444444444,0,0,0.010850694444444444,72.40668402777779,0)" xlink:href="#as"/><use transform="matrix(0.010850694444444444,0,0,0.010850694444444444,78.37456597222223,0)" xlink:href="#aB"/><use transform="matrix(0.010850694444444444,0,0,0.010850694444444444,92.63237847222221,0)" xlink:href="#aq"/><use transform="matrix(0.010850694444444444,0,0,0.010850694444444444,105.98958333333334,0)" xlink:href="#aI"/><use transform="matrix(0.010850694444444444,0,0,0.010850694444444444,116.12413194444446,0)" xlink:href="#aB"/><use transform="matrix(0.010850694444444444,0,0,0.010850694444444444,130.38194444444446,0)" xlink:href="#aG"/><use transform="matrix(0.010850694444444444,0,0,0.010850694444444444,147.37413194444446,0)" xlink:href="#aA"/><use transform="matrix(0.010850694444444444,0,0,0.010850694444444444,159.93923611111111,0)" xlink:href="#ay"/><use transform="matrix(0.010850694444444444,0,0,0.010850694444444444,176.47569444444446,0)" xlink:href="#ax"/><use transform="matrix(0.010850694444444444,0,0,0.010850694444444444,190.8203125,0)" xlink:href="#as"/><use transform="matrix(0.010850694444444444,0,0,0.010850694444444444,196.78819444444443,0)" xlink:href="#aG"/><use transform="matrix(0.010850694444444444,0,0,0.010850694444444444,213.78038194444449,0)" xlink:href="#ar"/></g><path d="M653-1490V0H466v-1314h-10L96-1047v-204l324-239h233" id="aY"/><use transform="matrix(0.008173828125000001,0,0,0.008173828125000001,0,0)" xlink:href="#aY" id="A"/><use transform="matrix(0.008173828125000001,0,0,0.008173828125000001,0,0)" xlink:href="#aY" id="C"/><path d="M295 13c-75 0-135-60-135-135s60-135 135-135 135 60 135 135S370 13 295 13" id="aZ"/><path d="M441-652l13-317-268 171-72-126 282-146-282-146 72-128 268 171-13-317h144l-12 317 267-171 72 128-282 146 282 146-72 126-267-171 12 317H441" id="ba"/><g id="D"><use transform="matrix(0.008173828125000001,0,0,0.008173828125000001,0,0)" xlink:href="#aY"/><use transform="matrix(0.008173828125000001,0,0,0.008173828125000001,6.808798828125001,0)" xlink:href="#aZ"/><use transform="matrix(0.008173828125000001,0,0,0.008173828125000001,11.631357421875002,0)" xlink:href="#aZ"/><use transform="matrix(0.008173828125000001,0,0,0.008173828125000001,16.453916015625,0)" xlink:href="#ba"/></g><path d="M646 20c-332 0-524-278-524-764 0-483 194-766 524-766s524 283 524 766c0 485-191 764-524 764zm0-166c218 0 341-220 341-598 0-380-123-601-341-601s-341 222-341 601c0 378 123 598 341 598" id="bb"/><g id="E"><use transform="matrix(0.008173828125000001,0,0,0.008173828125000001,0,0)" xlink:href="#bb"/><use transform="matrix(0.008173828125000001,0,0,0.008173828125000001,10.135546875000001,0)" xlink:href="#aZ"/><use transform="matrix(0.008173828125000001,0,0,0.008173828125000001,14.958105468750002,0)" xlink:href="#aZ"/><use transform="matrix(0.008173828125000001,0,0,0.008173828125000001,19.7806640625,0)" xlink:href="#ba"/></g><path fill="#fff" d="M295 13c-75 0-135-60-135-135s60-135 135-135 135 60 135 135S370 13 295 13" id="bc"/><g id="F"><use transform="matrix(0.008173828125000001,0,0,0.008173828125000001,0,0)" xlink:href="#aY"/><use transform="matrix(0.008173828125000001,0,0,0.008173828125000001,6.808798828125001,0)" xlink:href="#bc"/></g><path d="M158 0v-1490h180v865h22l478-493h223L593-638 1096 0H865L456-523 338-412V0H158" id="bd"/><path d="M409 0L70-1118h191c89 329 165 560 243 925 75-353 154-601 240-925h192c85 325 161 564 235 922 77-354 157-598 244-922h191L1267 0h-179c-86-307-176-590-250-913C763-588 675-308 588 0H409" id="be"/><g id="G"><use transform="matrix(0.008680555555555556,0,0,0.008680555555555556,0,0)" xlink:href="#S"/><use transform="matrix(0.008680555555555556,0,0,0.008680555555555556,15.572916666666668,0)" xlink:href="#R"/><use transform="matrix(0.008680555555555556,0,0,0.008680555555555556,25.555555555555557,0)" xlink:href="#X"/><use transform="matrix(0.008680555555555556,0,0,0.008680555555555556,32.52604166666667,0)" xlink:href="#bd"/><use transform="matrix(0.008680555555555556,0,0,0.008680555555555556,41.88368055555556,0)" xlink:href="#aQ"/><use transform="matrix(0.008680555555555556,0,0,0.008680555555555556,52.769097222222236,0)" xlink:href="#ac"/><use transform="matrix(0.008680555555555556,0,0,0.008680555555555556,63.10763888888889,0)" xlink:href="#be"/><use transform="matrix(0.008680555555555556,0,0,0.008680555555555556,77.65625,0)" xlink:href="#Q"/><use transform="matrix(0.008680555555555556,0,0,0.008680555555555556,88.15972222222223,0)" xlink:href="#V"/></g><path d="M537 14c-226 0-379-139-379-422v-710h180v695c0 172 97 275 253 275 160 0 281-109 281-300v-670h181V0H879v-209C806-46 684 14 537 14" id="bf"/><g id="H"><use transform="matrix(0.008680555555555556,0,0,0.008680555555555556,0,0)" xlink:href="#V"/><use transform="matrix(0.008680555555555556,0,0,0.008680555555555556,9.383680555555555,0)" xlink:href="#W"/><use transform="matrix(0.008680555555555556,0,0,0.008680555555555556,15.286458333333332,0)" xlink:href="#R"/><use transform="matrix(0.008680555555555556,0,0,0.008680555555555556,25.269097222222225,0)" xlink:href="#W"/><use transform="matrix(0.008680555555555556,0,0,0.008680555555555556,31.085069444444443,0)" xlink:href="#bf"/><use transform="matrix(0.008680555555555556,0,0,0.008680555555555556,41.59722222222222,0)" xlink:href="#V"/></g><g id="I"><use transform="matrix(0.008680555555555556,0,0,0.008680555555555556,0,0)" xlink:href="#aQ"/><use transform="matrix(0.008680555555555556,0,0,0.008680555555555556,10.885416666666668,0)" xlink:href="#ac"/><use transform="matrix(0.008680555555555556,0,0,0.008680555555555556,21.545138888888893,0)" xlink:href="#aP"/><use transform="matrix(0.008680555555555556,0,0,0.008680555555555556,31.701388888888893,0)" xlink:href="#bf"/><use transform="matrix(0.008680555555555556,0,0,0.008680555555555556,42.21354166666667,0)" xlink:href="#S"/><use transform="matrix(0.008680555555555556,0,0,0.008680555555555556,57.78645833333334,0)" xlink:href="#T"/><use transform="matrix(0.008680555555555556,0,0,0.008680555555555556,68.15104166666667,0)" xlink:href="#Q"/><use transform="matrix(0.008680555555555556,0,0,0.008680555555555556,78.65451388888889,0)" xlink:href="#W"/><use transform="matrix(0.008680555555555556,0,0,0.008680555555555556,84.29687500000001,0)" xlink:href="#V"/></g><path d="M140 405l46-156c120 36 205 19 263-150l32-93L54-1118h197c107 313 237 620 324 950 87-331 219-637 326-950h196L606 167c-68 178-176 259-334 259-64 0-113-12-132-21" id="bg"/><g id="J"><use transform="matrix(0.008680555555555556,0,0,0.008680555555555556,0,0)" xlink:href="#W"/><use transform="matrix(0.008680555555555556,0,0,0.008680555555555556,6.163194444444445,0)" xlink:href="#bg"/><use transform="matrix(0.008680555555555556,0,0,0.008680555555555556,16.15451388888889,0)" xlink:href="#aJ"/><use transform="matrix(0.008680555555555556,0,0,0.008680555555555556,27.039930555555557,0)" xlink:href="#T"/></g></defs></g></svg>