<svg xmlns="http://www.w3.org/2000/svg" xmlns:xlink="http://www.w3.org/1999/xlink" xmlns:lucid="lucid" width="1478.38" height="1014.19"><g transform="translate(-720.8085835235534 -481.66666666666663)" lucid:page-tab-id="0_0"><path d="M500 0h2000v1500H500z" fill="#fff"/><path d="M1152.06 488.67a6 6 0 0 1 6-6h482.6a6 6 0 0 1 6 6v1000.2a6 6 0 0 1-6 6h-482.6a6 6 0 0 1-6-6z" stroke="#3a414a" stroke-width="2" fill="#dedeff"/><path d="M1636.67 492.67h-15v20h15z" stroke="#3a414a" fill="#dedeff"/><path d="M1626.67 496h-10v3.33h10zm0 10h-10v3.33h10z" stroke="#3a414a" fill="#dedeff"/><use xlink:href="#a" transform="matrix(1,0,0,1,1152.0574988579062,482.66666666666663) translate(138.01433159722222 26.537777777777777)"/><use xlink:href="#b" transform="matrix(1,0,0,1,1152.0574988579062,482.66666666666663) translate(213.5677170138889 26.537777777777777)"/><path d="M1357.36 548.67a6 6 0 0 1 6-6h249.3a6 6 0 0 1 6 6v38.66a6 6 0 0 1-6 6h-249.3a6 6 0 0 1-6-6z" stroke="#3a414a" stroke-width="2" fill="#fff"/><path d="M1608.67 552.67h-15v20h15z" stroke="#3a414a" fill="#fff"/><path d="M1598.67 556h-10v3.33h10zm0 10h-10v3.33h10z" stroke="#3a414a" fill="#fff"/><use xlink:href="#c" transform="matrix(1,0,0,1,1357.356279207431,542.6666666667055) translate(44.62283854166666 33.48090277777778)"/><use xlink:href="#d" transform="matrix(1,0,0,1,1357.356279207431,542.6666666667055) translate(106.93837673611111 33.48090277777778)"/><path d="M1356.64 619.33a6 6 0 0 1 6-6h250.03a6 6 0 0 1 6 6v197.34a6 6 0 0 1-6 6h-250.03a6 6 0 0 1-6-6z" stroke="#3a414a" stroke-width="2" fill="#fff"/><path d="M1608.67 623.33h-15v20h15z" stroke="#3a414a" fill="#fff"/><path d="M1598.67 626.67h-10V630h10zm0 10h-10V640h10z" stroke="#3a414a" fill="#fff"/><use xlink:href="#e" transform="matrix(1,0,0,1,1356.6390661996147,613.3333333333333) translate(50.61046875 26.537777777777777)"/><use xlink:href="#f" transform="matrix(1,0,0,1,1356.6390661996147,613.3333333333333) translate(106.44814236111111 26.537777777777777)"/><path d="M1362.7 659.33a6 6 0 0 1 6-6h238.63a6 6 0 0 1 6 6V698a6 6 0 0 1-6 6H1368.7a6 6 0 0 1-6-6z" stroke="#3a414a" stroke-width="2" fill="#fff"/><path d="M1603.33 663.33h-15v20h15z" stroke="#3a414a" fill="#fff"/><path d="M1593.33 666.67h-10V670h10zm0 10h-10V680h10z" stroke="#3a414a" fill="#fff"/><use xlink:href="#g" transform="matrix(1,0,0,1,1362.6896125407645,653.3333333333333) translate(30.05252604166666 33.48090277777778)"/><use xlink:href="#d" transform="matrix(1,0,0,1,1362.6896125407645,653.3333333333333) translate(111.50868923611111 33.48090277777778)"/><path d="M1361.97 715.33a6 6 0 0 1 6-6h239.36a6 6 0 0 1 6 6V754a6 6 0 0 1-6 6h-239.36a6 6 0 0 1-6-6z" stroke="#3a414a" stroke-width="2" fill="#fff"/><path d="M1603.33 719.33h-15v20h15z" stroke="#3a414a" fill="#fff"/><path d="M1593.33 722.67h-10V726h10zm0 10h-10V736h10z" stroke="#3a414a" fill="#fff"/><use xlink:href="#h" transform="matrix(1,0,0,1,1361.9723995329487,709.3333333333333) translate(25.54948784722223 33.48090277777778)"/><use xlink:href="#i" transform="matrix(1,0,0,1,1361.9723995329487,709.3333333333333) translate(116.01172743055557 33.48090277777778)"/><path d="M1361.97 771.33a6 6 0 0 1 6-6h239.36a6 6 0 0 1 6 6V810a6 6 0 0 1-6 6h-239.36a6 6 0 0 1-6-6z" stroke="#3a414a" stroke-width="2" fill="#fff3d9"/><path d="M1603.33 775.33h-15v20h15z" stroke="#3a414a" fill="#fff3d9"/><path d="M1593.33 778.67h-10V782h10zm0 10h-10V792h10z" stroke="#3a414a" fill="#fff3d9"/><use xlink:href="#j" transform="matrix(1,0,0,1,1361.9723995329487,765.3333333333333) translate(42.861770833333345 33.48090277777778)"/><use xlink:href="#i" transform="matrix(1,0,0,1,1361.9723995329487,765.3333333333333) translate(98.69944444444445 33.48090277777778)"/><path d="M1356.64 848.67a6 6 0 0 1 6-6h250.03a6 6 0 0 1 6 6v272.12a6 6 0 0 1-6 6h-250.03a6 6 0 0 1-6-6z" stroke="#3a414a" stroke-width="2" fill="#fff"/><path d="M1608.67 852.67h-15v20h15z" stroke="#3a414a" fill="#fff"/><path d="M1598.67 856h-10v3.33h10zm0 10h-10v3.33h10z" stroke="#3a414a" fill="#fff"/><use xlink:href="#k" transform="matrix(1,0,0,1,1356.6390661996147,842.6666666666277) translate(36.03256076388889 26.537777777777777)"/><use xlink:href="#f" transform="matrix(1,0,0,1,1356.6390661996147,842.6666666666277) translate(121.02605034722222 26.537777777777777)"/><path d="M1361.97 887.33a6 6 0 0 1 6-6h239.36a6 6 0 0 1 6 6v58.2a6 6 0 0 1-6 6h-239.36a6 6 0 0 1-6-6z" stroke="#3a414a" stroke-width="2" fill="#fff"/><path d="M1603.33 891.33h-15v20h15z" stroke="#3a414a" fill="#fff"/><path d="M1593.33 894.67h-10V898h10zm0 10h-10V908h10z" stroke="#3a414a" fill="#fff"/><use xlink:href="#l" transform="matrix(1,0,0,1,1361.9723995329484,881.3333333333331) translate(20.425138888888902 27.35199652777778)"/><use xlink:href="#i" transform="matrix(1,0,0,1,1361.9723995329484,881.3333333333331) translate(85.7806076388889 59.61762152777778)"/><path d="M1361.97 962.74a6 6 0 0 1 6-6h239.36a6 6 0 0 1 6 6v38.66a6 6 0 0 1-6 6h-239.36a6 6 0 0 1-6-6z" stroke="#3a414a" stroke-width="2" fill="#fff3d9"/><path d="M1603.33 966.74h-15v20h15z" stroke="#3a414a" fill="#fff3d9"/><path d="M1593.33 970.07h-10v3.33h10zm0 10h-10v3.33h10z" stroke="#3a414a" fill="#fff3d9"/><use xlink:href="#m" transform="matrix(1,0,0,1,1361.9723995329489,956.7350131030472) translate(28.28386284722223 33.48090277777778)"/><use xlink:href="#i" transform="matrix(1,0,0,1,1361.9723995329489,956.7350131030472) translate(113.27735243055557 33.48090277777778)"/><path d="M1361.3 1019.3a6 6 0 0 1 6-6H1608a6 6 0 0 1 6 6v38.66a6 6 0 0 1-6 6h-240.7a6 6 0 0 1-6-6z" stroke="#3a414a" stroke-width="2" fill="#fff3d9"/><path d="M1604 1023.3h-15v20h15z" stroke="#3a414a" fill="#fff3d9"/><path d="M1594 1026.62h-10v3.34h10zm0 10h-10v3.34h10z" stroke="#3a414a" fill="#fff3d9"/><use xlink:href="#n" transform="matrix(1,0,0,1,1361.3085352347043,1013.2888775105705) translate(46.05361111111112 33.48090277777778)"/><use xlink:href="#i" transform="matrix(1,0,0,1,1361.3085352347043,1013.2888775105705) translate(97.50760416666668 33.48090277777778)"/><path d="M1361.3 1075.84a6 6 0 0 1 6-6H1608a6 6 0 0 1 6 6v38.67a6 6 0 0 1-6 6h-240.7a6 6 0 0 1-6-6z" stroke="#3a414a" stroke-width="2" fill="#f4d9ff"/><path d="M1604 1079.84h-15v20h15z" stroke="#3a414a" fill="#f4d9ff"/><path d="M1594 1083.18h-10v3.33h10zm0 10h-10v3.33h10z" stroke="#3a414a" fill="#f4d9ff"/><use xlink:href="#o" transform="matrix(1,0,0,1,1361.3085352347043,1069.8427419180937) translate(13.251961805555576 33.48090277777778)"/><use xlink:href="#i" transform="matrix(1,0,0,1,1361.3085352347043,1069.8427419180937) translate(130.30925347222222 33.48090277777778)"/><path d="M1356.64 1152.8a6 6 0 0 1 6-6h250.03a6 6 0 0 1 6 6v326.26a6 6 0 0 1-6 6h-250.03a6 6 0 0 1-6-6z" stroke="#3a414a" stroke-width="2" fill="#fff"/><path d="M1608.67 1156.8h-15v20h15z" stroke="#3a414a" fill="#fff"/><path d="M1598.67 1160.12h-10v3.34h10zm0 10h-10v3.34h10z" stroke="#3a414a" fill="#fff"/><use xlink:href="#p" transform="matrix(1,0,0,1,1356.6390661996147,1146.7882780084842) translate(21.394973958333345 26.537777777777777)"/><use xlink:href="#f" transform="matrix(1,0,0,1,1356.6390661996147,1146.7882780084842) translate(135.66363715277777 26.537777777777777)"/><path d="M1361.67 1190.37a6 6 0 0 1 6-6h240.7a6 6 0 0 1 6 6v38.66a6 6 0 0 1-6 6h-240.7a6 6 0 0 1-6-6z" stroke="#3a414a" stroke-width="2" fill="#fff3d9"/><path d="M1604.36 1194.37h-15v20h15z" stroke="#3a414a" fill="#fff3d9"/><path d="M1594.36 1197.7h-10v3.33h10zm0 10h-10v3.33h10z" stroke="#3a414a" fill="#fff3d9"/><use xlink:href="#q" transform="matrix(1,0,0,1,1361.6671417386124,1184.3670634551559) translate(46.98134548611112 33.48090277777778)"/><use xlink:href="#i" transform="matrix(1,0,0,1,1361.6671417386124,1184.3670634551559) translate(96.57986979166668 33.48090277777778)"/><path d="M1361.67 1247.95a6 6 0 0 1 6-6h240.7a6 6 0 0 1 6 6v61.9a6 6 0 0 1-6 6h-240.7a6 6 0 0 1-6-6z" stroke="#3a414a" stroke-width="2" fill="#f4d9ff"/><path d="M1604.36 1251.95h-15v20h15z" stroke="#3a414a" fill="#f4d9ff"/><path d="M1594.36 1255.28h-10v3.33h10zm0 10h-10v3.33h10z" stroke="#3a414a" fill="#f4d9ff"/><use xlink:href="#o" transform="matrix(1,0,0,1,1361.6671417386124,1241.9458489017884) translate(31.80209201388889 29.04340277777778)"/><use xlink:href="#r" transform="matrix(1,0,0,1,1361.6671417386124,1241.9458489017884) translate(148.85938368055554 29.04340277777778)"/><use xlink:href="#i" transform="matrix(1,0,0,1,1361.6671417386124,1241.9458489017884) translate(86.7806076388889 61.30902777777778)"/><path d="M1361.67 1328.77a6 6 0 0 1 6-6h240.7a6 6 0 0 1 6 6v61.9a6 6 0 0 1-6 6h-240.7a6 6 0 0 1-6-6z" stroke="#3a414a" stroke-width="2" fill="#f4d9ff"/><path d="M1604.36 1332.77h-15v20h15z" stroke="#3a414a" fill="#f4d9ff"/><path d="M1594.36 1336.1h-10v3.33h10zm0 10h-10v3.33h10z" stroke="#3a414a" fill="#f4d9ff"/><use xlink:href="#o" transform="matrix(1,0,0,1,1361.6671417386124,1322.7670383778373) translate(21.32574652777779 29.04340277777778)"/><use xlink:href="#s" transform="matrix(1,0,0,1,1361.6671417386124,1322.7670383778373) translate(138.38303819444445 29.04340277777778)"/><use xlink:href="#i" transform="matrix(1,0,0,1,1361.6671417386124,1322.7670383778373) translate(86.7806076388889 61.30902777777778)"/><path d="M721.8 766.48a6 6 0 0 1 6-6h219.64a6 6 0 0 1 6 6v179.06a6 6 0 0 1-6 6H727.8a6 6 0 0 1-6-6z" stroke="#3a414a" stroke-width="2" fill="#fff"/><path d="M943.44 770.48h-15v20h15z" stroke="#3a414a" fill="#fff"/><path d="M933.44 773.82h-10v3.33h10zm0 10h-10v3.33h10z" stroke="#3a414a" fill="#fff"/><use xlink:href="#t" transform="matrix(1,0,0,1,721.8085835235534,760.4841048071811) translate(10.990243055555547 26.537777777777777)"/><use xlink:href="#b" transform="matrix(1,0,0,1,721.8085835235534,760.4841048071811) translate(77.59180555555555 26.537777777777777)"/><path d="M745.27 836.68a6 6 0 0 1 6-6h172.7a6 6 0 0 1 6 6v38.67a6 6 0 0 1-6 6h-172.7a6 6 0 0 1-6-6z" stroke="#3a414a" stroke-width="2" fill="#fff3d9"/><path d="M919.98 840.68h-15v20h15z" stroke="#3a414a" fill="#fff3d9"/><path d="M909.98 844h-10v3.35h10zm0 10h-10v3.35h10z" stroke="#3a414a" fill="#fff3d9"/><use xlink:href="#u" transform="matrix(1,0,0,1,745.2670693119246,830.6785058344417) translate(33.33182291666666 33.48090277777778)"/><use xlink:href="#v" transform="matrix(1,0,0,1,745.2670693119246,830.6785058344417) translate(99.17383680555555 33.48090277777778)"/><path d="M1824.86 502.1a6 6 0 0 1 6-6h361.33a6 6 0 0 1 6 6v95.04a6 6 0 0 1-6 6h-361.34a6 6 0 0 1-6-6z" stroke="#3a414a" stroke-width="2" fill="#fff"/><path d="M2188.2 506.1h-15v20h15z" stroke="#3a414a" fill="#fff"/><path d="M2178.2 509.45h-10v3.33h10zm0 10h-10v3.33h10z" stroke="#3a414a" fill="#fff"/><use xlink:href="#w" transform="matrix(1,0,0,1,1824.8580831431905,496.11493079802705) translate(74.26910590277778 26.537777777777777)"/><use xlink:href="#x" transform="matrix(1,0,0,1,1824.8580831431905,496.11493079802705) translate(131.47396701388888 26.537777777777777)"/><use xlink:href="#f" transform="matrix(1,0,0,1,1824.8580831431905,496.11493079802705) translate(193.7895052083333 26.537777777777777)"/><path d="M1880.87 548.67a6 6 0 0 1 6-6h249.3a6 6 0 0 1 6 6v38.66a6 6 0 0 1-6 6h-249.3a6 6 0 0 1-6-6z" stroke="#3a414a" stroke-width="2" fill="#fff"/><path d="M2132.18 552.67h-15v20h15z" stroke="#3a414a" fill="#fff"/><path d="M2122.18 556h-10v3.33h10zm0 10h-10v3.33h10z" stroke="#3a414a" fill="#fff"/><use xlink:href="#c" transform="matrix(1,0,0,1,1880.8695560802394,542.6666666667054) translate(40.40734375 33.48090277777778)"/><use xlink:href="#y" transform="matrix(1,0,0,1,1880.8695560802394,542.6666666667054) translate(102.72288194444445 33.48090277777778)"/><path d="M1824.86 687.15a6 6 0 0 1 6-6h361.33a6 6 0 0 1 6 6v95.03a6 6 0 0 1-6 6h-361.34a6 6 0 0 1-6-6z" stroke="#3a414a" stroke-width="2" fill="#fff"/><path d="M2188.2 691.15h-15v20h15z" stroke="#3a414a" fill="#fff"/><path d="M2178.2 694.5h-10v3.32h10zm0 10h-10v3.32h10z" stroke="#3a414a" fill="#fff"/><use xlink:href="#z" transform="matrix(1,0,0,1,1824.8580831431905,681.1546659126245) translate(61.98611979166666 26.537777777777777)"/><use xlink:href="#b" transform="matrix(1,0,0,1,1824.8580831431905,681.1546659126245) translate(167.59592881944445 26.537777777777777)"/><path d="M1880.87 733.7a6 6 0 0 1 6-6h249.3a6 6 0 0 1 6 6v38.67a6 6 0 0 1-6 6h-249.3a6 6 0 0 1-6-6z" stroke="#3a414a" stroke-width="2" fill="#fff"/><path d="M2132.18 737.7h-15v20h15z" stroke="#3a414a" fill="#fff"/><path d="M2122.18 741.04h-10v3.33h10zm0 10h-10v3.33h10z" stroke="#3a414a" fill="#fff"/><use xlink:href="#A" transform="matrix(1,0,0,1,1880.8695560802396,727.7064017813027) translate(65.82509548611111 33.48090277777778)"/><path d="M1824.86 972.74a6 6 0 0 1 6-6h361.33a6 6 0 0 1 6 6v95.02a6 6 0 0 1-6 6h-361.34a6 6 0 0 1-6-6z" stroke="#3a414a" stroke-width="2" fill="#fff"/><path d="M2188.2 976.74h-15v20h15z" stroke="#3a414a" fill="#fff"/><path d="M2178.2 980.07h-10v3.33h10zm0 10h-10v3.33h10z" stroke="#3a414a" fill="#fff"/><use xlink:href="#B" transform="matrix(1,0,0,1,1824.8580831431905,966.7371416418921) translate(79.7649826388889 26.537777777777777)"/><use xlink:href="#C" transform="matrix(1,0,0,1,1824.8580831431905,966.7371416418921) translate(120.34657986111111 26.537777777777777)"/><use xlink:href="#f" transform="matrix(1,0,0,1,1824.8580831431905,966.7371416418921) translate(188.29362847222222 26.537777777777777)"/><path d="M1880.87 1019.3a6 6 0 0 1 6-6h249.3a6 6 0 0 1 6 6v38.66a6 6 0 0 1-6 6h-249.3a6 6 0 0 1-6-6z" stroke="#3a414a" stroke-width="2" fill="#fff3d9"/><path d="M2132.18 1023.3h-15v20h15z" stroke="#3a414a" fill="#fff3d9"/><path d="M2122.18 1026.62h-10v3.34h10zm0 10h-10v3.34h10z" stroke="#3a414a" fill="#fff3d9"/><use xlink:href="#D" transform="matrix(1,0,0,1,1880.8695560802396,1013.2888775105703) translate(10.296666666666676 33.48090277777778)"/><use xlink:href="#E" transform="matrix(1,0,0,1,1880.8695560802396,1013.2888775105703) translate(94.5306076388889 33.48090277777778)"/><path d="M1824.86 1374.66a6 6 0 0 1 6-6h361.33a6 6 0 0 1 6 6v95.02a6 6 0 0 1-6 6h-361.34a6 6 0 0 1-6-6z" stroke="#3a414a" stroke-width="2" fill="#fff"/><path d="M2188.2 1378.66h-15v20h15z" stroke="#3a414a" fill="#fff"/><path d="M2178.2 1382h-10v3.32h10zm0 10h-10v3.32h10z" stroke="#3a414a" fill="#fff"/><use xlink:href="#F" transform="matrix(1,0,0,1,1824.8580831431907,1368.657693999917) translate(53.64193576388889 26.537777777777777)"/><use xlink:href="#G" transform="matrix(1,0,0,1,1824.8580831431907,1368.657693999917) translate(128.717890625 26.537777777777777)"/><use xlink:href="#f" transform="matrix(1,0,0,1,1824.8580831431907,1368.657693999917) translate(214.41667534722222 26.537777777777777)"/><path d="M1880.87 1421.2a6 6 0 0 1 6-6h249.3a6 6 0 0 1 6 6v38.68a6 6 0 0 1-6 6h-249.3a6 6 0 0 1-6-6z" stroke="#3a414a" stroke-width="2" fill="#f4d9ff"/><path d="M2132.18 1425.2h-15v20h15z" stroke="#3a414a" fill="#f4d9ff"/><path d="M2122.18 1428.54h-10v3.34h10zm0 10h-10v3.34h10z" stroke="#3a414a" fill="#f4d9ff"/><use xlink:href="#F" transform="matrix(1,0,0,1,1880.8695560802398,1415.209429868595) translate(13.443368055555547 33.48090277777778)"/><use xlink:href="#H" transform="matrix(1,0,0,1,1880.8695560802398,1415.209429868595) translate(88.51932291666667 33.48090277777778)"/><use xlink:href="#d" transform="matrix(1,0,0,1,1880.8695560802398,1415.209429868595) translate(138.11784722222222 33.48090277777778)"/><path d="M721.8 1458.58a6 6 0 0 1 6-6h116.7a6 6 0 0 1 6 6v30.28a6 6 0 0 1-6 6H727.8a6 6 0 0 1-6-6z" stroke="#000" stroke-width="2" fill="#fff"/><use xlink:href="#I" transform="matrix(1,0,0,1,721.8085835235534,1452.5791980579488) translate(23.50022569444444 29.59027777777778)"/><path d="M721.8 1407.34a6 6 0 0 1 6-6h116.7a6 6 0 0 1 6 6v30.28a6 6 0 0 1-6 6H727.8a6 6 0 0 1-6-6z" stroke="#000" stroke-width="2" fill="#fff3d9"/><use xlink:href="#J" transform="matrix(1,0,0,1,721.8085835235534,1401.335182004921) translate(18.226788194444445 29.59027777777778)"/><path d="M721.8 1356.1a6 6 0 0 1 6-6h116.7a6 6 0 0 1 6 6v30.27a6 6 0 0 1-6 6H727.8a6 6 0 0 1-6-6z" stroke="#000" stroke-width="2" fill="#f4d9ff"/><use xlink:href="#K" transform="matrix(1,0,0,1,721.8085835235534,1350.091165951893) translate(40.76368055555556 29.59027777777778)"/><path d="M721.8 1304.85a6 6 0 0 1 6-6h116.7a6 6 0 0 1 6 6v30.28a6 6 0 0 1-6 6H727.8a6 6 0 0 1-6-6z" stroke="#000" stroke-width="2" fill="#dedeff"/><use xlink:href="#L" transform="matrix(1,0,0,1,721.8085835235534,1298.8471498988647) translate(17.733081597222224 29.59027777777778)"/><path d="M1760.76 568h-11M1715.76 568h-5" stroke="#3a414a" stroke-width="2" fill="none"/><path d="M1735.76 582c-7.73 0-14-6.27-14-14s6.27-14 14-14 14 6.27 14 14-6.27 14-14 14z" stroke="#3a414a" stroke-width="2" fill="#fff"/><path d="M1735.76 548c-11.04 0-20 8.95-20 20s8.96 20 20 20" stroke="#3a414a" stroke-width="2" fill="none"/><path d="M1760.76 568a.8.8 0 0 1-.8.8h-9.4a.8.8 0 0 1-.8-.8.8.8 0 0 1 .8-.8h9.4a.8.8 0 0 1 .8.8z" fill="none"/><path d="M1761.76 568h117.1" stroke="#3a414a" stroke-width="2" fill="none"/><path d="M1761.8 568.98h-1.04V567h1.03zM1879.87 568.98h-1.03V567h1.03z" stroke="#3a414a" stroke-width=".05" fill="#3a414a"/><path d="M1709.76 568h-89.1" stroke="#3a414a" stroke-width="2" fill="none"/><path d="M1710.76 568.98h-1.02V567h1.02zM1620.7 568.98h-1.03V567h1.02z" stroke="#3a414a" stroke-width=".05" fill="#3a414a"/><path d="M1678.45 511.77a6 6 0 0 1 6-6h102.62a6 6 0 0 1 6 6v24.9a6 6 0 0 1-6 6h-102.62a6 6 0 0 1-6-6z" fill="none"/><use xlink:href="#M" transform="matrix(1,0,0,1,1683.4516023355036,510.76864583337203) translate(0 21.58376736111111)"/><use xlink:href="#N" transform="matrix(1,0,0,1,1683.4516023355036,510.76864583337203) translate(69.11892361111111 21.58376736111111)"/><path d="M1760.76 753.04h-11M1715.76 753.04h-5" stroke="#3a414a" stroke-width="2" fill="none"/><path d="M1735.76 767.04c-7.73 0-14-6.27-14-14s6.27-14 14-14 14 6.27 14 14-6.27 14-14 14z" stroke="#3a414a" stroke-width="2" fill="#fff"/><path d="M1735.76 733.04c-11.04 0-20 8.95-20 20s8.96 20 20 20" stroke="#3a414a" stroke-width="2" fill="none"/><path d="M1760.76 753.04a.8.8 0 0 1-.8.8h-9.4a.8.8 0 0 1-.8-.8.8.8 0 0 1 .8-.8h9.4a.8.8 0 0 1 .8.8z" fill="none"/><path d="M1761.76 753.04h117.1" stroke="#3a414a" stroke-width="2" fill="none"/><path d="M1761.8 754h-1.04v-1.93h1.03zM1879.87 754h-1.03v-1.93h1.03z" stroke="#3a414a" stroke-width=".05" fill="#3a414a"/><path d="M1709.76 753.04h-38.55a6 6 0 0 1-6-6V724a6 6 0 0 0-6-6h-38.53" stroke="#3a414a" stroke-width="2" fill="none"/><path d="M1710.76 754h-1.02v-1.93h1.02zM1620.7 718.98h-1.03V717h1.02z" stroke="#3a414a" stroke-width=".05" fill="#3a414a"/><path d="M1709.76 753.04h-38.55a6 6 0 0 0-6 6v219.7a6 6 0 0 1-6 6h-38.53" stroke="#3a414a" stroke-width="2" fill="none"/><path d="M1710.76 754h-1.02v-1.93h1.02zM1620.7 985.7h-1.03v-1.95h1.02z" stroke="#3a414a" stroke-width=".05" fill="#3a414a"/><path d="M1668.47 696.8a6 6 0 0 1 6-6h122.6a6 6 0 0 1 6 6v24.9a6 6 0 0 1-6 6h-122.6a6 6 0 0 1-6-6z" fill="none"/><use xlink:href="#O" transform="matrix(1,0,0,1,1673.4689634466147,695.8083809479693) translate(0 21.58376736111111)"/><path d="M1760.76 1038.62h-11M1715.76 1038.62h-5" stroke="#3a414a" stroke-width="2" fill="none"/><path d="M1735.76 1052.62c-7.73 0-14-6.27-14-14s6.27-14 14-14 14 6.27 14 14-6.27 14-14 14z" stroke="#3a414a" stroke-width="2" fill="#fff"/><path d="M1735.76 1018.62c-11.04 0-20 8.96-20 20 0 11.05 8.96 20 20 20" stroke="#3a414a" stroke-width="2" fill="none"/><path d="M1760.76 1038.62a.8.8 0 0 1-.8.8h-9.4a.8.8 0 0 1-.8-.8.8.8 0 0 1 .8-.8h9.4a.8.8 0 0 1 .8.8z" fill="none"/><path d="M1761.76 1038.62h117.1" stroke="#3a414a" stroke-width="2" fill="none"/><path d="M1761.8 1039.6h-1.04v-1.95h1.03zM1879.87 1039.6h-1.03v-1.95h1.03z" stroke="#3a414a" stroke-width=".05" fill="#3a414a"/><path d="M1709.76 1038.62H1616" stroke="#3a414a" stroke-width="2" fill="none"/><path d="M1710.76 1039.6h-1.02v-1.95h1.02zM1616.02 1039.6H1615v-1.95h1.02z" stroke="#3a414a" stroke-width=".05" fill="#3a414a"/><path d="M1670.9 982.4a6 6 0 0 1 6-6h117.73a6 6 0 0 1 6 6v24.9a6 6 0 0 1-6 6H1676.9a6 6 0 0 1-6-6z" fill="none"/><use xlink:href="#D" transform="matrix(1,0,0,1,1675.894093654948,981.3908566772371) translate(0 21.58376736111111)"/><use xlink:href="#N" transform="matrix(1,0,0,1,1675.894093654948,981.3908566772371) translate(84.23394097222221 21.58376736111111)"/><path d="M1760.76 1440.54h-11M1715.76 1440.54h-5" stroke="#3a414a" stroke-width="2" fill="none"/><path d="M1735.76 1454.54c-7.73 0-14-6.27-14-14s6.27-14 14-14 14 6.27 14 14-6.27 14-14 14z" stroke="#3a414a" stroke-width="2" fill="#fff"/><path d="M1735.76 1420.54c-11.04 0-20 8.96-20 20 0 11.05 8.96 20 20 20" stroke="#3a414a" stroke-width="2" fill="none"/><path d="M1760.76 1440.54a.8.8 0 0 1-.8.8h-9.4a.8.8 0 0 1-.8-.8.8.8 0 0 1 .8-.8h9.4a.8.8 0 0 1 .8.8z" fill="none"/><path d="M1761.76 1440.54h117.1" stroke="#3a414a" stroke-width="2" fill="none"/><path d="M1761.8 1441.52h-1.04v-1.95h1.03zM1879.87 1441.52h-1.03v-1.95h1.03z" stroke="#3a414a" stroke-width=".05" fill="#3a414a"/><path d="M1709.76 1440.54h-94.43" stroke="#3a414a" stroke-width="2" fill="none"/><path d="M1710.76 1441.52h-1.02v-1.95h1.02zM1615.36 1441.52h-1.03v-1.95h1.03z" stroke="#3a414a" stroke-width=".05" fill="#3a414a"/><path d="M1657.58 1333.13a6 6 0 0 1 6-6h144.36a6 6 0 0 1 6 6v89.43a6 6 0 0 1-6 6h-144.36a6 6 0 0 1-6-6z" fill="none"/><g><use xlink:href="#P" transform="matrix(1,0,0,1,1662.5817111602566,1332.1296044171313) translate(0.45855034722222854 37.950954861111114)"/><use xlink:href="#Q" transform="matrix(1,0,0,1,1662.5817111602566,1332.1296044171313) translate(50.057074652777786 37.950954861111114)"/><use xlink:href="#R" transform="matrix(1,0,0,1,1662.5817111602566,1332.1296044171313) translate(82.240234375 37.950954861111114)"/><use xlink:href="#N" transform="matrix(1,0,0,1,1662.5817111602566,1332.1296044171313) translate(55.753689236111114 70.21657986111111)"/></g><g><path d="M1182.7 1154.7v-11M1182.7 1109.7v-5" stroke="#3a414a" stroke-width="2" fill="none"/><path d="M1168.7 1129.7c0-7.75 6.27-14 14-14 7.74 0 14 6.25 14 14 0 7.72-6.26 14-14 14-7.73 0-14-6.28-14-14z" stroke="#3a414a" stroke-width="2" fill="#fff"/><path d="M1202.7 1129.7c0-11.06-8.95-20-20-20-11.04 0-20 8.94-20 20" stroke="#3a414a" stroke-width="2" fill="none"/><path d="M1182.7 1154.7a.8.8 0 0 1-.8-.8v-9.4a.8.8 0 0 1 .8-.8.8.8 0 0 1 .8.8v9.4a.8.8 0 0 1-.8.8z" fill="none"/></g><path d="M1182.7 1155.7v154.22a6 6 0 0 0 6 6h165.94" stroke="#3a414a" stroke-width="2" fill="none"/><path d="M1183.68 1155.7h-1.95v-1h1.95zM1355.64 1316.9h-1.03v-1.95h1.04z" stroke="#3a414a" stroke-width=".05" fill="#3a414a"/><path d="M1182.7 1103.7V990.72a6 6 0 0 1 6-6h165.94" stroke="#3a414a" stroke-width="2" fill="none"/><path d="M1183.68 1104.7h-1.95v-1.04h1.95zM1355.64 985.7h-1.03v-1.95h1.04z" stroke="#3a414a" stroke-width=".05" fill="#3a414a"/><g><path d="M1316.64 1154.7v-11M1316.64 1109.7v-5" stroke="#3a414a" stroke-width="2" fill="none"/><path d="M1302.64 1129.7c0-7.75 6.27-14 14-14s14 6.25 14 14c0 7.72-6.27 14-14 14s-14-6.28-14-14z" stroke="#3a414a" stroke-width="2" fill="#fff"/><path d="M1336.64 1129.7c0-11.06-8.96-20-20-20-11.05 0-20 8.94-20 20" stroke="#3a414a" stroke-width="2" fill="none"/><path d="M1316.64 1154.7a.8.8 0 0 1-.8-.8v-9.4a.8.8 0 0 1 .8-.8.8.8 0 0 1 .8.8v9.4a.8.8 0 0 1-.8.8z" fill="none"/></g><path d="M1316.64 1155.7v154.22a6 6 0 0 0 6 6h32" stroke="#3a414a" stroke-width="2" fill="none"/><path d="M1317.6 1155.7h-1.94v-1h1.95zM1355.64 1316.9h-1.03v-1.95h1.04z" stroke="#3a414a" stroke-width=".05" fill="#3a414a"/><path d="M1316.64 1103.7V990.72a6 6 0 0 1 6-6h32" stroke="#3a414a" stroke-width="2" fill="none"/><path d="M1317.6 1104.7h-1.94v-1.04h1.95zM1355.64 985.7h-1.03v-1.95h1.04z" stroke="#3a414a" stroke-width=".05" fill="#3a414a"/><path d="M1184.57 1073.8a6 6 0 0 1 6-6h93.95a6 6 0 0 1 6 6v24.9a6 6 0 0 1-6 6h-93.95a6 6 0 0 1-6-6z" fill="none"/><g><use xlink:href="#S" transform="matrix(1,0,0,1,1189.569700135809,1072.7876992633983) translate(0 21.58376736111111)"/></g><path d="M1233.16 1152.8a6 6 0 0 1 6-6h72.56a6 6 0 0 1 6 6v57.15a6 6 0 0 1-6 6h-72.56a6 6 0 0 1-6-6z" fill="none"/><g><use xlink:href="#T" transform="matrix(1,0,0,1,1238.1589001782472,1151.7882780084842) translate(15.825737847222221 21.95095486111111)"/><use xlink:href="#U" transform="matrix(1,0,0,1,1238.1589001782472,1151.7882780084842) translate(0.22243923611110716 54.21657986111111)"/></g><g><path d="M1085.95 748.8v11M1085.95 793.8v5" stroke="#3a414a" stroke-width="2" fill="none"/><path d="M1099.95 773.8c0 7.73-6.26 14-14 14-7.73 0-14-6.27-14-14s6.27-14 14-14c7.74 0 14 6.27 14 14z" stroke="#3a414a" stroke-width="2" fill="#fff"/><path d="M1065.95 773.8c0 11.04 8.96 20 20 20 11.05 0 20-8.96 20-20" stroke="#3a414a" stroke-width="2" fill="none"/><path d="M1085.95 748.8a.8.8 0 0 1 .8.8v9.4a.8.8 0 0 1-.8.8.8.8 0 0 1-.8-.8v-9.4a.8.8 0 0 1 .8-.8z" fill="none"/></g><path d="M1085.95 747.8V724a6 6 0 0 1 6-6h262.7" stroke="#3a414a" stroke-width="2" fill="none"/><path d="M1086.93 748.8h-1.95v-1.03h1.95zM1355.64 718.98h-1.03V717h1.04z" stroke="#3a414a" stroke-width=".05" fill="#3a414a"/><path d="M1085.95 799.8V850a6 6 0 0 1-6 6h-124.5" stroke="#3a414a" stroke-width="2" fill="none"/><path d="M1086.93 799.82h-1.95v-1.02h1.95zM955.47 857h-1.03v-1.96h1.03z" stroke="#3a414a" stroke-width=".05" fill="#3a414a"/><g><path d="M1085.95 931.34v-11M1085.95 886.34v-5" stroke="#3a414a" stroke-width="2" fill="none"/><path d="M1071.95 906.34c0-7.73 6.27-14 14-14 7.74 0 14 6.27 14 14 0 7.74-6.26 14-14 14-7.73 0-14-6.26-14-14z" stroke="#3a414a" stroke-width="2" fill="#fff"/><path d="M1105.95 906.34c0-11.04-8.95-20-20-20-11.04 0-20 8.96-20 20" stroke="#3a414a" stroke-width="2" fill="none"/><path d="M1085.95 931.34a.8.8 0 0 1-.8-.8v-9.4a.8.8 0 0 1 .8-.8.8.8 0 0 1 .8.8v9.4a.8.8 0 0 1-.8.8z" fill="none"/></g><path d="M1085.95 932.35v17.8a6 6 0 0 0 6 6h262.7" stroke="#3a414a" stroke-width="2" fill="none"/><path d="M1086.93 932.37h-1.95v-1.02h1.95zM1355.64 957.14h-1.03v-1.95h1.04z" stroke="#3a414a" stroke-width=".05" fill="#3a414a"/><path d="M1085.95 880.35V862a6 6 0 0 0-6-6h-124.5" stroke="#3a414a" stroke-width="2" fill="none"/><path d="M1086.93 881.35h-1.95v-1.03h1.95zM955.47 857h-1.03v-1.96h1.03z" stroke="#3a414a" stroke-width=".05" fill="#3a414a"/><path d="M973.93 729.1a6 6 0 0 1 6-6h89.34a6 6 0 0 1 6 6V754a6 6 0 0 1-6 6h-89.34a6 6 0 0 1-6-6z" fill="none"/><g><use xlink:href="#e" transform="matrix(1,0,0,1,978.9327244678956,728.1019791666668) translate(0 21.58376736111111)"/><use xlink:href="#N" transform="matrix(1,0,0,1,978.9327244678956,728.1019791666668) translate(55.83767361111111 21.58376736111111)"/></g><path d="M973.93 928.4a6 6 0 0 1 6-6h98.66a6 6 0 0 1 6 6v57.15a6 6 0 0 1-6 6h-98.67a6 6 0 0 1-6-6z" fill="none"/><g><use xlink:href="#V" transform="matrix(1,0,0,1,978.9327244678956,927.3901677323553) translate(11.128255208333336 21.95095486111111)"/><use xlink:href="#N" transform="matrix(1,0,0,1,978.9327244678956,927.3901677323553) translate(32.753689236111114 54.21657986111111)"/></g><path d="M1361.97 1409.6a6 6 0 0 1 6-6h239.36a6 6 0 0 1 6 6v61.9a6 6 0 0 1-6 6h-239.36a6 6 0 0 1-6-6z" stroke="#3a414a" stroke-width="2" fill="#f4d9ff"/><path d="M1603.33 1413.6h-15v20h15z" stroke="#3a414a" fill="#f4d9ff"/><path d="M1593.33 1416.92h-10v3.34h10zm0 10h-10v3.34h10z" stroke="#3a414a" fill="#f4d9ff"/><g><use xlink:href="#W" transform="matrix(1,0,0,1,1361.9723995329489,1403.588227853886) translate(41.97830729166666 29.04340277777778)"/><use xlink:href="#X" transform="matrix(1,0,0,1,1361.9723995329489,1403.588227853886) translate(112.52952256944444 29.04340277777778)"/><use xlink:href="#i" transform="matrix(1,0,0,1,1361.9723995329489,1403.588227853886) translate(85.7806076388889 61.30902777777778)"/></g><defs><path d="M657 26c-323 0-524-166-541-416h195c15 169 171 246 346 246 202 0 356-106 356-265 5-203-294-238-475-293-239-73-380-191-380-389 0-252 224-419 512-419 294 0 499 171 508 396H992c-17-145-151-228-328-228-193 0-321 102-321 242 0 156 175 211 284 241l149 41c160 44 422 134 422 412 0 244-197 432-541 432" id="Y"/><path d="M628 24c-324 0-524-230-524-574 0-343 198-582 503-582 237 0 487 146 487 559v75H286c9 234 145 362 343 362 132 0 231-58 273-172l174 48C1024-91 857 24 628 24zM287-650h624c-17-190-120-322-304-322-192 0-309 151-320 322" id="Z"/><path d="M158 0v-1118h174v172h12c41-113 157-188 290-188 26 0 70 2 91 3v181c-11-2-60-10-108-10-161 0-279 109-279 260V0H158" id="aa"/><path d="M481 0L54-1118h197c107 314 236 620 325 951 87-331 217-637 324-951h197L670 0H481" id="ab"/><g id="a"><use transform="matrix(0.010850694444444444,0,0,0.010850694444444444,0,0)" xlink:href="#Y"/><use transform="matrix(0.010850694444444444,0,0,0.010850694444444444,14.2578125,0)" xlink:href="#Z"/><use transform="matrix(0.010850694444444444,0,0,0.010850694444444444,27.213541666666664,0)" xlink:href="#aa"/><use transform="matrix(0.010850694444444444,0,0,0.010850694444444444,35.92664930555555,0)" xlink:href="#ab"/><use transform="matrix(0.010850694444444444,0,0,0.010850694444444444,47.98177083333333,0)" xlink:href="#Z"/><use transform="matrix(0.010850694444444444,0,0,0.010850694444444444,60.937499999999986,0)" xlink:href="#aa"/></g><path d="M537 14c-226 0-379-139-379-422v-710h180v695c0 172 97 275 253 275 160 0 281-109 281-300v-670h181V0H879v-209C806-46 684 14 537 14" id="ac"/><path d="M677 24c-213 0-288-135-325-197h-20V0H158v-1490h180v551h14c37-59 106-193 324-193 279 0 474 222 474 576 0 356-194 580-473 580zm-27-161c209 0 317-186 317-421 0-232-105-413-317-413-206 0-314 166-314 413 0 249 111 421 314 421" id="ad"/><path d="M538 24C308 24 148-78 108-271l171-41c32 123 123 178 257 178 156 0 256-77 256-169 0-77-54-128-164-154l-186-44c-203-48-300-148-300-305 0-192 176-326 414-326 230 0 351 112 402 269l-163 42c-31-80-94-158-238-158-133 0-233 69-233 162 0 83 57 129 188 160l169 40c203 48 298 149 298 302 0 196-179 339-441 339" id="ae"/><path d="M140 405l46-156c120 36 205 19 263-150l32-93L54-1118h197c107 313 237 620 324 950 87-331 219-637 326-950h196L606 167c-68 178-176 259-334 259-64 0-113-12-132-21" id="af"/><path d="M598-1118v154H368v674c0 100 37 144 132 144 23 0 62-6 92-12L629-6c-37 13-88 20-134 20-193 0-307-107-307-290v-688H20v-154h168v-266h180v266h230" id="ag"/><path d="M158 0v-1118h175l1 205c55-151 181-225 313-225 147 0 245 90 285 228 53-141 190-228 352-228 194 0 352 125 352 384V0h-181v-749c0-161-105-225-225-225-151 0-243 103-243 244V0H807v-767c0-124-93-207-219-207-131 0-250 92-250 270V0H158" id="ah"/><g id="b"><use transform="matrix(0.010850694444444444,0,0,0.010850694444444444,0,0)" xlink:href="#Y"/><use transform="matrix(0.010850694444444444,0,0,0.010850694444444444,14.2578125,0)" xlink:href="#ac"/><use transform="matrix(0.010850694444444444,0,0,0.010850694444444444,27.39800347222222,0)" xlink:href="#ad"/><use transform="matrix(0.010850694444444444,0,0,0.010850694444444444,41.00477430555556,0)" xlink:href="#ae"/><use transform="matrix(0.010850694444444444,0,0,0.010850694444444444,52.734375,0)" xlink:href="#af"/><use transform="matrix(0.010850694444444444,0,0,0.010850694444444444,65.22352430555556,0)" xlink:href="#ae"/><use transform="matrix(0.010850694444444444,0,0,0.010850694444444444,76.953125,0)" xlink:href="#ag"/><use transform="matrix(0.010850694444444444,0,0,0.010850694444444444,84.00607638888889,0)" xlink:href="#Z"/><use transform="matrix(0.010850694444444444,0,0,0.010850694444444444,96.96180555555556,0)" xlink:href="#ah"/></g><path d="M180 0v-1490h908v168H370v486h669v168H370v500h727V0H180" id="ai"/><path d="M471 26C259 26 90-98 90-318c0-256 228-303 435-329 202-27 287-16 287-108 0-139-79-219-234-219-161 0-248 86-283 164l-173-57c86-203 278-265 451-265 150 0 419 46 419 395V0H815v-152h-12C765-73 660 26 471 26zm31-159c199 0 310-134 310-271v-155c-30 35-226 55-295 64-131 17-246 59-246 186 0 116 97 176 231 176" id="aj"/><path d="M158 0v-1118h180V0H158zm91-1301c-68 0-125-53-125-119s57-119 125-119c69 0 126 53 126 119s-57 119-126 119" id="ak"/><path d="M338-1490V0H158v-1490h180" id="al"/><g id="c"><use transform="matrix(0.010850694444444444,0,0,0.010850694444444444,0,0)" xlink:href="#ai"/><use transform="matrix(0.010850694444444444,0,0,0.010850694444444444,13.35720486111111,0)" xlink:href="#ah"/><use transform="matrix(0.010850694444444444,0,0,0.010850694444444444,32.82335069444444,0)" xlink:href="#aj"/><use transform="matrix(0.010850694444444444,0,0,0.010850694444444444,45.30164930555556,0)" xlink:href="#ak"/><use transform="matrix(0.010850694444444444,0,0,0.010850694444444444,50.68359375,0)" xlink:href="#al"/></g><path d="M613 24c-304 0-509-231-509-576 0-350 205-580 509-580 216 0 392 114 453 309l-173 49c-33-115-133-197-280-197-223 0-326 196-326 419 0 220 103 415 326 415 150 0 252-85 285-206l172 49C1010-95 832 24 613 24" id="am"/><g id="d"><use transform="matrix(0.010850694444444444,0,0,0.010850694444444444,0,0)" xlink:href="#Y"/><use transform="matrix(0.010850694444444444,0,0,0.010850694444444444,14.2578125,0)" xlink:href="#Z"/><use transform="matrix(0.010850694444444444,0,0,0.010850694444444444,27.213541666666664,0)" xlink:href="#aa"/><use transform="matrix(0.010850694444444444,0,0,0.010850694444444444,35.92664930555555,0)" xlink:href="#ab"/><use transform="matrix(0.010850694444444444,0,0,0.010850694444444444,48.41579861111111,0)" xlink:href="#ak"/><use transform="matrix(0.010850694444444444,0,0,0.010850694444444444,53.79774305555556,0)" xlink:href="#am"/><use transform="matrix(0.010850694444444444,0,0,0.010850694444444444,66.49305555555554,0)" xlink:href="#Z"/></g><path d="M763 24c-353 0-583-224-583-531v-983h190v968c0 214 149 370 393 370 243 0 391-156 391-370v-968h190v983c0 307-230 531-581 531" id="an"/><g id="e"><use transform="matrix(0.010850694444444444,0,0,0.010850694444444444,0,0)" xlink:href="#an"/><use transform="matrix(0.010850694444444444,0,0,0.010850694444444444,16.536458333333332,0)" xlink:href="#ae"/><use transform="matrix(0.010850694444444444,0,0,0.010850694444444444,28.266059027777775,0)" xlink:href="#Z"/><use transform="matrix(0.010850694444444444,0,0,0.010850694444444444,41.22178819444444,0)" xlink:href="#aa"/></g><g id="f"><use transform="matrix(0.010850694444444444,0,0,0.010850694444444444,0,0)" xlink:href="#Y"/><use transform="matrix(0.010850694444444444,0,0,0.010850694444444444,14.2578125,0)" xlink:href="#af"/><use transform="matrix(0.010850694444444444,0,0,0.010850694444444444,26.74696180555556,0)" xlink:href="#ae"/><use transform="matrix(0.010850694444444444,0,0,0.010850694444444444,38.4765625,0)" xlink:href="#ag"/><use transform="matrix(0.010850694444444444,0,0,0.010850694444444444,45.5295138888889,0)" xlink:href="#Z"/><use transform="matrix(0.010850694444444444,0,0,0.010850694444444444,58.48524305555555,0)" xlink:href="#ah"/></g><path d="M180 0v-1490h190v644h782v-644h190V0h-190v-678H370V0H180" id="ao"/><path d="M613 24c-304 0-509-231-509-576 0-350 205-580 509-580 305 0 511 230 511 580 0 345-206 576-511 576zm0-161c226 0 329-195 329-415 0-222-103-419-329-419-223 0-326 196-326 419 0 220 103 415 326 415" id="ap"/><g id="g"><use transform="matrix(0.010850694444444444,0,0,0.010850694444444444,0,0)" xlink:href="#ao"/><use transform="matrix(0.010850694444444444,0,0,0.010850694444444444,16.514756944444443,0)" xlink:href="#ak"/><use transform="matrix(0.010850694444444444,0,0,0.010850694444444444,21.896701388888886,0)" xlink:href="#ae"/><use transform="matrix(0.010850694444444444,0,0,0.010850694444444444,33.62630208333333,0)" xlink:href="#ag"/><use transform="matrix(0.010850694444444444,0,0,0.010850694444444444,40.67925347222222,0)" xlink:href="#ap"/><use transform="matrix(0.010850694444444444,0,0,0.010850694444444444,54.00390625,0)" xlink:href="#aa"/><use transform="matrix(0.010850694444444444,0,0,0.010850694444444444,62.717013888888886,0)" xlink:href="#af"/></g><path d="M180 0v-1490h901v168H370v510h643v168H370V0H180" id="aq"/><g id="h"><use transform="matrix(0.010850694444444444,0,0,0.010850694444444444,0,0)" xlink:href="#aq"/><use transform="matrix(0.010850694444444444,0,0,0.010850694444444444,12.57595486111111,0)" xlink:href="#aj"/><use transform="matrix(0.010850694444444444,0,0,0.010850694444444444,24.72873263888889,0)" xlink:href="#ab"/><use transform="matrix(0.010850694444444444,0,0,0.010850694444444444,36.783854166666664,0)" xlink:href="#ap"/><use transform="matrix(0.010850694444444444,0,0,0.010850694444444444,50.10850694444444,0)" xlink:href="#aa"/><use transform="matrix(0.010850694444444444,0,0,0.010850694444444444,58.82161458333333,0)" xlink:href="#ak"/><use transform="matrix(0.010850694444444444,0,0,0.010850694444444444,64.20355902777777,0)" xlink:href="#ag"/><use transform="matrix(0.010850694444444444,0,0,0.010850694444444444,71.25651041666666,0)" xlink:href="#Z"/></g><g id="i"><use transform="matrix(0.010850694444444444,0,0,0.010850694444444444,0,0)" xlink:href="#Y"/><use transform="matrix(0.010850694444444444,0,0,0.010850694444444444,14.2578125,0)" xlink:href="#Z"/><use transform="matrix(0.010850694444444444,0,0,0.010850694444444444,27.213541666666664,0)" xlink:href="#aa"/><use transform="matrix(0.010850694444444444,0,0,0.010850694444444444,35.92664930555555,0)" xlink:href="#ab"/><use transform="matrix(0.010850694444444444,0,0,0.010850694444444444,48.41579861111111,0)" xlink:href="#ak"/><use transform="matrix(0.010850694444444444,0,0,0.010850694444444444,53.79774305555556,0)" xlink:href="#am"/><use transform="matrix(0.010850694444444444,0,0,0.010850694444444444,66.49305555555554,0)" xlink:href="#Z"/></g><g id="j"><use transform="matrix(0.010850694444444444,0,0,0.010850694444444444,0,0)" xlink:href="#an"/><use transform="matrix(0.010850694444444444,0,0,0.010850694444444444,16.536458333333332,0)" xlink:href="#ae"/><use transform="matrix(0.010850694444444444,0,0,0.010850694444444444,28.266059027777775,0)" xlink:href="#Z"/><use transform="matrix(0.010850694444444444,0,0,0.010850694444444444,41.22178819444444,0)" xlink:href="#aa"/></g><path d="M52 0l541-1490h220L1361 0h-200l-149-416H398L254 0H52zm404-582h497c-103-290-145-390-251-756-108 377-145 460-246 756" id="ar"/><g id="k"><use transform="matrix(0.010850694444444444,0,0,0.010850694444444444,0,0)" xlink:href="#ar"/><use transform="matrix(0.010850694444444444,0,0,0.010850694444444444,15.33203125,0)" xlink:href="#am"/><use transform="matrix(0.010850694444444444,0,0,0.010850694444444444,28.02734375,0)" xlink:href="#ag"/><use transform="matrix(0.010850694444444444,0,0,0.010850694444444444,35.29730902777778,0)" xlink:href="#ak"/><use transform="matrix(0.010850694444444444,0,0,0.010850694444444444,40.67925347222222,0)" xlink:href="#ab"/><use transform="matrix(0.010850694444444444,0,0,0.010850694444444444,53.16840277777778,0)" xlink:href="#ak"/><use transform="matrix(0.010850694444444444,0,0,0.010850694444444444,58.55034722222222,0)" xlink:href="#ag"/><use transform="matrix(0.010850694444444444,0,0,0.010850694444444444,66.25434027777777,0)" xlink:href="#af"/></g><path d="M180 0v-1490h510c348 0 508 194 508 460 0 198-88 351-276 417L1256 0h-220L726-579c-117 2-238 0-356 1V0H180zm190-747h312c235 0 327-108 327-283 0-177-92-293-329-293H370v576" id="as"/><path d="M338-670V0H158v-1118h173l1 207c72-158 192-221 342-221 226 0 378 139 378 422V0H872v-695c0-172-96-275-252-275-161 0-282 109-282 300" id="at"/><path d="M577 24c-279 0-473-224-473-580 0-354 195-576 474-576 218 0 287 134 324 193h14v-551h180V0H922v-173h-20C865-111 790 24 577 24zm27-161c203 0 314-172 314-421 0-247-108-413-314-413-212 0-317 181-317 413 0 235 108 421 317 421" id="au"/><g id="l"><use transform="matrix(0.010850694444444444,0,0,0.010850694444444444,0,0)" xlink:href="#as"/><use transform="matrix(0.010850694444444444,0,0,0.010850694444444444,13.975694444444445,0)" xlink:href="#Z"/><use transform="matrix(0.010850694444444444,0,0,0.010850694444444444,26.931423611111104,0)" xlink:href="#am"/><use transform="matrix(0.010850694444444444,0,0,0.010850694444444444,39.62673611111111,0)" xlink:href="#ap"/><use transform="matrix(0.010850694444444444,0,0,0.010850694444444444,52.951388888888886,0)" xlink:href="#ah"/><use transform="matrix(0.010850694444444444,0,0,0.010850694444444444,72.41753472222221,0)" xlink:href="#ah"/><use transform="matrix(0.010850694444444444,0,0,0.010850694444444444,91.88368055555556,0)" xlink:href="#Z"/><use transform="matrix(0.010850694444444444,0,0,0.010850694444444444,104.83940972222221,0)" xlink:href="#at"/><use transform="matrix(0.010850694444444444,0,0,0.010850694444444444,117.96874999999997,0)" xlink:href="#au"/><use transform="matrix(0.010850694444444444,0,0,0.010850694444444444,131.57552083333331,0)" xlink:href="#aj"/><use transform="matrix(0.010850694444444444,0,0,0.010850694444444444,144.05381944444443,0)" xlink:href="#ag"/><use transform="matrix(0.010850694444444444,0,0,0.010850694444444444,151.3237847222222,0)" xlink:href="#ak"/><use transform="matrix(0.010850694444444444,0,0,0.010850694444444444,156.70572916666666,0)" xlink:href="#ap"/><use transform="matrix(0.010850694444444444,0,0,0.010850694444444444,170.03038194444443,0)" xlink:href="#at"/></g><g id="m"><use transform="matrix(0.010850694444444444,0,0,0.010850694444444444,0,0)" xlink:href="#ar"/><use transform="matrix(0.010850694444444444,0,0,0.010850694444444444,15.33203125,0)" xlink:href="#am"/><use transform="matrix(0.010850694444444444,0,0,0.010850694444444444,28.02734375,0)" xlink:href="#ag"/><use transform="matrix(0.010850694444444444,0,0,0.010850694444444444,35.29730902777778,0)" xlink:href="#ak"/><use transform="matrix(0.010850694444444444,0,0,0.010850694444444444,40.67925347222222,0)" xlink:href="#ab"/><use transform="matrix(0.010850694444444444,0,0,0.010850694444444444,53.16840277777778,0)" xlink:href="#ak"/><use transform="matrix(0.010850694444444444,0,0,0.010850694444444444,58.55034722222222,0)" xlink:href="#ag"/><use transform="matrix(0.010850694444444444,0,0,0.010850694444444444,66.25434027777777,0)" xlink:href="#af"/></g><path d="M180 0v-1490h190v1322h690V0H180" id="av"/><path d="M180 0v-1490h270l367 940c28 72 75 218 110 339 35-117 81-264 110-339l362-940h271V0h-187c2-448-5-837 7-1287-157 497-311 829-483 1287H842C666-458 514-784 354-1284c12 438 5 843 7 1284H180" id="aw"/><g id="n"><use transform="matrix(0.010850694444444444,0,0,0.010850694444444444,0,0)" xlink:href="#av"/><use transform="matrix(0.010850694444444444,0,0,0.010850694444444444,12.565104166666666,0)" xlink:href="#av"/><use transform="matrix(0.010850694444444444,0,0,0.010850694444444444,25.130208333333332,0)" xlink:href="#aw"/></g><path d="M158 0v-1490h180v865h22l478-493h223L593-638 1096 0H865L456-523 338-412V0H158" id="ax"/><path d="M409 0L70-1118h191c89 329 165 560 243 925 75-353 154-601 240-925h192c85 325 161 564 235 922 77-354 157-598 244-922h191L1267 0h-179c-86-307-176-590-250-913C763-588 675-308 588 0H409" id="ay"/><g id="o"><use transform="matrix(0.010850694444444444,0,0,0.010850694444444444,0,0)" xlink:href="#aw"/><use transform="matrix(0.010850694444444444,0,0,0.010850694444444444,20.07378472222222,0)" xlink:href="#aj"/><use transform="matrix(0.010850694444444444,0,0,0.010850694444444444,32.55208333333333,0)" xlink:href="#aa"/><use transform="matrix(0.010850694444444444,0,0,0.010850694444444444,41.265190972222214,0)" xlink:href="#ax"/><use transform="matrix(0.010850694444444444,0,0,0.010850694444444444,52.96223958333333,0)" xlink:href="#au"/><use transform="matrix(0.010850694444444444,0,0,0.010850694444444444,66.56901041666666,0)" xlink:href="#ap"/><use transform="matrix(0.010850694444444444,0,0,0.010850694444444444,79.49218749999999,0)" xlink:href="#ay"/><use transform="matrix(0.010850694444444444,0,0,0.010850694444444444,97.67795138888887,0)" xlink:href="#at"/></g><path d="M645 0H180v-1490h484c435 0 692 280 692 742 0 466-257 748-711 748zM370-168h263c363 0 539-218 539-580 0-358-176-574-521-574H370v1154" id="az"/><g id="p"><use transform="matrix(0.010850694444444444,0,0,0.010850694444444444,0,0)" xlink:href="#az"/><use transform="matrix(0.010850694444444444,0,0,0.010850694444444444,16.03732638888889,0)" xlink:href="#ap"/><use transform="matrix(0.010850694444444444,0,0,0.010850694444444444,29.361979166666664,0)" xlink:href="#am"/><use transform="matrix(0.010850694444444444,0,0,0.010850694444444444,42.057291666666664,0)" xlink:href="#ac"/><use transform="matrix(0.010850694444444444,0,0,0.010850694444444444,55.197482638888886,0)" xlink:href="#ah"/><use transform="matrix(0.010850694444444444,0,0,0.010850694444444444,74.66362847222221,0)" xlink:href="#Z"/><use transform="matrix(0.010850694444444444,0,0,0.010850694444444444,87.61935763888889,0)" xlink:href="#at"/><use transform="matrix(0.010850694444444444,0,0,0.010850694444444444,100.74869791666666,0)" xlink:href="#ag"/></g><path d="M180 0v-1490h510c348 0 508 209 508 474 0 266-160 477-507 477H370V0H180zm190-706h312c236 0 327-133 327-310 0-176-91-307-329-307H370v617" id="aA"/><g id="q"><use transform="matrix(0.010850694444444444,0,0,0.010850694444444444,0,0)" xlink:href="#aA"/><use transform="matrix(0.010850694444444444,0,0,0.010850694444444444,14.192708333333332,0)" xlink:href="#az"/><use transform="matrix(0.010850694444444444,0,0,0.010850694444444444,30.23003472222222,0)" xlink:href="#aq"/></g><g id="r"><use transform="matrix(0.010850694444444444,0,0,0.010850694444444444,0,0)" xlink:href="#aA"/><use transform="matrix(0.010850694444444444,0,0,0.010850694444444444,14.192708333333332,0)" xlink:href="#az"/><use transform="matrix(0.010850694444444444,0,0,0.010850694444444444,30.23003472222222,0)" xlink:href="#aq"/></g><path d="M784 20c-382 0-662-292-662-764 0-473 280-766 662-766s660 293 660 766c0 472-278 764-660 764zm0-176c266 0 475-207 475-588 0-383-209-590-475-590-268 0-477 208-477 590 0 380 209 588 477 588" id="aB"/><path d="M783 20c-382 0-661-292-661-764 0-473 279-766 661-766 302 0 548 182 601 489h-190c-42-204-217-313-411-313-268 0-476 208-476 590 0 381 209 588 476 588 195 0 369-110 411-313h190c-52 303-296 489-601 489" id="aC"/><path d="M57 0l534-763-501-727h220c122 187 296 416 391 605 94-191 272-419 396-605h215L811-770 1340 0h-219C986-204 811-426 699-640 588-430 407-202 273 0H57" id="aD"/><g id="s"><use transform="matrix(0.010850694444444444,0,0,0.010850694444444444,0,0)" xlink:href="#az"/><use transform="matrix(0.010850694444444444,0,0,0.010850694444444444,16.03732638888889,0)" xlink:href="#aB"/><use transform="matrix(0.010850694444444444,0,0,0.010850694444444444,33.029513888888886,0)" xlink:href="#aC"/><use transform="matrix(0.010850694444444444,0,0,0.010850694444444444,49.142795138888886,0)" xlink:href="#aD"/></g><g id="t"><use transform="matrix(0.010850694444444444,0,0,0.010850694444444444,0,0)" xlink:href="#aC"/><use transform="matrix(0.010850694444444444,0,0,0.010850694444444444,16.23263888888889,0)" xlink:href="#al"/><use transform="matrix(0.010850694444444444,0,0,0.010850694444444444,21.614583333333336,0)" xlink:href="#ak"/><use transform="matrix(0.010850694444444444,0,0,0.010850694444444444,26.99652777777778,0)" xlink:href="#Z"/><use transform="matrix(0.010850694444444444,0,0,0.010850694444444444,39.95225694444444,0)" xlink:href="#at"/><use transform="matrix(0.010850694444444444,0,0,0.010850694444444444,53.08159722222222,0)" xlink:href="#ag"/></g><g id="u"><use transform="matrix(0.010850694444444444,0,0,0.010850694444444444,0,0)" xlink:href="#as"/><use transform="matrix(0.010850694444444444,0,0,0.010850694444444444,13.975694444444445,0)" xlink:href="#Z"/><use transform="matrix(0.010850694444444444,0,0,0.010850694444444444,27.1484375,0)" xlink:href="#aj"/><use transform="matrix(0.010850694444444444,0,0,0.010850694444444444,39.626736111111114,0)" xlink:href="#am"/><use transform="matrix(0.010850694444444444,0,0,0.010850694444444444,52.32204861111112,0)" xlink:href="#ag"/></g><path d="M370-1490V0H180v-1490h190" id="aE"/><g id="v"><use transform="matrix(0.010850694444444444,0,0,0.010850694444444444,0,0)" xlink:href="#an"/><use transform="matrix(0.010850694444444444,0,0,0.010850694444444444,16.536458333333332,0)" xlink:href="#aE"/></g><path d="M98-1322v-168h1126v168H757V0H567v-1322H98" id="aF"/><g id="w"><use transform="matrix(0.010850694444444444,0,0,0.010850694444444444,0,0)" xlink:href="#aF"/><use transform="matrix(0.010850694444444444,0,0,0.010850694444444444,14.344618055555555,0)" xlink:href="#an"/><use transform="matrix(0.010850694444444444,0,0,0.010850694444444444,30.88107638888889,0)" xlink:href="#aw"/></g><g id="x"><use transform="matrix(0.010850694444444444,0,0,0.010850694444444444,0,0)" xlink:href="#ai"/><use transform="matrix(0.010850694444444444,0,0,0.010850694444444444,13.35720486111111,0)" xlink:href="#ah"/><use transform="matrix(0.010850694444444444,0,0,0.010850694444444444,32.82335069444444,0)" xlink:href="#aj"/><use transform="matrix(0.010850694444444444,0,0,0.010850694444444444,45.30164930555556,0)" xlink:href="#ak"/><use transform="matrix(0.010850694444444444,0,0,0.010850694444444444,50.68359375,0)" xlink:href="#al"/></g><g id="y"><use transform="matrix(0.010850694444444444,0,0,0.010850694444444444,0,0)" xlink:href="#aA"/><use transform="matrix(0.010850694444444444,0,0,0.010850694444444444,14.192708333333332,0)" xlink:href="#aa"/><use transform="matrix(0.010850694444444444,0,0,0.010850694444444444,22.189670138888886,0)" xlink:href="#ap"/><use transform="matrix(0.010850694444444444,0,0,0.010850694444444444,35.080295138888886,0)" xlink:href="#ab"/><use transform="matrix(0.010850694444444444,0,0,0.010850694444444444,47.56944444444444,0)" xlink:href="#ak"/><use transform="matrix(0.010850694444444444,0,0,0.010850694444444444,52.951388888888886,0)" xlink:href="#au"/><use transform="matrix(0.010850694444444444,0,0,0.010850694444444444,66.55815972222221,0)" xlink:href="#Z"/><use transform="matrix(0.010850694444444444,0,0,0.010850694444444444,79.51388888888889,0)" xlink:href="#aa"/></g><g id="z"><use transform="matrix(0.010850694444444444,0,0,0.010850694444444444,0,0)" xlink:href="#az"/><use transform="matrix(0.010850694444444444,0,0,0.010850694444444444,16.03732638888889,0)" xlink:href="#aj"/><use transform="matrix(0.010850694444444444,0,0,0.010850694444444444,28.515625,0)" xlink:href="#ag"/><use transform="matrix(0.010850694444444444,0,0,0.010850694444444444,35.89409722222222,0)" xlink:href="#aj"/><use transform="matrix(0.010850694444444444,0,0,0.010850694444444444,48.37239583333333,0)" xlink:href="#ad"/><use transform="matrix(0.010850694444444444,0,0,0.010850694444444444,62.19618055555554,0)" xlink:href="#aj"/><use transform="matrix(0.010850694444444444,0,0,0.010850694444444444,74.67447916666666,0)" xlink:href="#ae"/><use transform="matrix(0.010850694444444444,0,0,0.010850694444444444,86.4040798611111,0)" xlink:href="#Z"/></g><g id="A"><use transform="matrix(0.010850694444444444,0,0,0.010850694444444444,0,0)" xlink:href="#az"/><use transform="matrix(0.010850694444444444,0,0,0.010850694444444444,16.03732638888889,0)" xlink:href="#aj"/><use transform="matrix(0.010850694444444444,0,0,0.010850694444444444,28.515625,0)" xlink:href="#ag"/><use transform="matrix(0.010850694444444444,0,0,0.010850694444444444,35.89409722222222,0)" xlink:href="#aj"/><use transform="matrix(0.010850694444444444,0,0,0.010850694444444444,48.37239583333333,0)" xlink:href="#ad"/><use transform="matrix(0.010850694444444444,0,0,0.010850694444444444,62.19618055555554,0)" xlink:href="#aj"/><use transform="matrix(0.010850694444444444,0,0,0.010850694444444444,74.67447916666666,0)" xlink:href="#ae"/><use transform="matrix(0.010850694444444444,0,0,0.010850694444444444,86.4040798611111,0)" xlink:href="#Z"/></g><g id="B"><use transform="matrix(0.010850694444444444,0,0,0.010850694444444444,0,0)" xlink:href="#aw"/><use transform="matrix(0.010850694444444444,0,0,0.010850694444444444,20.07378472222222,0)" xlink:href="#Y"/></g><path d="M126 0v-134l627-806v-11H146v-167h839v143L376-178v11h629V0H126" id="aG"/><g id="C"><use transform="matrix(0.010850694444444444,0,0,0.010850694444444444,0,0)" xlink:href="#ar"/><use transform="matrix(0.010850694444444444,0,0,0.010850694444444444,15.33203125,0)" xlink:href="#aG"/><use transform="matrix(0.010850694444444444,0,0,0.010850694444444444,27.604166666666664,0)" xlink:href="#ac"/><use transform="matrix(0.010850694444444444,0,0,0.010850694444444444,40.744357638888886,0)" xlink:href="#aa"/><use transform="matrix(0.010850694444444444,0,0,0.010850694444444444,48.741319444444436,0)" xlink:href="#Z"/></g><path d="M158 418v-1536h174v179h20c37-59 106-193 324-193 279 0 474 222 474 576 0 356-194 580-473 580-213 0-288-135-325-197h-14v591H158zm492-555c209 0 317-186 317-421 0-232-105-413-317-413-206 0-314 166-314 413 0 249 111 421 314 421" id="aH"/><g id="D"><use transform="matrix(0.010850694444444444,0,0,0.010850694444444444,0,0)" xlink:href="#aB"/><use transform="matrix(0.010850694444444444,0,0,0.010850694444444444,16.9921875,0)" xlink:href="#aH"/><use transform="matrix(0.010850694444444444,0,0,0.010850694444444444,30.598958333333332,0)" xlink:href="#Z"/><use transform="matrix(0.010850694444444444,0,0,0.010850694444444444,43.5546875,0)" xlink:href="#at"/><use transform="matrix(0.010850694444444444,0,0,0.010850694444444444,56.68402777777778,0)" xlink:href="#ar"/><use transform="matrix(0.010850694444444444,0,0,0.010850694444444444,72.01605902777777,0)" xlink:href="#aE"/></g><g id="E"><use transform="matrix(0.010850694444444444,0,0,0.010850694444444444,0,0)" xlink:href="#az"/><use transform="matrix(0.010850694444444444,0,0,0.010850694444444444,16.03732638888889,0)" xlink:href="#Z"/><use transform="matrix(0.010850694444444444,0,0,0.010850694444444444,28.99305555555556,0)" xlink:href="#aH"/><use transform="matrix(0.010850694444444444,0,0,0.010850694444444444,42.599826388888886,0)" xlink:href="#al"/><use transform="matrix(0.010850694444444444,0,0,0.010850694444444444,47.98177083333333,0)" xlink:href="#ap"/><use transform="matrix(0.010850694444444444,0,0,0.010850694444444444,60.87239583333333,0)" xlink:href="#af"/><use transform="matrix(0.010850694444444444,0,0,0.010850694444444444,73.36154513888889,0)" xlink:href="#ah"/><use transform="matrix(0.010850694444444444,0,0,0.010850694444444444,92.82769097222221,0)" xlink:href="#Z"/><use transform="matrix(0.010850694444444444,0,0,0.010850694444444444,105.78342013888889,0)" xlink:href="#at"/><use transform="matrix(0.010850694444444444,0,0,0.010850694444444444,118.91276041666666,0)" xlink:href="#ag"/></g><g id="F"><use transform="matrix(0.010850694444444444,0,0,0.010850694444444444,0,0)" xlink:href="#ar"/><use transform="matrix(0.010850694444444444,0,0,0.010850694444444444,15.33203125,0)" xlink:href="#au"/><use transform="matrix(0.010850694444444444,0,0,0.010850694444444444,28.938802083333332,0)" xlink:href="#ap"/><use transform="matrix(0.010850694444444444,0,0,0.010850694444444444,42.26345486111111,0)" xlink:href="#ad"/><use transform="matrix(0.010850694444444444,0,0,0.010850694444444444,55.87022569444444,0)" xlink:href="#Z"/></g><g id="G"><use transform="matrix(0.010850694444444444,0,0,0.010850694444444444,0,0)" xlink:href="#Y"/><use transform="matrix(0.010850694444444444,0,0,0.010850694444444444,14.2578125,0)" xlink:href="#Z"/><use transform="matrix(0.010850694444444444,0,0,0.010850694444444444,27.213541666666664,0)" xlink:href="#aa"/><use transform="matrix(0.010850694444444444,0,0,0.010850694444444444,35.92664930555555,0)" xlink:href="#ab"/><use transform="matrix(0.010850694444444444,0,0,0.010850694444444444,48.41579861111111,0)" xlink:href="#ak"/><use transform="matrix(0.010850694444444444,0,0,0.010850694444444444,53.79774305555556,0)" xlink:href="#am"/><use transform="matrix(0.010850694444444444,0,0,0.010850694444444444,66.49305555555554,0)" xlink:href="#Z"/></g><g id="H"><use transform="matrix(0.010850694444444444,0,0,0.010850694444444444,0,0)" xlink:href="#aA"/><use transform="matrix(0.010850694444444444,0,0,0.010850694444444444,14.192708333333332,0)" xlink:href="#az"/><use transform="matrix(0.010850694444444444,0,0,0.010850694444444444,30.23003472222222,0)" xlink:href="#aq"/></g><path d="M65 0l393-574-370-544h210c88 136 192 297 267 435 67-142 176-302 264-435h206L661-564 1053 0H844c-94-144-206-310-287-458C484-308 366-142 273 0H65" id="aI"/><path d="M611 442c-248 0-391-105-460-228l146-94c47 65 117 165 314 165 178 0 307-82 307-266v-224h-17C863-141 792-18 576-18c-268 0-472-195-472-546 0-346 197-568 476-568 216 0 288 133 326 193h17v-179h175V29c0 289-215 413-487 413zm-5-620c203 0 314-146 314-390 0-237-108-403-314-403-213 0-319 180-319 403 0 230 109 390 319 390" id="aJ"/><g id="I"><use transform="matrix(0.010850694444444444,0,0,0.010850694444444444,0,0)" xlink:href="#ai"/><use transform="matrix(0.010850694444444444,0,0,0.010850694444444444,13.35720486111111,0)" xlink:href="#aI"/><use transform="matrix(0.010850694444444444,0,0,0.010850694444444444,25.48828125,0)" xlink:href="#ak"/><use transform="matrix(0.010850694444444444,0,0,0.010850694444444444,30.870225694444443,0)" xlink:href="#ae"/><use transform="matrix(0.010850694444444444,0,0,0.010850694444444444,42.599826388888886,0)" xlink:href="#ag"/><use transform="matrix(0.010850694444444444,0,0,0.010850694444444444,49.869791666666664,0)" xlink:href="#ak"/><use transform="matrix(0.010850694444444444,0,0,0.010850694444444444,55.25173611111111,0)" xlink:href="#at"/><use transform="matrix(0.010850694444444444,0,0,0.010850694444444444,68.38107638888889,0)" xlink:href="#aJ"/></g><path d="M678-1118v154H420V0H240v-964H20v-154h220v-149c0-194 155-293 318-293 85 0 141 18 168 30l-50 154c-19-6-47-17-97-17-111 0-159 58-159 166v109h258" id="aK"/><g id="J"><use transform="matrix(0.010850694444444444,0,0,0.010850694444444444,0,0)" xlink:href="#aw"/><use transform="matrix(0.010850694444444444,0,0,0.010850694444444444,20.07378472222222,0)" xlink:href="#ap"/><use transform="matrix(0.010850694444444444,0,0,0.010850694444444444,33.3984375,0)" xlink:href="#au"/><use transform="matrix(0.010850694444444444,0,0,0.010850694444444444,47.00520833333333,0)" xlink:href="#ak"/><use transform="matrix(0.010850694444444444,0,0,0.010850694444444444,52.38715277777778,0)" xlink:href="#aK"/><use transform="matrix(0.010850694444444444,0,0,0.010850694444444444,60.61197916666666,0)" xlink:href="#ak"/><use transform="matrix(0.010850694444444444,0,0,0.010850694444444444,65.9939236111111,0)" xlink:href="#Z"/><use transform="matrix(0.010850694444444444,0,0,0.010850694444444444,78.94965277777777,0)" xlink:href="#au"/></g><path d="M180 0v-1490h224l606 953c40 63 108 177 176 312-27-437-7-821-13-1265h190V0h-226C860-448 622-778 356-1262c27 476 11 792 15 1262H180" id="aL"/><g id="K"><use transform="matrix(0.010850694444444444,0,0,0.010850694444444444,0,0)" xlink:href="#aL"/><use transform="matrix(0.010850694444444444,0,0,0.010850694444444444,16.74262152777778,0)" xlink:href="#Z"/><use transform="matrix(0.010850694444444444,0,0,0.010850694444444444,29.296875,0)" xlink:href="#ay"/></g><g id="L"><use transform="matrix(0.010850694444444444,0,0,0.010850694444444444,0,0)" xlink:href="#aw"/><use transform="matrix(0.010850694444444444,0,0,0.010850694444444444,20.07378472222222,0)" xlink:href="#ak"/><use transform="matrix(0.010850694444444444,0,0,0.010850694444444444,25.455729166666664,0)" xlink:href="#aJ"/><use transform="matrix(0.010850694444444444,0,0,0.010850694444444444,39.084201388888886,0)" xlink:href="#aa"/><use transform="matrix(0.010850694444444444,0,0,0.010850694444444444,47.45008680555556,0)" xlink:href="#aj"/><use transform="matrix(0.010850694444444444,0,0,0.010850694444444444,59.92838541666666,0)" xlink:href="#ag"/><use transform="matrix(0.010850694444444444,0,0,0.010850694444444444,66.98133680555554,0)" xlink:href="#Z"/><use transform="matrix(0.010850694444444444,0,0,0.010850694444444444,79.93706597222221,0)" xlink:href="#au"/></g><g id="M"><use transform="matrix(0.010850694444444444,0,0,0.010850694444444444,0,0)" xlink:href="#Y"/><use transform="matrix(0.010850694444444444,0,0,0.010850694444444444,14.2578125,0)" xlink:href="#aw"/><use transform="matrix(0.010850694444444444,0,0,0.010850694444444444,34.33159722222222,0)" xlink:href="#aF"/><use transform="matrix(0.010850694444444444,0,0,0.010850694444444444,48.67621527777778,0)" xlink:href="#aA"/></g><g id="N"><use transform="matrix(0.010850694444444444,0,0,0.010850694444444444,0,0)" xlink:href="#ar"/><use transform="matrix(0.010850694444444444,0,0,0.010850694444444444,15.33203125,0)" xlink:href="#aA"/><use transform="matrix(0.010850694444444444,0,0,0.010850694444444444,29.524739583333332,0)" xlink:href="#aE"/></g><path d="M784 20c-382 0-662-292-662-764 0-473 280-766 662-766s660 293 660 766c0 282-99 499-260 629l192 255h-198L1049-33C969 2 880 20 784 20zm-62-486h198l156 205c112-98 183-261 183-483 0-383-209-590-475-590-268 0-477 208-477 590 0 380 209 588 477 588 54 0 106-9 154-25" id="aM"/><g id="O"><use transform="matrix(0.010850694444444444,0,0,0.010850694444444444,0,0)" xlink:href="#aA"/><use transform="matrix(0.010850694444444444,0,0,0.010850694444444444,14.073350694444445,0)" xlink:href="#ap"/><use transform="matrix(0.010850694444444444,0,0,0.010850694444444444,27.39800347222222,0)" xlink:href="#ae"/><use transform="matrix(0.010850694444444444,0,0,0.010850694444444444,39.127604166666664,0)" xlink:href="#ag"/><use transform="matrix(0.010850694444444444,0,0,0.010850694444444444,46.18055555555556,0)" xlink:href="#aJ"/><use transform="matrix(0.010850694444444444,0,0,0.010850694444444444,59.80902777777778,0)" xlink:href="#aa"/><use transform="matrix(0.010850694444444444,0,0,0.010850694444444444,67.80598958333333,0)" xlink:href="#Z"/><use transform="matrix(0.010850694444444444,0,0,0.010850694444444444,80.76171875,0)" xlink:href="#Y"/><use transform="matrix(0.010850694444444444,0,0,0.010850694444444444,95.01953125,0)" xlink:href="#aM"/><use transform="matrix(0.010850694444444444,0,0,0.010850694444444444,112.01171875,0)" xlink:href="#av"/></g><g id="P"><use transform="matrix(0.010850694444444444,0,0,0.010850694444444444,0,0)" xlink:href="#aA"/><use transform="matrix(0.010850694444444444,0,0,0.010850694444444444,14.192708333333332,0)" xlink:href="#az"/><use transform="matrix(0.010850694444444444,0,0,0.010850694444444444,30.23003472222222,0)" xlink:href="#aq"/></g><g id="Q"><use transform="matrix(0.010850694444444444,0,0,0.010850694444444444,0,0)" xlink:href="#aF"/><use transform="matrix(0.010850694444444444,0,0,0.010850694444444444,12.608506944444445,0)" xlink:href="#ap"/></g><g id="R"><use transform="matrix(0.010850694444444444,0,0,0.010850694444444444,0,0)" xlink:href="#az"/><use transform="matrix(0.010850694444444444,0,0,0.010850694444444444,16.03732638888889,0)" xlink:href="#aB"/><use transform="matrix(0.010850694444444444,0,0,0.010850694444444444,33.029513888888886,0)" xlink:href="#aC"/><use transform="matrix(0.010850694444444444,0,0,0.010850694444444444,49.142795138888886,0)" xlink:href="#aD"/></g><g id="S"><use transform="matrix(0.010850694444444444,0,0,0.010850694444444444,0,0)" xlink:href="#as"/><use transform="matrix(0.010850694444444444,0,0,0.010850694444444444,13.975694444444445,0)" xlink:href="#Z"/><use transform="matrix(0.010850694444444444,0,0,0.010850694444444444,26.931423611111104,0)" xlink:href="#at"/><use transform="matrix(0.010850694444444444,0,0,0.010850694444444444,40.060763888888886,0)" xlink:href="#au"/><use transform="matrix(0.010850694444444444,0,0,0.010850694444444444,53.66753472222221,0)" xlink:href="#Z"/><use transform="matrix(0.010850694444444444,0,0,0.010850694444444444,66.62326388888889,0)" xlink:href="#aa"/><use transform="matrix(0.010850694444444444,0,0,0.010850694444444444,74.62022569444444,0)" xlink:href="#Z"/><use transform="matrix(0.010850694444444444,0,0,0.010850694444444444,87.57595486111111,0)" xlink:href="#aa"/></g><g id="T"><use transform="matrix(0.010850694444444444,0,0,0.010850694444444444,0,0)" xlink:href="#aA"/><use transform="matrix(0.010850694444444444,0,0,0.010850694444444444,14.192708333333332,0)" xlink:href="#az"/><use transform="matrix(0.010850694444444444,0,0,0.010850694444444444,30.23003472222222,0)" xlink:href="#aq"/></g><g id="U"><use transform="matrix(0.010850694444444444,0,0,0.010850694444444444,0,0)" xlink:href="#as"/><use transform="matrix(0.010850694444444444,0,0,0.010850694444444444,13.975694444444445,0)" xlink:href="#Z"/><use transform="matrix(0.010850694444444444,0,0,0.010850694444444444,27.1484375,0)" xlink:href="#aj"/><use transform="matrix(0.010850694444444444,0,0,0.010850694444444444,39.626736111111114,0)" xlink:href="#au"/><use transform="matrix(0.010850694444444444,0,0,0.010850694444444444,53.23350694444444,0)" xlink:href="#Z"/><use transform="matrix(0.010850694444444444,0,0,0.010850694444444444,66.18923611111111,0)" xlink:href="#aa"/></g><g id="V"><use transform="matrix(0.010850694444444444,0,0,0.010850694444444444,0,0)" xlink:href="#ar"/><use transform="matrix(0.010850694444444444,0,0,0.010850694444444444,15.33203125,0)" xlink:href="#am"/><use transform="matrix(0.010850694444444444,0,0,0.010850694444444444,28.02734375,0)" xlink:href="#ag"/><use transform="matrix(0.010850694444444444,0,0,0.010850694444444444,35.29730902777778,0)" xlink:href="#ak"/><use transform="matrix(0.010850694444444444,0,0,0.010850694444444444,40.67925347222222,0)" xlink:href="#ab"/><use transform="matrix(0.010850694444444444,0,0,0.010850694444444444,53.16840277777778,0)" xlink:href="#ak"/><use transform="matrix(0.010850694444444444,0,0,0.010850694444444444,58.55034722222222,0)" xlink:href="#ag"/><use transform="matrix(0.010850694444444444,0,0,0.010850694444444444,66.25434027777777,0)" xlink:href="#af"/></g><g id="W"><use transform="matrix(0.010850694444444444,0,0,0.010850694444444444,0,0)" xlink:href="#az"/><use transform="matrix(0.010850694444444444,0,0,0.010850694444444444,16.03732638888889,0)" xlink:href="#aB"/><use transform="matrix(0.010850694444444444,0,0,0.010850694444444444,33.029513888888886,0)" xlink:href="#aC"/><use transform="matrix(0.010850694444444444,0,0,0.010850694444444444,49.142795138888886,0)" xlink:href="#aD"/></g><path d="M338-670V0H158v-1490h180v566c73-149 190-208 336-208 226 0 379 139 379 422V0H872v-695c0-172-96-275-252-275-161 0-282 109-282 300" id="aN"/><g id="X"><use transform="matrix(0.010850694444444444,0,0,0.010850694444444444,0,0)" xlink:href="#aC"/><use transform="matrix(0.010850694444444444,0,0,0.010850694444444444,16.23263888888889,0)" xlink:href="#aj"/><use transform="matrix(0.010850694444444444,0,0,0.010850694444444444,28.7109375,0)" xlink:href="#am"/><use transform="matrix(0.010850694444444444,0,0,0.010850694444444444,41.40625,0)" xlink:href="#aN"/><use transform="matrix(0.010850694444444444,0,0,0.010850694444444444,54.54644097222222,0)" xlink:href="#Z"/></g></defs></g></svg>