<svg xmlns="http://www.w3.org/2000/svg" xmlns:xlink="http://www.w3.org/1999/xlink" xmlns:lucid="lucid" width="969.53" height="737.33"><g transform="translate(-566.9080165889499 -422.27239619320653)" lucid:page-tab-id="0_0"><path d="M500 0h2500v1500H500z" fill="#fff"/><path d="M567.9 468.53a12.8 12.8 0 0 1 4.62-9.84l37.9-31.6a16.57 16.57 0 0 1 10.6-3.83h908.42a6 6 0 0 1 6 6v333.5a16.57 16.57 0 0 1-3.84 10.6l-31.58 37.9a12.8 12.8 0 0 1-9.84 4.6H573.9a6 6 0 0 1-6-6z" stroke="#3a414a" stroke-width="2" fill="#fff"/><path d="M573.9 462.53a2.17 2.17 0 0 1-1.38-3.84l37.9-31.6a16.57 16.57 0 0 1 10.6-3.83h908.42a2.48 2.48 0 0 1 1.76 4.25l-30.78 30.77a14.48 14.48 0 0 1-10.24 4.23z" stroke="#3a414a" stroke-width="2" fill="#e6e6e6"/><path d="M1496.18 468.53a14.48 14.48 0 0 1 4.24-10.24l30.78-30.8a2.48 2.48 0 0 1 4.24 1.77v333.5a16.57 16.57 0 0 1-3.84 10.6l-31.58 37.9a2.17 2.17 0 0 1-3.84-1.4z" stroke="#3a414a" stroke-width="2" fill="#ccc"/><use xlink:href="#a" transform="matrix(1,0,0,1,575.90801658895,470.53281144817197) translate(0 21.52777777777778)"/><use xlink:href="#b" transform="matrix(1,0,0,1,575.90801658895,470.53281144817197) translate(82.69314236111111 21.52777777777778)"/><path d="M797.85 541.6a12.8 12.8 0 0 1 4.6-9.84l26.35-21.94a16.57 16.57 0 0 1 10.6-3.84h634.83a6 6 0 0 1 6 6V760.7a16.57 16.57 0 0 1-3.84 10.62l-21.96 26.33a12.8 12.8 0 0 1-9.84 4.6H803.85a6 6 0 0 1-6-6z" stroke="#3a414a" stroke-width="2" fill="#fff"/><path d="M803.85 535.6a2.17 2.17 0 0 1-1.4-3.84l26.35-21.94a16.57 16.57 0 0 1 10.6-3.84h634.83a2.48 2.48 0 0 1 1.76 4.24l-21.16 21.14a14.48 14.48 0 0 1-10.24 4.25z" stroke="#3a414a" stroke-width="2" fill="#e6e6e6"/><path d="M1450.6 541.6a14.48 14.48 0 0 1 4.24-10.24l21.15-21.14a2.48 2.48 0 0 1 4.23 1.76V760.7a16.57 16.57 0 0 1-3.84 10.62l-21.96 26.33a2.17 2.17 0 0 1-3.84-1.4z" stroke="#3a414a" stroke-width="2" fill="#ccc"/><use xlink:href="#c" transform="matrix(1,0,0,1,805.8530924655063,543.6064684164804) translate(0 21.52777777777778)"/><use xlink:href="#d" transform="matrix(1,0,0,1,805.8530924655063,543.6064684164804) translate(82.69314236111111 21.52777777777778)"/><path d="M597.55 559.8a6 6 0 0 1 6-6h148a6 6 0 0 1 6 6v68a6 6 0 0 1-6 6h-148a6 6 0 0 1-6-6z" stroke="#3a414a" stroke-width="2" fill="#fff"/><use xlink:href="#e" transform="matrix(1,0,0,1,597.5516874029098,553.8082023064802) translate(12.437725694444447 31.84027777777778)"/><use xlink:href="#f" transform="matrix(1,0,0,1,597.5516874029098,553.8082023064802) translate(36.754131944444445 64.10590277777777)"/><path d="M597.55 672.85a6 6 0 0 1 6-6h148a6 6 0 0 1 6 6V756a6 6 0 0 1-6 6h-148a6 6 0 0 1-6-6z" stroke="#3a414a" stroke-width="2" fill="#fff"/><use xlink:href="#e" transform="matrix(1,0,0,1,597.5516874029098,666.8495019308223) translate(12.437725694444447 39.90277777777778)"/><use xlink:href="#g" transform="matrix(1,0,0,1,597.5516874029098,666.8495019308223) translate(13.115894097222233 72.16840277777777)"/><use xlink:href="#h" transform="matrix(1,0,0,1,597.5516874029098,666.8495019308223) translate(61.86806423611112 72.16840277777777)"/><path d="M888.75 653.32a6 6 0 0 1 6-6H1084a6 6 0 0 1 6 6v122.2a6 6 0 0 1-6 6H894.75a6 6 0 0 1-6-6z" stroke="#3a414a" stroke-width="2" fill="#dedeff"/><path d="M1080 657.32h-15v20h15z" stroke="#3a414a" fill="#dedeff"/><path d="M1070 660.65h-10V664h10zm0 10h-10V674h10z" stroke="#3a414a" fill="#dedeff"/><use xlink:href="#i" transform="matrix(1,0,0,1,888.7487286451408,647.3202030605223) translate(25.29167534722223 26.537777777777777)"/><use xlink:href="#j" transform="matrix(1,0,0,1,888.7487286451408,647.3202030605223) translate(100.2591232638889 26.537777777777777)"/><path d="M899.04 707.8a6 6 0 0 1 6-6h168.66a6 6 0 0 1 6 6v52.4a6 6 0 0 1-6 6H905.04a6 6 0 0 1-6-6z" stroke="#3a414a" stroke-width="2" fill="#f4d9ff"/><path d="M1069.7 711.8h-15v20h15z" stroke="#3a414a" fill="#f4d9ff"/><path d="M1059.7 715.14h-10v3.34h10zm0 10h-10v3.34h10z" stroke="#3a414a" fill="#f4d9ff"/><use xlink:href="#i" transform="matrix(1,0,0,1,899.0447768187153,701.8082023064412) translate(27.371319444444445 40.57074652777778)"/><use xlink:href="#k" transform="matrix(1,0,0,1,899.0447768187153,701.8082023064412) translate(102.33876736111111 40.57074652777778)"/><path d="M1243.27 581.32a6 6 0 0 1 6-6h168.66a6 6 0 0 1 6 6V705.7a6 6 0 0 1-6 6h-168.66a6 6 0 0 1-6-6z" stroke="#3a414a" stroke-width="2" fill="#fff"/><path d="M1413.93 585.32h-15v20h15z" stroke="#3a414a" fill="#fff"/><path d="M1403.93 588.65h-10V592h10zm0 10h-10V602h10z" stroke="#3a414a" fill="#fff"/><use xlink:href="#l" transform="matrix(1,0,0,1,1243.269564738691,575.3202030605223) translate(40.82509548611111 76.64887152777777)"/><path d="M1243.27 724.08a6 6 0 0 1 6-6h168.66a6 6 0 0 1 6 6v52.38a6 6 0 0 1-6 6h-168.66a6 6 0 0 1-6-6z" stroke="#3a414a" stroke-width="2" fill="#fff"/><path d="M1413.93 728.08h-15v20h15z" stroke="#3a414a" fill="#fff"/><path d="M1403.93 731.4h-10v3.35h10zm0 10h-10v3.35h10z" stroke="#3a414a" fill="#fff"/><use xlink:href="#m" transform="matrix(1,0,0,1,1243.269564738691,718.0808957756121) translate(44.99827256944444 40.57074652777778)"/><path d="M567.9 917.35a12.8 12.8 0 0 1 4.62-9.84l10.17-8.47a16.57 16.57 0 0 1 10.6-3.84h187.9a6 6 0 0 1 6 6v130.2a16.57 16.57 0 0 1-3.85 10.62l-8.48 10.18a12.8 12.8 0 0 1-9.84 4.6H573.9a6 6 0 0 1-6-6z" stroke="#3a414a" stroke-width="2" fill="#fff"/><path d="M573.9 911.35a2.17 2.17 0 0 1-1.38-3.84l10.17-8.47a16.57 16.57 0 0 1 10.6-3.84h187.9a2.48 2.48 0 0 1 1.75 4.23l-7.67 7.68a14.48 14.48 0 0 1-10.25 4.25z" stroke="#3a414a" stroke-width="2" fill="#e6e6e6"/><path d="M771.03 917.35a14.48 14.48 0 0 1 4.25-10.24l7.67-7.67a2.48 2.48 0 0 1 4.25 1.76v130.2a16.57 16.57 0 0 1-3.85 10.62l-8.48 10.18a2.17 2.17 0 0 1-3.84-1.4z" stroke="#3a414a" stroke-width="2" fill="#ccc"/><use xlink:href="#n" transform="matrix(1,0,0,1,575.9080165889499,919.3492040638132) translate(0 21.52777777777778)"/><use xlink:href="#o" transform="matrix(1,0,0,1,575.9080165889499,919.3492040638132) translate(76.22612847222221 21.52777777777778)"/><path d="M576.25 970.26a6 6 0 0 1 6-6h176.8a6 6 0 0 1 6 6v59.88a6 6 0 0 1-6 6h-176.8a6 6 0 0 1-6-6z" stroke="#3a414a" stroke-width="2" fill="#f4d9ff"/><path d="M755.04 974.26h-15v20h15z" stroke="#3a414a" fill="#f4d9ff"/><path d="M745.04 977.6h-10v3.33h10zm0 10h-10v3.33h10z" stroke="#3a414a" fill="#f4d9ff"/><use xlink:href="#p" transform="matrix(1,0,0,1,576.2473598506565,964.2593209301109) translate(10.741328125000004 27.99652777777778)"/><use xlink:href="#q" transform="matrix(1,0,0,1,576.2473598506565,964.2593209301109) translate(60.33985243055556 27.99652777777778)"/><use xlink:href="#r" transform="matrix(1,0,0,1,576.2473598506565,964.2593209301109) translate(86.96745659722222 27.99652777777778)"/><use xlink:href="#s" transform="matrix(1,0,0,1,576.2473598506565,964.2593209301109) translate(54.78060763888889 60.26215277777778)"/><path d="M797.85 917.35a12.8 12.8 0 0 1 4.6-9.84l10.2-8.47a16.57 16.57 0 0 1 10.6-3.84H1064a6 6 0 0 1 6 6v130.2a16.57 16.57 0 0 1-3.84 10.62l-8.48 10.18a12.8 12.8 0 0 1-9.84 4.6h-244a6 6 0 0 1-6-6z" stroke="#3a414a" stroke-width="2" fill-opacity="0"/><path d="M803.85 911.35a2.17 2.17 0 0 1-1.4-3.84l10.2-8.47a16.57 16.57 0 0 1 10.6-3.84H1064a2.48 2.48 0 0 1 1.76 4.23l-7.68 7.68a14.48 14.48 0 0 1-10.24 4.25z" stroke="#3a414a" stroke-width="2" fill-opacity="0"/><path d="M1053.84 917.35a14.48 14.48 0 0 1 4.24-10.24l7.68-7.67a2.48 2.48 0 0 1 4.24 1.76v130.2a16.57 16.57 0 0 1-3.84 10.62l-8.48 10.18a2.17 2.17 0 0 1-3.84-1.4z" stroke="#3a414a" stroke-width="2" fill-opacity="0"/><use xlink:href="#t" transform="matrix(1,0,0,1,805.8530924655063,919.3492040638132) translate(0 21.52777777777778)"/><use xlink:href="#u" transform="matrix(1,0,0,1,805.8530924655063,919.3492040638132) translate(40.51649305555556 21.52777777777778)"/><use xlink:href="#o" transform="matrix(1,0,0,1,805.8530924655063,919.3492040638132) translate(110.67708333333333 21.52777777777778)"/><path d="M808.2 970.26a6 6 0 0 1 6-6h222.3a6 6 0 0 1 6 6v59.88a6 6 0 0 1-6 6H814.2a6 6 0 0 1-6-6z" stroke="#3a414a" stroke-width="2" fill="#fff3d9"/><path d="M1032.5 974.26h-15v20h15z" stroke="#3a414a" fill="#fff3d9"/><path d="M1022.5 977.6h-10v3.33h10zm0 10h-10v3.33h10z" stroke="#3a414a" fill="#fff3d9"/><use xlink:href="#v" transform="matrix(1,0,0,1,808.2026035140009,964.2593209301109) translate(64.5130295138889 27.99652777777778)"/><use xlink:href="#w" transform="matrix(1,0,0,1,808.2026035140009,964.2593209301109) translate(11.06424479166669 60.26215277777778)"/><use xlink:href="#s" transform="matrix(1,0,0,1,808.2026035140009,964.2593209301109) translate(143.4969704861111 60.26215277777778)"/><path d="M1080.66 917.35a12.8 12.8 0 0 1 4.6-9.84l10.18-8.47a16.57 16.57 0 0 1 10.6-3.84h226.68a6 6 0 0 1 6 6v130.2a16.57 16.57 0 0 1-3.84 10.62l-8.48 10.18a12.8 12.8 0 0 1-9.84 4.6h-229.9a6 6 0 0 1-6-6z" stroke="#3a414a" stroke-width="2" fill="#fff"/><path d="M1086.66 911.35a2.17 2.17 0 0 1-1.4-3.84l10.18-8.47a16.57 16.57 0 0 1 10.6-3.84h226.68a2.48 2.48 0 0 1 1.76 4.23l-7.68 7.68a14.48 14.48 0 0 1-10.24 4.25z" stroke="#3a414a" stroke-width="2" fill="#e6e6e6"/><path d="M1322.56 917.35a14.48 14.48 0 0 1 4.24-10.24l7.68-7.67a2.48 2.48 0 0 1 4.24 1.76v130.2a16.57 16.57 0 0 1-3.84 10.62l-8.48 10.18a2.17 2.17 0 0 1-3.84-1.4z" stroke="#3a414a" stroke-width="2" fill="#ccc"/><use xlink:href="#x" transform="matrix(1,0,0,1,1088.6565693404918,919.3492040638132) translate(0 21.52777777777778)"/><use xlink:href="#y" transform="matrix(1,0,0,1,1088.6565693404918,919.3492040638132) translate(57.063802083333336 21.52777777777778)"/><use xlink:href="#o" transform="matrix(1,0,0,1,1088.6565693404918,919.3492040638132) translate(107.97526041666666 21.52777777777778)"/><path d="M1093.73 970.26a6 6 0 0 1 6-6h210.18a6 6 0 0 1 6 6v59.88a6 6 0 0 1-6 6h-210.17a6 6 0 0 1-6-6z" stroke="#3a414a" stroke-width="2" fill="#fff"/><path d="M1305.9 974.26h-15v20h15z" stroke="#3a414a" fill="#fff"/><path d="M1295.9 977.6h-10v3.33h10zm0 10h-10v3.33h10z" stroke="#3a414a" fill="#fff"/><use xlink:href="#z" transform="matrix(1,0,0,1,1093.7349558839717,964.2593209301108) translate(21.72114583333333 44.02777777777778)"/><use xlink:href="#s" transform="matrix(1,0,0,1,1093.7349558839717,964.2593209301108) translate(90.84006944444445 44.02777777777778)"/><path d="M1349.38 917.35a12.8 12.8 0 0 1 4.6-9.84l10.18-8.47a16.57 16.57 0 0 1 10.6-3.84h154.68a6 6 0 0 1 6 6v130.2a16.57 16.57 0 0 1-3.84 10.62l-8.48 10.18a12.8 12.8 0 0 1-9.84 4.6h-157.9a6 6 0 0 1-6-6z" stroke="#3a414a" stroke-width="2" fill="#fff"/><path d="M1355.38 911.35a2.17 2.17 0 0 1-1.4-3.84l10.18-8.47a16.57 16.57 0 0 1 10.6-3.84h154.68a2.48 2.48 0 0 1 1.76 4.23l-7.68 7.68a14.48 14.48 0 0 1-10.24 4.25z" stroke="#3a414a" stroke-width="2" fill="#e6e6e6"/><path d="M1519.28 917.35a14.48 14.48 0 0 1 4.24-10.24l7.68-7.67a2.48 2.48 0 0 1 4.24 1.76v130.2a16.57 16.57 0 0 1-3.84 10.62l-8.48 10.18a2.17 2.17 0 0 1-3.84-1.4z" stroke="#3a414a" stroke-width="2" fill="#ccc"/><use xlink:href="#A" transform="matrix(1,0,0,1,1357.3768177061409,919.3492040638132) translate(0 21.52777777777778)"/><use xlink:href="#B" transform="matrix(1,0,0,1,1357.3768177061409,919.3492040638132) translate(56.26085069444444 21.52777777777778)"/><path d="M1358.8 970.26a6 6 0 0 1 6-6H1505a6 6 0 0 1 6 6v59.88a6 6 0 0 1-6 6h-140.2a6 6 0 0 1-6-6z" stroke="#3a414a" stroke-width="2" fill-opacity="0"/><path d="M1501 974.26h-15v20h15z" stroke="#3a414a" fill-opacity="0"/><path d="M1491 977.6h-10v3.33h10zm0 10h-10v3.33h10z" stroke="#3a414a" fill-opacity="0"/><use xlink:href="#C" transform="matrix(1,0,0,1,1358.80630609658,964.2593209301108) translate(6.811206597222219 44.02777777777778)"/><use xlink:href="#D" transform="matrix(1,0,0,1,1358.80630609658,964.2593209301108) translate(72.65322048611111 44.02777777777778)"/><path d="M1489.52 845.7l1.05.07 1.07.26 1 .42.94.57.84.7.7.85.58.93.42 1 .25 1.08.1 1.05v109.63h-1.96V852.7l-.06-.82-.18-.76-.3-.73-.4-.68-.53-.6-.6-.52-.67-.4-.73-.3-.76-.2-.83-.06h-25.22v-1.95zm-154.88-4.25l.18.77.3.73.42.67.5.6.6.5.68.42.73.3.76.2.84.05h78.6v1.94h-78.68l-1.05-.08-1.06-.26-1-.42-.94-.57-.84-.7-.7-.83-.58-.93-.42-1.02-.25-1.06-.08-1.05v-38.74h1.95v38.67z" stroke="#3a414a" stroke-width=".05" fill="#3a414a"/><path d="M1496.46 963.26h-1.95v-1.03h1.96z" fill="#3a414a"/><path stroke="#3a414a" stroke-width=".05" fill="#3a414a"/><path d="M1338.23 800.96h-9.27l4.64-14.26z" fill="#3a414a"/><path d="M1339.58 801.94h-11.96l5.98-18.4zm-9.27-1.95h6.6l-3.3-10.15z" stroke="#3a414a" stroke-width=".05" fill="#3a414a"/><use xlink:href="#E" transform="matrix(1,0,0,1,1418.2423859244896,835.9114583333333) translate(0.004999999999999005 17.22222222222222)"/><path d="M1241.27 749.3v1.95h-36.44v-1.96zm-131.77 0v-1.96h16.98v1.95z" stroke="#3a414a" stroke-width=".05" fill="#3a414a"/><path d="M1242.27 751.25h-1.03v-1.96h1.03z" fill="#3a414a"/><path stroke="#3a414a" stroke-width=".05" fill="#3a414a"/><path d="M1108.5 752.95l-14.27-4.64 14.27-4.62z" fill="#3a414a"/><path d="M1109.48 754.3l-18.4-6 18.4-5.96zm-12.1-6l10.15 3.3v-6.58z" stroke="#3a414a" stroke-width=".05" fill="#3a414a"/><use xlink:href="#F" transform="matrix(1,0,0,1,1126.4843643385052,739.5147211748045) translate(-7.535641897669272 17.22222222222222)"/><path d="M967.6 594.78H777.06v-1.95H967.6zm273.67 0H1033.2v-1.95h208.07z" stroke="#3a414a" stroke-width=".05" fill="#3a414a"/><path d="M1242.27 594.78h-1.03v-1.95h1.03z" fill="#3a414a"/><path stroke="#3a414a" stroke-width=".05" fill="#3a414a"/><path d="M776.05 598.44l-14.26-4.63 14.25-4.63z" fill="#3a414a"/><path d="M777.03 599.8l-18.4-6 18.4-5.97zm-12.1-6l10.15 3.3v-6.6z" stroke="#3a414a" stroke-width=".05" fill="#3a414a"/><use xlink:href="#G" transform="matrix(1,0,0,1,967.6111469041338,583.0529939731468) translate(0.005000000000002558 17.22222222222222)"/><path d="M808.02 715.4h-30.97v-1.95h30.97zm78.73 0h-13.13v-1.95h13.13z" stroke="#3a414a" stroke-width=".05" fill="#3a414a"/><path d="M887.75 715.4h-1.03v-1.95h1.03z" fill="#3a414a"/><path stroke="#3a414a" stroke-width=".05" fill="#3a414a"/><path d="M776.05 719.06l-14.26-4.63 14.25-4.64z" fill="#3a414a"/><path d="M777.03 720.4l-18.4-5.97 18.4-5.98zm-12.1-5.97l10.15 3.3v-6.6z" stroke="#3a414a" stroke-width=".05" fill="#3a414a"/><use xlink:href="#G" transform="matrix(1,0,0,1,808.021274141069,703.6707448830122) translate(0.005000000000002558 17.22222222222222)"/><path d="M1297.24 871.92l1.05.08 1.06.26 1 .42.94.57.83.7.7.84.6.93.4 1 .26 1.07.08 1.06v65.9h-1.96v-65.83l-.06-.82-.18-.76-.3-.72-.42-.68-.5-.6-.6-.5-.68-.42-.73-.3-.76-.2-.84-.05h-130.08v-1.95zm-228.2-4.24l.18.77.3.72.42.68.5.6.6.5.68.42.73.3.76.2.84.05h41.45v1.95h-41.54l-1.05-.08-1.06-.27-1-.42-.94-.56-.83-.7-.7-.84-.6-.94-.4-1-.26-1.07-.07-1.07v-83.4h1.94v83.33z" stroke="#3a414a" stroke-width=".05" fill="#3a414a"/><path d="M1068.97 783.56h-1.94v-1.03h1.94z" fill="#3a414a"/><path stroke="#3a414a" stroke-width=".05" fill="#3a414a"/><path d="M1303.2 960.02l-4.63-14.26h9.27z" fill="#3a414a"/><path d="M1303.2 963.18l-5.98-18.4h11.96zm-3.3-16.45l3.3 10.14 3.3-10.14z" stroke="#3a414a" stroke-width=".05" fill="#3a414a"/><use xlink:href="#H" transform="matrix(1,0,0,1,1115.495218471955,862.1403036619832) translate(0.004999999999999005 17.22222222222222)"/><path d="M1020.98 944.76H1019v-93.2h1.96zm0-114.7H1019V768.2h1.96z" stroke="#3a414a" stroke-width=".05" fill="#3a414a"/><path d="M1020.98 768.2H1019v-1h1.96z" fill="#3a414a"/><path stroke="#3a414a" stroke-width=".05" fill="#3a414a"/><path d="M1020 960.02l-4.63-14.26h9.26z" fill="#3a414a"/><path d="M1020 963.18l-5.98-18.4h11.96zm-3.3-16.45l3.3 10.14 3.3-10.14z" stroke="#3a414a" stroke-width=".05" fill="#3a414a"/><g><use xlink:href="#E" transform="matrix(1,0,0,1,997.0095486111111,830.0619993227023) translate(0.004999999999999005 17.22222222222222)"/></g><path d="M820.2 873.87h-71.76l-.83.06-.75.2-.73.3-.67.4-.6.5-.5.6-.43.7-.3.7-.18.78-.07.83v65.83h-1.95v-65.9l.1-1.06.24-1.06.42-1 .58-.95.7-.84.84-.7.93-.58 1-.42 1.08-.26 1.06-.08h71.85zm170.15-6.94l-.08 1.06-.26 1.05-.4 1-.58.95-.7.83-.85.7-.93.58-1 .43-1.07.26-1.06.07H866.2v-1.95h117.13l.83-.06.77-.2.72-.3.68-.4.6-.5.5-.6.42-.7.3-.7.18-.78.07-.82v-83.33h1.95z" stroke="#3a414a" stroke-width=".05" fill="#3a414a"/><path d="M990.35 783.56h-1.95v-1.03h1.95z" fill="#3a414a"/><path stroke="#3a414a" stroke-width=".05" fill="#3a414a"/><path d="M742.4 960.02l-4.63-14.26h9.26z" fill="#3a414a"/><path d="M742.4 963.18l-5.98-18.4h11.96zm-3.3-16.45l3.3 10.14 3.3-10.14z" stroke="#3a414a" stroke-width=".05" fill="#3a414a"/><g><use xlink:href="#E" transform="matrix(1,0,0,1,820.2095486111111,862.1403036619832) translate(0.004999999999999005 17.22222222222222)"/></g><path d="M987.33 1122.32a6 6 0 0 1 6-6h116.7a6 6 0 0 1 6 6v30.28a6 6 0 0 1-6 6h-116.7a6 6 0 0 1-6-6z" stroke="#000" stroke-width="2" fill="#fff"/><g><use xlink:href="#I" transform="matrix(1,0,0,1,987.325355239065,1116.318645960488) translate(23.50022569444444 29.59027777777778)"/></g><path d="M707.65 1122.32a6 6 0 0 1 6-6h116.7a6 6 0 0 1 6 6v30.28a6 6 0 0 1-6 6h-116.7a6 6 0 0 1-6-6z" stroke="#000" stroke-width="2" fill="#f4d9ff"/><g><use xlink:href="#J" transform="matrix(1,0,0,1,707.6516810330132,1116.318645960488) translate(40.76368055555556 29.59027777777778)"/></g><path d="M567.9 1122.32a6 6 0 0 1 6-6h116.7a6 6 0 0 1 6 6v30.28a6 6 0 0 1-6 6H573.9a6 6 0 0 1-6-6z" stroke="#000" stroke-width="2" fill="#dedeff"/><g><use xlink:href="#K" transform="matrix(1,0,0,1,567.9080165889499,1116.318645960488) translate(17.733081597222224 29.59027777777778)"/></g><path d="M847.4 1122.32a6 6 0 0 1 6-6h116.7a6 6 0 0 1 6 6v30.28a6 6 0 0 1-6 6H853.4a6 6 0 0 1-6-6z" stroke="#000" stroke-width="2" fill="#fff3d9"/><g><use xlink:href="#L" transform="matrix(1,0,0,1,847.3953454770766,1116.318645960488) translate(18.226788194444445 29.59027777777778)"/></g><defs><path d="M659 0H135v-1490h529c448 0 721 280 721 744 0 466-273 746-726 746zM440-263h204c287 0 437-148 437-483 0-333-150-481-435-481H440v964" id="M"/><path d="M628 22C291 22 81-210 81-554c0-346 210-578 547-578 336 0 547 232 547 578 0 344-211 576-547 576zm0-236c160 0 242-146 242-341 0-197-82-341-242-341S387-753 387-555c0 195 81 341 241 341" id="N"/><path d="M628 22C291 22 81-210 81-554c0-346 210-578 547-578 265 0 455 142 497 372l-279 52c-25-116-99-188-215-188-160 0-244 139-244 341 0 200 84 341 244 341 116 0 193-74 217-195l279 51C1085-123 896 22 628 22" id="O"/><path d="M128 0v-1490h300v802h17l366-430h347L740-633 1179 0H826L514-456l-86 97V0H128" id="P"/><path d="M633 22C291 22 81-200 81-553c0-345 210-579 537-579 292 0 525 185 525 567v84H378c7 183 109 277 260 277 105 0 184-46 216-132l272 51C1071-99 893 22 633 22zM380-669h474c-15-146-94-237-233-237-143 0-229 99-241 237" id="Q"/><path d="M128 0v-1118h290v195h12c54-169 184-238 367-200v268c-27-8-86-15-130-15-138 0-239 95-239 234V0H128" id="R"/><g id="a"><use transform="matrix(0.010850694444444444,0,0,0.010850694444444444,0,0)" xlink:href="#M"/><use transform="matrix(0.010850694444444444,0,0,0.010850694444444444,16.048177083333332,0)" xlink:href="#N"/><use transform="matrix(0.010850694444444444,0,0,0.010850694444444444,29.676649305555554,0)" xlink:href="#O"/><use transform="matrix(0.010850694444444444,0,0,0.010850694444444444,42.75173611111111,0)" xlink:href="#P"/><use transform="matrix(0.010850694444444444,0,0,0.010850694444444444,55.143229166666664,0)" xlink:href="#Q"/><use transform="matrix(0.010850694444444444,0,0,0.010850694444444444,68.38107638888889,0)" xlink:href="#R"/></g><path d="M135 0v-1490h305v602h649v-602h306V0h-306v-635H440V0H135" id="S"/><path d="M572 22C302 22 117-98 78-306l279-48c29 105 101 156 224 156 114 0 185-48 185-115 0-118-228-130-337-155-215-49-322-150-322-317 0-215 187-347 470-347 265 0 424 116 466 298l-266 47c-24-76-87-130-196-130-98 0-174 46-174 113 0 56 38 95 144 117l201 40c216 44 320 143 320 302 0 220-207 367-500 367" id="T"/><path d="M683-1118v229H474v562c0 71 29 104 102 104 23 0 73-7 95-13l43 225C647 9 580 16 520 16 296 16 174-96 174-301v-588H20v-229h154v-266h300v266h209" id="U"/><g id="b"><use transform="matrix(0.010850694444444444,0,0,0.010850694444444444,0,0)" xlink:href="#S"/><use transform="matrix(0.010850694444444444,0,0,0.010850694444444444,16.6015625,0)" xlink:href="#N"/><use transform="matrix(0.010850694444444444,0,0,0.010850694444444444,30.23003472222222,0)" xlink:href="#T"/><use transform="matrix(0.010850694444444444,0,0,0.010850694444444444,42.67578125,0)" xlink:href="#U"/></g><g id="c"><use transform="matrix(0.010850694444444444,0,0,0.010850694444444444,0,0)" xlink:href="#M"/><use transform="matrix(0.010850694444444444,0,0,0.010850694444444444,16.048177083333332,0)" xlink:href="#N"/><use transform="matrix(0.010850694444444444,0,0,0.010850694444444444,29.676649305555554,0)" xlink:href="#O"/><use transform="matrix(0.010850694444444444,0,0,0.010850694444444444,42.75173611111111,0)" xlink:href="#P"/><use transform="matrix(0.010850694444444444,0,0,0.010850694444444444,55.143229166666664,0)" xlink:href="#Q"/><use transform="matrix(0.010850694444444444,0,0,0.010850694444444444,68.38107638888889,0)" xlink:href="#R"/></g><path d="M786 20C389 20 94-260 94-744c0-487 299-766 692-766 339 0 597 194 641 529h-309c-28-162-156-258-326-258-233 0-388 179-388 495 0 323 157 493 387 493 170 0 298-97 328-259h309c-34 277-266 530-642 530" id="V"/><path d="M128 0v-1118h278l12 217c60-163 185-234 319-234 143 0 236 81 288 251 63-172 205-251 359-251 205 0 357 138 357 381V0h-301v-697c0-126-76-187-177-187-114 0-184 79-184 196V0H789v-705c0-109-72-179-174-179-106 0-187 74-187 208V0H128" id="W"/><path d="M128 418v-1536h295v188h14c41-89 129-202 319-202 248 0 453 193 453 575 0 372-197 576-455 576-183 0-275-108-317-198h-9v597H128zm534-640c156 0 240-139 240-336 0-196-83-334-240-334-154 0-241 131-241 334 0 202 88 336 241 336" id="X"/><g id="d"><use transform="matrix(0.010850694444444444,0,0,0.010850694444444444,0,0)" xlink:href="#V"/><use transform="matrix(0.010850694444444444,0,0,0.010850694444444444,16.438802083333332,0)" xlink:href="#N"/><use transform="matrix(0.010850694444444444,0,0,0.010850694444444444,30.067274305555554,0)" xlink:href="#W"/><use transform="matrix(0.010850694444444444,0,0,0.010850694444444444,50.34722222222221,0)" xlink:href="#X"/><use transform="matrix(0.010850694444444444,0,0,0.010850694444444444,64.35546874999999,0)" xlink:href="#N"/><use transform="matrix(0.010850694444444444,0,0,0.010850694444444444,77.9839409722222,0)" xlink:href="#T"/><use transform="matrix(0.010850694444444444,0,0,0.010850694444444444,90.42968749999997,0)" xlink:href="#Q"/></g><path d="M174-520v-126l944-476v196L406-588v12l712 338v194" id="Y"/><path d="M481 0L54-1118h197c107 314 236 620 325 951 87-331 217-637 324-951h197L670 0H481" id="Z"/><path d="M613 24c-304 0-509-231-509-576 0-350 205-580 509-580 305 0 511 230 511 580 0 345-206 576-511 576zm0-161c226 0 329-195 329-415 0-222-103-419-329-419-223 0-326 196-326 419 0 220 103 415 326 415" id="aa"/><path d="M338-1490V0H158v-1490h180" id="ab"/><path d="M537 14c-226 0-379-139-379-422v-710h180v695c0 172 97 275 253 275 160 0 281-109 281-300v-670h181V0H879v-209C806-46 684 14 537 14" id="ac"/><path d="M158 0v-1118h175l1 205c55-151 181-225 313-225 147 0 245 90 285 228 53-141 190-228 352-228 194 0 352 125 352 384V0h-181v-749c0-161-105-225-225-225-151 0-243 103-243 244V0H807v-767c0-124-93-207-219-207-131 0-250 92-250 270V0H158" id="ad"/><path d="M628 24c-324 0-524-230-524-574 0-343 198-582 503-582 237 0 487 146 487 559v75H286c9 234 145 362 343 362 132 0 231-58 273-172l174 48C1024-91 857 24 628 24zM287-650h624c-17-190-120-322-304-322-192 0-309 151-320 322" id="ae"/><path d="M1181-520L237-44v-194l712-338v-12L237-926v-196l944 476v126" id="af"/><g id="e"><use transform="matrix(0.010850694444444444,0,0,0.010850694444444444,0,0)" xlink:href="#Y"/><use transform="matrix(0.010850694444444444,0,0,0.010850694444444444,14.702690972222221,0)" xlink:href="#Y"/><use transform="matrix(0.010850694444444444,0,0,0.010850694444444444,29.405381944444443,0)" xlink:href="#Z"/><use transform="matrix(0.010850694444444444,0,0,0.010850694444444444,41.46050347222222,0)" xlink:href="#aa"/><use transform="matrix(0.010850694444444444,0,0,0.010850694444444444,54.78515625,0)" xlink:href="#ab"/><use transform="matrix(0.010850694444444444,0,0,0.010850694444444444,60.16710069444444,0)" xlink:href="#ac"/><use transform="matrix(0.010850694444444444,0,0,0.010850694444444444,73.30729166666666,0)" xlink:href="#ad"/><use transform="matrix(0.010850694444444444,0,0,0.010850694444444444,92.77343749999997,0)" xlink:href="#ae"/><use transform="matrix(0.010850694444444444,0,0,0.010850694444444444,105.72916666666666,0)" xlink:href="#af"/><use transform="matrix(0.010850694444444444,0,0,0.010850694444444444,120.43185763888889,0)" xlink:href="#af"/></g><path d="M625 442c-280 0-454-114-503-274l258-72c28 63 97 128 243 128 153 0 246-69 246-216v-206h-23C805-108 717-16 536-16 284-16 81-191 81-561c0-378 208-571 456-571 188 0 280 113 321 202h13v-188h295V-9c0 303-226 451-541 451zm5-686c153 0 240-119 240-319 0-198-86-329-240-329-158 0-241 137-241 329 0 195 85 319 241 319" id="ag"/><path d="M818-733v240H140v-240h678" id="ah"/><path d="M537 19C279 19 81-185 81-557c0-382 206-575 454-575 190 0 278 113 318 202h10v-560h300V0H868v-179h-15C812-89 719 19 537 19zm92-241c153 0 240-134 240-336 0-203-86-334-240-334-158 0-240 138-240 334 0 197 84 336 240 336" id="ai"/><path d="M440 22C227 22 68-92 68-313c0-250 202-322 422-343 195-21 271-24 271-105 0-95-63-149-175-149-116 0-187 57-211 129l-275-46c57-194 237-305 487-305 240 0 474 108 474 379V0H777v-155h-10C713-51 605 22 440 22zm85-211c140 0 238-93 238-211v-121c-37 26-156 42-222 51-111 16-185 59-185 149 0 87 70 132 169 132" id="aj"/><g id="f"><use transform="matrix(0.010850694444444444,0,0,0.010850694444444444,0,0)" xlink:href="#X"/><use transform="matrix(0.010850694444444444,0,0,0.010850694444444444,14.008246527777777,0)" xlink:href="#ag"/><use transform="matrix(0.010850694444444444,0,0,0.010850694444444444,28.04904513888889,0)" xlink:href="#ah"/><use transform="matrix(0.010850694444444444,0,0,0.010850694444444444,38.444010416666664,0)" xlink:href="#ai"/><use transform="matrix(0.010850694444444444,0,0,0.010850694444444444,52.45225694444444,0)" xlink:href="#aj"/><use transform="matrix(0.010850694444444444,0,0,0.010850694444444444,65.35373263888889,0)" xlink:href="#U"/><use transform="matrix(0.010850694444444444,0,0,0.010850694444444444,73.60026041666666,0)" xlink:href="#aj"/></g><path d="M135 0v-1490h581c339 0 533 210 533 503 0 295-197 500-540 500H440V0H135zm305-733h220c186 0 274-104 274-254s-88-251-275-251H440v505" id="ak"/><path d="M135 0v-1490h980v253H440v416h609v249H440V0H135" id="al"/><g id="g"><use transform="matrix(0.010850694444444444,0,0,0.010850694444444444,0,0)" xlink:href="#ak"/><use transform="matrix(0.010850694444444444,0,0,0.010850694444444444,14.398871527777777,0)" xlink:href="#M"/><use transform="matrix(0.010850694444444444,0,0,0.010850694444444444,30.447048611111104,0)" xlink:href="#al"/></g><path d="M681 22C323 22 94-145 85-462h297c10 151 131 226 296 226 163 0 271-77 271-190 0-102-95-149-257-189l-164-41c-252-61-403-188-403-405 0-269 236-449 560-449 330 0 546 183 551 445H941c-11-119-106-188-259-188-156 0-244 72-244 172-3 156 226 185 373 221 250 61 445 186 445 436 0 271-213 446-575 446" id="am"/><g id="h"><use transform="matrix(0.010850694444444444,0,0,0.010850694444444444,0,0)" xlink:href="#am"/><use transform="matrix(0.010850694444444444,0,0,0.010850694444444444,14.55078125,0)" xlink:href="#U"/><use transform="matrix(0.010850694444444444,0,0,0.010850694444444444,22.471788194444443,0)" xlink:href="#N"/><use transform="matrix(0.010850694444444444,0,0,0.010850694444444444,36.100260416666664,0)" xlink:href="#R"/><use transform="matrix(0.010850694444444444,0,0,0.010850694444444444,44.845920138888886,0)" xlink:href="#aj"/><use transform="matrix(0.010850694444444444,0,0,0.010850694444444444,57.74739583333333,0)" xlink:href="#ag"/><use transform="matrix(0.010850694444444444,0,0,0.010850694444444444,71.78819444444444,0)" xlink:href="#Q"/></g><path d="M657 26c-323 0-524-166-541-416h195c15 169 171 246 346 246 202 0 356-106 356-265 5-203-294-238-475-293-239-73-380-191-380-389 0-252 224-419 512-419 294 0 499 171 508 396H992c-17-145-151-228-328-228-193 0-321 102-321 242 0 156 175 211 284 241l149 41c160 44 422 134 422 412 0 244-197 432-541 432" id="an"/><path d="M158 418v-1536h174v179h20c37-59 106-193 324-193 279 0 474 222 474 576 0 356-194 580-473 580-213 0-288-135-325-197h-14v591H158zm492-555c209 0 317-186 317-421 0-232-105-413-317-413-206 0-314 166-314 413 0 249 111 421 314 421" id="ao"/><path d="M158 0v-1118h174v172h12c41-113 157-188 290-188 26 0 70 2 91 3v181c-11-2-60-10-108-10-161 0-279 109-279 260V0H158" id="ap"/><path d="M158 0v-1118h180V0H158zm91-1301c-68 0-125-53-125-119s57-119 125-119c69 0 126 53 126 119s-57 119-126 119" id="aq"/><path d="M338-670V0H158v-1118h173l1 207c72-158 192-221 342-221 226 0 378 139 378 422V0H872v-695c0-172-96-275-252-275-161 0-282 109-282 300" id="ar"/><path d="M611 442c-248 0-391-105-460-228l146-94c47 65 117 165 314 165 178 0 307-82 307-266v-224h-17C863-141 792-18 576-18c-268 0-472-195-472-546 0-346 197-568 476-568 216 0 288 133 326 193h17v-179h175V29c0 289-215 413-487 413zm-5-620c203 0 314-146 314-390 0-237-108-403-314-403-213 0-319 180-319 403 0 230 109 390 319 390" id="as"/><g id="i"><use transform="matrix(0.010850694444444444,0,0,0.010850694444444444,0,0)" xlink:href="#an"/><use transform="matrix(0.010850694444444444,0,0,0.010850694444444444,14.2578125,0)" xlink:href="#ao"/><use transform="matrix(0.010850694444444444,0,0,0.010850694444444444,27.864583333333332,0)" xlink:href="#ap"/><use transform="matrix(0.010850694444444444,0,0,0.010850694444444444,36.57769097222222,0)" xlink:href="#aq"/><use transform="matrix(0.010850694444444444,0,0,0.010850694444444444,41.959635416666664,0)" xlink:href="#ar"/><use transform="matrix(0.010850694444444444,0,0,0.010850694444444444,55.08897569444444,0)" xlink:href="#as"/></g><path d="M180 0v-1490h528c311 0 458 177 458 395 0 191-114 278-244 313v14c139 9 302 137 302 371 0 225-148 397-499 397H180zm190-168h350c232 0 321-102 321-231 0-149-120-277-311-277H370v508zm0-668h328c160 0 286-101 286-255 0-129-87-231-280-231H370v486" id="at"/><path d="M598-1118v154H368v674c0 100 37 144 132 144 23 0 62-6 92-12L629-6c-37 13-88 20-134 20-193 0-307-107-307-290v-688H20v-154h168v-266h180v266h230" id="au"/><g id="j"><use transform="matrix(0.010850694444444444,0,0,0.010850694444444444,0,0)" xlink:href="#at"/><use transform="matrix(0.010850694444444444,0,0,0.010850694444444444,14.539930555555555,0)" xlink:href="#aa"/><use transform="matrix(0.010850694444444444,0,0,0.010850694444444444,27.864583333333332,0)" xlink:href="#aa"/><use transform="matrix(0.010850694444444444,0,0,0.010850694444444444,41.18923611111111,0)" xlink:href="#au"/></g><path d="M52 0l541-1490h220L1361 0h-200l-149-416H398L254 0H52zm404-582h497c-103-290-145-390-251-756-108 377-145 460-246 756" id="av"/><path d="M370-1490V0H180v-1490h190" id="aw"/><g id="k"><use transform="matrix(0.010850694444444444,0,0,0.010850694444444444,0,0)" xlink:href="#av"/><use transform="matrix(0.010850694444444444,0,0,0.010850694444444444,15.33203125,0)" xlink:href="#aw"/></g><path d="M645 0H180v-1490h484c435 0 692 280 692 742 0 466-257 748-711 748zM370-168h263c363 0 539-218 539-580 0-358-176-574-521-574H370v1154" id="ax"/><path d="M471 26C259 26 90-98 90-318c0-256 228-303 435-329 202-27 287-16 287-108 0-139-79-219-234-219-161 0-248 86-283 164l-173-57c86-203 278-265 451-265 150 0 419 46 419 395V0H815v-152h-12C765-73 660 26 471 26zm31-159c199 0 310-134 310-271v-155c-30 35-226 55-295 64-131 17-246 59-246 186 0 116 97 176 231 176" id="ay"/><path d="M677 24c-213 0-288-135-325-197h-20V0H158v-1490h180v551h14c37-59 106-193 324-193 279 0 474 222 474 576 0 356-194 580-473 580zm-27-161c209 0 317-186 317-421 0-232-105-413-317-413-206 0-314 166-314 413 0 249 111 421 314 421" id="az"/><path d="M538 24C308 24 148-78 108-271l171-41c32 123 123 178 257 178 156 0 256-77 256-169 0-77-54-128-164-154l-186-44c-203-48-300-148-300-305 0-192 176-326 414-326 230 0 351 112 402 269l-163 42c-31-80-94-158-238-158-133 0-233 69-233 162 0 83 57 129 188 160l169 40c203 48 298 149 298 302 0 196-179 339-441 339" id="aA"/><g id="l"><use transform="matrix(0.010850694444444444,0,0,0.010850694444444444,0,0)" xlink:href="#ax"/><use transform="matrix(0.010850694444444444,0,0,0.010850694444444444,16.03732638888889,0)" xlink:href="#ay"/><use transform="matrix(0.010850694444444444,0,0,0.010850694444444444,28.515625,0)" xlink:href="#au"/><use transform="matrix(0.010850694444444444,0,0,0.010850694444444444,35.89409722222222,0)" xlink:href="#ay"/><use transform="matrix(0.010850694444444444,0,0,0.010850694444444444,48.37239583333333,0)" xlink:href="#az"/><use transform="matrix(0.010850694444444444,0,0,0.010850694444444444,62.19618055555554,0)" xlink:href="#ay"/><use transform="matrix(0.010850694444444444,0,0,0.010850694444444444,74.67447916666666,0)" xlink:href="#aA"/><use transform="matrix(0.010850694444444444,0,0,0.010850694444444444,86.4040798611111,0)" xlink:href="#ae"/></g><path d="M180 0v-1490h224l606 953c40 63 108 177 176 312-27-437-7-821-13-1265h190V0h-226C860-448 622-778 356-1262c27 476 11 792 15 1262H180" id="aB"/><path d="M65 0l393-574-370-544h210c88 136 192 297 267 435 67-142 176-302 264-435h206L661-564 1053 0H844c-94-144-206-310-287-458C484-308 366-142 273 0H65" id="aC"/><g id="m"><use transform="matrix(0.010850694444444444,0,0,0.010850694444444444,0,0)" xlink:href="#aB"/><use transform="matrix(0.010850694444444444,0,0,0.010850694444444444,16.74262152777778,0)" xlink:href="#as"/><use transform="matrix(0.010850694444444444,0,0,0.010850694444444444,30.37109375,0)" xlink:href="#aq"/><use transform="matrix(0.010850694444444444,0,0,0.010850694444444444,35.75303819444444,0)" xlink:href="#ar"/><use transform="matrix(0.010850694444444444,0,0,0.010850694444444444,48.88237847222222,0)" xlink:href="#aC"/></g><path d="M49 0l509-1490h400L1480 0h-339l-115-346H497L386 0H49zm524-585h374c-75-213-124-402-192-666-66 268-110 453-182 666" id="aD"/><path d="M754 19C571 19 479-89 437-179h-14V0H128v-1490h300v560h9c41-89 129-202 319-202 248 0 453 193 453 575 0 372-197 576-455 576zm-92-241c156 0 240-139 240-336 0-196-83-334-240-334-154 0-241 131-241 334 0 202 88 336 241 336" id="aE"/><g id="n"><use transform="matrix(0.010850694444444444,0,0,0.010850694444444444,0,0)" xlink:href="#aD"/><use transform="matrix(0.010850694444444444,0,0,0.010850694444444444,16.080729166666664,0)" xlink:href="#ai"/><use transform="matrix(0.010850694444444444,0,0,0.010850694444444444,30.088975694444443,0)" xlink:href="#N"/><use transform="matrix(0.010850694444444444,0,0,0.010850694444444444,43.717447916666664,0)" xlink:href="#aE"/><use transform="matrix(0.010850694444444444,0,0,0.010850694444444444,57.72569444444444,0)" xlink:href="#Q"/></g><path d="M443 0L31-1118h319c90 293 199 572 268 885 66-313 175-593 264-885h315L784 0H443" id="aF"/><g id="o"><use transform="matrix(0.010850694444444444,0,0,0.010850694444444444,0,0)" xlink:href="#am"/><use transform="matrix(0.010850694444444444,0,0,0.010850694444444444,14.55078125,0)" xlink:href="#Q"/><use transform="matrix(0.010850694444444444,0,0,0.010850694444444444,27.78862847222222,0)" xlink:href="#R"/><use transform="matrix(0.010850694444444444,0,0,0.010850694444444444,37.18532986111111,0)" xlink:href="#aF"/><use transform="matrix(0.010850694444444444,0,0,0.010850694444444444,50.10850694444444,0)" xlink:href="#Q"/><use transform="matrix(0.010850694444444444,0,0,0.010850694444444444,63.346354166666664,0)" xlink:href="#R"/></g><path d="M180 0v-1490h510c348 0 508 209 508 474 0 266-160 477-507 477H370V0H180zm190-706h312c236 0 327-133 327-310 0-176-91-307-329-307H370v617" id="aG"/><path d="M180 0v-1490h901v168H370v510h643v168H370V0H180" id="aH"/><g id="p"><use transform="matrix(0.010850694444444444,0,0,0.010850694444444444,0,0)" xlink:href="#aG"/><use transform="matrix(0.010850694444444444,0,0,0.010850694444444444,14.192708333333332,0)" xlink:href="#ax"/><use transform="matrix(0.010850694444444444,0,0,0.010850694444444444,30.23003472222222,0)" xlink:href="#aH"/></g><g id="q"><use transform="matrix(0.010850694444444444,0,0,0.010850694444444444,0,0)" xlink:href="#au"/><use transform="matrix(0.010850694444444444,0,0,0.010850694444444444,7.052951388888888,0)" xlink:href="#aa"/></g><path d="M784 20c-382 0-662-292-662-764 0-473 280-766 662-766s660 293 660 766c0 472-278 764-660 764zm0-176c266 0 475-207 475-588 0-383-209-590-475-590-268 0-477 208-477 590 0 380 209 588 477 588" id="aI"/><path d="M783 20c-382 0-661-292-661-764 0-473 279-766 661-766 302 0 548 182 601 489h-190c-42-204-217-313-411-313-268 0-476 208-476 590 0 381 209 588 476 588 195 0 369-110 411-313h190c-52 303-296 489-601 489" id="aJ"/><path d="M57 0l534-763-501-727h220c122 187 296 416 391 605 94-191 272-419 396-605h215L811-770 1340 0h-219C986-204 811-426 699-640 588-430 407-202 273 0H57" id="aK"/><g id="r"><use transform="matrix(0.010850694444444444,0,0,0.010850694444444444,0,0)" xlink:href="#ax"/><use transform="matrix(0.010850694444444444,0,0,0.010850694444444444,16.03732638888889,0)" xlink:href="#aI"/><use transform="matrix(0.010850694444444444,0,0,0.010850694444444444,33.029513888888886,0)" xlink:href="#aJ"/><use transform="matrix(0.010850694444444444,0,0,0.010850694444444444,49.142795138888886,0)" xlink:href="#aK"/></g><path d="M613 24c-304 0-509-231-509-576 0-350 205-580 509-580 216 0 392 114 453 309l-173 49c-33-115-133-197-280-197-223 0-326 196-326 419 0 220 103 415 326 415 150 0 252-85 285-206l172 49C1010-95 832 24 613 24" id="aL"/><g id="s"><use transform="matrix(0.010850694444444444,0,0,0.010850694444444444,0,0)" xlink:href="#an"/><use transform="matrix(0.010850694444444444,0,0,0.010850694444444444,14.2578125,0)" xlink:href="#ae"/><use transform="matrix(0.010850694444444444,0,0,0.010850694444444444,27.213541666666664,0)" xlink:href="#ap"/><use transform="matrix(0.010850694444444444,0,0,0.010850694444444444,35.92664930555555,0)" xlink:href="#Z"/><use transform="matrix(0.010850694444444444,0,0,0.010850694444444444,48.41579861111111,0)" xlink:href="#aq"/><use transform="matrix(0.010850694444444444,0,0,0.010850694444444444,53.79774305555556,0)" xlink:href="#aL"/><use transform="matrix(0.010850694444444444,0,0,0.010850694444444444,66.49305555555554,0)" xlink:href="#ae"/></g><path d="M135 0v-1490h468l242 684c30 94 76 293 111 455 34-161 80-360 110-455l238-684h470V0h-307c0-447-3-765 11-1227-122 503-246 788-395 1227H826C676-435 552-717 427-1215c15 453 11 775 11 1215H135" id="aM"/><g id="t"><use transform="matrix(0.010850694444444444,0,0,0.010850694444444444,0,0)" xlink:href="#aM"/><use transform="matrix(0.010850694444444444,0,0,0.010850694444444444,20.703125,0)" xlink:href="#am"/></g><path d="M120 0v-182l551-686v-8H137v-242h897v199L514-250v8h539V0H120" id="aN"/><path d="M513 14c-232 0-385-159-385-421v-711h300v659c0 139 76 222 202 222 127 0 217-86 217-234v-647h301V0H864l-4-232C797-74 683 14 513 14" id="aO"/><g id="u"><use transform="matrix(0.010850694444444444,0,0,0.010850694444444444,0,0)" xlink:href="#aD"/><use transform="matrix(0.010850694444444444,0,0,0.010850694444444444,16.590711805555554,0)" xlink:href="#aN"/><use transform="matrix(0.010850694444444444,0,0,0.010850694444444444,29.31857638888889,0)" xlink:href="#aO"/><use transform="matrix(0.010850694444444444,0,0,0.010850694444444444,43.15321180555555,0)" xlink:href="#R"/><use transform="matrix(0.010850694444444444,0,0,0.010850694444444444,51.660156249999986,0)" xlink:href="#Q"/></g><g id="v"><use transform="matrix(0.010850694444444444,0,0,0.010850694444444444,0,0)" xlink:href="#aI"/><use transform="matrix(0.010850694444444444,0,0,0.010850694444444444,16.9921875,0)" xlink:href="#ao"/><use transform="matrix(0.010850694444444444,0,0,0.010850694444444444,30.598958333333332,0)" xlink:href="#ae"/><use transform="matrix(0.010850694444444444,0,0,0.010850694444444444,43.5546875,0)" xlink:href="#ar"/><use transform="matrix(0.010850694444444444,0,0,0.010850694444444444,56.68402777777778,0)" xlink:href="#av"/><use transform="matrix(0.010850694444444444,0,0,0.010850694444444444,72.01605902777777,0)" xlink:href="#aw"/></g><path d="M140 405l46-156c120 36 205 19 263-150l32-93L54-1118h197c107 313 237 620 324 950 87-331 219-637 326-950h196L606 167c-68 178-176 259-334 259-64 0-113-12-132-21" id="aP"/><g id="w"><use transform="matrix(0.010850694444444444,0,0,0.010850694444444444,0,0)" xlink:href="#ax"/><use transform="matrix(0.010850694444444444,0,0,0.010850694444444444,16.03732638888889,0)" xlink:href="#ae"/><use transform="matrix(0.010850694444444444,0,0,0.010850694444444444,28.99305555555556,0)" xlink:href="#ao"/><use transform="matrix(0.010850694444444444,0,0,0.010850694444444444,42.599826388888886,0)" xlink:href="#ab"/><use transform="matrix(0.010850694444444444,0,0,0.010850694444444444,47.98177083333333,0)" xlink:href="#aa"/><use transform="matrix(0.010850694444444444,0,0,0.010850694444444444,60.87239583333333,0)" xlink:href="#aP"/><use transform="matrix(0.010850694444444444,0,0,0.010850694444444444,73.36154513888889,0)" xlink:href="#ad"/><use transform="matrix(0.010850694444444444,0,0,0.010850694444444444,92.82769097222221,0)" xlink:href="#ae"/><use transform="matrix(0.010850694444444444,0,0,0.010850694444444444,105.78342013888889,0)" xlink:href="#ar"/><use transform="matrix(0.010850694444444444,0,0,0.010850694444444444,118.91276041666666,0)" xlink:href="#au"/></g><path d="M75-1237v-253h1217v253H837V0H531v-1237H75" id="aQ"/><path d="M750 21c-371 0-615-218-615-544v-967h305v942c0 174 123 299 310 299s309-125 309-299v-942h306v967c0 326-247 544-615 544" id="aR"/><g id="x"><use transform="matrix(0.010850694444444444,0,0,0.010850694444444444,0,0)" xlink:href="#aQ"/><use transform="matrix(0.010850694444444444,0,0,0.010850694444444444,14.832899305555555,0)" xlink:href="#aR"/><use transform="matrix(0.010850694444444444,0,0,0.010850694444444444,31.098090277777775,0)" xlink:href="#aM"/></g><path d="M128 0v-1118h300V0H128zm150-1264c-91 0-165-68-165-154 0-85 74-154 165-154 90 0 165 69 165 154 0 86-75 154-165 154" id="aS"/><path d="M428-1490V0H128v-1490h300" id="aT"/><g id="y"><use transform="matrix(0.010850694444444444,0,0,0.010850694444444444,0,0)" xlink:href="#aM"/><use transform="matrix(0.010850694444444444,0,0,0.010850694444444444,20.703125,0)" xlink:href="#aj"/><use transform="matrix(0.010850694444444444,0,0,0.010850694444444444,33.60460069444444,0)" xlink:href="#aS"/><use transform="matrix(0.010850694444444444,0,0,0.010850694444444444,39.62673611111111,0)" xlink:href="#aT"/></g><path d="M180 0v-1490h270l367 940c28 72 75 218 110 339 35-117 81-264 110-339l362-940h271V0h-187c2-448-5-837 7-1287-157 497-311 829-483 1287H842C666-458 514-784 354-1284c12 438 5 843 7 1284H180" id="aU"/><path d="M98-1322v-168h1126v168H757V0H567v-1322H98" id="aV"/><g id="z"><use transform="matrix(0.010850694444444444,0,0,0.010850694444444444,0,0)" xlink:href="#an"/><use transform="matrix(0.010850694444444444,0,0,0.010850694444444444,14.2578125,0)" xlink:href="#aU"/><use transform="matrix(0.010850694444444444,0,0,0.010850694444444444,34.33159722222222,0)" xlink:href="#aV"/><use transform="matrix(0.010850694444444444,0,0,0.010850694444444444,48.67621527777778,0)" xlink:href="#aG"/></g><g id="A"><use transform="matrix(0.010850694444444444,0,0,0.010850694444444444,0,0)" xlink:href="#aR"/><use transform="matrix(0.010850694444444444,0,0,0.010850694444444444,16.26519097222222,0)" xlink:href="#T"/><use transform="matrix(0.010850694444444444,0,0,0.010850694444444444,28.7109375,0)" xlink:href="#Q"/><use transform="matrix(0.010850694444444444,0,0,0.010850694444444444,41.94878472222222,0)" xlink:href="#R"/></g><g id="B"><use transform="matrix(0.010850694444444444,0,0,0.010850694444444444,0,0)" xlink:href="#M"/><use transform="matrix(0.010850694444444444,0,0,0.010850694444444444,16.048177083333332,0)" xlink:href="#Q"/><use transform="matrix(0.010850694444444444,0,0,0.010850694444444444,28.884548611111104,0)" xlink:href="#aF"/><use transform="matrix(0.010850694444444444,0,0,0.010850694444444444,42.209201388888886,0)" xlink:href="#aS"/><use transform="matrix(0.010850694444444444,0,0,0.010850694444444444,48.23133680555556,0)" xlink:href="#O"/><use transform="matrix(0.010850694444444444,0,0,0.010850694444444444,61.30642361111111,0)" xlink:href="#Q"/></g><path d="M180 0v-1490h510c348 0 508 194 508 460 0 198-88 351-276 417L1256 0h-220L726-579c-117 2-238 0-356 1V0H180zm190-747h312c235 0 327-108 327-283 0-177-92-293-329-293H370v576" id="aW"/><g id="C"><use transform="matrix(0.010850694444444444,0,0,0.010850694444444444,0,0)" xlink:href="#aW"/><use transform="matrix(0.010850694444444444,0,0,0.010850694444444444,13.975694444444445,0)" xlink:href="#ae"/><use transform="matrix(0.010850694444444444,0,0,0.010850694444444444,27.1484375,0)" xlink:href="#ay"/><use transform="matrix(0.010850694444444444,0,0,0.010850694444444444,39.626736111111114,0)" xlink:href="#aL"/><use transform="matrix(0.010850694444444444,0,0,0.010850694444444444,52.32204861111112,0)" xlink:href="#au"/></g><g id="D"><use transform="matrix(0.010850694444444444,0,0,0.010850694444444444,0,0)" xlink:href="#av"/><use transform="matrix(0.010850694444444444,0,0,0.010850694444444444,15.33203125,0)" xlink:href="#ao"/><use transform="matrix(0.010850694444444444,0,0,0.010850694444444444,28.938802083333332,0)" xlink:href="#ao"/></g><path fill="#333" d="M135 0v-1490h581c339 0 533 192 533 485 0 204-94 351-264 424L1302 0H964L680-532H440V0H135zm305-779h220c186 0 274-77 274-226 0-150-88-233-275-233H440v459" id="aX"/><path fill="#333" d="M135 0v-1490h997v253H440v360h640v249H440v375h694V0H135" id="aY"/><path fill="#333" d="M681 22C323 22 94-145 85-462h297c10 151 131 226 296 226 163 0 271-77 271-190 0-102-95-149-257-189l-164-41c-252-61-403-188-403-405 0-269 236-449 560-449 330 0 546 183 551 445H941c-11-119-106-188-259-188-156 0-244 72-244 172-3 156 226 185 373 221 250 61 445 186 445 436 0 271-213 446-575 446" id="aZ"/><path fill="#333" d="M75-1237v-253h1217v253H837V0H531v-1237H75" id="ba"/><g id="E"><use transform="matrix(0.008680555555555556,0,0,0.008680555555555556,0,0)" xlink:href="#aX"/><use transform="matrix(0.008680555555555556,0,0,0.008680555555555556,11.675347222222223,0)" xlink:href="#aY"/><use transform="matrix(0.008680555555555556,0,0,0.008680555555555556,22.473958333333336,0)" xlink:href="#aZ"/><use transform="matrix(0.008680555555555556,0,0,0.008680555555555556,34.114583333333336,0)" xlink:href="#ba"/></g><path fill="#333" d="M750-1118v229H516V0H217v-889H20v-229h197v-86c0-238 156-356 363-356 94 0 178 20 215 31l-54 226c-25-7-61-15-100-15-123-3-131 84-125 200h234" id="bb"/><path fill="#333" d="M628 22C291 22 81-210 81-554c0-346 210-578 547-578 336 0 547 232 547 578 0 344-211 576-547 576zm0-236c160 0 242-146 242-341 0-197-82-341-242-341S387-753 387-555c0 195 81 341 241 341" id="bc"/><path fill="#333" d="M128 0v-1118h290v195h12c54-169 184-238 367-200v268c-27-8-86-15-130-15-138 0-239 95-239 234V0H128" id="bd"/><path fill="#333" d="M361 0L31-1118h315c68 295 127 523 188 845 63-317 128-551 199-845h276c71 296 131 525 196 846 57-321 119-552 186-846h319L1378 0h-305c-73-261-148-486-204-771C813-484 740-261 666 0H361" id="be"/><path fill="#333" d="M440 22C227 22 68-92 68-313c0-250 202-322 422-343 195-21 271-24 271-105 0-95-63-149-175-149-116 0-187 57-211 129l-275-46c57-194 237-305 487-305 240 0 474 108 474 379V0H777v-155h-10C713-51 605 22 440 22zm85-211c140 0 238-93 238-211v-121c-37 26-156 42-222 51-111 16-185 59-185 149 0 87 70 132 169 132" id="bf"/><path fill="#333" d="M537 19C279 19 81-185 81-557c0-382 206-575 454-575 190 0 278 113 318 202h10v-560h300V0H868v-179h-15C812-89 719 19 537 19zm92-241c153 0 240-134 240-336 0-203-86-334-240-334-158 0-240 138-240 334 0 197 84 336 240 336" id="bg"/><path fill="#333" d="M572 22C302 22 117-98 78-306l279-48c29 105 101 156 224 156 114 0 185-48 185-115 0-118-228-130-337-155-215-49-322-150-322-317 0-215 187-347 470-347 265 0 424 116 466 298l-266 47c-24-76-87-130-196-130-98 0-174 46-174 113 0 56 38 95 144 117l201 40c216 44 320 143 320 302 0 220-207 367-500 367" id="bh"/><g id="F"><use transform="matrix(0.008680555555555556,0,0,0.008680555555555556,0,0)" xlink:href="#bb"/><use transform="matrix(0.008680555555555556,0,0,0.008680555555555556,6.692708333333333,0)" xlink:href="#bc"/><use transform="matrix(0.008680555555555556,0,0,0.008680555555555556,17.59548611111111,0)" xlink:href="#bd"/><use transform="matrix(0.008680555555555556,0,0,0.008680555555555556,24.982638888888886,0)" xlink:href="#be"/><use transform="matrix(0.008680555555555556,0,0,0.008680555555555556,40.05208333333333,0)" xlink:href="#bf"/><use transform="matrix(0.008680555555555556,0,0,0.008680555555555556,50.373263888888886,0)" xlink:href="#bd"/><use transform="matrix(0.008680555555555556,0,0,0.008680555555555556,57.178819444444436,0)" xlink:href="#bg"/><use transform="matrix(0.008680555555555556,0,0,0.008680555555555556,68.38541666666667,0)" xlink:href="#bh"/></g><path fill="#333" d="M128 0v-1118h278l12 217c60-163 185-234 319-234 143 0 236 81 288 251 63-172 205-251 359-251 205 0 357 138 357 381V0h-301v-697c0-126-76-187-177-187-114 0-184 79-184 196V0H789v-705c0-109-72-179-174-179-106 0-187 74-187 208V0H128" id="bi"/><path fill="#333" d="M513 14c-232 0-385-159-385-421v-711h300v659c0 139 76 222 202 222 127 0 217-86 217-234v-647h301V0H864l-4-232C797-74 683 14 513 14" id="bj"/><path fill="#333" d="M428-647V0H128v-1118h283l4 231c63-156 176-245 348-245 232 0 384 159 384 421V0H847v-659c0-139-76-222-202-222-128 0-217 86-217 234" id="bk"/><path fill="#333" d="M683-1118v229H474v562c0 71 29 104 102 104 23 0 73-7 95-13l43 225C647 9 580 16 520 16 296 16 174-96 174-301v-588H20v-229h154v-266h300v266h209" id="bl"/><g id="G"><use transform="matrix(0.008680555555555556,0,0,0.008680555555555556,0,0)" xlink:href="#bi"/><use transform="matrix(0.008680555555555556,0,0,0.008680555555555556,16.223958333333336,0)" xlink:href="#bc"/><use transform="matrix(0.008680555555555556,0,0,0.008680555555555556,27.12673611111111,0)" xlink:href="#bj"/><use transform="matrix(0.008680555555555556,0,0,0.008680555555555556,38.19444444444444,0)" xlink:href="#bk"/><use transform="matrix(0.008680555555555556,0,0,0.008680555555555556,49.262152777777786,0)" xlink:href="#bl"/><use transform="matrix(0.008680555555555556,0,0,0.008680555555555556,55.642361111111114,0)" xlink:href="#bh"/></g><path fill="#333" d="M135 0v-1490h468l242 684c30 94 76 293 111 455 34-161 80-360 110-455l238-684h470V0h-307c0-447-3-765 11-1227-122 503-246 788-395 1227H826C676-435 552-717 427-1215c15 453 11 775 11 1215H135" id="bm"/><path fill="#333" d="M135 0v-1490h581c339 0 533 210 533 503 0 295-197 500-540 500H440V0H135zm305-733h220c186 0 274-104 274-254s-88-251-275-251H440v505" id="bn"/><g id="H"><use transform="matrix(0.008680555555555556,0,0,0.008680555555555556,0,0)" xlink:href="#aZ"/><use transform="matrix(0.008680555555555556,0,0,0.008680555555555556,11.640625,0)" xlink:href="#bm"/><use transform="matrix(0.008680555555555556,0,0,0.008680555555555556,28.203125,0)" xlink:href="#ba"/><use transform="matrix(0.008680555555555556,0,0,0.008680555555555556,40.06944444444444,0)" xlink:href="#bn"/></g><path d="M180 0v-1490h908v168H370v486h669v168H370v500h727V0H180" id="bo"/><g id="I"><use transform="matrix(0.010850694444444444,0,0,0.010850694444444444,0,0)" xlink:href="#bo"/><use transform="matrix(0.010850694444444444,0,0,0.010850694444444444,13.35720486111111,0)" xlink:href="#aC"/><use transform="matrix(0.010850694444444444,0,0,0.010850694444444444,25.48828125,0)" xlink:href="#aq"/><use transform="matrix(0.010850694444444444,0,0,0.010850694444444444,30.870225694444443,0)" xlink:href="#aA"/><use transform="matrix(0.010850694444444444,0,0,0.010850694444444444,42.599826388888886,0)" xlink:href="#au"/><use transform="matrix(0.010850694444444444,0,0,0.010850694444444444,49.869791666666664,0)" xlink:href="#aq"/><use transform="matrix(0.010850694444444444,0,0,0.010850694444444444,55.25173611111111,0)" xlink:href="#ar"/><use transform="matrix(0.010850694444444444,0,0,0.010850694444444444,68.38107638888889,0)" xlink:href="#as"/></g><path d="M409 0L70-1118h191c89 329 165 560 243 925 75-353 154-601 240-925h192c85 325 161 564 235 922 77-354 157-598 244-922h191L1267 0h-179c-86-307-176-590-250-913C763-588 675-308 588 0H409" id="bp"/><g id="J"><use transform="matrix(0.010850694444444444,0,0,0.010850694444444444,0,0)" xlink:href="#aB"/><use transform="matrix(0.010850694444444444,0,0,0.010850694444444444,16.74262152777778,0)" xlink:href="#ae"/><use transform="matrix(0.010850694444444444,0,0,0.010850694444444444,29.296875,0)" xlink:href="#bp"/></g><path d="M577 24c-279 0-473-224-473-580 0-354 195-576 474-576 218 0 287 134 324 193h14v-551h180V0H922v-173h-20C865-111 790 24 577 24zm27-161c203 0 314-172 314-421 0-247-108-413-314-413-212 0-317 181-317 413 0 235 108 421 317 421" id="bq"/><g id="K"><use transform="matrix(0.010850694444444444,0,0,0.010850694444444444,0,0)" xlink:href="#aU"/><use transform="matrix(0.010850694444444444,0,0,0.010850694444444444,20.07378472222222,0)" xlink:href="#aq"/><use transform="matrix(0.010850694444444444,0,0,0.010850694444444444,25.455729166666664,0)" xlink:href="#as"/><use transform="matrix(0.010850694444444444,0,0,0.010850694444444444,39.084201388888886,0)" xlink:href="#ap"/><use transform="matrix(0.010850694444444444,0,0,0.010850694444444444,47.45008680555556,0)" xlink:href="#ay"/><use transform="matrix(0.010850694444444444,0,0,0.010850694444444444,59.92838541666666,0)" xlink:href="#au"/><use transform="matrix(0.010850694444444444,0,0,0.010850694444444444,66.98133680555554,0)" xlink:href="#ae"/><use transform="matrix(0.010850694444444444,0,0,0.010850694444444444,79.93706597222221,0)" xlink:href="#bq"/></g><path d="M678-1118v154H420V0H240v-964H20v-154h220v-149c0-194 155-293 318-293 85 0 141 18 168 30l-50 154c-19-6-47-17-97-17-111 0-159 58-159 166v109h258" id="br"/><g id="L"><use transform="matrix(0.010850694444444444,0,0,0.010850694444444444,0,0)" xlink:href="#aU"/><use transform="matrix(0.010850694444444444,0,0,0.010850694444444444,20.07378472222222,0)" xlink:href="#aa"/><use transform="matrix(0.010850694444444444,0,0,0.010850694444444444,33.3984375,0)" xlink:href="#bq"/><use transform="matrix(0.010850694444444444,0,0,0.010850694444444444,47.00520833333333,0)" xlink:href="#aq"/><use transform="matrix(0.010850694444444444,0,0,0.010850694444444444,52.38715277777778,0)" xlink:href="#br"/><use transform="matrix(0.010850694444444444,0,0,0.010850694444444444,60.61197916666666,0)" xlink:href="#aq"/><use transform="matrix(0.010850694444444444,0,0,0.010850694444444444,65.9939236111111,0)" xlink:href="#ae"/><use transform="matrix(0.010850694444444444,0,0,0.010850694444444444,78.94965277777777,0)" xlink:href="#bq"/></g></defs></g></svg>