<svg xmlns="http://www.w3.org/2000/svg" xmlns:xlink="http://www.w3.org/1999/xlink" xmlns:lucid="lucid" width="1405.18" height="1663.41"><g transform="translate(-2257.2379500648185 1047.3149031009655)" lucid:page-tab-id="0_0"><path d="M-1500-1500h7500v3000h-7500z" fill="#fff"/><path d="M2260-908.56l163.6-136.34H3660V154.88l-136.34 163.6H2260z" stroke="#333" stroke-width="2" fill="#fff"/><path d="M2260-908.56l163.6-136.34H3660l-136.34 136.34z" stroke="#333" stroke-width="2" fill="#e6e6e6"/><path d="M3523.66-908.56L3660-1044.9V154.88l-136.34 163.6z" stroke="#333" stroke-width="2" fill="#ccc"/><use xlink:href="#a" transform="matrix(1,0,0,1,2268,-900.562084515711) translate(441.6276041666667 21.52777777777778)"/><use xlink:href="#b" transform="matrix(1,0,0,1,2268,-900.562084515711) translate(447.8776041666667 21.52777777777778)"/><use xlink:href="#c" transform="matrix(1,0,0,1,2268,-900.562084515711) translate(428.4494357638889 47.56944444444444)"/><use xlink:href="#d" transform="matrix(1,0,0,1,2268,-900.562084515711) translate(504.3500434027778 47.56944444444444)"/><path d="M2300-724.9a17.08 17.08 0 0 1 6.15-13.12l98.1-81.76a22.1 22.1 0 0 1 14.15-5.12H3212a8 8 0 0 1 8 8V96.7a22.1 22.1 0 0 1-5.12 14.14l-81.76 98.1a17.08 17.08 0 0 1-13.12 6.16h-812a8 8 0 0 1-8-8z" stroke="#000" stroke-width="2" fill="#fff"/><path d="M2308-732.9a2.9 2.9 0 0 1-1.85-5.12l98.1-81.76a22.1 22.1 0 0 1 14.15-5.12H3212a3.3 3.3 0 0 1 2.34 5.66l-80.68 80.68a19.3 19.3 0 0 1-13.66 5.66z" stroke="#000" stroke-width="2" fill="#e6e6e6"/><path d="M3128-724.9a19.3 19.3 0 0 1 5.66-13.66l80.68-80.68a3.3 3.3 0 0 1 5.66 2.34V96.7a22.1 22.1 0 0 1-5.12 14.14l-81.76 98.1a2.9 2.9 0 0 1-5.12-1.84z" stroke="#000" stroke-width="2" fill="#ccc"/><use xlink:href="#a" transform="matrix(1,0,0,1,2308,-724.9006895385924) translate(188.8836805555556 21.52777777777778)"/><use xlink:href="#e" transform="matrix(1,0,0,1,2308,-724.9006895385924) translate(195.1336805555556 21.52777777777778)"/><use xlink:href="#f" transform="matrix(1,0,0,1,2308,-724.9006895385924) translate(313.796875 21.52777777777778)"/><use xlink:href="#c" transform="matrix(1,0,0,1,2308,-724.9006895385924) translate(236.62131076388889 47.56944444444444)"/><use xlink:href="#g" transform="matrix(1,0,0,1,2308,-724.9006895385924) translate(312.52191840277777 47.56944444444444)"/><use xlink:href="#h" transform="matrix(1,0,0,1,2308,-724.9006895385924) translate(258.80555555555554 78.81944444444444)"/><path d="M2780-634.9l36-30h264v454.72l-30 36h-270z" stroke="#333" stroke-width="2" fill="#fff"/><path d="M2780-634.9l36-30h264l-30 30z" stroke="#333" stroke-width="2" fill="#e6e6e6"/><path d="M3050-634.9l30-30v454.72l-30 36z" stroke="#333" stroke-width="2" fill="#ccc"/><use xlink:href="#a" transform="matrix(1,0,0,1,2788,-626.9006895385924) translate(42.033420138888886 21.52777777777778)"/><use xlink:href="#i" transform="matrix(1,0,0,1,2788,-626.9006895385924) translate(48.283420138888886 21.52777777777778)"/><use xlink:href="#j" transform="matrix(1,0,0,1,2788,-626.9006895385924) translate(77.33072916666667 47.56944444444444)"/><path d="M2320-418.57l36-30h264V6.15l-30 36h-270z" stroke="#333" stroke-width="2" fill="#fff"/><path d="M2320-418.57l36-30h264l-30 30z" stroke="#333" stroke-width="2" fill="#e6e6e6"/><path d="M2590-418.57l30-30V6.15l-30 36z" stroke="#333" stroke-width="2" fill="#ccc"/><use xlink:href="#a" transform="matrix(1,0,0,1,2328,-410.5664373839283) translate(42.033420138888886 21.52777777777778)"/><use xlink:href="#i" transform="matrix(1,0,0,1,2328,-410.5664373839283) translate(48.283420138888886 21.52777777777778)"/><use xlink:href="#k" transform="matrix(1,0,0,1,2328,-410.5664373839283) translate(73.52756076388889 47.56944444444444)"/><path d="M2894.98-415.85v58.5" stroke="#333" stroke-width="2" fill="none"/><path d="M2895.95-415.82H2894v-1.03h1.95z" stroke="#333" stroke-width=".05" fill="#333"/><path d="M2894.98-342.08l-4.64-14.27h9.27z" stroke="#333" stroke-width="2" fill="#333"/><use xlink:href="#l" transform="matrix(1,0,0,1,2902.978210373442,-391.2929018811098) translate(0.005000000000002558 21.52777777777778)"/><path d="M2440-195.85v58.5" stroke="#333" stroke-width="2" fill="none"/><path d="M2440.97-195.82h-1.94v-1.03h1.94z" stroke="#333" stroke-width=".05" fill="#333"/><path d="M2440-122.08l-4.64-14.27h9.28z" stroke="#333" stroke-width="2" fill="#333"/><use xlink:href="#m" transform="matrix(1,0,0,1,2448.0000000000005,-171.29290188110977) translate(0.005000000000002558 21.52777777777778)"/><use xlink:href="#n" transform="matrix(1,0,0,1,2448.0000000000005,-171.29290188110977) translate(99.70118055555557 21.52777777777778)"/><path d="M2646.44-266.87h-86.94v-1.95h86.94zm146.54 0h-39v-1.95h39z" stroke="#333" stroke-width=".05" fill="#333"/><path d="M2793.98-266.87h-1.03v-1.95h1.03z" fill="#333"/><path stroke="#333" stroke-width=".05" fill="#333"/><path d="M2558.5-263.2l-14.26-4.65 14.26-4.63z" fill="#333"/><path d="M2559.48-261.87l-18.4-5.98 18.4-5.98zm-12.1-5.98l10.15 3.3v-6.6z" stroke="#333" stroke-width=".05" fill="#333"/><use xlink:href="#o" transform="matrix(1,0,0,1,2646.4371678599655,-294.3462872977764) translate(0.005000000000002558 21.52777777777778)"/><use xlink:href="#p" transform="matrix(1,0,0,1,2646.4371678599655,-294.3462872977764) translate(25.661467013888892 47.56944444444444)"/><path d="M2780-56.9l33.6-28H3080v246.4l-28 33.6h-272z" stroke="#333" stroke-width="2" fill="#fff"/><path d="M2780-56.9l33.6-28H3080l-28 28z" stroke="#333" stroke-width="2" fill="#e6e6e6"/><path d="M3052-56.9l28-28v246.4l-28 33.6z" stroke="#333" stroke-width="2" fill="#ccc"/><use xlink:href="#q" transform="matrix(1,0,0,1,2787.999999999999,-48.90068953859233) translate(45.158420138888886 21.52777777777778)"/><use xlink:href="#r" transform="matrix(1,0,0,1,2787.999999999999,-48.90068953859233) translate(60.98415798611111 47.56944444444444)"/><path d="M2491.7 93.06l.13 1.76.4 1.7.66 1.58.9 1.48 1.12 1.3 1.32 1.14 1.47.9 1.6.66 1.7.4 1.75.14h129v1.95h-129.07l-2-.15-1.98-.48-1.88-.78-1.73-1.06-1.56-1.32-1.32-1.55-1.07-1.74-.78-1.9-.47-1.97-.16-2V24.16h1.95zm283.78 11.06v1.95h-36.2v-1.95z" stroke="#333" stroke-width=".05" fill="#333"/><path d="M2491.7 24.18h-1.96v-1.03h1.95z" fill="#333"/><path stroke="#333" stroke-width=".05" fill="#333"/><path d="M2790.74 105.1l-14.26 4.64v-9.28z" fill="#333"/><path d="M2793.9 105.1l-18.4 5.98V99.12zm-16.45 3.3l10.14-3.3-10.15-3.3z" stroke="#333" stroke-width=".05" fill="#333"/><use xlink:href="#o" transform="matrix(1,0,0,1,2631.7368423826415,78.60191462807431) translate(0.005000000000002558 21.52777777777778)"/><use xlink:href="#s" transform="matrix(1,0,0,1,2631.7368423826415,78.60191462807431) translate(18.451180555555553 47.56944444444444)"/><path d="M2320 407.1a17.08 17.08 0 0 1 6.15-13.12l16.5-13.76a22.1 22.1 0 0 1 14.15-5.12H2592a8 8 0 0 1 8 8v195.2a22.1 22.1 0 0 1-5.12 14.15l-13.76 16.5a17.08 17.08 0 0 1-13.12 6.15h-240a8 8 0 0 1-8-8z" stroke="#000" stroke-width="2" fill="#fff"/><path d="M2328 399.1a2.9 2.9 0 0 1-1.85-5.12l16.5-13.76a22.1 22.1 0 0 1 14.15-5.12H2592a3.3 3.3 0 0 1 2.34 5.66l-12.68 12.68a19.3 19.3 0 0 1-13.66 5.66z" stroke="#000" stroke-width="2" fill="#e6e6e6"/><path d="M2576 407.1a19.3 19.3 0 0 1 5.66-13.66l12.68-12.68a3.3 3.3 0 0 1 5.66 2.34v195.2a22.1 22.1 0 0 1-5.12 14.15l-13.76 16.5a2.9 2.9 0 0 1-5.12-1.85z" stroke="#000" stroke-width="2" fill="#ccc"/><use xlink:href="#a" transform="matrix(1,0,0,1,2328,407.09931046140764) translate(49.627604166666664 21.52777777777778)"/><use xlink:href="#b" transform="matrix(1,0,0,1,2328,407.09931046140764) translate(55.877604166666664 21.52777777777778)"/><use xlink:href="#t" transform="matrix(1,0,0,1,2328,407.09931046140764) translate(13.907118055555557 47.56944444444444)"/><use xlink:href="#u" transform="matrix(1,0,0,1,2328,407.09931046140764) translate(67.28168402777777 47.56944444444444)"/><use xlink:href="#v" transform="matrix(1,0,0,1,2328,407.09931046140764) translate(116.91276041666667 47.56944444444444)"/><path d="M2715.15 407.1a17.08 17.08 0 0 1 6.15-13.12l16.5-13.76a22.1 22.1 0 0 1 14.15-5.12h235.2a8 8 0 0 1 8 8v195.2a22.1 22.1 0 0 1-5.12 14.15l-13.75 16.5a17.08 17.08 0 0 1-13.13 6.15h-240a8 8 0 0 1-8-8z" stroke="#000" stroke-width="2" fill="#fff"/><path d="M2723.15 399.1a2.9 2.9 0 0 1-1.85-5.12l16.5-13.76a22.1 22.1 0 0 1 14.15-5.12h235.2a3.3 3.3 0 0 1 2.35 5.66l-12.7 12.68a19.3 19.3 0 0 1-13.65 5.66z" stroke="#000" stroke-width="2" fill="#e6e6e6"/><path d="M2971.15 407.1a19.3 19.3 0 0 1 5.66-13.66l12.7-12.68a3.3 3.3 0 0 1 5.65 2.34v195.2a22.1 22.1 0 0 1-5.12 14.15l-13.75 16.5a2.9 2.9 0 0 1-5.13-1.85z" stroke="#000" stroke-width="2" fill="#ccc"/><use xlink:href="#a" transform="matrix(1,0,0,1,2723.154028878065,407.09931046140764) translate(49.627604166666664 21.52777777777778)"/><use xlink:href="#b" transform="matrix(1,0,0,1,2723.154028878065,407.09931046140764) translate(55.877604166666664 21.52777777777778)"/><use xlink:href="#t" transform="matrix(1,0,0,1,2723.154028878065,407.09931046140764) translate(14.373697916666671 47.56944444444444)"/><use xlink:href="#w" transform="matrix(1,0,0,1,2723.154028878065,407.09931046140764) translate(67.74826388888889 47.56944444444444)"/><use xlink:href="#v" transform="matrix(1,0,0,1,2723.154028878065,407.09931046140764) translate(116.44618055555556 47.56944444444444)"/><path d="M3260-177.5a17.08 17.08 0 0 1 6.15-13.13l2.5-2.1a22.1 22.1 0 0 1 14.16-5.12H3472a8 8 0 0 1 8 8v92.58a22.1 22.1 0 0 1-5.12 14.15l-2.1 2.5a17.08 17.08 0 0 1-13.12 6.16H3268a8 8 0 0 1-8-8z" stroke="#000" stroke-width="2" fill="#fff"/><path d="M3268-185.5a2.9 2.9 0 0 1-1.85-5.13l2.5-2.1a22.1 22.1 0 0 1 14.16-5.12H3472a3.3 3.3 0 0 1 2.34 5.66l-1.02 1.03a19.3 19.3 0 0 1-13.66 5.66z" stroke="#000" stroke-width="2" fill="#e6e6e6"/><path d="M3467.66-177.5a19.3 19.3 0 0 1 5.66-13.67l1.02-1.02a3.3 3.3 0 0 1 5.66 2.35v92.58a22.1 22.1 0 0 1-5.12 14.15l-2.1 2.5a2.9 2.9 0 0 1-5.12-1.84z" stroke="#000" stroke-width="2" fill="#ccc"/><use xlink:href="#a" transform="matrix(1,0,0,1,3268,-177.51028644156176) translate(25.291015625 21.52777777777778)"/><use xlink:href="#x" transform="matrix(1,0,0,1,3268,-177.51028644156176) translate(31.541015625 21.52777777777778)"/><use xlink:href="#y" transform="matrix(1,0,0,1,3268,-177.51028644156176) translate(14.858072916666671 47.56944444444444)"/><use xlink:href="#z" transform="matrix(1,0,0,1,3268,-177.51028644156176) translate(61.342447916666664 47.56944444444444)"/><path d="M3260 195.44a17.08 17.08 0 0 1 6.15-13.12l2.5-2.1a22.1 22.1 0 0 1 14.16-5.12H3472a8 8 0 0 1 8 8v92.58a22.1 22.1 0 0 1-5.12 14.14l-2.1 2.52a17.08 17.08 0 0 1-13.12 6.15H3268a8 8 0 0 1-8-8z" stroke="#000" stroke-width="2" fill="#fff"/><path d="M3268 187.44a2.9 2.9 0 0 1-1.85-5.12l2.5-2.1a22.1 22.1 0 0 1 14.16-5.12H3472a3.3 3.3 0 0 1 2.34 5.66l-1.02 1.02a19.3 19.3 0 0 1-13.66 5.66z" stroke="#000" stroke-width="2" fill="#e6e6e6"/><path d="M3467.66 195.44a19.3 19.3 0 0 1 5.66-13.66l1.02-1.02a3.3 3.3 0 0 1 5.66 2.34v92.58a22.1 22.1 0 0 1-5.12 14.14l-2.1 2.52a2.9 2.9 0 0 1-5.12-1.85z" stroke="#000" stroke-width="2" fill="#ccc"/><use xlink:href="#a" transform="matrix(1,0,0,1,3268,195.437915484289) translate(25.291015625 21.52777777777778)"/><use xlink:href="#x" transform="matrix(1,0,0,1,3268,195.437915484289) translate(31.541015625 21.52777777777778)"/><use xlink:href="#A" transform="matrix(1,0,0,1,3268,195.437915484289) translate(38.165364583333336 47.56944444444444)"/><path d="M2945.84-133.93h-443.1l-1.75.14-1.7.42-1.6.66-1.46.9-1.32 1.13-1.12 1.32-.9 1.47-.67 1.6-.4 1.67-.14 1.77v3h-1.96v-3.08l.16-2 .47-1.97.78-1.9 1.07-1.73 1.32-1.55 1.55-1.32 1.72-1.06 1.88-.78 1.98-.48 2-.16h443.16zm294.66-1.9v1.96l-21.53-.06h-195.3v-1.95h195.3z" stroke="#333" stroke-width=".05" fill="#333"/><path d="M2491.7-118.85h-1.96v-1.03h1.95z" fill="#333"/><path stroke="#333" stroke-width=".05" fill="#333"/><path d="M3255.76-134.85l-14.26 4.64v-9.28z" fill="#333"/><path d="M3258.92-134.85l-18.4 5.98v-11.95zm-16.45 3.3l10.14-3.3-10.13-3.3z" stroke="#333" stroke-width=".05" fill="#333"/><use xlink:href="#B" transform="matrix(1,0,0,1,2945.8392301051454,-148.34469995525902) translate(0.005000000000002558 21.52777777777778)"/><path d="M2895.95 224.75l.14 1.77.4 1.68.66 1.6.9 1.47 1.12 1.32 1.32 1.1 1.47.9 1.6.68 1.68.4 1.77.14h131.74v1.95h-131.82l-2-.16-1.97-.47-1.88-.77-1.75-1.07-1.55-1.33-1.32-1.55-1.07-1.74-.76-1.88-.48-1.98-.16-2V177.1h1.95zm344.55 11.07v1.95h-123.9v-1.95z" stroke="#333" stroke-width=".05" fill="#333"/><path d="M2895.95 177.13H2894v-1.03h1.95z" fill="#333"/><path stroke="#333" stroke-width=".05" fill="#333"/><path d="M3255.76 236.8l-14.26 4.63v-9.27z" fill="#333"/><path d="M3258.92 236.8l-18.4 5.97V230.8zm-16.45 3.3l10.14-3.3-10.13-3.3z" stroke="#333" stroke-width=".05" fill="#333"/><use xlink:href="#B" transform="matrix(1,0,0,1,3038.757727635952,223.34832515914772) translate(0.005000000000002558 21.52777777777778)"/><path d="M2390.25 333.55l.1.07.04 21.98h-1.96l-.04-21-.1-.1v-44.84h1.95zm0-309.4v212.52h-1.95V24.15z" stroke="#333" stroke-width=".05" fill="#333"/><path d="M2390.26 24.18h-1.95v-1.03h1.96z" fill="#333"/><path stroke="#333" stroke-width=".05" fill="#333"/><path d="M2389.42 370.86l-4.64-14.26h9.27z" fill="#333"/><path d="M2389.42 374.02l-5.98-18.4h11.95zm-3.3-16.45l3.3 10.14 3.3-10.13z" stroke="#333" stroke-width=".05" fill="#333"/><use xlink:href="#o" transform="matrix(1,0,0,1,2335.50103037374,236.6665296794175) translate(0.005000000000002558 21.52777777777778)"/><use xlink:href="#C" transform="matrix(1,0,0,1,2335.50103037374,236.6665296794175) translate(19.069670138888895 47.56944444444444)"/><path d="M2762.06 355.6h-1.95v-68h1.96zM2444.2 240.9l1.32 1.12 1.48.9 1.6.66 1.68.4 1.76.14h255.27v1.95h-255.34l-2-.15-1.97-.48-1.9-.78-1.73-1.06-1.32-1.13v-2.94l.03.05zm-3.22-7.84l.13 1.76.42 1.7.06.15h-2.03l-.37-1.54-.15-2V24.16h1.94z" stroke="#333" stroke-width=".05" fill="#333"/><path d="M2440.97 24.18h-1.94v-1.03h1.94z" fill="#333"/><path stroke="#333" stroke-width=".05" fill="#333"/><path d="M2761.1 370.86l-4.65-14.26h9.27z" fill="#333"/><path d="M2761.1 374.02l-6-18.4h11.97zm-3.3-16.45l3.3 10.14 3.28-10.13z" stroke="#333" stroke-width=".05" fill="#333"/><g><use xlink:href="#o" transform="matrix(1,0,0,1,2707.31293124629,234.6116930722508) translate(0.005000000000002558 21.52777777777778)"/><use xlink:href="#D" transform="matrix(1,0,0,1,2707.31293124629,234.6116930722508) translate(24.006736111111113 47.56944444444444)"/></g><path d="M2735.15 481.1a6 6 0 0 1 6-6h188a6 6 0 0 1 6 6v108a6 6 0 0 1-6 6h-188a6 6 0 0 1-6-6z" stroke="#000" stroke-width="2" fill="#fff"/><path d="M2925.15 485.1h-15v20h15z" stroke="#000" fill="#fff"/><path d="M2915.15 488.43h-10v3.34h10zm0 10h-10v3.34h10z" stroke="#000" fill="#fff"/><g><use xlink:href="#E" transform="matrix(1,0,0,1,2735.1540288780648,475.09931046140764) translate(17.631953125000017 55.27777777777778)"/><use xlink:href="#F" transform="matrix(1,0,0,1,2735.1540288780648,475.09931046140764) translate(34.20096354166666 81.31944444444444)"/><use xlink:href="#G" transform="matrix(1,0,0,1,2735.1540288780648,475.09931046140764) translate(100.62891493055557 81.31944444444444)"/></g><path d="M2340 481.1a6 6 0 0 1 6-6h188a6 6 0 0 1 6 6v108a6 6 0 0 1-6 6h-188a6 6 0 0 1-6-6z" stroke="#000" stroke-width="2" fill="#fff"/><path d="M2530 485.1h-15v20h15z" stroke="#000" fill="#fff"/><path d="M2520 488.43h-10v3.34h10zm0 10h-10v3.34h10z" stroke="#000" fill="#fff"/><g><use xlink:href="#E" transform="matrix(1,0,0,1,2340.0000000000005,475.09931046140764) translate(17.631953125000017 55.27777777777778)"/><use xlink:href="#H" transform="matrix(1,0,0,1,2340.0000000000005,475.09931046140764) translate(44.25955729166666 81.31944444444444)"/><use xlink:href="#I" transform="matrix(1,0,0,1,2340.0000000000005,475.09931046140764) translate(119.98655381944445 81.31944444444444)"/></g><path d="M2794.98-551.85a6 6 0 0 1 6-6h188a6 6 0 0 1 6 6v128a6 6 0 0 1-6 6h-188a6 6 0 0 1-6-6z" stroke="#000" stroke-width="2" fill="#fff"/><path d="M2984.98-547.85h-15v20h15z" stroke="#000" fill="#fff"/><path d="M2974.98-544.52h-10v3.34h10zm0 10h-10v3.34h10z" stroke="#000" fill="#fff"/><g><use xlink:href="#E" transform="matrix(1,0,0,1,2794.978210373442,-557.8488914644431) translate(30.131953125000017 65.27777777777777)"/><use xlink:href="#J" transform="matrix(1,0,0,1,2794.978210373442,-557.8488914644431) translate(72.61784722222222 91.31944444444444)"/></g><path d="M2794.98 41.1a6 6 0 0 1 6-6h188a6 6 0 0 1 6 6v128a6 6 0 0 1-6 6h-188a6 6 0 0 1-6-6z" stroke="#000" stroke-width="2" fill="#fff"/><path d="M2984.98 45.1h-15v20h15z" stroke="#000" fill="#fff"/><path d="M2974.98 48.43h-10v3.34h10zm0 10h-10v3.34h10z" stroke="#000" fill="#fff"/><g><use xlink:href="#E" transform="matrix(1,0,0,1,2794.978210373441,35.09931046140764) translate(30.131953125000017 65.27777777777777)"/><use xlink:href="#K" transform="matrix(1,0,0,1,2794.978210373441,35.09931046140764) translate(40.34245659722222 91.31944444444444)"/></g><path d="M2340-111.85a6 6 0 0 1 6-6h188a6 6 0 0 1 6 6v128a6 6 0 0 1-6 6h-188a6 6 0 0 1-6-6z" stroke="#000" stroke-width="2" fill="#fff"/><path d="M2530-107.85h-15v20h15z" stroke="#000" fill="#fff"/><path d="M2520-104.52h-10v3.34h10zm0 10h-10v3.34h10z" stroke="#000" fill="#fff"/><g><use xlink:href="#E" transform="matrix(1,0,0,1,2340,-117.84889146444311) translate(30.131953125000017 65.27777777777777)"/><use xlink:href="#L" transform="matrix(1,0,0,1,2340,-117.84889146444311) translate(52.71767361111111 91.31944444444444)"/><use xlink:href="#I" transform="matrix(1,0,0,1,2340,-117.84889146444311) translate(111.5284375 91.31944444444444)"/></g><path d="M2340-331.85a6 6 0 0 1 6-6h188a6 6 0 0 1 6 6v128a6 6 0 0 1-6 6h-188a6 6 0 0 1-6-6z" stroke="#000" stroke-width="2" fill="#fff"/><path d="M2530-327.85h-15v20h15z" stroke="#000" fill="#fff"/><path d="M2520-324.52h-10v3.34h10zm0 10h-10v3.34h10z" stroke="#000" fill="#fff"/><g><use xlink:href="#E" transform="matrix(1,0,0,1,2340,-337.8488914644431) translate(30.131953125000017 65.27777777777777)"/><use xlink:href="#M" transform="matrix(1,0,0,1,2340,-337.8488914644431) translate(54.697925347222224 91.31944444444444)"/></g><path d="M2794.98-331.85a6 6 0 0 1 6-6h188a6 6 0 0 1 6 6v128a6 6 0 0 1-6 6h-188a6 6 0 0 1-6-6z" stroke="#000" stroke-width="2" fill="#fff"/><path d="M2984.98-327.85h-15v20h15z" stroke="#000" fill="#fff"/><path d="M2974.98-324.52h-10v3.34h10zm0 10h-10v3.34h10z" stroke="#000" fill="#fff"/><g><use xlink:href="#E" transform="matrix(1,0,0,1,2794.978210373442,-337.8488914644431) translate(30.131953125000017 65.27777777777777)"/><use xlink:href="#N" transform="matrix(1,0,0,1,2794.978210373442,-337.8488914644431) translate(48.12782986111111 91.31944444444444)"/><use xlink:href="#O" transform="matrix(1,0,0,1,2794.978210373442,-337.8488914644431) translate(110.86654513888888 91.31944444444444)"/></g><defs><path fill="#333" d="M280-548l258 397H397L102-539v-19l295-389h141zm330 0l258 397H727L432-539v-19l295-389h141" id="P"/><path fill="#333" d="M577 24c-279 0-473-224-473-580 0-354 195-576 474-576 218 0 287 134 324 193h14v-551h180V0H922v-173h-20C865-111 790 24 577 24zm27-161c203 0 314-172 314-421 0-247-108-413-314-413-212 0-317 181-317 413 0 235 108 421 317 421" id="Q"/><path fill="#333" d="M628 24c-324 0-524-230-524-574 0-343 198-582 503-582 237 0 487 146 487 559v75H286c9 234 145 362 343 362 132 0 231-58 273-172l174 48C1024-91 857 24 628 24zM287-650h624c-17-190-120-322-304-322-192 0-309 151-320 322" id="R"/><path fill="#333" d="M481 0L54-1118h197c107 314 236 620 325 951 87-331 217-637 324-951h197L670 0H481" id="S"/><path fill="#333" d="M158 0v-1118h180V0H158zm91-1301c-68 0-125-53-125-119s57-119 125-119c69 0 126 53 126 119s-57 119-126 119" id="T"/><path fill="#333" d="M613 24c-304 0-509-231-509-576 0-350 205-580 509-580 216 0 392 114 453 309l-173 49c-33-115-133-197-280-197-223 0-326 196-326 419 0 220 103 415 326 415 150 0 252-85 285-206l172 49C1010-95 832 24 613 24" id="U"/><path fill="#333" d="M244-949l295 389v19L244-152H102l258-398-258-399h142zm349 0l295 389v19L593-152H451l258-398-258-399h142" id="V"/><g id="b"><use transform="matrix(0.010850694444444444,0,0,0.010850694444444444,0,0)" xlink:href="#P"/><use transform="matrix(0.010850694444444444,0,0,0.010850694444444444,10.42751736111111,0)" xlink:href="#Q"/><use transform="matrix(0.010850694444444444,0,0,0.010850694444444444,24.034288194444443,0)" xlink:href="#R"/><use transform="matrix(0.010850694444444444,0,0,0.010850694444444444,36.55598958333333,0)" xlink:href="#S"/><use transform="matrix(0.010850694444444444,0,0,0.010850694444444444,49.045138888888886,0)" xlink:href="#T"/><use transform="matrix(0.010850694444444444,0,0,0.010850694444444444,54.42708333333333,0)" xlink:href="#U"/><use transform="matrix(0.010850694444444444,0,0,0.010850694444444444,67.12239583333333,0)" xlink:href="#R"/><use transform="matrix(0.010850694444444444,0,0,0.010850694444444444,80.078125,0)" xlink:href="#V"/></g><path fill="#333" d="M130 0v-1456h448c435 14 673 299 665 762-5 285-130 500-319 606C822-31 708 0 581 0H130zm809-685c9-311-79-526-361-528H430v972h145c252-2 356-181 364-444" id="W"/><path fill="#333" d="M579 20C257 20 58-214 66-551c8-331 182-551 511-551 324 0 514 231 514 572 0 319-198 550-512 550zm-2-888c-169 0-222 141-222 338 0 181 61 317 224 317 170 0 223-137 223-338 0-178-64-317-225-317" id="X"/><path fill="#333" d="M355-556c-2 203 30 338 206 343 102 3 181-63 182-161h271C1001-128 821 17 566 20 242 24 66-212 66-554c0-320 184-548 498-548 262 0 451 167 450 423H743c-1-108-75-193-184-189-162 6-202 123-204 312" id="Y"/><path fill="#333" d="M504-434L400-330V0H111v-1536h289v851c106-137 222-264 333-397h347L689-631 1114 0H782" id="Z"/><path fill="#333" d="M1031-175C952-60 797 20 609 20 287 20 60-206 72-543c12-330 180-559 505-559 309 0 482 214 477 537v118H365c15 134 115 234 263 234 111 0 198-40 261-121zM770-644c5-139-62-226-194-224-130 1-191 97-208 224h402" id="aa"/><path fill="#333" d="M719-811c-143-24-279 1-319 103V0H111v-1082h273l8 129c74-124 180-175 331-136" id="ab"/><g id="c"><use transform="matrix(0.010850694444444444,0,0,0.010850694444444444,0,0)" xlink:href="#W"/><use transform="matrix(0.010850694444444444,0,0,0.010850694444444444,14.442274305555555,0)" xlink:href="#X"/><use transform="matrix(0.010850694444444444,0,0,0.010850694444444444,27.00737847222222,0)" xlink:href="#Y"/><use transform="matrix(0.010850694444444444,0,0,0.010850694444444444,38.595920138888886,0)" xlink:href="#Z"/><use transform="matrix(0.010850694444444444,0,0,0.010850694444444444,50.24956597222222,0)" xlink:href="#aa"/><use transform="matrix(0.010850694444444444,0,0,0.010850694444444444,62.26128472222222,0)" xlink:href="#ab"/></g><path fill="#333" d="M1315 0h-300v-624H430V0H130v-1456h300v590h585v-590h300V0" id="ac"/><path fill="#333" d="M529-185c94 0 168-33 168-114 0-35-18-63-53-83s-91-39-168-55C219-491 90-600 90-765c0-208 203-337 432-337 246 0 451 124 453 349H686c-2-91-62-143-165-143-86 0-151 41-153 117 0 32 16 57 46 77 63 43 257 69 335 100 151 60 229 153 229 291C978-13 554 93 282-28 162-81 60-190 56-344h274c5 106 86 159 199 159" id="ad"/><path fill="#333" d="M457-330c2 83 25 111 111 112 32 0 60-2 85-7V-6c-57 17-115 26-175 26-203 0-310-102-310-307v-583H10v-212h158v-266h289v266h185v212H457v540" id="ae"/><g id="d"><use transform="matrix(0.010850694444444444,0,0,0.010850694444444444,0,0)" xlink:href="#ac"/><use transform="matrix(0.010850694444444444,0,0,0.010850694444444444,15.70095486111111,0)" xlink:href="#X"/><use transform="matrix(0.010850694444444444,0,0,0.010850694444444444,28.266059027777775,0)" xlink:href="#ad"/><use transform="matrix(0.010850694444444444,0,0,0.010850694444444444,39.69184027777778,0)" xlink:href="#ae"/></g><path fill="#333" d="M65 0l393-574-370-544h210c88 136 192 297 267 435 67-142 176-302 264-435h206L661-564 1053 0H844c-94-144-206-310-287-458C484-308 366-142 273 0H65" id="af"/><path fill="#333" d="M537 14c-226 0-379-139-379-422v-710h180v695c0 172 97 275 253 275 160 0 281-109 281-300v-670h181V0H879v-209C806-46 684 14 537 14" id="ag"/><path fill="#333" d="M598-1118v154H368v674c0 100 37 144 132 144 23 0 62-6 92-12L629-6c-37 13-88 20-134 20-193 0-307-107-307-290v-688H20v-154h168v-266h180v266h230" id="ah"/><path fill="#333" d="M613 24c-304 0-509-231-509-576 0-350 205-580 509-580 305 0 511 230 511 580 0 345-206 576-511 576zm0-161c226 0 329-195 329-415 0-222-103-419-329-419-223 0-326 196-326 419 0 220 103 415 326 415" id="ai"/><path fill="#333" d="M338-670V0H158v-1118h173l1 207c72-158 192-221 342-221 226 0 378 139 378 422V0H872v-695c0-172-96-275-252-275-161 0-282 109-282 300" id="aj"/><g id="e"><use transform="matrix(0.010850694444444444,0,0,0.010850694444444444,0,0)" xlink:href="#P"/><use transform="matrix(0.010850694444444444,0,0,0.010850694444444444,10.42751736111111,0)" xlink:href="#R"/><use transform="matrix(0.010850694444444444,0,0,0.010850694444444444,22.884114583333332,0)" xlink:href="#af"/><use transform="matrix(0.010850694444444444,0,0,0.010850694444444444,34.51605902777778,0)" xlink:href="#R"/><use transform="matrix(0.010850694444444444,0,0,0.010850694444444444,47.47178819444444,0)" xlink:href="#U"/><use transform="matrix(0.010850694444444444,0,0,0.010850694444444444,60.16710069444444,0)" xlink:href="#ag"/><use transform="matrix(0.010850694444444444,0,0,0.010850694444444444,73.30729166666666,0)" xlink:href="#ah"/><use transform="matrix(0.010850694444444444,0,0,0.010850694444444444,80.57725694444443,0)" xlink:href="#T"/><use transform="matrix(0.010850694444444444,0,0,0.010850694444444444,85.95920138888887,0)" xlink:href="#ai"/><use transform="matrix(0.010850694444444444,0,0,0.010850694444444444,99.28385416666664,0)" xlink:href="#aj"/></g><path fill="#333" d="M158 0v-1118h174v172h12c41-113 157-188 290-188 26 0 70 2 91 3v181c-11-2-60-10-108-10-161 0-279 109-279 260V0H158" id="ak"/><path fill="#333" d="M158 0v-1118h175l1 205c55-151 181-225 313-225 147 0 245 90 285 228 53-141 190-228 352-228 194 0 352 125 352 384V0h-181v-749c0-161-105-225-225-225-151 0-243 103-243 244V0H807v-767c0-124-93-207-219-207-131 0-250 92-250 270V0H158" id="al"/><g id="f"><use transform="matrix(0.010850694444444444,0,0,0.010850694444444444,0,0)" xlink:href="#R"/><use transform="matrix(0.010850694444444444,0,0,0.010850694444444444,12.955729166666666,0)" xlink:href="#aj"/><use transform="matrix(0.010850694444444444,0,0,0.010850694444444444,25.759548611111104,0)" xlink:href="#S"/><use transform="matrix(0.010850694444444444,0,0,0.010850694444444444,38.248697916666664,0)" xlink:href="#T"/><use transform="matrix(0.010850694444444444,0,0,0.010850694444444444,43.63064236111111,0)" xlink:href="#ak"/><use transform="matrix(0.010850694444444444,0,0,0.010850694444444444,51.62760416666666,0)" xlink:href="#ai"/><use transform="matrix(0.010850694444444444,0,0,0.010850694444444444,64.95225694444443,0)" xlink:href="#aj"/><use transform="matrix(0.010850694444444444,0,0,0.010850694444444444,78.0815972222222,0)" xlink:href="#al"/><use transform="matrix(0.010850694444444444,0,0,0.010850694444444444,97.54774305555553,0)" xlink:href="#R"/><use transform="matrix(0.010850694444444444,0,0,0.010850694444444444,110.5034722222222,0)" xlink:href="#aj"/><use transform="matrix(0.010850694444444444,0,0,0.010850694444444444,123.63281249999997,0)" xlink:href="#ah"/><use transform="matrix(0.010850694444444444,0,0,0.010850694444444444,130.90277777777774,0)" xlink:href="#V"/></g><path fill="#333" d="M687-225c189-1 272-84 286-260h300c-19 311-251 505-586 505C296 20 86-277 86-686c0-466 174-782 605-790 340-6 557 198 584 514H975c-15-183-92-268-284-268-100 0-173 38-225 108-63 84-76 264-76 443 0 157 24 272 72 345s122 109 225 109" id="am"/><path fill="#333" d="M741-689c-2-124-40-177-163-178-82 0-141 34-178 102V0H111v-1082h271l9 121c77-94 180-141 311-141 139 0 235 55 287 165 76-110 184-165 325-165 249 0 348 151 348 411V0h-290v-690c-2-123-39-176-163-177-87 0-147 41-180 124l1 743H741v-689" id="an"/><path fill="#333" d="M663-1102c295 0 422 250 422 571 0 300-141 549-420 551-109 0-198-38-265-114v510H111v-1498h268l10 106c70-84 161-126 274-126zm133 550c0-175-53-315-209-315-91 0-153 35-187 104v443c35 71 98 107 189 107 138 0 207-113 207-339" id="ao"/><g id="g"><use transform="matrix(0.010850694444444444,0,0,0.010850694444444444,0,0)" xlink:href="#am"/><use transform="matrix(0.010850694444444444,0,0,0.010850694444444444,14.539930555555555,0)" xlink:href="#X"/><use transform="matrix(0.010850694444444444,0,0,0.010850694444444444,27.10503472222222,0)" xlink:href="#an"/><use transform="matrix(0.010850694444444444,0,0,0.010850694444444444,46.34331597222222,0)" xlink:href="#ao"/><use transform="matrix(0.010850694444444444,0,0,0.010850694444444444,58.854166666666664,0)" xlink:href="#X"/><use transform="matrix(0.010850694444444444,0,0,0.010850694444444444,71.41927083333333,0)" xlink:href="#ad"/><use transform="matrix(0.010850694444444444,0,0,0.010850694444444444,82.84505208333333,0)" xlink:href="#aa"/></g><path fill="#333" d="M552-1102c254-4 435 134 435 383v469c1 103 15 180 43 233V0H738c-13-26-23-58-29-97C639-19 548 20 436 20 238 20 64-113 68-304c5-258 212-357 496-357h133c11-137-29-227-160-227-90 0-156 45-156 131H92c15-231 213-342 460-345zM357-325c0 76 61 124 142 124 88 0 168-45 198-105v-186H589c-152 2-232 51-232 167" id="ap"/><path fill="#333" d="M673-507H110v-233h563v233" id="aq"/><path fill="#333" d="M750-692c-1-124-48-174-173-175-81 0-142 35-183 104V0H105v-1082h272l9 125c77-97 181-145 311-145 244 0 342 151 342 403V0H750v-692" id="ar"/><path fill="#333" d="M1052-393l142-689h279L1197 0H955L750-681 545 0H304L28-1082h279l141 688 198-688h209" id="as"/><g id="h"><use transform="matrix(0.010850694444444444,0,0,0.010850694444444444,0,0)" xlink:href="#ap"/><use transform="matrix(0.010850694444444444,0,0,0.010850694444444444,11.9140625,0)" xlink:href="#ao"/><use transform="matrix(0.010850694444444444,0,0,0.010850694444444444,24.424913194444443,0)" xlink:href="#ao"/><use transform="matrix(0.010850694444444444,0,0,0.010850694444444444,36.935763888888886,0)" xlink:href="#aq"/><use transform="matrix(0.010850694444444444,0,0,0.010850694444444444,45.55121527777778,0)" xlink:href="#ar"/><use transform="matrix(0.010850694444444444,0,0,0.010850694444444444,57.99696180555555,0)" xlink:href="#aa"/><use transform="matrix(0.010850694444444444,0,0,0.010850694444444444,70.00868055555554,0)" xlink:href="#ae"/><use transform="matrix(0.010850694444444444,0,0,0.010850694444444444,77.5173611111111,0)" xlink:href="#as"/><use transform="matrix(0.010850694444444444,0,0,0.010850694444444444,93.84765624999997,0)" xlink:href="#X"/><use transform="matrix(0.010850694444444444,0,0,0.010850694444444444,106.41276041666666,0)" xlink:href="#ab"/><use transform="matrix(0.010850694444444444,0,0,0.010850694444444444,114.51822916666666,0)" xlink:href="#Z"/></g><path fill="#333" d="M471 26C259 26 90-98 90-318c0-256 228-303 435-329 202-27 287-16 287-108 0-139-79-219-234-219-161 0-248 86-283 164l-173-57c86-203 278-265 451-265 150 0 419 46 419 395V0H815v-152h-12C765-73 660 26 471 26zm31-159c199 0 310-134 310-271v-155c-30 35-226 55-295 64-131 17-246 59-246 186 0 116 97 176 231 176" id="at"/><g id="i"><use transform="matrix(0.010850694444444444,0,0,0.010850694444444444,0,0)" xlink:href="#P"/><use transform="matrix(0.010850694444444444,0,0,0.010850694444444444,10.42751736111111,0)" xlink:href="#U"/><use transform="matrix(0.010850694444444444,0,0,0.010850694444444444,23.12282986111111,0)" xlink:href="#ai"/><use transform="matrix(0.010850694444444444,0,0,0.010850694444444444,36.447482638888886,0)" xlink:href="#aj"/><use transform="matrix(0.010850694444444444,0,0,0.010850694444444444,49.576822916666664,0)" xlink:href="#ah"/><use transform="matrix(0.010850694444444444,0,0,0.010850694444444444,56.955295138888886,0)" xlink:href="#at"/><use transform="matrix(0.010850694444444444,0,0,0.010850694444444444,69.43359375,0)" xlink:href="#T"/><use transform="matrix(0.010850694444444444,0,0,0.010850694444444444,74.81553819444444,0)" xlink:href="#aj"/><use transform="matrix(0.010850694444444444,0,0,0.010850694444444444,87.94487847222221,0)" xlink:href="#R"/><use transform="matrix(0.010850694444444444,0,0,0.010850694444444444,100.90060763888889,0)" xlink:href="#ak"/><use transform="matrix(0.010850694444444444,0,0,0.010850694444444444,109.26649305555556,0)" xlink:href="#V"/></g><path fill="#333" d="M416 0H126v-1536h290V0" id="au"/><path fill="#333" d="M416 0H126v-1082h290V0zM271-1212c-92 0-162-61-162-150s68-149 162-149c93 0 162 60 162 149s-70 150-162 150" id="av"/><g id="j"><use transform="matrix(0.010850694444444444,0,0,0.010850694444444444,0,0)" xlink:href="#Y"/><use transform="matrix(0.010850694444444444,0,0,0.010850694444444444,11.588541666666666,0)" xlink:href="#au"/><use transform="matrix(0.010850694444444444,0,0,0.010850694444444444,17.48046875,0)" xlink:href="#av"/><use transform="matrix(0.010850694444444444,0,0,0.010850694444444444,23.372395833333332,0)" xlink:href="#aa"/><use transform="matrix(0.010850694444444444,0,0,0.010850694444444444,35.38411458333333,0)" xlink:href="#ar"/><use transform="matrix(0.010850694444444444,0,0,0.010850694444444444,47.82986111111111,0)" xlink:href="#ae"/></g><path fill="#333" d="M516-353l201-729h302L654 0H378L13-1082h302" id="aw"/><g id="k"><use transform="matrix(0.010850694444444444,0,0,0.010850694444444444,0,0)" xlink:href="#ad"/><use transform="matrix(0.010850694444444444,0,0,0.010850694444444444,11.42578125,0)" xlink:href="#aa"/><use transform="matrix(0.010850694444444444,0,0,0.010850694444444444,23.4375,0)" xlink:href="#ab"/><use transform="matrix(0.010850694444444444,0,0,0.010850694444444444,31.73828125,0)" xlink:href="#aw"/><use transform="matrix(0.010850694444444444,0,0,0.010850694444444444,42.82769097222222,0)" xlink:href="#aa"/><use transform="matrix(0.010850694444444444,0,0,0.010850694444444444,54.83940972222222,0)" xlink:href="#ab"/></g><path d="M538 24C308 24 148-78 108-271l171-41c32 123 123 178 257 178 156 0 256-77 256-169 0-77-54-128-164-154l-186-44c-203-48-300-148-300-305 0-192 176-326 414-326 230 0 351 112 402 269l-163 42c-31-80-94-158-238-158-133 0-233 69-233 162 0 83 57 129 188 160l169 40c203 48 298 149 298 302 0 196-179 339-441 339" id="ax"/><path d="M628 24c-324 0-524-230-524-574 0-343 198-582 503-582 237 0 487 146 487 559v75H286c9 234 145 362 343 362 132 0 231-58 273-172l174 48C1024-91 857 24 628 24zM287-650h624c-17-190-120-322-304-322-192 0-309 151-320 322" id="ay"/><path d="M158 0v-1118h174v172h12c41-113 157-188 290-188 26 0 70 2 91 3v181c-11-2-60-10-108-10-161 0-279 109-279 260V0H158" id="az"/><path d="M481 0L54-1118h197c107 314 236 620 325 951 87-331 217-637 324-951h197L670 0H481" id="aA"/><g id="l"><use transform="matrix(0.010850694444444444,0,0,0.010850694444444444,0,0)" xlink:href="#ax"/><use transform="matrix(0.010850694444444444,0,0,0.010850694444444444,11.729600694444445,0)" xlink:href="#ay"/><use transform="matrix(0.010850694444444444,0,0,0.010850694444444444,24.68532986111111,0)" xlink:href="#az"/><use transform="matrix(0.010850694444444444,0,0,0.010850694444444444,33.3984375,0)" xlink:href="#aA"/><use transform="matrix(0.010850694444444444,0,0,0.010850694444444444,45.45355902777778,0)" xlink:href="#ay"/><use transform="matrix(0.010850694444444444,0,0,0.010850694444444444,58.40928819444444,0)" xlink:href="#ax"/></g><path d="M678-1118v154H420V0H240v-964H20v-154h220v-149c0-194 155-293 318-293 85 0 141 18 168 30l-50 154c-19-6-47-17-97-17-111 0-159 58-159 166v109h258" id="aB"/><path d="M613 24c-304 0-509-231-509-576 0-350 205-580 509-580 305 0 511 230 511 580 0 345-206 576-511 576zm0-161c226 0 329-195 329-415 0-222-103-419-329-419-223 0-326 196-326 419 0 220 103 415 326 415" id="aC"/><path d="M409 0L70-1118h191c89 329 165 560 243 925 75-353 154-601 240-925h192c85 325 161 564 235 922 77-354 157-598 244-922h191L1267 0h-179c-86-307-176-590-250-913C763-588 675-308 588 0H409" id="aD"/><path d="M471 26C259 26 90-98 90-318c0-256 228-303 435-329 202-27 287-16 287-108 0-139-79-219-234-219-161 0-248 86-283 164l-173-57c86-203 278-265 451-265 150 0 419 46 419 395V0H815v-152h-12C765-73 660 26 471 26zm31-159c199 0 310-134 310-271v-155c-30 35-226 55-295 64-131 17-246 59-246 186 0 116 97 176 231 176" id="aE"/><path d="M577 24c-279 0-473-224-473-580 0-354 195-576 474-576 218 0 287 134 324 193h14v-551h180V0H922v-173h-20C865-111 790 24 577 24zm27-161c203 0 314-172 314-421 0-247-108-413-314-413-212 0-317 181-317 413 0 235 108 421 317 421" id="aF"/><g id="m"><use transform="matrix(0.010850694444444444,0,0,0.010850694444444444,0,0)" xlink:href="#aB"/><use transform="matrix(0.010850694444444444,0,0,0.010850694444444444,7.573784722222222,0)" xlink:href="#aC"/><use transform="matrix(0.010850694444444444,0,0,0.010850694444444444,20.8984375,0)" xlink:href="#az"/><use transform="matrix(0.010850694444444444,0,0,0.010850694444444444,29.44878472222222,0)" xlink:href="#aD"/><use transform="matrix(0.010850694444444444,0,0,0.010850694444444444,47.63454861111111,0)" xlink:href="#aE"/><use transform="matrix(0.010850694444444444,0,0,0.010850694444444444,60.11284722222223,0)" xlink:href="#az"/><use transform="matrix(0.010850694444444444,0,0,0.010850694444444444,68.10980902777779,0)" xlink:href="#aF"/><use transform="matrix(0.010850694444444444,0,0,0.010850694444444444,81.71657986111111,0)" xlink:href="#ax"/></g><path d="M598-1118v154H368v674c0 100 37 144 132 144 23 0 62-6 92-12L629-6c-37 13-88 20-134 20-193 0-307-107-307-290v-688H20v-154h168v-266h180v266h230" id="aG"/><g id="n"><use transform="matrix(0.010850694444444444,0,0,0.010850694444444444,0,0)" xlink:href="#aG"/><use transform="matrix(0.010850694444444444,0,0,0.010850694444444444,7.052951388888888,0)" xlink:href="#aC"/></g><path fill="#333" d="M158 418v-1536h174v179h20c37-59 106-193 324-193 279 0 474 222 474 576 0 356-194 580-473 580-213 0-288-135-325-197h-14v591H158zm492-555c209 0 317-186 317-421 0-232-105-413-317-413-206 0-314 166-314 413 0 249 111 421 314 421" id="aH"/><path fill="#333" d="M338-1490V0H158v-1490h180" id="aI"/><g id="o"><use transform="matrix(0.010850694444444444,0,0,0.010850694444444444,0,0)" xlink:href="#P"/><use transform="matrix(0.010850694444444444,0,0,0.010850694444444444,10.42751736111111,0)" xlink:href="#aH"/><use transform="matrix(0.010850694444444444,0,0,0.010850694444444444,24.034288194444443,0)" xlink:href="#ak"/><use transform="matrix(0.010850694444444444,0,0,0.010850694444444444,32.03125,0)" xlink:href="#ai"/><use transform="matrix(0.010850694444444444,0,0,0.010850694444444444,45.35590277777778,0)" xlink:href="#ah"/><use transform="matrix(0.010850694444444444,0,0,0.010850694444444444,52.40885416666667,0)" xlink:href="#ai"/><use transform="matrix(0.010850694444444444,0,0,0.010850694444444444,65.73350694444444,0)" xlink:href="#U"/><use transform="matrix(0.010850694444444444,0,0,0.010850694444444444,78.42881944444444,0)" xlink:href="#ai"/><use transform="matrix(0.010850694444444444,0,0,0.010850694444444444,91.75347222222221,0)" xlink:href="#aI"/><use transform="matrix(0.010850694444444444,0,0,0.010850694444444444,97.13541666666666,0)" xlink:href="#V"/></g><path fill="#333" d="M1288 0h-193v-673H361V0H169v-1456h192v626h734v-626h193V0" id="aJ"/><path fill="#333" d="M1175-1298H707V0H516v-1298H49v-158h1126v158" id="aK"/><path fill="#333" d="M1216-1011c-1 297-202 441-512 441H361V0H169v-1456h537c297-6 510 164 510 445zm-192 2c1-178-126-288-307-289H361v571h345c196 1 318-92 318-282" id="aL"/><g id="p"><use transform="matrix(0.010850694444444444,0,0,0.010850694444444444,0,0)" xlink:href="#aJ"/><use transform="matrix(0.010850694444444444,0,0,0.010850694444444444,15.52734375,0)" xlink:href="#aK"/><use transform="matrix(0.010850694444444444,0,0,0.010850694444444444,28.96050347222222,0)" xlink:href="#aK"/><use transform="matrix(0.010850694444444444,0,0,0.010850694444444444,42.22005208333333,0)" xlink:href="#aL"/></g><g id="q"><use transform="matrix(0.010850694444444444,0,0,0.010850694444444444,0,0)" xlink:href="#P"/><use transform="matrix(0.010850694444444444,0,0,0.010850694444444444,10.42751736111111,0)" xlink:href="#U"/><use transform="matrix(0.010850694444444444,0,0,0.010850694444444444,23.12282986111111,0)" xlink:href="#ai"/><use transform="matrix(0.010850694444444444,0,0,0.010850694444444444,36.447482638888886,0)" xlink:href="#aj"/><use transform="matrix(0.010850694444444444,0,0,0.010850694444444444,49.576822916666664,0)" xlink:href="#ah"/><use transform="matrix(0.010850694444444444,0,0,0.010850694444444444,56.955295138888886,0)" xlink:href="#at"/><use transform="matrix(0.010850694444444444,0,0,0.010850694444444444,69.43359375,0)" xlink:href="#T"/><use transform="matrix(0.010850694444444444,0,0,0.010850694444444444,74.81553819444444,0)" xlink:href="#aj"/><use transform="matrix(0.010850694444444444,0,0,0.010850694444444444,87.94487847222221,0)" xlink:href="#R"/><use transform="matrix(0.010850694444444444,0,0,0.010850694444444444,100.90060763888889,0)" xlink:href="#ak"/><use transform="matrix(0.010850694444444444,0,0,0.010850694444444444,109.26649305555556,0)" xlink:href="#V"/></g><path fill="#333" d="M505 20C221 18 69-239 69-549c0-302 153-553 438-553 119 0 211 41 277 122l12-102h262V-36c-8 305-208 458-520 462-160 1-335-76-403-170L263 80c72 81 159 121 262 121 172 1 260-107 243-294C701-18 614 20 505 20zm76-887c-165 0-223 147-223 339 0 172 66 314 221 314 88 0 151-33 189-99v-455c-39-66-101-99-187-99" id="aM"/><g id="r"><use transform="matrix(0.010850694444444444,0,0,0.010850694444444444,0,0)" xlink:href="#ao"/><use transform="matrix(0.010850694444444444,0,0,0.010850694444444444,12.510850694444445,0)" xlink:href="#X"/><use transform="matrix(0.010850694444444444,0,0,0.010850694444444444,25.07595486111111,0)" xlink:href="#ad"/><use transform="matrix(0.010850694444444444,0,0,0.010850694444444444,36.501736111111114,0)" xlink:href="#ae"/><use transform="matrix(0.010850694444444444,0,0,0.010850694444444444,44.01041666666667,0)" xlink:href="#aM"/><use transform="matrix(0.010850694444444444,0,0,0.010850694444444444,56.69487847222223,0)" xlink:href="#ab"/><use transform="matrix(0.010850694444444444,0,0,0.010850694444444444,64.59418402777779,0)" xlink:href="#aa"/><use transform="matrix(0.010850694444444444,0,0,0.010850694444444444,76.60590277777779,0)" xlink:href="#ad"/></g><path fill="#333" d="M688-137c238 0 323-102 359-325h193c-32 297-228 482-552 482-361 0-569-299-569-680 0-197 8-360 73-497 88-186 257-317 513-319 316-2 509 195 535 488h-193c-31-212-118-330-342-330-272 0-397 224-393 523v141c-3 282 115 517 376 517" id="aN"/><path fill="#333" d="M177 125H18l608-1581h158" id="aO"/><path fill="#333" d="M375 0H183v-1456h192V0" id="aP"/><g id="s"><use transform="matrix(0.010850694444444444,0,0,0.010850694444444444,0,0)" xlink:href="#aK"/><use transform="matrix(0.010850694444444444,0,0,0.010850694444444444,12.955729166666666,0)" xlink:href="#aN"/><use transform="matrix(0.010850694444444444,0,0,0.010850694444444444,27.41970486111111,0)" xlink:href="#aL"/><use transform="matrix(0.010850694444444444,0,0,0.010850694444444444,41.43880208333333,0)" xlink:href="#aO"/><use transform="matrix(0.010850694444444444,0,0,0.010850694444444444,50.59678819444444,0)" xlink:href="#aP"/><use transform="matrix(0.010850694444444444,0,0,0.010850694444444444,56.640625,0)" xlink:href="#aL"/></g><path fill="#333" d="M1226-1213H780V0H480v-1213H40v-243h1186v243" id="aQ"/><path fill="#333" d="M416-495c-3 181 88 274 258 274 169 0 257-89 257-266v-969h301v959c3 324-227 517-558 517-328 0-557-188-558-506v-970h300v961" id="aR"/><path fill="#333" d="M522-1456L896-400l372-1056h394V0h-301c-7-379 15-728 30-1085L998 0H792L400-1084c15 357 37 705 30 1084H130v-1456h392" id="aS"/><g id="t"><use transform="matrix(0.010850694444444444,0,0,0.010850694444444444,0,0)" xlink:href="#aQ"/><use transform="matrix(0.010850694444444444,0,0,0.010850694444444444,13.74782986111111,0)" xlink:href="#aR"/><use transform="matrix(0.010850694444444444,0,0,0.010850694444444444,28.37456597222222,0)" xlink:href="#aS"/></g><path fill="#333" d="M399-777c-11 316 60 556 342 556 113 0 193-24 241-72v-251H709v-221h573v581C1177-55 960 24 725 20 280 12 81-292 94-770c11-421 200-700 610-706 347-5 543 171 578 483H990c-25-157-105-241-277-241-102 0-180 38-233 115s-76 191-81 342" id="aT"/><path fill="#333" d="M1245-974c0 302-233 466-552 461H430V0H130v-1456h568c323 5 547 167 547 482zm-303 2c1-143-93-241-237-241H430v457h268c151 1 244-71 244-216" id="aU"/><g id="u"><use transform="matrix(0.010850694444444444,0,0,0.010850694444444444,0,0)" xlink:href="#aT"/><use transform="matrix(0.010850694444444444,0,0,0.010850694444444444,15.13671875,0)" xlink:href="#aU"/><use transform="matrix(0.010850694444444444,0,0,0.010850694444444444,29.47048611111111,0)" xlink:href="#aR"/></g><path fill="#333" d="M658-217c127 0 227-49 227-165 0-57-21-98-60-130-79-64-370-142-463-196-162-95-248-210-248-361 0-280 246-403 537-407 213-3 383 84 467 216 45 69 68 147 68 234H886c0-139-96-211-240-211-129 0-232 55-232 169 0 47 24 87 72 119s117 62 210 90c171 51 295 115 373 191s117 171 117 284c-2 272-237 411-528 404C331 13 78-135 69-458h301c0 161 96 241 288 241" id="aV"/><g id="v"><use transform="matrix(0.010850694444444444,0,0,0.010850694444444444,0,0)" xlink:href="#aV"/><use transform="matrix(0.010850694444444444,0,0,0.010850694444444444,13.661024305555555,0)" xlink:href="#aa"/><use transform="matrix(0.010850694444444444,0,0,0.010850694444444444,25.67274305555556,0)" xlink:href="#ab"/><use transform="matrix(0.010850694444444444,0,0,0.010850694444444444,33.97352430555556,0)" xlink:href="#aw"/><use transform="matrix(0.010850694444444444,0,0,0.010850694444444444,45.06293402777778,0)" xlink:href="#aa"/><use transform="matrix(0.010850694444444444,0,0,0.010850694444444444,57.07465277777778,0)" xlink:href="#ab"/></g><g id="w"><use transform="matrix(0.010850694444444444,0,0,0.010850694444444444,0,0)" xlink:href="#aS"/><use transform="matrix(0.010850694444444444,0,0,0.010850694444444444,19.466145833333332,0)" xlink:href="#ap"/><use transform="matrix(0.010850694444444444,0,0,0.010850694444444444,31.380208333333332,0)" xlink:href="#av"/><use transform="matrix(0.010850694444444444,0,0,0.010850694444444444,37.272135416666664,0)" xlink:href="#au"/></g><g id="x"><use transform="matrix(0.010850694444444444,0,0,0.010850694444444444,0,0)" xlink:href="#P"/><use transform="matrix(0.010850694444444444,0,0,0.010850694444444444,10.42751736111111,0)" xlink:href="#S"/><use transform="matrix(0.010850694444444444,0,0,0.010850694444444444,22.48263888888889,0)" xlink:href="#ai"/><use transform="matrix(0.010850694444444444,0,0,0.010850694444444444,35.807291666666664,0)" xlink:href="#aI"/><use transform="matrix(0.010850694444444444,0,0,0.010850694444444444,41.18923611111111,0)" xlink:href="#ag"/><use transform="matrix(0.010850694444444444,0,0,0.010850694444444444,54.32942708333333,0)" xlink:href="#al"/><use transform="matrix(0.010850694444444444,0,0,0.010850694444444444,73.79557291666666,0)" xlink:href="#R"/><use transform="matrix(0.010850694444444444,0,0,0.010850694444444444,86.75130208333333,0)" xlink:href="#V"/></g><path fill="#333" d="M1006-595H430V0H130v-1456h948v243H430v376h576v242" id="aW"/><g id="y"><use transform="matrix(0.010850694444444444,0,0,0.010850694444444444,0,0)" xlink:href="#aU"/><use transform="matrix(0.010850694444444444,0,0,0.010850694444444444,14.33376736111111,0)" xlink:href="#W"/><use transform="matrix(0.010850694444444444,0,0,0.010850694444444444,28.776041666666664,0)" xlink:href="#aW"/></g><g id="z"><use transform="matrix(0.010850694444444444,0,0,0.010850694444444444,0,0)" xlink:href="#aV"/><use transform="matrix(0.010850694444444444,0,0,0.010850694444444444,13.661024305555555,0)" xlink:href="#ae"/><use transform="matrix(0.010850694444444444,0,0,0.010850694444444444,20.84418402777778,0)" xlink:href="#X"/><use transform="matrix(0.010850694444444444,0,0,0.010850694444444444,33.40928819444444,0)" xlink:href="#ab"/><use transform="matrix(0.010850694444444444,0,0,0.010850694444444444,41.18923611111111,0)" xlink:href="#ap"/><use transform="matrix(0.010850694444444444,0,0,0.010850694444444444,53.10329861111111,0)" xlink:href="#aM"/><use transform="matrix(0.010850694444444444,0,0,0.010850694444444444,65.78776041666666,0)" xlink:href="#aa"/></g><path fill="#333" d="M488 20C204 20 66-234 66-549c0-305 140-551 424-553 105 0 192 39 261 118v-552h290V0H780l-14-115C694-25 601 20 488 20zM355-528c0 176 51 314 207 314 89 0 152-38 189-113v-427c-36-75-98-113-187-113-139 0-209 113-209 339" id="aX"/><g id="A"><use transform="matrix(0.010850694444444444,0,0,0.010850694444444444,0,0)" xlink:href="#ao"/><use transform="matrix(0.010850694444444444,0,0,0.010850694444444444,12.510850694444445,0)" xlink:href="#aM"/><use transform="matrix(0.010850694444444444,0,0,0.010850694444444444,25.1953125,0)" xlink:href="#aq"/><use transform="matrix(0.010850694444444444,0,0,0.010850694444444444,33.810763888888886,0)" xlink:href="#aX"/><use transform="matrix(0.010850694444444444,0,0,0.010850694444444444,46.33246527777778,0)" xlink:href="#ap"/><use transform="matrix(0.010850694444444444,0,0,0.010850694444444444,58.24652777777778,0)" xlink:href="#ae"/><use transform="matrix(0.010850694444444444,0,0,0.010850694444444444,65.75520833333333,0)" xlink:href="#ap"/></g><path d="M158 0v-1118h175l1 205c55-151 181-225 313-225 147 0 245 90 285 228 53-141 190-228 352-228 194 0 352 125 352 384V0h-181v-749c0-161-105-225-225-225-151 0-243 103-243 244V0H807v-767c0-124-93-207-219-207-131 0-250 92-250 270V0H158" id="aY"/><path d="M537 14c-226 0-379-139-379-422v-710h180v695c0 172 97 275 253 275 160 0 281-109 281-300v-670h181V0H879v-209C806-46 684 14 537 14" id="aZ"/><path d="M338-670V0H158v-1118h173l1 207c72-158 192-221 342-221 226 0 378 139 378 422V0H872v-695c0-172-96-275-252-275-161 0-282 109-282 300" id="ba"/><g id="B"><use transform="matrix(0.010850694444444444,0,0,0.010850694444444444,0,0)" xlink:href="#aY"/><use transform="matrix(0.010850694444444444,0,0,0.010850694444444444,19.466145833333332,0)" xlink:href="#aC"/><use transform="matrix(0.010850694444444444,0,0,0.010850694444444444,32.79079861111111,0)" xlink:href="#aZ"/><use transform="matrix(0.010850694444444444,0,0,0.010850694444444444,45.93098958333333,0)" xlink:href="#ba"/><use transform="matrix(0.010850694444444444,0,0,0.010850694444444444,59.06032986111111,0)" xlink:href="#aG"/><use transform="matrix(0.010850694444444444,0,0,0.010850694444444444,66.11328125,0)" xlink:href="#ax"/></g><path fill="#333" d="M631-137c179 0 314-70 314-231 0-71-25-127-75-166s-141-77-272-115c-165-47-285-106-360-175s-112-154-112-255c0-245 231-397 495-397 206 0 369 89 449 218 43 68 65 142 65 223H942c0-184-129-283-321-283-172 0-299 76-301 236 0 59 26 109 76 150s135 78 256 113c205 59 345 116 436 256 35 53 50 119 50 193-2 256-231 398-507 390C333 12 90-129 80-422h193c0 187 160 285 358 285" id="bb"/><g id="C"><use transform="matrix(0.010850694444444444,0,0,0.010850694444444444,0,0)" xlink:href="#aJ"/><use transform="matrix(0.010850694444444444,0,0,0.010850694444444444,15.52734375,0)" xlink:href="#aK"/><use transform="matrix(0.010850694444444444,0,0,0.010850694444444444,28.96050347222222,0)" xlink:href="#aK"/><use transform="matrix(0.010850694444444444,0,0,0.010850694444444444,42.22005208333333,0)" xlink:href="#aL"/><use transform="matrix(0.010850694444444444,0,0,0.010850694444444444,56.23914930555555,0)" xlink:href="#bb"/></g><path fill="#333" d="M417-1456L893-268l476-1188h249V0h-192c-4-403 4-794 18-1179L966 0H819L342-1176c15 384 23 773 19 1176H169v-1456h248" id="bc"/><g id="D"><use transform="matrix(0.010850694444444444,0,0,0.010850694444444444,0,0)" xlink:href="#bb"/><use transform="matrix(0.010850694444444444,0,0,0.010850694444444444,13.18359375,0)" xlink:href="#bc"/><use transform="matrix(0.010850694444444444,0,0,0.010850694444444444,32.26996527777777,0)" xlink:href="#aK"/><use transform="matrix(0.010850694444444444,0,0,0.010850694444444444,45.529513888888886,0)" xlink:href="#aL"/></g><g id="E"><use transform="matrix(0.010850694444444444,0,0,0.010850694444444444,0,0)" xlink:href="#P"/><use transform="matrix(0.010850694444444444,0,0,0.010850694444444444,10.42751736111111,0)" xlink:href="#U"/><use transform="matrix(0.010850694444444444,0,0,0.010850694444444444,23.12282986111111,0)" xlink:href="#ai"/><use transform="matrix(0.010850694444444444,0,0,0.010850694444444444,36.447482638888886,0)" xlink:href="#al"/><use transform="matrix(0.010850694444444444,0,0,0.010850694444444444,55.91362847222221,0)" xlink:href="#aH"/><use transform="matrix(0.010850694444444444,0,0,0.010850694444444444,69.52039930555554,0)" xlink:href="#ai"/><use transform="matrix(0.010850694444444444,0,0,0.010850694444444444,82.84505208333331,0)" xlink:href="#aj"/><use transform="matrix(0.010850694444444444,0,0,0.010850694444444444,95.97439236111109,0)" xlink:href="#R"/><use transform="matrix(0.010850694444444444,0,0,0.010850694444444444,108.93012152777776,0)" xlink:href="#aj"/><use transform="matrix(0.010850694444444444,0,0,0.010850694444444444,122.05946180555553,0)" xlink:href="#ah"/><use transform="matrix(0.010850694444444444,0,0,0.010850694444444444,129.32942708333331,0)" xlink:href="#V"/></g><g id="F"><use transform="matrix(0.010850694444444444,0,0,0.010850694444444444,0,0)" xlink:href="#aV"/><use transform="matrix(0.010850694444444444,0,0,0.010850694444444444,13.661024305555555,0)" xlink:href="#aS"/><use transform="matrix(0.010850694444444444,0,0,0.010850694444444444,32.8125,0)" xlink:href="#aQ"/><use transform="matrix(0.010850694444444444,0,0,0.010850694444444444,46.56032986111111,0)" xlink:href="#aU"/></g><g id="G"><use transform="matrix(0.010850694444444444,0,0,0.010850694444444444,0,0)" xlink:href="#aV"/><use transform="matrix(0.010850694444444444,0,0,0.010850694444444444,13.661024305555555,0)" xlink:href="#aa"/><use transform="matrix(0.010850694444444444,0,0,0.010850694444444444,25.67274305555556,0)" xlink:href="#ab"/><use transform="matrix(0.010850694444444444,0,0,0.010850694444444444,33.97352430555556,0)" xlink:href="#aw"/><use transform="matrix(0.010850694444444444,0,0,0.010850694444444444,45.06293402777778,0)" xlink:href="#aa"/><use transform="matrix(0.010850694444444444,0,0,0.010850694444444444,57.07465277777778,0)" xlink:href="#ab"/></g><path fill="#333" d="M1248-1138c106 220 104 603 2 820-91 195-274 338-542 338C281 20 86-300 86-759c0-291 115-515 296-629 182-114 467-115 648 0 94 60 166 141 218 250zM940-344c111-153 110-617 0-765-57-77-133-119-234-119s-177 41-233 118c-64 88-83 240-83 415 0 149 27 264 82 346s133 123 236 123c101 0 176-40 232-118" id="bd"/><g id="H"><use transform="matrix(0.010850694444444444,0,0,0.010850694444444444,0,0)" xlink:href="#bd"/><use transform="matrix(0.010850694444444444,0,0,0.010850694444444444,15.342881944444445,0)" xlink:href="#au"/><use transform="matrix(0.010850694444444444,0,0,0.010850694444444444,21.23480902777778,0)" xlink:href="#au"/><use transform="matrix(0.010850694444444444,0,0,0.010850694444444444,27.12673611111111,0)" xlink:href="#ap"/><use transform="matrix(0.010850694444444444,0,0,0.010850694444444444,39.040798611111114,0)" xlink:href="#an"/><use transform="matrix(0.010850694444444444,0,0,0.010850694444444444,58.27907986111112,0)" xlink:href="#ap"/></g><path fill="#333" d="M952-300H426L326 0H7l542-1456h278L1372 0h-319zM507-543h364l-183-545" id="be"/><path fill="#333" d="M449 0H149v-1456h300V0" id="bf"/><g id="I"><use transform="matrix(0.010850694444444444,0,0,0.010850694444444444,0,0)" xlink:href="#be"/><use transform="matrix(0.010850694444444444,0,0,0.010850694444444444,14.952256944444445,0)" xlink:href="#aU"/><use transform="matrix(0.010850694444444444,0,0,0.010850694444444444,29.28602430555556,0)" xlink:href="#bf"/></g><path fill="#333" d="M523-759l182-323h309L706-552 1027 0H717L524-340 332 0H21l321-552-307-530h310" id="bg"/><g id="J"><use transform="matrix(0.010850694444444444,0,0,0.010850694444444444,0,0)" xlink:href="#ar"/><use transform="matrix(0.010850694444444444,0,0,0.010850694444444444,12.445746527777777,0)" xlink:href="#aM"/><use transform="matrix(0.010850694444444444,0,0,0.010850694444444444,25.130208333333332,0)" xlink:href="#av"/><use transform="matrix(0.010850694444444444,0,0,0.010850694444444444,31.022135416666664,0)" xlink:href="#ar"/><use transform="matrix(0.010850694444444444,0,0,0.010850694444444444,43.46788194444444,0)" xlink:href="#bg"/></g><path fill="#333" d="M1324-760c8 308-83 532-249 661l242 190-191 169L816 11C500 58 268-97 163-316c-104-218-106-599-1-822 92-196 273-338 542-338 408 0 609 298 620 716zM938-344c111-153 110-617 0-765-57-77-133-119-234-119s-177 41-233 118c-64 88-83 240-83 415 0 149 27 264 82 346s133 123 236 123c101 0 176-40 232-118" id="bh"/><path fill="#333" d="M430-241h637V0H130v-1456h300v1215" id="bi"/><g id="K"><use transform="matrix(0.010850694444444444,0,0,0.010850694444444444,0,0)" xlink:href="#aU"/><use transform="matrix(0.010850694444444444,0,0,0.010850694444444444,14.192708333333332,0)" xlink:href="#X"/><use transform="matrix(0.010850694444444444,0,0,0.010850694444444444,26.7578125,0)" xlink:href="#ad"/><use transform="matrix(0.010850694444444444,0,0,0.010850694444444444,38.18359375,0)" xlink:href="#ae"/><use transform="matrix(0.010850694444444444,0,0,0.010850694444444444,45.69227430555556,0)" xlink:href="#aM"/><use transform="matrix(0.010850694444444444,0,0,0.010850694444444444,58.37673611111112,0)" xlink:href="#ab"/><use transform="matrix(0.010850694444444444,0,0,0.010850694444444444,66.27604166666667,0)" xlink:href="#aa"/><use transform="matrix(0.010850694444444444,0,0,0.010850694444444444,78.28776041666667,0)" xlink:href="#aV"/><use transform="matrix(0.010850694444444444,0,0,0.010850694444444444,91.94878472222221,0)" xlink:href="#bh"/><use transform="matrix(0.010850694444444444,0,0,0.010850694444444444,107.29166666666666,0)" xlink:href="#bi"/></g><g id="L"><use transform="matrix(0.010850694444444444,0,0,0.010850694444444444,0,0)" xlink:href="#aW"/><use transform="matrix(0.010850694444444444,0,0,0.010850694444444444,12.174479166666666,0)" xlink:href="#au"/><use transform="matrix(0.010850694444444444,0,0,0.010850694444444444,18.06640625,0)" xlink:href="#ap"/><use transform="matrix(0.010850694444444444,0,0,0.010850694444444444,29.98046875,0)" xlink:href="#ad"/><use transform="matrix(0.010850694444444444,0,0,0.010850694444444444,41.40625,0)" xlink:href="#Z"/></g><path fill="#333" d="M463 20c-241-1-359-147-359-393v-709h289v699c0 113 51 169 154 169 98 0 165-34 202-102v-766h290V0H767l-8-110C688-23 589 20 463 20" id="bj"/><g id="M"><use transform="matrix(0.010850694444444444,0,0,0.010850694444444444,0,0)" xlink:href="#aT"/><use transform="matrix(0.010850694444444444,0,0,0.010850694444444444,15.13671875,0)" xlink:href="#bj"/><use transform="matrix(0.010850694444444444,0,0,0.010850694444444444,27.571614583333332,0)" xlink:href="#ar"/><use transform="matrix(0.010850694444444444,0,0,0.010850694444444444,40.01736111111111,0)" xlink:href="#av"/><use transform="matrix(0.010850694444444444,0,0,0.010850694444444444,45.90928819444444,0)" xlink:href="#Y"/><use transform="matrix(0.010850694444444444,0,0,0.010850694444444444,57.49782986111111,0)" xlink:href="#X"/><use transform="matrix(0.010850694444444444,0,0,0.010850694444444444,70.06293402777777,0)" xlink:href="#ab"/><use transform="matrix(0.010850694444444444,0,0,0.010850694444444444,78.16840277777777,0)" xlink:href="#ar"/></g><path fill="#333" d="M1209-1016c0 219-100 334-260 407l315 595V0H942L669-533H430V0H130v-1456h541c318-3 538 141 538 440zm-300 24c-1-144-85-221-238-221H430v437h242c144 2 238-77 237-216" id="bk"/><g id="N"><use transform="matrix(0.010850694444444444,0,0,0.010850694444444444,0,0)" xlink:href="#bk"/><use transform="matrix(0.010850694444444444,0,0,0.010850694444444444,14.181857638888888,0)" xlink:href="#aa"/><use transform="matrix(0.010850694444444444,0,0,0.010850694444444444,26.19357638888889,0)" xlink:href="#ap"/><use transform="matrix(0.010850694444444444,0,0,0.010850694444444444,38.107638888888886,0)" xlink:href="#Y"/><use transform="matrix(0.010850694444444444,0,0,0.010850694444444444,49.69618055555556,0)" xlink:href="#ae"/></g><g id="O"><use transform="matrix(0.010850694444444444,0,0,0.010850694444444444,0,0)" xlink:href="#aV"/><use transform="matrix(0.010850694444444444,0,0,0.010850694444444444,13.661024305555555,0)" xlink:href="#aU"/><use transform="matrix(0.010850694444444444,0,0,0.010850694444444444,26.06336805555556,0)" xlink:href="#be"/></g></defs></g></svg>