<svg xmlns="http://www.w3.org/2000/svg" xmlns:xlink="http://www.w3.org/1999/xlink" xmlns:lucid="lucid" width="1142" height="1054"><g transform="translate(-518.9999999586418 -378.9999999863575)" lucid:page-tab-id="0_0"><path d="M-1500-1500h7500v3000h-7500z" fill="#fff"/><path d="M880 846a6 6 0 0 1 6-6h288a6 6 0 0 1 6 6v328a6 6 0 0 1-6 6H886a6 6 0 0 1-6-6z" stroke="#3a414a" stroke-width="2" fill="#fff"/><path d="M880 906h300" stroke="#3a414a" stroke-width="2" fill="none"/><use xlink:href="#a" transform="matrix(1,0,0,1,888,848) translate(104.84440104166666 20.514973958333332)"/><use xlink:href="#b" transform="matrix(1,0,0,1,888,848) translate(105.38427734375 45.520833333333336)"/><use xlink:href="#c" transform="matrix(1,0,0,1,892,914.01171875) translate(0 24.49153645833332)"/><use xlink:href="#d" transform="matrix(1,0,0,1,892,914.01171875) translate(0 49.49739583333333)"/><use xlink:href="#e" transform="matrix(1,0,0,1,892,914.01171875) translate(0 74.50325520833333)"/><use xlink:href="#f" transform="matrix(1,0,0,1,892,914.01171875) translate(0 99.50911458333334)"/><use xlink:href="#g" transform="matrix(1,0,0,1,892,914.01171875) translate(0 124.51497395833334)"/><use xlink:href="#h" transform="matrix(1,0,0,1,892,914.01171875) translate(0 149.52083333333334)"/><use xlink:href="#i" transform="matrix(1,0,0,1,892,914.01171875) translate(0 174.52669270833334)"/><use xlink:href="#j" transform="matrix(1,0,0,1,892,914.01171875) translate(0 199.53255208333334)"/><use xlink:href="#k" transform="matrix(1,0,0,1,892,914.01171875) translate(0 224.53841145833334)"/><use xlink:href="#l" transform="matrix(1,0,0,1,892,914.01171875) translate(0 249.54427083333334)"/><path d="M1360 489.5a6 6 0 0 1 6-6h288a6 6 0 0 1 6 6v208a6 6 0 0 1-6 6h-288a6 6 0 0 1-6-6z" stroke="#3a414a" stroke-width="2" fill="#fff"/><path d="M1360 549.5h300" stroke="#3a414a" stroke-width="2" fill="none"/><use xlink:href="#a" transform="matrix(1,0,0,1,1368,491.5) translate(104.84440104166666 20.514973958333332)"/><use xlink:href="#m" transform="matrix(1,0,0,1,1368,491.5) translate(71.947265625 45.520833333333336)"/><use xlink:href="#n" transform="matrix(1,0,0,1,1372,557.51171875) translate(0 27.00618489583333)"/><use xlink:href="#o" transform="matrix(1,0,0,1,1372,557.51171875) translate(0 52.01204427083333)"/><use xlink:href="#p" transform="matrix(1,0,0,1,1372,557.51171875) translate(0 77.01790364583334)"/><use xlink:href="#q" transform="matrix(1,0,0,1,1372,557.51171875) translate(0 102.02376302083334)"/><use xlink:href="#r" transform="matrix(1,0,0,1,1372,557.51171875) translate(0 127.02962239583334)"/><path d="M1360 866a6 6 0 0 1 6-6h288a6 6 0 0 1 6 6v148a6 6 0 0 1-6 6h-288a6 6 0 0 1-6-6z" stroke="#3a414a" stroke-width="2" fill="#fff"/><path d="M1360 926h300" stroke="#3a414a" stroke-width="2" fill="none"/><use xlink:href="#a" transform="matrix(1,0,0,1,1368,868) translate(104.84440104166666 20.514973958333332)"/><use xlink:href="#s" transform="matrix(1,0,0,1,1368,868) translate(56.83072916666664 45.520833333333336)"/><use xlink:href="#t" transform="matrix(1,0,0,1,1372,934.01171875) translate(0 22.01204427083333)"/><use xlink:href="#u" transform="matrix(1,0,0,1,1372,934.01171875) translate(0 47.01790364583333)"/><use xlink:href="#v" transform="matrix(1,0,0,1,1372,934.01171875) translate(0 72.02376302083334)"/><path d="M1237.66 553.98h-56.16V553h56.16zm104.96 0h-40.28V553h40.28z" stroke="#333" stroke-width=".05" fill="#333"/><path d="M1181.5 553.98h-.5V553h.5z" fill="#333"/><path stroke="#333" stroke-width=".05" fill="#333"/><path d="M1357.38 553.5l-14.26 4.63v-9.26z" fill="#333"/><path d="M1358.92 553.5l-16.28 5.3v-10.6zm-15.33 3.98l12.25-3.98-12.26-3.98z" stroke="#333" stroke-width=".05" fill="#333"/><use xlink:href="#w" transform="matrix(1,0,0,1,1237.6593870860042,539.9215494791666) translate(0.005000000000002558 21.74305555555555)"/><use xlink:href="#x" transform="matrix(1,0,0,1,1180.2739102059174,557.5) translate(0 16.216875)"/><use xlink:href="#x" transform="matrix(1,0,0,1,1331.5069654672488,524.6099989906257) translate(0 16.216875)"/><path d="M1510.47 842.62h-.94v-47.3h.94zm0-74.45h-.94V705h.94z" stroke="#333" stroke-width=".05" fill="#333"/><path d="M1510.47 705h-.94v-.5h.94z" fill="#333"/><path stroke="#333" stroke-width=".05" fill="#333"/><path d="M1510 857.38l-4.63-14.26h9.27z" fill="#333"/><path d="M1510 858.92l-5.3-16.28h10.6zm-3.98-15.33l3.98 12.25 3.98-12.26z" stroke="#333" stroke-width=".05" fill="#333"/><use xlink:href="#y" transform="matrix(1,0,0,1,1450.436740451389,768.1715494791666) translate(0.005000000000002558 21.74305555555555)"/><use xlink:href="#x" transform="matrix(1,0,0,1,1473.83298828125,704.3725769531251) translate(0 16.216875)"/><use xlink:href="#x" transform="matrix(1,0,0,1,1522.6352549156243,838.8726769531248) translate(0 16.216875)"/><path d="M1030.47 822.62h-.94v-25.54h.94zm0-52.7h-.94V728.5h.94z" stroke="#333" stroke-width=".05" fill="#333"/><path d="M1030.47 728.5h-.94v-.5h.94z" fill="#333"/><path stroke="#333" stroke-width=".05" fill="#333"/><path d="M1030 837.38l-4.63-14.26h9.27z" fill="#333"/><path d="M1030 838.92l-5.3-16.28h10.6zm-3.98-15.33l3.98 12.25 3.98-12.26z" stroke="#333" stroke-width=".05" fill="#333"/><use xlink:href="#x" transform="matrix(1,0,0,1,993.83298828125,727.872576953125) translate(0 16.216875)"/><use xlink:href="#x" transform="matrix(1,0,0,1,1042.6352549156243,818.8726769531248) translate(0 16.216875)"/><use xlink:href="#z" transform="matrix(1,0,0,1,984.9905598958334,769.9215494791666) translate(0.005000000000002558 21.74305555555555)"/><path d="M1510 1021.5v87.13" stroke="#333" fill="none"/><path d="M1510.47 1021.5h-.94v-.5h.94z" stroke="#333" stroke-width=".05" fill="#333"/><path d="M1510 1138.3l14.85-14.86-14.85-14.85-14.85 14.84z" stroke="#333" fill="#333"/><use xlink:href="#x" transform="matrix(1,0,0,1,1473.83298828125,1020.7624590059489) translate(0 16.216875)"/><use xlink:href="#A" transform="matrix(1,0,0,1,1533.5,1118.872676953125) translate(0 16.216875)"/><path d="M520 1166a6 6 0 0 1 6-6h288a6 6 0 0 1 6 6v95a6 6 0 0 1-6 6H526a6 6 0 0 1-6-6z" stroke="#3a414a" stroke-width="2" fill="#fff"/><path d="M520 1226h300" stroke="#3a414a" stroke-width="2" fill="none"/><use xlink:href="#B" transform="matrix(1,0,0,1,528,1168) translate(104.84440104166666 20.514973958333332)"/><use xlink:href="#C" transform="matrix(1,0,0,1,528,1168) translate(121.84293619791666 45.520833333333336)"/><use xlink:href="#D" transform="matrix(1,0,0,1,532,1234.01171875) translate(0 20.517903645833336)"/><path d="M878.5 1081.13H682a12 12 0 0 0-12 12v35.5" stroke="#333" fill="none"/><path d="M879 1081.6h-.5v-.94h.5z" stroke="#333" stroke-width=".05" fill="#333"/><path d="M670 1158.3l14.85-14.86L670 1128.6l-14.85 14.84z" stroke="#333" fill="#333"/><use xlink:href="#E" transform="matrix(1,0,0,1,639.691201171875,1138.8751741732096) translate(0 16.216875)"/><use xlink:href="#E" transform="matrix(1,0,0,1,869.4926072671437,1085.131226395131) translate(0 16.216875)"/><path d="M880 1306a6 6 0 0 1 6-6h288a6 6 0 0 1 6 6v120a6 6 0 0 1-6 6H886a6 6 0 0 1-6-6z" stroke="#3a414a" stroke-width="2" fill="#fff"/><path d="M880 1366h300" stroke="#3a414a" stroke-width="2" fill="none"/><use xlink:href="#B" transform="matrix(1,0,0,1,888,1308) translate(104.84440104166666 20.514973958333332)"/><use xlink:href="#F" transform="matrix(1,0,0,1,888,1308) translate(113.92138671875 45.520833333333336)"/><use xlink:href="#G" transform="matrix(1,0,0,1,892,1374.01171875) translate(0 20.514973958333332)"/><use xlink:href="#H" transform="matrix(1,0,0,1,892,1374.01171875) translate(0 45.520833333333336)"/><path d="M1360 1146a6 6 0 0 1 6-6h288a6 6 0 0 1 6 6v95a6 6 0 0 1-6 6h-288a6 6 0 0 1-6-6z" stroke="#3a414a" stroke-width="2" fill="#fff"/><path d="M1360 1206h300" stroke="#3a414a" stroke-width="2" fill="none"/><use xlink:href="#I" transform="matrix(1,0,0,1,1368,1148) translate(86.60465494791666 20.514973958333332)"/><use xlink:href="#J" transform="matrix(1,0,0,1,1368,1148) translate(64.63118489583334 45.520833333333336)"/><path d="M1358.5 1171.6H1282a12 12 0 0 1-12-12V1022a12 12 0 0 0-12-12h-53.85" stroke="#333" fill="none"/><path d="M1359 1172.08h-.5v-.95h.5z" stroke="#333" stroke-width=".05" fill="#333"/><path d="M1182 1010l21.65-12.5v25z" stroke="#333" fill="#fff"/><path d="M1358.5 1221.4H1282a12 12 0 0 0-12 12V1354a12 12 0 0 1-12 12h-53.85" stroke="#333" fill="none"/><path d="M1359 1221.88h-.5v-.95h.5z" stroke="#333" stroke-width=".05" fill="#333"/><path d="M1182 1366l21.65-12.5v25z" stroke="#333" fill="#fff"/><path d="M520 706a6 6 0 0 1 6-6h288a6 6 0 0 1 6 6v108a6 6 0 0 1-6 6H526a6 6 0 0 1-6-6z" stroke="#3a414a" stroke-width="2" fill="#fff"/><path d="M520 766h300" stroke="#3a414a" stroke-width="2" fill="none"/><use xlink:href="#B" transform="matrix(1,0,0,1,528,708) translate(104.84440104166666 20.514973958333332)"/><use xlink:href="#K" transform="matrix(1,0,0,1,528,708) translate(96.73111979166667 45.520833333333336)"/><use xlink:href="#L" transform="matrix(1,0,0,1,532,774.01171875) translate(0 27.017903645833336)"/><path d="M693.32 553.98h-11.3l-1.82.14-1.76.42-1.67.7-1.54.94-1.38 1.17-1.17 1.38-.95 1.54-.7 1.67-.4 1.76-.15 1.82v117.1h-.96V565.48l.16-1.93.45-1.9.75-1.8 1.03-1.68 1.28-1.5 1.5-1.26 1.66-1.02 1.8-.75 1.9-.45 1.94-.15h11.34zm185.18 0H754.55V553H878.5z" stroke="#333" stroke-width=".05" fill="#333"/><path d="M879 553.98h-.5V553h.5z" fill="#333"/><path stroke="#333" stroke-width=".05" fill="#333"/><path d="M670 697.38l-4.63-14.26h9.26z" fill="#333"/><path d="M670 698.92l-5.3-16.28h10.6zm-3.98-15.33l3.98 12.25 3.98-12.26z" stroke="#333" stroke-width=".05" fill="#333"/><use xlink:href="#M" transform="matrix(1,0,0,1,693.3239730623873,539.9215494791666) translate(0.004999999999999005 21.74305555555555)"/><use xlink:href="#E" transform="matrix(1,0,0,1,868.5460002475247,529.24525390625) translate(0 16.216875)"/><use xlink:href="#x" transform="matrix(1,0,0,1,682.6352549156242,678.8726769531248) translate(0 16.216875)"/><path d="M673.48 934.58l.14 1.82.43 1.75.7 1.68.93 1.54 1.18 1.37 1.37 1.18 1.55.94 1.67.7 1.75.42 1.83.14h25.16v.95H685l-1.95-.15-1.9-.46-1.8-.75-1.68-1-1.5-1.28-1.26-1.5-1-1.66-.76-1.8-.46-1.92-.15-1.93V821.5h.95zm189.14 11.54v.95h-38.35v-.95z" stroke="#333" stroke-width=".05" fill="#333"/><path d="M673.48 821.5h-.95v-.5h.95z" fill="#333"/><path stroke="#333" stroke-width=".05" fill="#333"/><path d="M877.38 946.6l-14.26 4.63v-9.27z" fill="#333"/><path d="M878.92 946.6l-16.28 5.28V941.3zm-15.33 3.98l12.25-4-12.26-3.97z" stroke="#333" stroke-width=".05" fill="#333"/><g><use xlink:href="#x" transform="matrix(1,0,0,1,636.8400871261783,820.8725759089936) translate(0 16.216875)"/></g><g><use xlink:href="#E" transform="matrix(1,0,0,1,864.7451281022163,917.7035465096259) translate(0 16.216875)"/></g><g><use xlink:href="#N" transform="matrix(1,0,0,1,710.1918506621015,933.0150969981669) translate(0.005000000000002558 21.74305555555555)"/></g><path d="M1030.47 1282.62h-.94v-29.04h.94zm0-56.2h-.94v-44.92h.94z" stroke="#333" stroke-width=".05" fill="#333"/><path d="M1030.47 1181.5h-.94v-.5h.94z" fill="#333"/><path stroke="#333" stroke-width=".05" fill="#333"/><path d="M1030 1297.38l-4.63-14.26h9.27z" fill="#333"/><path d="M1030 1298.92l-5.3-16.28h10.6zm-3.98-15.33l3.98 12.25 3.98-12.26z" stroke="#333" stroke-width=".05" fill="#333"/><g><use xlink:href="#O" transform="matrix(1,0,0,1,988.7550455729166,1226.4215494791667) translate(0.005000000000002558 21.74305555555555)"/></g><g><use xlink:href="#P" transform="matrix(1,0,0,1,995.33697265625,1180.872576953125) translate(0 16.216875)"/></g><g><use xlink:href="#Q" transform="matrix(1,0,0,1,1042.6352549156243,1278.872676953125) translate(0 16.216875)"/></g><path d="M880 386a6 6 0 0 1 6-6h288a6 6 0 0 1 6 6v335a6 6 0 0 1-6 6H886a6 6 0 0 1-6-6z" stroke="#000" stroke-width="2" fill="#fff"/><path d="M880 446h300m-300 87.52h300" stroke="#000" stroke-width="2" fill="none"/><g><use xlink:href="#R" transform="matrix(1,0,0,1,888,388) translate(104.84440104166666 20.514973958333332)"/><use xlink:href="#S" transform="matrix(1,0,0,1,888,388) translate(118.94173177083333 45.520833333333336)"/></g><g><use xlink:href="#T" transform="matrix(1,0,0,1,892,454.01171875) translate(0 31.014973958333332)"/><use xlink:href="#U" transform="matrix(1,0,0,1,892,454.01171875) translate(0 56.020833333333336)"/></g><g><use xlink:href="#V" transform="matrix(1,0,0,1,892,541.5234375) translate(0 32.55251736111112)"/><use xlink:href="#W" transform="matrix(1,0,0,1,892,541.5234375) translate(20.95269097222222 32.55251736111112)"/><use xlink:href="#X" transform="matrix(1,0,0,1,892,541.5234375) translate(0 64.81814236111111)"/><use xlink:href="#Y" transform="matrix(1,0,0,1,892,541.5234375) translate(20.95269097222222 64.81814236111111)"/><use xlink:href="#X" transform="matrix(1,0,0,1,892,541.5234375) translate(0 97.08376736111111)"/><use xlink:href="#Z" transform="matrix(1,0,0,1,892,541.5234375) translate(20.95269097222222 97.08376736111111)"/><use xlink:href="#X" transform="matrix(1,0,0,1,892,541.5234375) translate(0 129.34939236111111)"/><use xlink:href="#aa" transform="matrix(1,0,0,1,892,541.5234375) translate(20.95269097222222 129.34939236111111)"/><use xlink:href="#X" transform="matrix(1,0,0,1,892,541.5234375) translate(0 161.61501736111111)"/><use xlink:href="#ab" transform="matrix(1,0,0,1,892,541.5234375) translate(20.95269097222222 161.61501736111111)"/></g><path d="M1030 681.5V768v-23.62M1030 681.5v-.5" stroke="#3a414a" fill="none"/><path d="M1030 729.62l4.63 14.26h-9.27z" stroke="#3a414a" fill="#3a414a"/><defs><path d="M501-144L100-616l401-472h206L313-616l394 472H501zm406 0L506-616l401-472h206L719-616l394 472H907" id="ac"/><path d="M613 24c-304 0-509-231-509-576 0-350 205-580 509-580 216 0 392 114 453 309l-173 49c-33-115-133-197-280-197-223 0-326 196-326 419 0 220 103 415 326 415 150 0 252-85 285-206l172 49C1010-95 832 24 613 24" id="ad"/><path d="M338-1490V0H158v-1490h180" id="ae"/><path d="M471 26C259 26 90-98 90-318c0-256 228-303 435-329 202-27 287-16 287-108 0-139-79-219-234-219-161 0-248 86-283 164l-173-57c86-203 278-265 451-265 150 0 419 46 419 395V0H815v-152h-12C765-73 660 26 471 26zm31-159c199 0 310-134 310-271v-155c-30 35-226 55-295 64-131 17-246 59-246 186 0 116 97 176 231 176" id="af"/><path d="M538 24C308 24 148-78 108-271l171-41c32 123 123 178 257 178 156 0 256-77 256-169 0-77-54-128-164-154l-186-44c-203-48-300-148-300-305 0-192 176-326 414-326 230 0 351 112 402 269l-163 42c-31-80-94-158-238-158-133 0-233 69-233 162 0 83 57 129 188 160l169 40c203 48 298 149 298 302 0 196-179 339-441 339" id="ag"/><path d="M80-144l394-472-394-472h206l401 472-401 472H80zm406 0l394-472-394-472h206l401 472-401 472H486" id="ah"/><g id="a"><use transform="matrix(0.010091145833333334,0,0,0.010091145833333334,0,0)" xlink:href="#ac"/><use transform="matrix(0.010091145833333334,0,0,0.010091145833333334,12.038736979166668,0)" xlink:href="#ad"/><use transform="matrix(0.010091145833333334,0,0,0.010091145833333334,23.845377604166668,0)" xlink:href="#ae"/><use transform="matrix(0.010091145833333334,0,0,0.010091145833333334,28.8505859375,0)" xlink:href="#af"/><use transform="matrix(0.010091145833333334,0,0,0.010091145833333334,40.455403645833336,0)" xlink:href="#ag"/><use transform="matrix(0.010091145833333334,0,0,0.010091145833333334,51.36393229166667,0)" xlink:href="#ag"/><use transform="matrix(0.010091145833333334,0,0,0.010091145833333334,62.27246093750001,0)" xlink:href="#ah"/></g><path d="M52 0l541-1490h220L1361 0h-200l-149-416H398L254 0H52zm404-582h497c-103-290-145-390-251-756-108 377-145 460-246 756" id="ai"/><path d="M598-1118v154H368v674c0 100 37 144 132 144 23 0 62-6 92-12L629-6c-37 13-88 20-134 20-193 0-307-107-307-290v-688H20v-154h168v-266h180v266h230" id="aj"/><path d="M158 0v-1118h180V0H158zm91-1301c-68 0-125-53-125-119s57-119 125-119c69 0 126 53 126 119s-57 119-126 119" id="ak"/><path d="M481 0L54-1118h197c107 314 236 620 325 951 87-331 217-637 324-951h197L670 0H481" id="al"/><path d="M140 405l46-156c120 36 205 19 263-150l32-93L54-1118h197c107 313 237 620 324 950 87-331 219-637 326-950h196L606 167c-68 178-176 259-334 259-64 0-113-12-132-21" id="am"/><g id="b"><use transform="matrix(0.010091145833333334,0,0,0.010091145833333334,0,0)" xlink:href="#ai"/><use transform="matrix(0.010091145833333334,0,0,0.010091145833333334,14.2587890625,0)" xlink:href="#ad"/><use transform="matrix(0.010091145833333334,0,0,0.010091145833333334,26.0654296875,0)" xlink:href="#aj"/><use transform="matrix(0.010091145833333334,0,0,0.010091145833333334,32.826497395833336,0)" xlink:href="#ak"/><use transform="matrix(0.010091145833333334,0,0,0.010091145833333334,37.83170572916667,0)" xlink:href="#al"/><use transform="matrix(0.010091145833333334,0,0,0.010091145833333334,49.44661458333334,0)" xlink:href="#ak"/><use transform="matrix(0.010091145833333334,0,0,0.010091145833333334,54.45182291666668,0)" xlink:href="#aj"/><use transform="matrix(0.010091145833333334,0,0,0.010091145833333334,61.61653645833334,0)" xlink:href="#am"/></g><path d="M338-670V0H158v-1118h173l1 207c72-158 192-221 342-221 226 0 378 139 378 422V0H872v-695c0-172-96-275-252-275-161 0-282 109-282 300" id="an"/><path d="M158 0v-1118h175l1 205c55-151 181-225 313-225 147 0 245 90 285 228 53-141 190-228 352-228 194 0 352 125 352 384V0h-181v-749c0-161-105-225-225-225-151 0-243 103-243 244V0H807v-767c0-124-93-207-219-207-131 0-250 92-250 270V0H158" id="ao"/><path d="M628 24c-324 0-524-230-524-574 0-343 198-582 503-582 237 0 487 146 487 559v75H286c9 234 145 362 343 362 132 0 231-58 273-172l174 48C1024-91 857 24 628 24zM287-650h624c-17-190-120-322-304-322-192 0-309 151-320 322" id="ap"/><g id="c"><use transform="matrix(0.010091145833333334,0,0,0.010091145833333334,0,0)" xlink:href="#an"/><use transform="matrix(0.010091145833333334,0,0,0.010091145833333334,12.210286458333334,0)" xlink:href="#af"/><use transform="matrix(0.010091145833333334,0,0,0.010091145833333334,23.815104166666668,0)" xlink:href="#ao"/><use transform="matrix(0.010091145833333334,0,0,0.010091145833333334,41.91861979166667,0)" xlink:href="#ap"/></g><path d="M577 24c-279 0-473-224-473-580 0-354 195-576 474-576 218 0 287 134 324 193h14v-551h180V0H922v-173h-20C865-111 790 24 577 24zm27-161c203 0 314-172 314-421 0-247-108-413-314-413-212 0-317 181-317 413 0 235 108 421 317 421" id="aq"/><path d="M158 0v-1118h174v172h12c41-113 157-188 290-188 26 0 70 2 91 3v181c-11-2-60-10-108-10-161 0-279 109-279 260V0H158" id="ar"/><path d="M158 418v-1536h174v179h20c37-59 106-193 324-193 279 0 474 222 474 576 0 356-194 580-473 580-213 0-288-135-325-197h-14v591H158zm492-555c209 0 317-186 317-421 0-232-105-413-317-413-206 0-314 166-314 413 0 249 111 421 314 421" id="as"/><path d="M613 24c-304 0-509-231-509-576 0-350 205-580 509-580 305 0 511 230 511 580 0 345-206 576-511 576zm0-161c226 0 329-195 329-415 0-222-103-419-329-419-223 0-326 196-326 419 0 220 103 415 326 415" id="at"/><g id="d"><use transform="matrix(0.010091145833333334,0,0,0.010091145833333334,0,0)" xlink:href="#aq"/><use transform="matrix(0.010091145833333334,0,0,0.010091145833333334,12.654296875,0)" xlink:href="#ap"/><use transform="matrix(0.010091145833333334,0,0,0.010091145833333334,24.703125,0)" xlink:href="#ag"/><use transform="matrix(0.010091145833333334,0,0,0.010091145833333334,35.611653645833336,0)" xlink:href="#ad"/><use transform="matrix(0.010091145833333334,0,0,0.010091145833333334,47.418294270833336,0)" xlink:href="#ar"/><use transform="matrix(0.010091145833333334,0,0,0.010091145833333334,55.521484375,0)" xlink:href="#ak"/><use transform="matrix(0.010091145833333334,0,0,0.010091145833333334,60.526692708333336,0)" xlink:href="#as"/><use transform="matrix(0.010091145833333334,0,0,0.010091145833333334,73.18098958333334,0)" xlink:href="#aj"/><use transform="matrix(0.010091145833333334,0,0,0.010091145833333334,79.94205729166667,0)" xlink:href="#ak"/><use transform="matrix(0.010091145833333334,0,0,0.010091145833333334,84.947265625,0)" xlink:href="#at"/><use transform="matrix(0.010091145833333334,0,0,0.010091145833333334,97.33919270833331,0)" xlink:href="#an"/></g><path d="M611 442c-248 0-391-105-460-228l146-94c47 65 117 165 314 165 178 0 307-82 307-266v-224h-17C863-141 792-18 576-18c-268 0-472-195-472-546 0-346 197-568 476-568 216 0 288 133 326 193h17v-179h175V29c0 289-215 413-487 413zm-5-620c203 0 314-146 314-390 0-237-108-403-314-403-213 0-319 180-319 403 0 230 109 390 319 390" id="au"/><path d="M180 0v-1490h270l367 940c28 72 75 218 110 339 35-117 81-264 110-339l362-940h271V0h-187c2-448-5-837 7-1287-157 497-311 829-483 1287H842C666-458 514-784 354-1284c12 438 5 843 7 1284H180" id="av"/><g id="e"><use transform="matrix(0.010091145833333334,0,0,0.010091145833333334,0,0)" xlink:href="#af"/><use transform="matrix(0.010091145833333334,0,0,0.010091145833333334,11.604817708333334,0)" xlink:href="#au"/><use transform="matrix(0.010091145833333334,0,0,0.010091145833333334,24.279296875,0)" xlink:href="#ap"/><use transform="matrix(0.010091145833333334,0,0,0.010091145833333334,36.328125,0)" xlink:href="#av"/><use transform="matrix(0.010091145833333334,0,0,0.010091145833333334,54.99674479166667,0)" xlink:href="#ak"/><use transform="matrix(0.010091145833333334,0,0,0.010091145833333334,60.001953125,0)" xlink:href="#an"/></g><path d="M65 0l393-574-370-544h210c88 136 192 297 267 435 67-142 176-302 264-435h206L661-564 1053 0H844c-94-144-206-310-287-458C484-308 366-142 273 0H65" id="aw"/><g id="f"><use transform="matrix(0.010091145833333334,0,0,0.010091145833333334,0,0)" xlink:href="#af"/><use transform="matrix(0.010091145833333334,0,0,0.010091145833333334,11.604817708333334,0)" xlink:href="#au"/><use transform="matrix(0.010091145833333334,0,0,0.010091145833333334,24.279296875,0)" xlink:href="#ap"/><use transform="matrix(0.010091145833333334,0,0,0.010091145833333334,36.328125,0)" xlink:href="#av"/><use transform="matrix(0.010091145833333334,0,0,0.010091145833333334,54.99674479166667,0)" xlink:href="#af"/><use transform="matrix(0.010091145833333334,0,0,0.010091145833333334,66.6015625,0)" xlink:href="#aw"/></g><path d="M678-1118v154H420V0H240v-964H20v-154h220v-149c0-194 155-293 318-293 85 0 141 18 168 30l-50 154c-19-6-47-17-97-17-111 0-159 58-159 166v109h258" id="ax"/><g id="g"><use transform="matrix(0.010091145833333334,0,0,0.010091145833333334,0,0)" xlink:href="#ax"/><use transform="matrix(0.010091145833333334,0,0,0.010091145833333334,7.043619791666667,0)" xlink:href="#at"/><use transform="matrix(0.010091145833333334,0,0,0.010091145833333334,19.435546875,0)" xlink:href="#ar"/><use transform="matrix(0.010091145833333334,0,0,0.010091145833333334,27.538736979166668,0)" xlink:href="#ao"/><use transform="matrix(0.010091145833333334,0,0,0.010091145833333334,45.64225260416667,0)" xlink:href="#af"/><use transform="matrix(0.010091145833333334,0,0,0.010091145833333334,57.2470703125,0)" xlink:href="#aj"/></g><path d="M677 24c-213 0-288-135-325-197h-20V0H158v-1490h180v551h14c37-59 106-193 324-193 279 0 474 222 474 576 0 356-194 580-473 580zm-27-161c209 0 317-186 317-421 0-232-105-413-317-413-206 0-314 166-314 413 0 249 111 421 314 421" id="ay"/><path d="M180 0v-1490h190v1322h690V0H180" id="az"/><g id="h"><use transform="matrix(0.010091145833333334,0,0,0.010091145833333334,0,0)" xlink:href="#ay"/><use transform="matrix(0.010091145833333334,0,0,0.010091145833333334,12.654296875,0)" xlink:href="#ae"/><use transform="matrix(0.010091145833333334,0,0,0.010091145833333334,17.659505208333336,0)" xlink:href="#at"/><use transform="matrix(0.010091145833333334,0,0,0.010091145833333334,30.05143229166667,0)" xlink:href="#at"/><use transform="matrix(0.010091145833333334,0,0,0.010091145833333334,42.443359375000014,0)" xlink:href="#ao"/><use transform="matrix(0.010091145833333334,0,0,0.010091145833333334,60.546875,0)" xlink:href="#az"/><use transform="matrix(0.010091145833333334,0,0,0.010091145833333334,72.232421875,0)" xlink:href="#ap"/><use transform="matrix(0.010091145833333334,0,0,0.010091145833333334,83.87760416666667,0)" xlink:href="#al"/><use transform="matrix(0.010091145833333334,0,0,0.010091145833333334,95.0888671875,0)" xlink:href="#ap"/><use transform="matrix(0.010091145833333334,0,0,0.010091145833333334,107.1376953125,0)" xlink:href="#ae"/></g><path d="M537 14c-226 0-379-139-379-422v-710h180v695c0 172 97 275 253 275 160 0 281-109 281-300v-670h181V0H879v-209C806-46 684 14 537 14" id="aA"/><g id="i"><use transform="matrix(0.010091145833333334,0,0,0.010091145833333334,0,0)" xlink:href="#aq"/><use transform="matrix(0.010091145833333334,0,0,0.010091145833333334,12.654296875,0)" xlink:href="#aA"/><use transform="matrix(0.010091145833333334,0,0,0.010091145833333334,24.874674479166668,0)" xlink:href="#ar"/><use transform="matrix(0.010091145833333334,0,0,0.010091145833333334,32.65494791666667,0)" xlink:href="#af"/><use transform="matrix(0.010091145833333334,0,0,0.010091145833333334,44.259765625,0)" xlink:href="#aj"/><use transform="matrix(0.010091145833333334,0,0,0.010091145833333334,51.02083333333334,0)" xlink:href="#ak"/><use transform="matrix(0.010091145833333334,0,0,0.010091145833333334,56.02604166666668,0)" xlink:href="#at"/><use transform="matrix(0.010091145833333334,0,0,0.010091145833333334,68.41796875000001,0)" xlink:href="#an"/><use transform="matrix(0.010091145833333334,0,0,0.010091145833333334,80.62825520833334,0)" xlink:href="#av"/><use transform="matrix(0.010091145833333334,0,0,0.010091145833333334,99.296875,0)" xlink:href="#ak"/><use transform="matrix(0.010091145833333334,0,0,0.010091145833333334,104.30208333333334,0)" xlink:href="#an"/></g><g id="j"><use transform="matrix(0.010091145833333334,0,0,0.010091145833333334,0,0)" xlink:href="#aq"/><use transform="matrix(0.010091145833333334,0,0,0.010091145833333334,12.654296875,0)" xlink:href="#aA"/><use transform="matrix(0.010091145833333334,0,0,0.010091145833333334,24.874674479166668,0)" xlink:href="#ar"/><use transform="matrix(0.010091145833333334,0,0,0.010091145833333334,32.65494791666667,0)" xlink:href="#af"/><use transform="matrix(0.010091145833333334,0,0,0.010091145833333334,44.259765625,0)" xlink:href="#aj"/><use transform="matrix(0.010091145833333334,0,0,0.010091145833333334,51.02083333333334,0)" xlink:href="#ak"/><use transform="matrix(0.010091145833333334,0,0,0.010091145833333334,56.02604166666668,0)" xlink:href="#at"/><use transform="matrix(0.010091145833333334,0,0,0.010091145833333334,68.41796875000001,0)" xlink:href="#an"/><use transform="matrix(0.010091145833333334,0,0,0.010091145833333334,80.62825520833334,0)" xlink:href="#av"/><use transform="matrix(0.010091145833333334,0,0,0.010091145833333334,99.296875,0)" xlink:href="#af"/><use transform="matrix(0.010091145833333334,0,0,0.010091145833333334,110.90169270833334,0)" xlink:href="#aw"/></g><g id="k"><use transform="matrix(0.010091145833333334,0,0,0.010091145833333334,0,0)" xlink:href="#aj"/><use transform="matrix(0.010091145833333334,0,0,0.010091145833333334,6.559244791666667,0)" xlink:href="#at"/><use transform="matrix(0.010091145833333334,0,0,0.010091145833333334,18.951171875,0)" xlink:href="#as"/><use transform="matrix(0.010091145833333334,0,0,0.010091145833333334,31.605468750000004,0)" xlink:href="#ak"/><use transform="matrix(0.010091145833333334,0,0,0.010091145833333334,36.610677083333336,0)" xlink:href="#ad"/><use transform="matrix(0.010091145833333334,0,0,0.010091145833333334,48.417317708333336,0)" xlink:href="#ag"/></g><path d="M180 0v-1490h224l606 953c40 63 108 177 176 312-27-437-7-821-13-1265h190V0h-226C860-448 622-778 356-1262c27 476 11 792 15 1262H180" id="aB"/><g id="l"><use transform="matrix(0.010091145833333334,0,0,0.010091145833333334,0,0)" xlink:href="#ar"/><use transform="matrix(0.010091145833333334,0,0,0.010091145833333334,7.437174479166668,0)" xlink:href="#ap"/><use transform="matrix(0.010091145833333334,0,0,0.010091145833333334,19.486002604166668,0)" xlink:href="#ag"/><use transform="matrix(0.010091145833333334,0,0,0.010091145833333334,30.39453125,0)" xlink:href="#at"/><use transform="matrix(0.010091145833333334,0,0,0.010091145833333334,42.786458333333336,0)" xlink:href="#aA"/><use transform="matrix(0.010091145833333334,0,0,0.010091145833333334,55.0068359375,0)" xlink:href="#ar"/><use transform="matrix(0.010091145833333334,0,0,0.010091145833333334,62.444010416666664,0)" xlink:href="#ad"/><use transform="matrix(0.010091145833333334,0,0,0.010091145833333334,74.25065104166666,0)" xlink:href="#ap"/><use transform="matrix(0.010091145833333334,0,0,0.010091145833333334,86.29947916666666,0)" xlink:href="#ag"/><use transform="matrix(0.010091145833333334,0,0,0.010091145833333334,97.20800781249999,0)" xlink:href="#aB"/><use transform="matrix(0.010091145833333334,0,0,0.010091145833333334,112.77864583333331,0)" xlink:href="#ap"/><use transform="matrix(0.010091145833333334,0,0,0.010091145833333334,124.82747395833333,0)" xlink:href="#ap"/><use transform="matrix(0.010091145833333334,0,0,0.010091145833333334,136.87630208333331,0)" xlink:href="#aq"/><use transform="matrix(0.010091145833333334,0,0,0.010091145833333334,149.53059895833331,0)" xlink:href="#ap"/><use transform="matrix(0.010091145833333334,0,0,0.010091145833333334,161.57942708333331,0)" xlink:href="#aq"/></g><path d="M657 26c-323 0-524-166-541-416h195c15 169 171 246 346 246 202 0 356-106 356-265 5-203-294-238-475-293-239-73-380-191-380-389 0-252 224-419 512-419 294 0 499 171 508 396H992c-17-145-151-228-328-228-193 0-321 102-321 242 0 156 175 211 284 241l149 41c160 44 422 134 422 412 0 244-197 432-541 432" id="aC"/><path d="M338-670V0H158v-1490h180v566c73-149 190-208 336-208 226 0 379 139 379 422V0H872v-695c0-172-96-275-252-275-161 0-282 109-282 300" id="aD"/><path d="M783 20c-382 0-661-292-661-764 0-473 279-766 661-766 302 0 548 182 601 489h-190c-42-204-217-313-411-313-268 0-476 208-476 590 0 381 209 588 476 588 195 0 369-110 411-313h190c-52 303-296 489-601 489" id="aE"/><g id="m"><use transform="matrix(0.010091145833333334,0,0,0.010091145833333334,0,0)" xlink:href="#aC"/><use transform="matrix(0.010091145833333334,0,0,0.010091145833333334,13.259765625,0)" xlink:href="#ap"/><use transform="matrix(0.010091145833333334,0,0,0.010091145833333334,25.510416666666664,0)" xlink:href="#af"/><use transform="matrix(0.010091145833333334,0,0,0.010091145833333334,37.115234375,0)" xlink:href="#ar"/><use transform="matrix(0.010091145833333334,0,0,0.010091145833333334,44.55240885416666,0)" xlink:href="#ad"/><use transform="matrix(0.010091145833333334,0,0,0.010091145833333334,56.35904947916666,0)" xlink:href="#aD"/><use transform="matrix(0.010091145833333334,0,0,0.010091145833333334,68.57942708333333,0)" xlink:href="#aE"/><use transform="matrix(0.010091145833333334,0,0,0.010091145833333334,83.67578125,0)" xlink:href="#ar"/><use transform="matrix(0.010091145833333334,0,0,0.010091145833333334,91.77897135416667,0)" xlink:href="#ak"/><use transform="matrix(0.010091145833333334,0,0,0.010091145833333334,96.7841796875,0)" xlink:href="#aj"/><use transform="matrix(0.010091145833333334,0,0,0.010091145833333334,103.34342447916666,0)" xlink:href="#ap"/><use transform="matrix(0.010091145833333334,0,0,0.010091145833333334,115.39225260416666,0)" xlink:href="#ar"/><use transform="matrix(0.010091145833333334,0,0,0.010091145833333334,123.49544270833333,0)" xlink:href="#ak"/><use transform="matrix(0.010091145833333334,0,0,0.010091145833333334,128.50065104166666,0)" xlink:href="#af"/></g><g id="n"><use transform="matrix(0.010091145833333334,0,0,0.010091145833333334,0,0)" xlink:href="#aj"/><use transform="matrix(0.010091145833333334,0,0,0.010091145833333334,6.861979166666667,0)" xlink:href="#af"/><use transform="matrix(0.010091145833333334,0,0,0.010091145833333334,18.466796875,0)" xlink:href="#ar"/><use transform="matrix(0.010091145833333334,0,0,0.010091145833333334,25.903971354166668,0)" xlink:href="#au"/><use transform="matrix(0.010091145833333334,0,0,0.010091145833333334,38.578450520833336,0)" xlink:href="#ap"/><use transform="matrix(0.010091145833333334,0,0,0.010091145833333334,50.627278645833336,0)" xlink:href="#aj"/><use transform="matrix(0.010091145833333334,0,0,0.010091145833333334,57.38834635416667,0)" xlink:href="#ai"/><use transform="matrix(0.010091145833333334,0,0,0.010091145833333334,71.64713541666667,0)" xlink:href="#au"/><use transform="matrix(0.010091145833333334,0,0,0.010091145833333334,84.32161458333334,0)" xlink:href="#ap"/></g><path d="M645 0H180v-1490h484c435 0 692 280 692 742 0 466-257 748-711 748zM370-168h263c363 0 539-218 539-580 0-358-176-574-521-574H370v1154" id="aF"/><g id="o"><use transform="matrix(0.010091145833333334,0,0,0.010091145833333334,0,0)" xlink:href="#aj"/><use transform="matrix(0.010091145833333334,0,0,0.010091145833333334,6.861979166666667,0)" xlink:href="#af"/><use transform="matrix(0.010091145833333334,0,0,0.010091145833333334,18.466796875,0)" xlink:href="#ar"/><use transform="matrix(0.010091145833333334,0,0,0.010091145833333334,25.903971354166668,0)" xlink:href="#au"/><use transform="matrix(0.010091145833333334,0,0,0.010091145833333334,38.578450520833336,0)" xlink:href="#ap"/><use transform="matrix(0.010091145833333334,0,0,0.010091145833333334,50.627278645833336,0)" xlink:href="#aj"/><use transform="matrix(0.010091145833333334,0,0,0.010091145833333334,57.38834635416667,0)" xlink:href="#aF"/><use transform="matrix(0.010091145833333334,0,0,0.010091145833333334,72.30305989583334,0)" xlink:href="#aA"/><use transform="matrix(0.010091145833333334,0,0,0.010091145833333334,84.52343750000003,0)" xlink:href="#ar"/><use transform="matrix(0.010091145833333334,0,0,0.010091145833333334,92.3037109375,0)" xlink:href="#af"/><use transform="matrix(0.010091145833333334,0,0,0.010091145833333334,103.90852864583334,0)" xlink:href="#aj"/><use transform="matrix(0.010091145833333334,0,0,0.010091145833333334,110.66959635416667,0)" xlink:href="#ak"/><use transform="matrix(0.010091145833333334,0,0,0.010091145833333334,115.6748046875,0)" xlink:href="#at"/><use transform="matrix(0.010091145833333334,0,0,0.010091145833333334,128.06673177083334,0)" xlink:href="#an"/></g><path d="M180 0v-1490h901v168H370v510h643v168H370V0H180" id="aG"/><g id="p"><use transform="matrix(0.010091145833333334,0,0,0.010091145833333334,0,0)" xlink:href="#as"/><use transform="matrix(0.010091145833333334,0,0,0.010091145833333334,12.654296875,0)" xlink:href="#ar"/><use transform="matrix(0.010091145833333334,0,0,0.010091145833333334,20.091471354166668,0)" xlink:href="#ap"/><use transform="matrix(0.010091145833333334,0,0,0.010091145833333334,32.14029947916667,0)" xlink:href="#ax"/><use transform="matrix(0.010091145833333334,0,0,0.010091145833333334,39.183919270833336,0)" xlink:href="#ap"/><use transform="matrix(0.010091145833333334,0,0,0.010091145833333334,51.232747395833336,0)" xlink:href="#ar"/><use transform="matrix(0.010091145833333334,0,0,0.010091145833333334,59.3359375,0)" xlink:href="#ar"/><use transform="matrix(0.010091145833333334,0,0,0.010091145833333334,66.77311197916667,0)" xlink:href="#ap"/><use transform="matrix(0.010091145833333334,0,0,0.010091145833333334,78.82194010416667,0)" xlink:href="#aq"/><use transform="matrix(0.010091145833333334,0,0,0.010091145833333334,91.47623697916667,0)" xlink:href="#aG"/><use transform="matrix(0.010091145833333334,0,0,0.010091145833333334,102.85904947916667,0)" xlink:href="#at"/><use transform="matrix(0.010091145833333334,0,0,0.010091145833333334,115.2509765625,0)" xlink:href="#ar"/><use transform="matrix(0.010091145833333334,0,0,0.010091145833333334,123.35416666666667,0)" xlink:href="#ao"/><use transform="matrix(0.010091145833333334,0,0,0.010091145833333334,141.45768229166669,0)" xlink:href="#af"/><use transform="matrix(0.010091145833333334,0,0,0.010091145833333334,153.06250000000003,0)" xlink:href="#aj"/><use transform="matrix(0.010091145833333334,0,0,0.010091145833333334,159.6217447916667,0)" xlink:href="#ag"/></g><path d="M98-1322v-168h1126v168H757V0H567v-1322H98" id="aH"/><g id="q"><use transform="matrix(0.010091145833333334,0,0,0.010091145833333334,0,0)" xlink:href="#as"/><use transform="matrix(0.010091145833333334,0,0,0.010091145833333334,12.654296875,0)" xlink:href="#ar"/><use transform="matrix(0.010091145833333334,0,0,0.010091145833333334,20.091471354166668,0)" xlink:href="#ap"/><use transform="matrix(0.010091145833333334,0,0,0.010091145833333334,32.14029947916667,0)" xlink:href="#ax"/><use transform="matrix(0.010091145833333334,0,0,0.010091145833333334,39.183919270833336,0)" xlink:href="#ap"/><use transform="matrix(0.010091145833333334,0,0,0.010091145833333334,51.232747395833336,0)" xlink:href="#ar"/><use transform="matrix(0.010091145833333334,0,0,0.010091145833333334,59.3359375,0)" xlink:href="#ar"/><use transform="matrix(0.010091145833333334,0,0,0.010091145833333334,66.77311197916667,0)" xlink:href="#ap"/><use transform="matrix(0.010091145833333334,0,0,0.010091145833333334,78.82194010416667,0)" xlink:href="#aq"/><use transform="matrix(0.010091145833333334,0,0,0.010091145833333334,91.47623697916667,0)" xlink:href="#aH"/><use transform="matrix(0.010091145833333334,0,0,0.010091145833333334,103.2021484375,0)" xlink:href="#at"/><use transform="matrix(0.010091145833333334,0,0,0.010091145833333334,115.59407552083334,0)" xlink:href="#as"/><use transform="matrix(0.010091145833333334,0,0,0.010091145833333334,128.24837239583334,0)" xlink:href="#ak"/><use transform="matrix(0.010091145833333334,0,0,0.010091145833333334,133.25358072916669,0)" xlink:href="#ad"/><use transform="matrix(0.010091145833333334,0,0,0.010091145833333334,145.06022135416669,0)" xlink:href="#ag"/></g><path d="M180 0v-1490h528c311 0 458 177 458 395 0 191-114 278-244 313v14c139 9 302 137 302 371 0 225-148 397-499 397H180zm190-168h350c232 0 321-102 321-231 0-149-120-277-311-277H370v508zm0-668h328c160 0 286-101 286-255 0-129-87-231-280-231H370v486" id="aI"/><g id="r"><use transform="matrix(0.010091145833333334,0,0,0.010091145833333334,0,0)" xlink:href="#aq"/><use transform="matrix(0.010091145833333334,0,0,0.010091145833333334,12.654296875,0)" xlink:href="#ap"/><use transform="matrix(0.010091145833333334,0,0,0.010091145833333334,24.703125,0)" xlink:href="#ag"/><use transform="matrix(0.010091145833333334,0,0,0.010091145833333334,35.611653645833336,0)" xlink:href="#ak"/><use transform="matrix(0.010091145833333334,0,0,0.010091145833333334,40.61686197916667,0)" xlink:href="#ar"/><use transform="matrix(0.010091145833333334,0,0,0.010091145833333334,48.054036458333336,0)" xlink:href="#ap"/><use transform="matrix(0.010091145833333334,0,0,0.010091145833333334,60.102864583333336,0)" xlink:href="#aq"/><use transform="matrix(0.010091145833333334,0,0,0.010091145833333334,72.75716145833334,0)" xlink:href="#aI"/><use transform="matrix(0.010091145833333334,0,0,0.010091145833333334,86.27929687500003,0)" xlink:href="#ae"/><use transform="matrix(0.010091145833333334,0,0,0.010091145833333334,91.28450520833334,0)" xlink:href="#at"/><use transform="matrix(0.010091145833333334,0,0,0.010091145833333334,103.67643229166667,0)" xlink:href="#at"/><use transform="matrix(0.010091145833333334,0,0,0.010091145833333334,116.068359375,0)" xlink:href="#ao"/><use transform="matrix(0.010091145833333334,0,0,0.010091145833333334,134.171875,0)" xlink:href="#az"/><use transform="matrix(0.010091145833333334,0,0,0.010091145833333334,145.857421875,0)" xlink:href="#ap"/><use transform="matrix(0.010091145833333334,0,0,0.010091145833333334,157.50260416666666,0)" xlink:href="#al"/><use transform="matrix(0.010091145833333334,0,0,0.010091145833333334,168.71386718749997,0)" xlink:href="#ap"/><use transform="matrix(0.010091145833333334,0,0,0.010091145833333334,180.76269531249997,0)" xlink:href="#ae"/><use transform="matrix(0.010091145833333334,0,0,0.010091145833333334,185.76790364583331,0)" xlink:href="#ag"/></g><path d="M180 0v-1490h510c348 0 508 194 508 460 0 198-88 351-276 417L1256 0h-220L726-579c-117 2-238 0-356 1V0H180zm190-747h312c235 0 327-108 327-283 0-177-92-293-329-293H370v576" id="aJ"/><g id="s"><use transform="matrix(0.010091145833333334,0,0,0.010091145833333334,0,0)" xlink:href="#aJ"/><use transform="matrix(0.010091145833333334,0,0,0.010091145833333334,12.997395833333334,0)" xlink:href="#ap"/><use transform="matrix(0.010091145833333334,0,0,0.010091145833333334,25.046223958333336,0)" xlink:href="#ad"/><use transform="matrix(0.010091145833333334,0,0,0.010091145833333334,36.852864583333336,0)" xlink:href="#at"/><use transform="matrix(0.010091145833333334,0,0,0.010091145833333334,49.24479166666667,0)" xlink:href="#ao"/><use transform="matrix(0.010091145833333334,0,0,0.010091145833333334,67.34830729166667,0)" xlink:href="#ao"/><use transform="matrix(0.010091145833333334,0,0,0.010091145833333334,85.45182291666667,0)" xlink:href="#ap"/><use transform="matrix(0.010091145833333334,0,0,0.010091145833333334,97.50065104166667,0)" xlink:href="#an"/><use transform="matrix(0.010091145833333334,0,0,0.010091145833333334,109.7109375,0)" xlink:href="#aq"/><use transform="matrix(0.010091145833333334,0,0,0.010091145833333334,122.365234375,0)" xlink:href="#af"/><use transform="matrix(0.010091145833333334,0,0,0.010091145833333334,133.97005208333334,0)" xlink:href="#aj"/><use transform="matrix(0.010091145833333334,0,0,0.010091145833333334,140.73111979166669,0)" xlink:href="#ak"/><use transform="matrix(0.010091145833333334,0,0,0.010091145833333334,145.73632812500003,0)" xlink:href="#at"/><use transform="matrix(0.010091145833333334,0,0,0.010091145833333334,158.12825520833337,0)" xlink:href="#an"/></g><g id="t"><use transform="matrix(0.010091145833333334,0,0,0.010091145833333334,0,0)" xlink:href="#aj"/><use transform="matrix(0.010091145833333334,0,0,0.010091145833333334,6.559244791666667,0)" xlink:href="#at"/><use transform="matrix(0.010091145833333334,0,0,0.010091145833333334,18.951171875,0)" xlink:href="#aj"/><use transform="matrix(0.010091145833333334,0,0,0.010091145833333334,25.813151041666664,0)" xlink:href="#af"/><use transform="matrix(0.010091145833333334,0,0,0.010091145833333334,37.41796875,0)" xlink:href="#ae"/><use transform="matrix(0.010091145833333334,0,0,0.010091145833333334,42.423177083333336,0)" xlink:href="#aC"/><use transform="matrix(0.010091145833333334,0,0,0.010091145833333334,55.682942708333336,0)" xlink:href="#ad"/><use transform="matrix(0.010091145833333334,0,0,0.010091145833333334,67.48958333333334,0)" xlink:href="#at"/><use transform="matrix(0.010091145833333334,0,0,0.010091145833333334,79.88151041666667,0)" xlink:href="#ar"/><use transform="matrix(0.010091145833333334,0,0,0.010091145833333334,87.31868489583334,0)" xlink:href="#ap"/></g><g id="u"><use transform="matrix(0.010091145833333334,0,0,0.010091145833333334,0,0)" xlink:href="#ad"/><use transform="matrix(0.010091145833333334,0,0,0.010091145833333334,12.008463541666664,0)" xlink:href="#af"/><use transform="matrix(0.010091145833333334,0,0,0.010091145833333334,23.61328125,0)" xlink:href="#aj"/><use transform="matrix(0.010091145833333334,0,0,0.010091145833333334,30.172526041666664,0)" xlink:href="#ap"/><use transform="matrix(0.010091145833333334,0,0,0.010091145833333334,42.22135416666666,0)" xlink:href="#au"/><use transform="matrix(0.010091145833333334,0,0,0.010091145833333334,54.89583333333333,0)" xlink:href="#at"/><use transform="matrix(0.010091145833333334,0,0,0.010091145833333334,67.28776041666666,0)" xlink:href="#ar"/><use transform="matrix(0.010091145833333334,0,0,0.010091145833333334,75.39095052083333,0)" xlink:href="#am"/><use transform="matrix(0.010091145833333334,0,0,0.010091145833333334,87.005859375,0)" xlink:href="#aC"/><use transform="matrix(0.010091145833333334,0,0,0.010091145833333334,100.265625,0)" xlink:href="#ad"/><use transform="matrix(0.010091145833333334,0,0,0.010091145833333334,112.072265625,0)" xlink:href="#at"/><use transform="matrix(0.010091145833333334,0,0,0.010091145833333334,124.46419270833333,0)" xlink:href="#ar"/><use transform="matrix(0.010091145833333334,0,0,0.010091145833333334,131.9013671875,0)" xlink:href="#ap"/><use transform="matrix(0.010091145833333334,0,0,0.010091145833333334,143.9501953125,0)" xlink:href="#ag"/></g><g id="v"><use transform="matrix(0.010091145833333334,0,0,0.010091145833333334,0,0)" xlink:href="#ap"/><use transform="matrix(0.010091145833333334,0,0,0.010091145833333334,11.584635416666664,0)" xlink:href="#aw"/><use transform="matrix(0.010091145833333334,0,0,0.010091145833333334,22.866536458333336,0)" xlink:href="#as"/><use transform="matrix(0.010091145833333334,0,0,0.010091145833333334,35.520833333333336,0)" xlink:href="#ae"/><use transform="matrix(0.010091145833333334,0,0,0.010091145833333334,40.52604166666667,0)" xlink:href="#af"/><use transform="matrix(0.010091145833333334,0,0,0.010091145833333334,52.130859375,0)" xlink:href="#an"/><use transform="matrix(0.010091145833333334,0,0,0.010091145833333334,64.34114583333334,0)" xlink:href="#af"/><use transform="matrix(0.010091145833333334,0,0,0.010091145833333334,75.94596354166667,0)" xlink:href="#aj"/><use transform="matrix(0.010091145833333334,0,0,0.010091145833333334,82.70703125,0)" xlink:href="#ak"/><use transform="matrix(0.010091145833333334,0,0,0.010091145833333334,87.71223958333331,0)" xlink:href="#at"/><use transform="matrix(0.010091145833333334,0,0,0.010091145833333334,100.10416666666666,0)" xlink:href="#an"/></g><g id="w"><use transform="matrix(0.010959201388888886,0,0,0.010959201388888886,0,0)" xlink:href="#ak"/><use transform="matrix(0.010959201388888886,0,0,0.010959201388888886,5.4357638888888875,0)" xlink:href="#an"/><use transform="matrix(0.010959201388888886,0,0,0.010959201388888886,18.69639756944444,0)" xlink:href="#as"/><use transform="matrix(0.010959201388888886,0,0,0.010959201388888886,32.4392361111111,0)" xlink:href="#aA"/><use transform="matrix(0.010959201388888886,0,0,0.010959201388888886,45.71082899305554,0)" xlink:href="#aj"/><use transform="matrix(0.010959201388888886,0,0,0.010959201388888886,52.834309895833314,0)" xlink:href="#ag"/></g><path d="M646 20c-332 0-524-278-524-764 0-483 194-766 524-766s524 283 524 766c0 485-191 764-524 764zm0-166c218 0 341-220 341-598 0-380-123-601-341-601s-341 222-341 601c0 378 123 598 341 598" id="aK"/><path d="M295 13c-75 0-135-60-135-135s60-135 135-135 135 60 135 135S370 13 295 13" id="aL"/><path d="M441-652l13-317-268 171-72-126 282-146-282-146 72-128 268 171-13-317h144l-12 317 267-171 72 128-282 146 282 146-72 126-267-171 12 317H441" id="aM"/><g id="x"><use transform="matrix(0.008173828125000001,0,0,0.008173828125000001,0,0)" xlink:href="#aK"/><use transform="matrix(0.008173828125000001,0,0,0.008173828125000001,10.135546875000001,0)" xlink:href="#aL"/><use transform="matrix(0.008173828125000001,0,0,0.008173828125000001,14.958105468750002,0)" xlink:href="#aL"/><use transform="matrix(0.008173828125000001,0,0,0.008173828125000001,19.7806640625,0)" xlink:href="#aM"/></g><g id="y"><use transform="matrix(0.010959201388888886,0,0,0.010959201388888886,0,0)" xlink:href="#aq"/><use transform="matrix(0.010959201388888886,0,0,0.010959201388888886,13.742838541666664,0)" xlink:href="#ap"/><use transform="matrix(0.010959201388888886,0,0,0.010959201388888886,26.828124999999993,0)" xlink:href="#aj"/><use transform="matrix(0.010959201388888886,0,0,0.010959201388888886,33.95160590277777,0)" xlink:href="#ap"/><use transform="matrix(0.010959201388888886,0,0,0.010959201388888886,47.0368923611111,0)" xlink:href="#ar"/><use transform="matrix(0.010959201388888886,0,0,0.010959201388888886,55.83713107638888,0)" xlink:href="#ao"/><use transform="matrix(0.010959201388888886,0,0,0.010959201388888886,75.49793836805553,0)" xlink:href="#ak"/><use transform="matrix(0.010959201388888886,0,0,0.010959201388888886,80.93370225694441,0)" xlink:href="#an"/><use transform="matrix(0.010959201388888886,0,0,0.010959201388888886,94.19433593749997,0)" xlink:href="#ap"/><use transform="matrix(0.010959201388888886,0,0,0.010959201388888886,107.27962239583331,0)" xlink:href="#ag"/></g><path d="M409 0L70-1118h191c89 329 165 560 243 925 75-353 154-601 240-925h192c85 325 161 564 235 922 77-354 157-598 244-922h191L1267 0h-179c-86-307-176-590-250-913C763-588 675-308 588 0H409" id="aN"/><g id="z"><use transform="matrix(0.010959201388888886,0,0,0.010959201388888886,0,0)" xlink:href="#ay"/><use transform="matrix(0.010959201388888886,0,0,0.010959201388888886,13.742838541666664,0)" xlink:href="#ar"/><use transform="matrix(0.010959201388888886,0,0,0.010959201388888886,21.819769965277775,0)" xlink:href="#at"/><use transform="matrix(0.010959201388888886,0,0,0.010959201388888886,34.872178819444436,0)" xlink:href="#aN"/><use transform="matrix(0.010959201388888886,0,0,0.010959201388888886,53.23980034722221,0)" xlink:href="#ag"/><use transform="matrix(0.010959201388888886,0,0,0.010959201388888886,65.0866970486111,0)" xlink:href="#ap"/><use transform="matrix(0.010959201388888886,0,0,0.010959201388888886,78.17198350694443,0)" xlink:href="#ag"/></g><path d="M653-1490V0H466v-1314h-10L96-1047v-204l324-239h233" id="aO"/><g id="A"><use transform="matrix(0.008173828125000001,0,0,0.008173828125000001,0,0)" xlink:href="#aO"/><use transform="matrix(0.008173828125000001,0,0,0.008173828125000001,6.808798828125001,0)" xlink:href="#aL"/><use transform="matrix(0.008173828125000001,0,0,0.008173828125000001,11.631357421875002,0)" xlink:href="#aL"/><use transform="matrix(0.008173828125000001,0,0,0.008173828125000001,16.453916015625,0)" xlink:href="#aM"/></g><g id="B"><use transform="matrix(0.010091145833333334,0,0,0.010091145833333334,0,0)" xlink:href="#ac"/><use transform="matrix(0.010091145833333334,0,0,0.010091145833333334,12.038736979166668,0)" xlink:href="#ad"/><use transform="matrix(0.010091145833333334,0,0,0.010091145833333334,23.845377604166668,0)" xlink:href="#ae"/><use transform="matrix(0.010091145833333334,0,0,0.010091145833333334,28.8505859375,0)" xlink:href="#af"/><use transform="matrix(0.010091145833333334,0,0,0.010091145833333334,40.455403645833336,0)" xlink:href="#ag"/><use transform="matrix(0.010091145833333334,0,0,0.010091145833333334,51.36393229166667,0)" xlink:href="#ag"/><use transform="matrix(0.010091145833333334,0,0,0.010091145833333334,62.27246093750001,0)" xlink:href="#ah"/></g><path d="M180 0v-1490h510c348 0 508 209 508 474 0 266-160 477-507 477H370V0H180zm190-706h312c236 0 327-133 327-310 0-176-91-307-329-307H370v617" id="aP"/><g id="C"><use transform="matrix(0.010091145833333334,0,0,0.010091145833333334,0,0)" xlink:href="#aP"/><use transform="matrix(0.010091145833333334,0,0,0.010091145833333334,13.19921875,0)" xlink:href="#aF"/><use transform="matrix(0.010091145833333334,0,0,0.010091145833333334,28.113932291666668,0)" xlink:href="#aG"/></g><g id="D"><use transform="matrix(0.010091145833333334,0,0,0.010091145833333334,0,0)" xlink:href="#ax"/><use transform="matrix(0.010091145833333334,0,0,0.010091145833333334,7.649088541666667,0)" xlink:href="#ak"/><use transform="matrix(0.010091145833333334,0,0,0.010091145833333334,12.654296875,0)" xlink:href="#ae"/><use transform="matrix(0.010091145833333334,0,0,0.010091145833333334,17.659505208333336,0)" xlink:href="#ap"/><use transform="matrix(0.010091145833333334,0,0,0.010091145833333334,29.708333333333336,0)" xlink:href="#an"/><use transform="matrix(0.010091145833333334,0,0,0.010091145833333334,41.91861979166667,0)" xlink:href="#af"/><use transform="matrix(0.010091145833333334,0,0,0.010091145833333334,53.5234375,0)" xlink:href="#ao"/><use transform="matrix(0.010091145833333334,0,0,0.010091145833333334,71.626953125,0)" xlink:href="#ap"/></g><use transform="matrix(0.008173828125000001,0,0,0.008173828125000001,0,0)" xlink:href="#aO" id="E"/><path d="M158 0v-1490h180v865h22l478-493h223L593-638 1096 0H865L456-523 338-412V0H158" id="aQ"/><g id="F"><use transform="matrix(0.010091145833333334,0,0,0.010091145833333334,0,0)" xlink:href="#aI"/><use transform="matrix(0.010091145833333334,0,0,0.010091145833333334,13.522135416666668,0)" xlink:href="#ar"/><use transform="matrix(0.010091145833333334,0,0,0.010091145833333334,20.959309895833336,0)" xlink:href="#ap"/><use transform="matrix(0.010091145833333334,0,0,0.010091145833333334,33.2099609375,0)" xlink:href="#af"/><use transform="matrix(0.010091145833333334,0,0,0.010091145833333334,44.814778645833336,0)" xlink:href="#aQ"/></g><g id="G"><use transform="matrix(0.010091145833333334,0,0,0.010091145833333334,0,0)" xlink:href="#aq"/><use transform="matrix(0.010091145833333334,0,0,0.010091145833333334,12.654296875,0)" xlink:href="#aA"/><use transform="matrix(0.010091145833333334,0,0,0.010091145833333334,24.874674479166668,0)" xlink:href="#ar"/><use transform="matrix(0.010091145833333334,0,0,0.010091145833333334,32.65494791666667,0)" xlink:href="#af"/><use transform="matrix(0.010091145833333334,0,0,0.010091145833333334,44.259765625,0)" xlink:href="#aj"/><use transform="matrix(0.010091145833333334,0,0,0.010091145833333334,51.02083333333334,0)" xlink:href="#ak"/><use transform="matrix(0.010091145833333334,0,0,0.010091145833333334,56.02604166666668,0)" xlink:href="#at"/><use transform="matrix(0.010091145833333334,0,0,0.010091145833333334,68.41796875000001,0)" xlink:href="#an"/></g><g id="H"><use transform="matrix(0.010091145833333334,0,0,0.010091145833333334,0,0)" xlink:href="#aq"/><use transform="matrix(0.010091145833333334,0,0,0.010091145833333334,12.654296875,0)" xlink:href="#ap"/><use transform="matrix(0.010091145833333334,0,0,0.010091145833333334,24.703125,0)" xlink:href="#ag"/><use transform="matrix(0.010091145833333334,0,0,0.010091145833333334,35.611653645833336,0)" xlink:href="#ad"/><use transform="matrix(0.010091145833333334,0,0,0.010091145833333334,47.418294270833336,0)" xlink:href="#ar"/><use transform="matrix(0.010091145833333334,0,0,0.010091145833333334,55.521484375,0)" xlink:href="#ak"/><use transform="matrix(0.010091145833333334,0,0,0.010091145833333334,60.526692708333336,0)" xlink:href="#as"/><use transform="matrix(0.010091145833333334,0,0,0.010091145833333334,73.18098958333334,0)" xlink:href="#aj"/><use transform="matrix(0.010091145833333334,0,0,0.010091145833333334,79.94205729166667,0)" xlink:href="#ak"/><use transform="matrix(0.010091145833333334,0,0,0.010091145833333334,84.947265625,0)" xlink:href="#at"/><use transform="matrix(0.010091145833333334,0,0,0.010091145833333334,97.33919270833331,0)" xlink:href="#an"/></g><path fill="#282c33" d="M158 0v-1118h180V0H158zm91-1301c-68 0-125-53-125-119s57-119 125-119c69 0 126 53 126 119s-57 119-126 119" id="aR"/><path fill="#282c33" d="M338-670V0H158v-1118h173l1 207c72-158 192-221 342-221 226 0 378 139 378 422V0H872v-695c0-172-96-275-252-275-161 0-282 109-282 300" id="aS"/><path fill="#282c33" d="M598-1118v154H368v674c0 100 37 144 132 144 23 0 62-6 92-12L629-6c-37 13-88 20-134 20-193 0-307-107-307-290v-688H20v-154h168v-266h180v266h230" id="aT"/><path fill="#282c33" d="M628 24c-324 0-524-230-524-574 0-343 198-582 503-582 237 0 487 146 487 559v75H286c9 234 145 362 343 362 132 0 231-58 273-172l174 48C1024-91 857 24 628 24zM287-650h624c-17-190-120-322-304-322-192 0-309 151-320 322" id="aU"/><path fill="#282c33" d="M158 0v-1118h174v172h12c41-113 157-188 290-188 26 0 70 2 91 3v181c-11-2-60-10-108-10-161 0-279 109-279 260V0H158" id="aV"/><path fill="#282c33" d="M678-1118v154H420V0H240v-964H20v-154h220v-149c0-194 155-293 318-293 85 0 141 18 168 30l-50 154c-19-6-47-17-97-17-111 0-159 58-159 166v109h258" id="aW"/><path fill="#282c33" d="M471 26C259 26 90-98 90-318c0-256 228-303 435-329 202-27 287-16 287-108 0-139-79-219-234-219-161 0-248 86-283 164l-173-57c86-203 278-265 451-265 150 0 419 46 419 395V0H815v-152h-12C765-73 660 26 471 26zm31-159c199 0 310-134 310-271v-155c-30 35-226 55-295 64-131 17-246 59-246 186 0 116 97 176 231 176" id="aX"/><path fill="#282c33" d="M613 24c-304 0-509-231-509-576 0-350 205-580 509-580 216 0 392 114 453 309l-173 49c-33-115-133-197-280-197-223 0-326 196-326 419 0 220 103 415 326 415 150 0 252-85 285-206l172 49C1010-95 832 24 613 24" id="aY"/><g id="I"><use transform="matrix(0.010091145833333334,0,0,0.010091145833333334,0,0)" xlink:href="#ac"/><use transform="matrix(0.010091145833333334,0,0,0.010091145833333334,12.038736979166668,0)" xlink:href="#aR"/><use transform="matrix(0.010091145833333334,0,0,0.010091145833333334,17.0439453125,0)" xlink:href="#aS"/><use transform="matrix(0.010091145833333334,0,0,0.010091145833333334,29.254231770833336,0)" xlink:href="#aT"/><use transform="matrix(0.010091145833333334,0,0,0.010091145833333334,35.8134765625,0)" xlink:href="#aU"/><use transform="matrix(0.010091145833333334,0,0,0.010091145833333334,47.8623046875,0)" xlink:href="#aV"/><use transform="matrix(0.010091145833333334,0,0,0.010091145833333334,55.96549479166666,0)" xlink:href="#aW"/><use transform="matrix(0.010091145833333334,0,0,0.010091145833333334,63.291666666666664,0)" xlink:href="#aX"/><use transform="matrix(0.010091145833333334,0,0,0.010091145833333334,74.896484375,0)" xlink:href="#aY"/><use transform="matrix(0.010091145833333334,0,0,0.010091145833333334,86.703125,0)" xlink:href="#aU"/><use transform="matrix(0.010091145833333334,0,0,0.010091145833333334,98.751953125,0)" xlink:href="#ah"/></g><path d="M370-1490V0H180v-1490h190" id="aZ"/><g id="J"><use transform="matrix(0.010091145833333334,0,0,0.010091145833333334,0,0)" xlink:href="#az"/><use transform="matrix(0.010091145833333334,0,0,0.010091145833333334,11.685546875,0)" xlink:href="#ap"/><use transform="matrix(0.010091145833333334,0,0,0.010091145833333334,23.734375,0)" xlink:href="#ag"/><use transform="matrix(0.010091145833333334,0,0,0.010091145833333334,34.642903645833336,0)" xlink:href="#ag"/><use transform="matrix(0.010091145833333334,0,0,0.010091145833333334,45.55143229166667,0)" xlink:href="#at"/><use transform="matrix(0.010091145833333334,0,0,0.010091145833333334,57.943359375,0)" xlink:href="#an"/><use transform="matrix(0.010091145833333334,0,0,0.010091145833333334,70.15364583333334,0)" xlink:href="#aP"/><use transform="matrix(0.010091145833333334,0,0,0.010091145833333334,83.35286458333334,0)" xlink:href="#ae"/><use transform="matrix(0.010091145833333334,0,0,0.010091145833333334,88.35807291666667,0)" xlink:href="#af"/><use transform="matrix(0.010091145833333334,0,0,0.010091145833333334,99.962890625,0)" xlink:href="#an"/><use transform="matrix(0.010091145833333334,0,0,0.010091145833333334,112.17317708333331,0)" xlink:href="#aZ"/><use transform="matrix(0.010091145833333334,0,0,0.010091145833333334,118.02604166666666,0)" xlink:href="#aj"/><use transform="matrix(0.010091145833333334,0,0,0.010091145833333334,124.58528645833333,0)" xlink:href="#ap"/><use transform="matrix(0.010091145833333334,0,0,0.010091145833333334,136.63411458333331,0)" xlink:href="#ao"/></g><g id="K"><use transform="matrix(0.010091145833333334,0,0,0.010091145833333334,0,0)" xlink:href="#aG"/><use transform="matrix(0.010091145833333334,0,0,0.010091145833333334,11.695638020833334,0)" xlink:href="#af"/><use transform="matrix(0.010091145833333334,0,0,0.010091145833333334,22.997721354166668,0)" xlink:href="#al"/><use transform="matrix(0.010091145833333334,0,0,0.010091145833333334,34.208984375,0)" xlink:href="#at"/><use transform="matrix(0.010091145833333334,0,0,0.010091145833333334,46.600911458333336,0)" xlink:href="#aA"/><use transform="matrix(0.010091145833333334,0,0,0.010091145833333334,58.8212890625,0)" xlink:href="#ar"/><use transform="matrix(0.010091145833333334,0,0,0.010091145833333334,66.92447916666667,0)" xlink:href="#ak"/><use transform="matrix(0.010091145833333334,0,0,0.010091145833333334,71.9296875,0)" xlink:href="#aj"/><use transform="matrix(0.010091145833333334,0,0,0.010091145833333334,78.48893229166666,0)" xlink:href="#ap"/></g><g id="L"><use transform="matrix(0.010091145833333334,0,0,0.010091145833333334,0,0)" xlink:href="#an"/><use transform="matrix(0.010091145833333334,0,0,0.010091145833333334,12.210286458333334,0)" xlink:href="#af"/><use transform="matrix(0.010091145833333334,0,0,0.010091145833333334,23.815104166666668,0)" xlink:href="#ao"/><use transform="matrix(0.010091145833333334,0,0,0.010091145833333334,41.91861979166667,0)" xlink:href="#ap"/></g><g id="M"><use transform="matrix(0.010959201388888886,0,0,0.010959201388888886,0,0)" xlink:href="#ag"/><use transform="matrix(0.010959201388888886,0,0,0.010959201388888886,11.846896701388886,0)" xlink:href="#af"/><use transform="matrix(0.010959201388888886,0,0,0.010959201388888886,24.12120225694444,0)" xlink:href="#al"/><use transform="matrix(0.010959201388888886,0,0,0.010959201388888886,36.29687499999999,0)" xlink:href="#ap"/><use transform="matrix(0.010959201388888886,0,0,0.010959201388888886,49.38216145833332,0)" xlink:href="#ag"/></g><g id="N"><use transform="matrix(0.010959201388888886,0,0,0.010959201388888886,0,0)" xlink:href="#ar"/><use transform="matrix(0.010959201388888886,0,0,0.010959201388888886,8.07693142361111,0)" xlink:href="#ap"/><use transform="matrix(0.010959201388888886,0,0,0.010959201388888886,21.162217881944443,0)" xlink:href="#ax"/><use transform="matrix(0.010959201388888886,0,0,0.010959201388888886,28.811740451388886,0)" xlink:href="#ap"/><use transform="matrix(0.010959201388888886,0,0,0.010959201388888886,41.897026909722214,0)" xlink:href="#ar"/><use transform="matrix(0.010959201388888886,0,0,0.010959201388888886,49.97395833333333,0)" xlink:href="#ap"/><use transform="matrix(0.010959201388888886,0,0,0.010959201388888886,63.05924479166665,0)" xlink:href="#an"/><use transform="matrix(0.010959201388888886,0,0,0.010959201388888886,76.31987847222221,0)" xlink:href="#ad"/><use transform="matrix(0.010959201388888886,0,0,0.010959201388888886,89.14214409722221,0)" xlink:href="#ap"/><use transform="matrix(0.010959201388888886,0,0,0.010959201388888886,102.22743055555556,0)" xlink:href="#ag"/></g><g id="O"><use transform="matrix(0.010959201388888886,0,0,0.010959201388888886,0,0)" xlink:href="#aj"/><use transform="matrix(0.010959201388888886,0,0,0.010959201388888886,7.342664930555554,0)" xlink:href="#ar"/><use transform="matrix(0.010959201388888886,0,0,0.010959201388888886,16.14290364583333,0)" xlink:href="#ak"/><use transform="matrix(0.010959201388888886,0,0,0.010959201388888886,21.578667534722214,0)" xlink:href="#au"/><use transform="matrix(0.010959201388888886,0,0,0.010959201388888886,35.34342447916666,0)" xlink:href="#au"/><use transform="matrix(0.010959201388888886,0,0,0.010959201388888886,49.1081814236111,0)" xlink:href="#ap"/><use transform="matrix(0.010959201388888886,0,0,0.010959201388888886,62.19346788194443,0)" xlink:href="#ar"/><use transform="matrix(0.010959201388888886,0,0,0.010959201388888886,70.64301215277776,0)" xlink:href="#ag"/></g><path d="M154 0v-137l495-537c165-179 249-281 249-418 0-156-121-253-280-253-170 0-278 110-278 278H158c0-264 200-443 465-443 266 0 455 183 455 416 0 161-73 288-336 568L416-179v12h687V0H154" id="ba"/><g id="P"><use transform="matrix(0.008173828125000001,0,0,0.008173828125000001,0,0)" xlink:href="#aO"/><use transform="matrix(0.008173828125000001,0,0,0.008173828125000001,6.808798828125001,0)" xlink:href="#aL"/><use transform="matrix(0.008173828125000001,0,0,0.008173828125000001,11.631357421875002,0)" xlink:href="#aL"/><use transform="matrix(0.008173828125000001,0,0,0.008173828125000001,16.453916015625,0)" xlink:href="#ba"/></g><g id="Q"><use transform="matrix(0.008173828125000001,0,0,0.008173828125000001,0,0)" xlink:href="#aK"/><use transform="matrix(0.008173828125000001,0,0,0.008173828125000001,10.135546875000001,0)" xlink:href="#aL"/><use transform="matrix(0.008173828125000001,0,0,0.008173828125000001,14.958105468750002,0)" xlink:href="#aL"/><use transform="matrix(0.008173828125000001,0,0,0.008173828125000001,19.7806640625,0)" xlink:href="#ba"/></g><g id="R"><use transform="matrix(0.010091145833333334,0,0,0.010091145833333334,0,0)" xlink:href="#ac"/><use transform="matrix(0.010091145833333334,0,0,0.010091145833333334,12.038736979166668,0)" xlink:href="#ad"/><use transform="matrix(0.010091145833333334,0,0,0.010091145833333334,23.845377604166668,0)" xlink:href="#ae"/><use transform="matrix(0.010091145833333334,0,0,0.010091145833333334,28.8505859375,0)" xlink:href="#af"/><use transform="matrix(0.010091145833333334,0,0,0.010091145833333334,40.455403645833336,0)" xlink:href="#ag"/><use transform="matrix(0.010091145833333334,0,0,0.010091145833333334,51.36393229166667,0)" xlink:href="#ag"/><use transform="matrix(0.010091145833333334,0,0,0.010091145833333334,62.27246093750001,0)" xlink:href="#ah"/></g><path d="M763 24c-353 0-583-224-583-531v-983h190v968c0 214 149 370 393 370 243 0 391-156 391-370v-968h190v983c0 307-230 531-581 531" id="bb"/><g id="S"><use transform="matrix(0.010091145833333334,0,0,0.010091145833333334,0,0)" xlink:href="#bb"/><use transform="matrix(0.010091145833333334,0,0,0.010091145833333334,15.37890625,0)" xlink:href="#ag"/><use transform="matrix(0.010091145833333334,0,0,0.010091145833333334,26.287434895833336,0)" xlink:href="#ap"/><use transform="matrix(0.010091145833333334,0,0,0.010091145833333334,38.336263020833336,0)" xlink:href="#ar"/></g><g id="T"><use transform="matrix(0.010091145833333334,0,0,0.010091145833333334,0,0)" xlink:href="#ap"/><use transform="matrix(0.010091145833333334,0,0,0.010091145833333334,12.048828125,0)" xlink:href="#ao"/><use transform="matrix(0.010091145833333334,0,0,0.010091145833333334,30.15234375,0)" xlink:href="#af"/><use transform="matrix(0.010091145833333334,0,0,0.010091145833333334,41.757161458333336,0)" xlink:href="#ak"/><use transform="matrix(0.010091145833333334,0,0,0.010091145833333334,46.76236979166667,0)" xlink:href="#ae"/></g><g id="U"><use transform="matrix(0.010091145833333334,0,0,0.010091145833333334,0,0)" xlink:href="#ar"/><use transform="matrix(0.010091145833333334,0,0,0.010091145833333334,7.437174479166668,0)" xlink:href="#at"/><use transform="matrix(0.010091145833333334,0,0,0.010091145833333334,19.8291015625,0)" xlink:href="#ae"/><use transform="matrix(0.010091145833333334,0,0,0.010091145833333334,24.834309895833336,0)" xlink:href="#ap"/></g><path d="M593-100v-404H195v-159h398v-403h169v403h398v159H762v404H593" id="bc"/><use transform="matrix(0.010850694444444444,0,0,0.010850694444444444,0,0)" xlink:href="#bc" id="V"/><path d="M218-607c0-325 108-727 258-974h175c-155 315-250 682-250 974 0 265 78 531 250 886H476C306-10 218-315 218-607" id="bd"/><path d="M96 279C273-86 346-350 346-607c0-292-95-659-250-974h175c150 246 258 650 258 974 0 297-91 602-258 886H96" id="be"/><g id="W"><use transform="matrix(0.010850694444444444,0,0,0.010850694444444444,0,0)" xlink:href="#au"/><use transform="matrix(0.010850694444444444,0,0,0.010850694444444444,13.628472222222221,0)" xlink:href="#ap"/><use transform="matrix(0.010850694444444444,0,0,0.010850694444444444,26.58420138888889,0)" xlink:href="#aj"/><use transform="matrix(0.010850694444444444,0,0,0.010850694444444444,33.854166666666664,0)" xlink:href="#aJ"/><use transform="matrix(0.010850694444444444,0,0,0.010850694444444444,47.82986111111111,0)" xlink:href="#ap"/><use transform="matrix(0.010850694444444444,0,0,0.010850694444444444,60.78559027777778,0)" xlink:href="#ad"/><use transform="matrix(0.010850694444444444,0,0,0.010850694444444444,73.48090277777777,0)" xlink:href="#at"/><use transform="matrix(0.010850694444444444,0,0,0.010850694444444444,86.80555555555554,0)" xlink:href="#ao"/><use transform="matrix(0.010850694444444444,0,0,0.010850694444444444,106.27170138888887,0)" xlink:href="#ao"/><use transform="matrix(0.010850694444444444,0,0,0.010850694444444444,125.7378472222222,0)" xlink:href="#ap"/><use transform="matrix(0.010850694444444444,0,0,0.010850694444444444,138.69357638888886,0)" xlink:href="#an"/><use transform="matrix(0.010850694444444444,0,0,0.010850694444444444,151.82291666666663,0)" xlink:href="#aq"/><use transform="matrix(0.010850694444444444,0,0,0.010850694444444444,165.42968749999997,0)" xlink:href="#af"/><use transform="matrix(0.010850694444444444,0,0,0.010850694444444444,177.90798611111111,0)" xlink:href="#aj"/><use transform="matrix(0.010850694444444444,0,0,0.010850694444444444,185.17795138888883,0)" xlink:href="#ak"/><use transform="matrix(0.010850694444444444,0,0,0.010850694444444444,190.55989583333331,0)" xlink:href="#at"/><use transform="matrix(0.010850694444444444,0,0,0.010850694444444444,203.88454861111111,0)" xlink:href="#an"/><use transform="matrix(0.010850694444444444,0,0,0.010850694444444444,217.01388888888883,0)" xlink:href="#ag"/><use transform="matrix(0.010850694444444444,0,0,0.010850694444444444,228.74348958333331,0)" xlink:href="#bd"/><use transform="matrix(0.010850694444444444,0,0,0.010850694444444444,236.84895833333331,0)" xlink:href="#be"/></g><use transform="matrix(0.010850694444444444,0,0,0.010850694444444444,0,0)" xlink:href="#bc" id="X"/><g id="Y"><use transform="matrix(0.010850694444444444,0,0,0.010850694444444444,0,0)" xlink:href="#ay"/><use transform="matrix(0.010850694444444444,0,0,0.010850694444444444,13.606770833333332,0)" xlink:href="#ar"/><use transform="matrix(0.010850694444444444,0,0,0.010850694444444444,21.603732638888886,0)" xlink:href="#at"/><use transform="matrix(0.010850694444444444,0,0,0.010850694444444444,34.52690972222222,0)" xlink:href="#aN"/><use transform="matrix(0.010850694444444444,0,0,0.010850694444444444,52.71267361111112,0)" xlink:href="#ag"/><use transform="matrix(0.010850694444444444,0,0,0.010850694444444444,64.44227430555556,0)" xlink:href="#ap"/><use transform="matrix(0.010850694444444444,0,0,0.010850694444444444,76.64930555555556,0)" xlink:href="#ai"/><use transform="matrix(0.010850694444444444,0,0,0.010850694444444444,91.98133680555556,0)" xlink:href="#ad"/><use transform="matrix(0.010850694444444444,0,0,0.010850694444444444,104.67664930555556,0)" xlink:href="#aj"/><use transform="matrix(0.010850694444444444,0,0,0.010850694444444444,111.94661458333333,0)" xlink:href="#ak"/><use transform="matrix(0.010850694444444444,0,0,0.010850694444444444,117.32855902777777,0)" xlink:href="#al"/><use transform="matrix(0.010850694444444444,0,0,0.010850694444444444,129.81770833333331,0)" xlink:href="#ak"/><use transform="matrix(0.010850694444444444,0,0,0.010850694444444444,135.19965277777777,0)" xlink:href="#aj"/><use transform="matrix(0.010850694444444444,0,0,0.010850694444444444,142.46961805555554,0)" xlink:href="#ak"/><use transform="matrix(0.010850694444444444,0,0,0.010850694444444444,147.8515625,0)" xlink:href="#ap"/><use transform="matrix(0.010850694444444444,0,0,0.010850694444444444,160.80729166666666,0)" xlink:href="#ag"/><use transform="matrix(0.010850694444444444,0,0,0.010850694444444444,172.53689236111111,0)" xlink:href="#bd"/><use transform="matrix(0.010850694444444444,0,0,0.010850694444444444,180.64236111111111,0)" xlink:href="#be"/></g><g id="Z"><use transform="matrix(0.010850694444444444,0,0,0.010850694444444444,0,0)" xlink:href="#ag"/><use transform="matrix(0.010850694444444444,0,0,0.010850694444444444,11.729600694444445,0)" xlink:href="#af"/><use transform="matrix(0.010850694444444444,0,0,0.010850694444444444,23.88237847222222,0)" xlink:href="#al"/><use transform="matrix(0.010850694444444444,0,0,0.010850694444444444,35.9375,0)" xlink:href="#ap"/><use transform="matrix(0.010850694444444444,0,0,0.010850694444444444,48.893229166666664,0)" xlink:href="#aG"/><use transform="matrix(0.010850694444444444,0,0,0.010850694444444444,61.46918402777778,0)" xlink:href="#af"/><use transform="matrix(0.010850694444444444,0,0,0.010850694444444444,73.62196180555554,0)" xlink:href="#al"/><use transform="matrix(0.010850694444444444,0,0,0.010850694444444444,85.67708333333333,0)" xlink:href="#at"/><use transform="matrix(0.010850694444444444,0,0,0.010850694444444444,99.00173611111111,0)" xlink:href="#aA"/><use transform="matrix(0.010850694444444444,0,0,0.010850694444444444,112.14192708333331,0)" xlink:href="#ar"/><use transform="matrix(0.010850694444444444,0,0,0.010850694444444444,120.85503472222221,0)" xlink:href="#ak"/><use transform="matrix(0.010850694444444444,0,0,0.010850694444444444,126.23697916666666,0)" xlink:href="#aj"/><use transform="matrix(0.010850694444444444,0,0,0.010850694444444444,133.28993055555554,0)" xlink:href="#ap"/><use transform="matrix(0.010850694444444444,0,0,0.010850694444444444,146.2456597222222,0)" xlink:href="#bd"/><use transform="matrix(0.010850694444444444,0,0,0.010850694444444444,154.3511284722222,0)" xlink:href="#be"/></g><g id="aa"><use transform="matrix(0.010850694444444444,0,0,0.010850694444444444,0,0)" xlink:href="#al"/><use transform="matrix(0.010850694444444444,0,0,0.010850694444444444,12.489149305555555,0)" xlink:href="#ak"/><use transform="matrix(0.010850694444444444,0,0,0.010850694444444444,17.87109375,0)" xlink:href="#ap"/><use transform="matrix(0.010850694444444444,0,0,0.010850694444444444,30.42534722222222,0)" xlink:href="#aN"/><use transform="matrix(0.010850694444444444,0,0,0.010850694444444444,48.61111111111111,0)" xlink:href="#aG"/><use transform="matrix(0.010850694444444444,0,0,0.010850694444444444,61.18706597222223,0)" xlink:href="#af"/><use transform="matrix(0.010850694444444444,0,0,0.010850694444444444,73.33984375,0)" xlink:href="#al"/><use transform="matrix(0.010850694444444444,0,0,0.010850694444444444,85.39496527777779,0)" xlink:href="#at"/><use transform="matrix(0.010850694444444444,0,0,0.010850694444444444,98.71961805555556,0)" xlink:href="#aA"/><use transform="matrix(0.010850694444444444,0,0,0.010850694444444444,111.85980902777777,0)" xlink:href="#ar"/><use transform="matrix(0.010850694444444444,0,0,0.010850694444444444,120.57291666666666,0)" xlink:href="#ak"/><use transform="matrix(0.010850694444444444,0,0,0.010850694444444444,125.9548611111111,0)" xlink:href="#aj"/><use transform="matrix(0.010850694444444444,0,0,0.010850694444444444,133.0078125,0)" xlink:href="#ap"/><use transform="matrix(0.010850694444444444,0,0,0.010850694444444444,145.96354166666666,0)" xlink:href="#ag"/><use transform="matrix(0.010850694444444444,0,0,0.010850694444444444,157.69314236111111,0)" xlink:href="#bd"/><use transform="matrix(0.010850694444444444,0,0,0.010850694444444444,165.79861111111111,0)" xlink:href="#be"/></g><path d="M180 0v-1490h190v644h782v-644h190V0h-190v-678H370V0H180" id="bf"/><g id="ab"><use transform="matrix(0.010850694444444444,0,0,0.010850694444444444,0,0)" xlink:href="#al"/><use transform="matrix(0.010850694444444444,0,0,0.010850694444444444,12.489149305555555,0)" xlink:href="#ak"/><use transform="matrix(0.010850694444444444,0,0,0.010850694444444444,17.87109375,0)" xlink:href="#ap"/><use transform="matrix(0.010850694444444444,0,0,0.010850694444444444,30.42534722222222,0)" xlink:href="#aN"/><use transform="matrix(0.010850694444444444,0,0,0.010850694444444444,48.61111111111111,0)" xlink:href="#aC"/><use transform="matrix(0.010850694444444444,0,0,0.010850694444444444,62.86892361111112,0)" xlink:href="#ap"/><use transform="matrix(0.010850694444444444,0,0,0.010850694444444444,76.04166666666667,0)" xlink:href="#af"/><use transform="matrix(0.010850694444444444,0,0,0.010850694444444444,88.51996527777779,0)" xlink:href="#ar"/><use transform="matrix(0.010850694444444444,0,0,0.010850694444444444,96.51692708333334,0)" xlink:href="#ad"/><use transform="matrix(0.010850694444444444,0,0,0.010850694444444444,109.21223958333334,0)" xlink:href="#aD"/><use transform="matrix(0.010850694444444444,0,0,0.010850694444444444,122.35243055555557,0)" xlink:href="#bf"/><use transform="matrix(0.010850694444444444,0,0,0.010850694444444444,138.8671875,0)" xlink:href="#ak"/><use transform="matrix(0.010850694444444444,0,0,0.010850694444444444,144.24913194444446,0)" xlink:href="#ag"/><use transform="matrix(0.010850694444444444,0,0,0.010850694444444444,155.9787326388889,0)" xlink:href="#aj"/><use transform="matrix(0.010850694444444444,0,0,0.010850694444444444,163.0316840277778,0)" xlink:href="#at"/><use transform="matrix(0.010850694444444444,0,0,0.010850694444444444,176.35633680555557,0)" xlink:href="#ar"/><use transform="matrix(0.010850694444444444,0,0,0.010850694444444444,185.06944444444443,0)" xlink:href="#am"/><use transform="matrix(0.010850694444444444,0,0,0.010850694444444444,197.55859375,0)" xlink:href="#bd"/><use transform="matrix(0.010850694444444444,0,0,0.010850694444444444,205.6640625,0)" xlink:href="#be"/></g></defs></g></svg>